<svg width="2360pt" height="357pt" viewBox="0.00 0.00 2360.00 357.00" xmlns="http://www.w3.org/2000/svg" xmlns:xlink="http://www.w3.org/1999/xlink">
<g id="graph0" class="graph" transform="scale(1 1) rotate(0) translate(4 352.62)">
<polygon fill="white" stroke="none" points="-4,4 -4,-352.62 2356,-352.62 2356,4 -4,4"/>
<g id="clust1" class="cluster">
<title>cluster_buffer</title>
<polygon fill="none" stroke="lightgray" points="1466.34,-80 1466.34,-156.8 1740.34,-156.8 1740.34,-80 1466.34,-80"/>
<text xml:space="preserve" text-anchor="middle" x="1603.34" y="-140.2" font-family="Times,serif" font-size="14.00">buffer</text>
</g>
<g id="clust2" class="cluster">
<title>cluster_helper</title>
<polygon fill="none" stroke="lightgray" points="873.34,-8 873.34,-156.8 999.34,-156.8 999.34,-8 873.34,-8"/>
<text xml:space="preserve" text-anchor="middle" x="936.34" y="-140.2" font-family="Times,serif" font-size="14.00">helper</text>
</g>
<g id="clust3" class="cluster">
<title>cluster_codec</title>
<polygon fill="none" stroke="lightgray" points="39.34,-164.8 39.34,-313.6 263.34,-313.6 263.34,-164.8 39.34,-164.8"/>
<text xml:space="preserve" text-anchor="middle" x="151.34" y="-297" font-family="Times,serif" font-size="14.00">codec</text>
</g>
<g id="clust4" class="cluster">
<title>cluster_extensions</title>
<polygon fill="none" stroke="lightgray" points="457.34,-236.8 457.34,-313.6 1083.34,-313.6 1083.34,-236.8 457.34,-236.8"/>
<text xml:space="preserve" text-anchor="middle" x="770.34" y="-297" font-family="Times,serif" font-size="14.00">extensions</text>
</g>
<g id="clust5" class="cluster">
<title>cluster_math</title>
<polygon fill="none" stroke="lightgray" points="303.34,-164.8 303.34,-313.6 449.34,-313.6 449.34,-164.8 303.34,-164.8"/>
<text xml:space="preserve" text-anchor="middle" x="376.34" y="-297" font-family="Times,serif" font-size="14.00">math</text>
</g>
<g id="clust6" class="cluster">
<title>cluster_windowing</title>
<polygon fill="none" stroke="lightgray" points="1754.34,-164.8 1754.34,-313.6 2262.34,-313.6 2262.34,-164.8 1754.34,-164.8"/>
<text xml:space="preserve" text-anchor="middle" x="2008.34" y="-297" font-family="Times,serif" font-size="14.00">windowing</text>
</g>
<!-- mirl_buffer -->
<g id="node1" class="node">
<title>mirl_buffer</title>
<polygon fill="none" stroke="black" points="1554.6,-124 1474.07,-124 1474.07,-88 1554.6,-88 1554.6,-124"/>
<text xml:space="preserve" text-anchor="middle" x="1514.34" y="-101.8" font-family="Times,serif" font-size="14.00">mirl_buffer</text>
</g>
<!-- mirl_build_tools -->
<g id="node3" class="node">
<title>mirl_build_tools</title>
<polygon fill="none" stroke="black" points="991.01,-124 881.67,-124 881.67,-88 991.01,-88 991.01,-124"/>
<text xml:space="preserve" text-anchor="middle" x="936.34" y="-101.8" font-family="Times,serif" font-size="14.00">mirl_build_tools</text>
</g>
<!-- mirl_buffer&#45;&gt;mirl_build_tools -->
<g id="edge6" class="edge">
<title>mirl_buffer-&gt;mirl_build_tools</title>
<path fill="none" stroke="#00cd00" d="M1497.75,-124.36C1483.61,-138.27 1461.89,-155.8 1438.34,-160.8 1418.56,-165 1276.49,-162.51 1256.34,-160.8 1167.86,-153.28 1067.09,-134.26 1002.67,-120.75"/>
<polygon fill="#00cd00" stroke="#00cd00" points="1003.46,-117.33 992.95,-118.69 1002.01,-124.18 1003.46,-117.33"/>
</g>
<!-- mirl_derive -->
<g id="node4" class="node">
<title>mirl_derive</title>
<polygon fill="none" stroke="#0000ee" points="990.99,-52 909.68,-52 909.68,-16 990.99,-16 990.99,-52"/>
<text xml:space="preserve" text-anchor="middle" x="950.34" y="-29.8" font-family="Times,serif" font-size="14.00">mirl_derive</text>
</g>
<!-- mirl_buffer&#45;&gt;mirl_derive -->
<g id="edge5" class="edge">
<title>mirl_buffer-&gt;mirl_derive</title>
<path fill="none" stroke="black" stroke-dasharray="1,5" d="M1473.77,-87.89C1465.17,-84.83 1456.06,-81.98 1447.34,-80 1288.11,-43.77 1093.93,-36.5 1002.58,-35.18"/>
<polygon fill="black" stroke="black" points="1002.73,-31.68 992.69,-35.06 1002.64,-38.68 1002.73,-31.68"/>
</g>
<!-- mirl_buffer_interpolation -->
<g id="node2" class="node">
<title>mirl_buffer_interpolation</title>
<polygon fill="none" stroke="black" points="1731.87,-124 1572.8,-124 1572.8,-88 1731.87,-88 1731.87,-124"/>
<text xml:space="preserve" text-anchor="middle" x="1652.34" y="-101.8" font-family="Times,serif" font-size="14.00">mirl_buffer_interpolation</text>
</g>
<!-- mirl_buffer_interpolation&#45;&gt;mirl_build_tools -->
<g id="edge9" class="edge">
<title>mirl_buffer_interpolation-&gt;mirl_build_tools</title>
<path fill="none" stroke="#00cd00" d="M1629.03,-124.39C1610.14,-137.9 1582.18,-154.89 1554.34,-160.8 1521.95,-167.67 1289.33,-163.6 1256.34,-160.8 1167.86,-153.28 1067.09,-134.26 1002.67,-120.75"/>
<polygon fill="#00cd00" stroke="#00cd00" points="1003.46,-117.33 992.95,-118.69 1002.01,-124.18 1003.46,-117.33"/>
</g>
<!-- mirl_buffer_interpolation&#45;&gt;mirl_derive -->
<g id="edge7" class="edge">
<title>mirl_buffer_interpolation-&gt;mirl_derive</title>
<path fill="none" stroke="black" stroke-dasharray="1,5" d="M1596.71,-87.53C1585.74,-84.61 1574.25,-81.91 1563.34,-80 1357.94,-43.99 1108.91,-36.73 1002.56,-35.32"/>
<polygon fill="black" stroke="black" points="1002.77,-31.82 992.73,-35.2 1002.68,-38.82 1002.77,-31.82"/>
</g>
<!-- mirl_graphics -->
<g id="node23" class="node">
<title>mirl_graphics</title>
<polygon fill="none" stroke="black" points="1668.22,-208.8 1574.46,-208.8 1574.46,-172.8 1668.22,-172.8 1668.22,-208.8"/>
<text xml:space="preserve" text-anchor="middle" x="1621.34" y="-186.6" font-family="Times,serif" font-size="14.00">mirl_graphics</text>
</g>
<!-- mirl_buffer_interpolation&#45;&gt;mirl_graphics -->
<g id="edge8" class="edge">
<title>mirl_buffer_interpolation-&gt;mirl_graphics</title>
<path fill="none" stroke="black" d="M1645.82,-124.42C1641.75,-135.28 1636.43,-149.5 1631.78,-161.91"/>
<polygon fill="black" stroke="black" points="1628.52,-160.63 1628.29,-171.23 1635.08,-163.09 1628.52,-160.63"/>
</g>
<!-- mirl_build_tools&#45;&gt;mirl_derive -->
<g id="edge10" class="edge">
<title>mirl_build_tools-&gt;mirl_derive</title>
<path fill="none" stroke="black" stroke-dasharray="1,5" d="M939.8,-87.7C941.27,-80.32 943.03,-71.52 944.69,-63.25"/>
<polygon fill="black" stroke="black" points="948.09,-64.08 946.62,-53.59 941.23,-62.71 948.09,-64.08"/>
</g>
<!-- mirl_codec_info -->
<g id="node5" class="node">
<title>mirl_codec_info</title>
<polygon fill="none" stroke="black" points="155.6,-280.8 47.08,-280.8 47.08,-244.8 155.6,-244.8 155.6,-280.8"/>
<text xml:space="preserve" text-anchor="middle" x="101.34" y="-258.6" font-family="Times,serif" font-size="14.00">mirl_codec_info</text>
</g>
<!-- mirl_codec_info&#45;&gt;mirl_build_tools -->
<g id="edge13" class="edge">
<title>mirl_codec_info-&gt;mirl_build_tools</title>
<path fill="none" stroke="#00cd00" d="M60.75,-244.33C46.23,-235.86 31.46,-224.14 23.34,-208.8 14.19,-191.52 9.96,-179.06 23.34,-164.8 52.26,-133.99 664.35,-114.45 869.78,-108.75"/>
<polygon fill="#00cd00" stroke="#00cd00" points="869.87,-112.24 879.77,-108.47 869.67,-105.25 869.87,-112.24"/>
</g>
<!-- mirl_codec_info&#45;&gt;mirl_derive -->
<g id="edge12" class="edge">
<title>mirl_codec_info-&gt;mirl_derive</title>
<path fill="none" stroke="black" stroke-dasharray="1,5" d="M51.3,-244.4C35.33,-236.21 19.45,-224.65 10.34,-208.8 -25.51,-146.44 41.63,-106.9 108.34,-80 181.29,-50.58 725.29,-38.84 897.93,-35.83"/>
<polygon fill="black" stroke="black" points="897.78,-39.33 907.72,-35.66 897.66,-32.34 897.78,-39.33"/>
</g>
<!-- mirl_core -->
<g id="node22" class="node">
<title>mirl_core</title>
<polygon fill="none" stroke="black" points="1326.55,-124 1256.13,-124 1256.13,-88 1326.55,-88 1326.55,-124"/>
<text xml:space="preserve" text-anchor="middle" x="1291.34" y="-101.8" font-family="Times,serif" font-size="14.00">mirl_core</text>
</g>
<!-- mirl_codec_info&#45;&gt;mirl_core -->
<g id="edge11" class="edge">
<title>mirl_codec_info-&gt;mirl_core</title>
<path fill="none" stroke="black" d="M101.21,-244.33C102.09,-221.75 107.44,-183.16 132.34,-164.8 142.08,-157.62 991.29,-157.89 1003.34,-156.8 1089.15,-149.04 1187.83,-129.66 1244.56,-117.5"/>
<polygon fill="black" stroke="black" points="1245.16,-120.95 1254.19,-115.41 1243.67,-114.11 1245.16,-120.95"/>
</g>
<!-- mirl_values -->
<g id="node6" class="node">
<title>mirl_values</title>
<polygon fill="none" stroke="black" points="255.39,-280.8 173.29,-280.8 173.29,-244.8 255.39,-244.8 255.39,-280.8"/>
<text xml:space="preserve" text-anchor="middle" x="214.34" y="-258.6" font-family="Times,serif" font-size="14.00">mirl_values</text>
</g>
<!-- mirl_values&#45;&gt;mirl_build_tools -->
<g id="edge62" class="edge">
<title>mirl_values-&gt;mirl_build_tools</title>
<path fill="none" stroke="#00cd00" d="M180.81,-244.45C160.65,-233.25 137.85,-218.92 132.34,-208.8 122.99,-191.62 119.02,-179.12 132.34,-164.8 182.16,-111.27 686.6,-106.62 870.07,-106.72"/>
<polygon fill="#00cd00" stroke="#00cd00" points="869.91,-110.22 879.91,-106.73 869.92,-103.22 869.91,-110.22"/>
</g>
<!-- mirl_values&#45;&gt;mirl_derive -->
<g id="edge59" class="edge">
<title>mirl_values-&gt;mirl_derive</title>
<path fill="none" stroke="black" stroke-dasharray="1,5" d="M179.25,-244.41C153.66,-231.37 122.85,-214.79 119.34,-208.8 84.23,-149.02 143.86,-107.87 207.34,-80 270.11,-52.44 739.28,-39.65 898.02,-36.08"/>
<polygon fill="black" stroke="black" points="897.91,-39.58 907.83,-35.86 897.76,-32.59 897.91,-39.58"/>
</g>
<!-- mirl_values_core -->
<g id="node7" class="node">
<title>mirl_values_core</title>
<polygon fill="none" stroke="black" points="254.93,-208.8 141.75,-208.8 141.75,-172.8 254.93,-172.8 254.93,-208.8"/>
<text xml:space="preserve" text-anchor="middle" x="198.34" y="-186.6" font-family="Times,serif" font-size="14.00">mirl_values_core</text>
</g>
<!-- mirl_values&#45;&gt;mirl_values_core -->
<g id="edge61" class="edge">
<title>mirl_values-&gt;mirl_values_core</title>
<path fill="none" stroke="black" d="M210.38,-244.5C208.7,-237.12 206.69,-228.32 204.8,-220.05"/>
<polygon fill="black" stroke="black" points="208.23,-219.35 202.59,-210.38 201.4,-220.91 208.23,-219.35"/>
</g>
<!-- mirl_extensions -->
<g id="node8" class="node">
<title>mirl_extensions</title>
<polygon fill="none" stroke="black" points="725.06,-280.8 619.62,-280.8 619.62,-244.8 725.06,-244.8 725.06,-280.8"/>
<text xml:space="preserve" text-anchor="middle" x="672.34" y="-258.6" font-family="Times,serif" font-size="14.00">mirl_extensions</text>
</g>
<!-- mirl_values&#45;&gt;mirl_extensions -->
<g id="edge60" class="edge">
<title>mirl_values-&gt;mirl_extensions</title>
<path fill="none" stroke="black" d="M232.1,-281.28C249.64,-298.09 278.16,-321.74 308.34,-331.6 370.23,-351.83 540.99,-356.04 601.34,-331.6 622.22,-323.14 640.35,-305.28 653.06,-289.87"/>
<polygon fill="black" stroke="black" points="655.54,-292.38 658.97,-282.36 650.03,-288.06 655.54,-292.38"/>
</g>
<!-- mirl_values_core&#45;&gt;mirl_build_tools -->
<g id="edge65" class="edge">
<title>mirl_values_core-&gt;mirl_build_tools</title>
<path fill="none" stroke="#00cd00" d="M255.18,-174.13C269.5,-170.62 284.91,-167.23 299.34,-164.8 506,-130.06 754.13,-115.13 870.29,-109.68"/>
<polygon fill="#00cd00" stroke="#00cd00" points="870.11,-113.19 879.93,-109.24 869.78,-106.2 870.11,-113.19"/>
</g>
<!-- mirl_values_core&#45;&gt;mirl_derive -->
<g id="edge63" class="edge">
<title>mirl_values_core-&gt;mirl_derive</title>
<path fill="none" stroke="black" stroke-dasharray="1,5" d="M203.93,-172.41C213.09,-147.09 233.92,-100.82 269.34,-80 323.04,-48.44 747.96,-38.36 898.06,-35.77"/>
<polygon fill="black" stroke="black" points="897.76,-39.28 907.7,-35.61 897.64,-32.28 897.76,-39.28"/>
</g>
<!-- mirl_extensions_core -->
<g id="node10" class="node">
<title>mirl_extensions_core</title>
<polygon fill="none" stroke="black" points="601.6,-280.8 465.08,-280.8 465.08,-244.8 601.6,-244.8 601.6,-280.8"/>
<text xml:space="preserve" text-anchor="middle" x="533.34" y="-258.6" font-family="Times,serif" font-size="14.00">mirl_extensions_core</text>
</g>
<!-- mirl_values_core&#45;&gt;mirl_extensions_core -->
<g id="edge64" class="edge">
<title>mirl_values_core-&gt;mirl_extensions_core</title>
<path fill="none" stroke="black" d="M255.42,-201.47C324.64,-213.27 434.45,-232.2 453.34,-236.8 458.85,-238.14 464.54,-239.66 470.23,-241.26"/>
<polygon fill="black" stroke="black" points="469.08,-244.57 479.66,-244 471.03,-237.85 469.08,-244.57"/>
</g>
<!-- mirl_extensions&#45;&gt;mirl_buffer -->
<g id="edge19" class="edge">
<title>mirl_extensions-&gt;mirl_buffer</title>
<path fill="none" stroke="black" d="M709.38,-244.4C717.44,-241.32 726.05,-238.54 734.34,-236.8 785.64,-226.05 1640.83,-246.41 1677.34,-208.8 1768.06,-115.35 1627.45,-186.34 1563.34,-156.8 1551.65,-151.41 1541.24,-141.94 1533.04,-132.69"/>
<polygon fill="black" stroke="black" points="1535.93,-130.69 1526.87,-125.2 1530.53,-135.14 1535.93,-130.69"/>
</g>
<!-- mirl_extensions&#45;&gt;mirl_build_tools -->
<g id="edge25" class="edge">
<title>mirl_extensions-&gt;mirl_build_tools</title>
<path fill="none" stroke="#00cd00" d="M631.59,-244.3C602.7,-231.49 568.36,-215.25 564.34,-208.8 554,-192.2 551.62,-179.65 564.34,-164.8 602.95,-119.73 774.01,-109.52 870.15,-107.39"/>
<polygon fill="#00cd00" stroke="#00cd00" points="870.05,-110.89 879.98,-107.2 869.91,-103.89 870.05,-110.89"/>
</g>
<!-- mirl_extensions&#45;&gt;mirl_values_core -->
<g id="edge24" class="edge">
<title>mirl_extensions-&gt;mirl_values_core</title>
<path fill="none" stroke="black" stroke-dasharray="1,5" d="M634.22,-244.4C626.45,-241.44 618.24,-238.7 610.34,-236.8 475.42,-204.28 436.98,-226.55 299.34,-208.8 288.74,-207.43 277.55,-205.77 266.62,-204.03"/>
<polygon fill="black" stroke="black" points="267.31,-200.59 256.87,-202.43 266.18,-207.5 267.31,-200.59"/>
</g>
<!-- mirl_geometry_core -->
<g id="node13" class="node">
<title>mirl_geometry_core</title>
<polygon fill="none" stroke="black" points="441.48,-208.8 311.19,-208.8 311.19,-172.8 441.48,-172.8 441.48,-208.8"/>
<text xml:space="preserve" text-anchor="middle" x="376.34" y="-186.6" font-family="Times,serif" font-size="14.00">mirl_geometry_core</text>
</g>
<!-- mirl_extensions&#45;&gt;mirl_geometry_core -->
<g id="edge22" class="edge">
<title>mirl_extensions-&gt;mirl_geometry_core</title>
<path fill="none" stroke="black" stroke-dasharray="1,5" d="M632.38,-244.38C625.13,-241.59 617.58,-238.93 610.34,-236.8 558.74,-221.59 499.19,-210.22 453.08,-202.72"/>
<polygon fill="black" stroke="black" points="453.88,-199.3 443.45,-201.18 452.77,-206.21 453.88,-199.3"/>
</g>
<!-- mirl_collections -->
<g id="node20" class="node">
<title>mirl_collections</title>
<polygon fill="none" stroke="black" points="679.83,-208.8 572.85,-208.8 572.85,-172.8 679.83,-172.8 679.83,-208.8"/>
<text xml:space="preserve" text-anchor="middle" x="626.34" y="-186.6" font-family="Times,serif" font-size="14.00">mirl_collections</text>
</g>
<!-- mirl_extensions&#45;&gt;mirl_collections -->
<g id="edge20" class="edge">
<title>mirl_extensions-&gt;mirl_collections</title>
<path fill="none" stroke="black" stroke-dasharray="1,5" d="M660.97,-244.5C655.79,-236.61 649.54,-227.1 643.78,-218.35"/>
<polygon fill="black" stroke="black" points="646.83,-216.6 638.41,-210.17 640.98,-220.45 646.83,-216.6"/>
</g>
<!-- mirl_extensions&#45;&gt;mirl_core -->
<g id="edge21" class="edge">
<title>mirl_extensions-&gt;mirl_core</title>
<path fill="none" stroke="black" d="M709.74,-244.4C717.7,-241.35 726.18,-238.59 734.34,-236.8 796.38,-223.18 1261.54,-254.8 1305.34,-208.8 1323.84,-189.37 1315.77,-157.64 1305.97,-134.76"/>
<polygon fill="black" stroke="black" points="1309.15,-133.3 1301.76,-125.71 1302.8,-136.25 1309.15,-133.3"/>
</g>
<!-- mirl_input -->
<g id="node24" class="node">
<title>mirl_input</title>
<polygon fill="none" stroke="black" points="1034.89,-208.8 959.78,-208.8 959.78,-172.8 1034.89,-172.8 1034.89,-208.8"/>
<text xml:space="preserve" text-anchor="middle" x="997.34" y="-186.6" font-family="Times,serif" font-size="14.00">mirl_input</text>
</g>
<!-- mirl_extensions&#45;&gt;mirl_input -->
<g id="edge23" class="edge">
<title>mirl_extensions-&gt;mirl_input</title>
<path fill="none" stroke="black" stroke-dasharray="1,5" d="M711.19,-244.39C718.75,-241.5 726.7,-238.8 734.34,-236.8 824.51,-213.19 854.08,-230.25 948.16,-208.97"/>
<polygon fill="black" stroke="black" points="948.93,-212.38 957.86,-206.68 947.32,-205.57 948.93,-212.38"/>
</g>
<!-- mirl_extensions_conversion -->
<g id="node9" class="node">
<title>mirl_extensions_conversion</title>
<polygon fill="none" stroke="black" points="1075.27,-280.8 901.41,-280.8 901.41,-244.8 1075.27,-244.8 1075.27,-280.8"/>
<text xml:space="preserve" text-anchor="middle" x="988.34" y="-258.6" font-family="Times,serif" font-size="14.00">mirl_extensions_conversion</text>
</g>
<!-- mirl_extensions_conversion&#45;&gt;mirl_buffer -->
<g id="edge26" class="edge">
<title>mirl_extensions_conversion-&gt;mirl_buffer</title>
<path fill="none" stroke="black" stroke-dasharray="1,5" d="M1075.51,-261.89C1258.21,-261.17 1667.93,-254.43 1710.34,-208.8 1723.65,-194.47 1723.79,-179 1710.34,-164.8 1699.09,-152.92 1578.25,-163.53 1563.34,-156.8 1551.61,-151.51 1541.19,-142.05 1533,-132.78"/>
<polygon fill="black" stroke="black" points="1535.88,-130.78 1526.83,-125.28 1530.48,-135.22 1535.88,-130.78"/>
</g>
<!-- mirl_extensions_conversion&#45;&gt;mirl_build_tools -->
<g id="edge30" class="edge">
<title>mirl_extensions_conversion-&gt;mirl_build_tools</title>
<path fill="none" stroke="#00cd00" d="M922.31,-244.32C912.28,-241.75 902.04,-239.17 892.34,-236.8 837.87,-223.51 804.31,-252.62 769.34,-208.8 757.14,-193.51 758,-180.73 769.34,-164.8 792.24,-132.64 834.32,-118.21 870.5,-111.8"/>
<polygon fill="#00cd00" stroke="#00cd00" points="870.69,-115.32 880.02,-110.3 869.6,-108.4 870.69,-115.32"/>
</g>
<!-- mirl_extensions_conversion&#45;&gt;mirl_values_core -->
<g id="edge29" class="edge">
<title>mirl_extensions_conversion-&gt;mirl_values_core</title>
<path fill="none" stroke="black" stroke-dasharray="1,5" d="M929.08,-244.32C917.02,-241.34 904.34,-238.63 892.34,-236.8 631.49,-197.12 561.68,-236.97 299.34,-208.8 288.71,-207.66 277.5,-206.12 266.58,-204.42"/>
<polygon fill="black" stroke="black" points="267.25,-200.99 256.82,-202.86 266.14,-207.9 267.25,-200.99"/>
</g>
<!-- mirl_extensions_conversion&#45;&gt;mirl_core -->
<g id="edge27" class="edge">
<title>mirl_extensions_conversion-&gt;mirl_core</title>
<path fill="none" stroke="black" d="M1075.52,-256.05C1185.15,-247.92 1361.52,-231.48 1381.34,-208.8 1394.21,-194.08 1393.04,-180.47 1381.34,-164.8 1373.85,-154.77 1365.45,-162.56 1354.34,-156.8 1341.38,-150.08 1328.49,-140.53 1317.77,-131.58"/>
<polygon fill="black" stroke="black" points="1320.33,-129.17 1310.47,-125.28 1315.75,-134.46 1320.33,-129.17"/>
</g>
<!-- mirl_extensions_conversion&#45;&gt;mirl_graphics -->
<g id="edge28" class="edge">
<title>mirl_extensions_conversion-&gt;mirl_graphics</title>
<path fill="none" stroke="black" stroke-dasharray="1,5" d="M1075.32,-259.46C1186.8,-255.21 1385.97,-243.38 1563.01,-209.26"/>
<polygon fill="black" stroke="black" points="1563.47,-212.73 1572.61,-207.38 1562.13,-205.87 1563.47,-212.73"/>
</g>
<!-- mirl_extensions_core&#45;&gt;mirl_build_tools -->
<g id="edge32" class="edge">
<title>mirl_extensions_core-&gt;mirl_build_tools</title>
<path fill="none" stroke="#00cd00" d="M531.07,-244.32C529.3,-222.45 530.03,-185.39 551.34,-164.8 595.64,-122 772.05,-110.84 869.97,-107.97"/>
<polygon fill="#00cd00" stroke="#00cd00" points="869.81,-111.48 879.71,-107.71 869.62,-104.48 869.81,-111.48"/>
</g>
<!-- mirl_extensions_core&#45;&gt;mirl_core -->
<g id="edge31" class="edge">
<title>mirl_extensions_core-&gt;mirl_core</title>
<path fill="none" stroke="black" d="M580.06,-244.4C589.93,-241.36 600.38,-238.59 610.34,-236.8 682.25,-223.84 1211.03,-255.36 1267.34,-208.8 1288.43,-191.36 1293.01,-159.17 1293.2,-135.64"/>
<polygon fill="black" stroke="black" points="1296.7,-135.69 1293,-125.76 1289.71,-135.83 1296.7,-135.69"/>
</g>
<!-- mirl_extensions_math -->
<g id="node11" class="node">
<title>mirl_extensions_math</title>
<polygon fill="none" stroke="black" points="883.55,-280.8 743.13,-280.8 743.13,-244.8 883.55,-244.8 883.55,-280.8"/>
<text xml:space="preserve" text-anchor="middle" x="813.34" y="-258.6" font-family="Times,serif" font-size="14.00">mirl_extensions_math</text>
</g>
<!-- mirl_extensions_math&#45;&gt;mirl_build_tools -->
<g id="edge34" class="edge">
<title>mirl_extensions_math-&gt;mirl_build_tools</title>
<path fill="none" stroke="#00cd00" d="M786.46,-244.48C774.89,-235.4 762.6,-223.17 756.34,-208.8 748.53,-190.87 744.82,-180.6 756.34,-164.8 782.18,-129.36 830.09,-115.17 869.98,-109.7"/>
<polygon fill="#00cd00" stroke="#00cd00" points="870.25,-113.2 879.76,-108.53 869.42,-106.25 870.25,-113.2"/>
</g>
<!-- mirl_extensions_math&#45;&gt;mirl_core -->
<g id="edge33" class="edge">
<title>mirl_extensions_math-&gt;mirl_core</title>
<path fill="none" stroke="black" d="M862.17,-244.31C872.05,-241.35 882.44,-238.64 892.34,-236.8 941.7,-227.6 1308.95,-245.39 1343.34,-208.8 1364.19,-186.62 1341.38,-154.46 1319.75,-132.26"/>
<polygon fill="black" stroke="black" points="1322.28,-129.84 1312.69,-125.33 1317.38,-134.84 1322.28,-129.84"/>
</g>
<!-- mirl_geometry -->
<g id="node12" class="node">
<title>mirl_geometry</title>
<polygon fill="none" stroke="black" points="432.94,-280.8 333.74,-280.8 333.74,-244.8 432.94,-244.8 432.94,-280.8"/>
<text xml:space="preserve" text-anchor="middle" x="383.34" y="-258.6" font-family="Times,serif" font-size="14.00">mirl_geometry</text>
</g>
<!-- mirl_geometry&#45;&gt;mirl_build_tools -->
<g id="edge38" class="edge">
<title>mirl_geometry-&gt;mirl_build_tools</title>
<path fill="none" stroke="#00cd00" d="M406.51,-244.43C440.51,-219.27 502.67,-174.62 528.34,-164.8 642.94,-120.99 787.1,-109.94 869.79,-107.41"/>
<polygon fill="#00cd00" stroke="#00cd00" points="869.87,-110.91 879.77,-107.15 869.68,-103.92 869.87,-110.91"/>
</g>
<!-- mirl_geometry&#45;&gt;mirl_derive -->
<g id="edge36" class="edge">
<title>mirl_geometry-&gt;mirl_derive</title>
<path fill="none" stroke="black" stroke-dasharray="1,5" d="M340.8,-244.44C325.87,-236.03 310.73,-224.32 302.34,-208.8 293.04,-191.6 292.26,-181.56 302.34,-164.8 343.84,-95.84 385.21,-102.99 462.34,-80 542.88,-56 789.72,-42.24 898.24,-37.21"/>
<polygon fill="black" stroke="black" points="898.19,-40.72 908.02,-36.77 897.87,-33.73 898.19,-40.72"/>
</g>
<!-- mirl_geometry&#45;&gt;mirl_geometry_core -->
<g id="edge37" class="edge">
<title>mirl_geometry-&gt;mirl_geometry_core</title>
<path fill="none" stroke="black" d="M381.61,-244.5C380.88,-237.21 380.01,-228.53 379.19,-220.34"/>
<polygon fill="black" stroke="black" points="382.68,-220.01 378.2,-210.41 375.71,-220.71 382.68,-220.01"/>
</g>
<!-- mirl_geometry&#45;&gt;mirl_core -->
<g id="edge35" class="edge">
<title>mirl_geometry-&gt;mirl_core</title>
<path fill="none" stroke="black" d="M425.7,-244.33C434.68,-241.29 444.21,-238.55 453.34,-236.8 538.62,-220.45 1160.23,-254.05 1234.34,-208.8 1248.32,-200.27 1267.38,-161.89 1279.53,-134.78"/>
<polygon fill="black" stroke="black" points="1282.7,-136.27 1283.51,-125.71 1276.29,-133.46 1282.7,-136.27"/>
</g>
<!-- mirl_geometry_core&#45;&gt;mirl_build_tools -->
<g id="edge40" class="edge">
<title>mirl_geometry_core-&gt;mirl_build_tools</title>
<path fill="none" stroke="#00cd00" d="M426.53,-172.37C436.02,-169.52 445.92,-166.84 455.34,-164.8 532.93,-148.02 757.62,-124.56 870.29,-113.39"/>
<polygon fill="#00cd00" stroke="#00cd00" points="870.38,-116.9 879.99,-112.44 869.69,-109.94 870.38,-116.9"/>
</g>
<!-- mirl_geometry_core&#45;&gt;mirl_derive -->
<g id="edge39" class="edge">
<title>mirl_geometry_core-&gt;mirl_derive</title>
<path fill="none" stroke="black" stroke-dasharray="1,5" d="M419.36,-172.35C479.54,-148.52 592.69,-105.82 692.34,-80 762.52,-61.82 845.36,-48.83 897.87,-41.62"/>
<polygon fill="black" stroke="black" points="898.3,-45.09 907.74,-40.28 897.36,-38.15 898.3,-45.09"/>
</g>
<!-- mirl_windowing -->
<g id="node14" class="node">
<title>mirl_windowing</title>
<polygon fill="none" stroke="black" points="1944,-280.8 1834.67,-280.8 1834.67,-244.8 1944,-244.8 1944,-280.8"/>
<text xml:space="preserve" text-anchor="middle" x="1889.34" y="-258.6" font-family="Times,serif" font-size="14.00">mirl_windowing</text>
</g>
<!-- mirl_windowing&#45;&gt;mirl_build_tools -->
<g id="edge68" class="edge">
<title>mirl_windowing-&gt;mirl_build_tools</title>
<path fill="none" stroke="#00cd00" d="M1834.46,-260.13C1616.81,-253.38 825.23,-227.59 807.34,-208.8 793.85,-194.64 796.71,-181.21 807.34,-164.8 821.63,-142.73 846.56,-129.01 870.71,-120.52"/>
<polygon fill="#00cd00" stroke="#00cd00" points="871.47,-123.95 879.91,-117.54 869.32,-117.29 871.47,-123.95"/>
</g>
<!-- mirl_windowing&#45;&gt;mirl_derive -->
<g id="edge66" class="edge">
<title>mirl_windowing-&gt;mirl_derive</title>
<path fill="none" stroke="black" stroke-dasharray="1,5" d="M1944.34,-253.15C1976.16,-248.22 2016.99,-241.99 2053.34,-236.8 2099.95,-230.14 2232.33,-244.22 2263.34,-208.8 2276.22,-194.09 2276,-179.7 2263.34,-164.8 2180.24,-67.02 1236.53,-40.96 1002.58,-35.99"/>
<polygon fill="black" stroke="black" points="1002.92,-32.5 992.85,-35.79 1002.78,-39.49 1002.92,-32.5"/>
</g>
<!-- mirl_windowing&#45;&gt;mirl_extensions -->
<g id="edge67" class="edge">
<title>mirl_windowing-&gt;mirl_extensions</title>
<path fill="none" stroke="black" d="M1834.37,-269.08C1703.59,-283.67 1363.52,-319.53 1078.34,-331.6 1003.96,-334.75 812.34,-359.55 743.34,-331.6 722.46,-323.14 704.33,-305.28 691.61,-289.87"/>
<polygon fill="black" stroke="black" points="694.64,-288.06 685.71,-282.36 689.14,-292.38 694.64,-288.06"/>
</g>
<!-- mirl_windowing_console -->
<g id="node15" class="node">
<title>mirl_windowing_console</title>
<polygon fill="none" stroke="black" points="2253.89,-208.8 2094.79,-208.8 2094.79,-172.8 2253.89,-172.8 2253.89,-208.8"/>
<text xml:space="preserve" text-anchor="middle" x="2174.34" y="-186.6" font-family="Times,serif" font-size="14.00">mirl_windowing_console</text>
</g>
<!-- mirl_windowing&#45;&gt;mirl_windowing_console -->
<g id="edge69" class="edge">
<title>mirl_windowing-&gt;mirl_windowing_console</title>
<path fill="none" stroke="black" stroke-dasharray="1,5" d="M1944.29,-248.3C1986.31,-237.98 2044.91,-223.59 2092.45,-211.91"/>
<polygon fill="black" stroke="black" points="2092.99,-215.38 2101.87,-209.6 2091.32,-208.59 2092.99,-215.38"/>
</g>
<!-- mirl_windowing_glfw -->
<g id="node17" class="node">
<title>mirl_windowing_glfw</title>
<polygon fill="none" stroke="black" points="2076.34,-208.8 1934.34,-208.8 1934.34,-172.8 2076.34,-172.8 2076.34,-208.8"/>
<text xml:space="preserve" text-anchor="middle" x="2005.34" y="-186.6" font-family="Times,serif" font-size="14.00">mirl_windowing_glfw</text>
</g>
<!-- mirl_windowing&#45;&gt;mirl_windowing_glfw -->
<g id="edge70" class="edge">
<title>mirl_windowing-&gt;mirl_windowing_glfw</title>
<path fill="none" stroke="black" stroke-dasharray="1,5" d="M1918.31,-244.32C1933.09,-235.4 1951.27,-224.43 1967.17,-214.83"/>
<polygon fill="black" stroke="black" points="1968.69,-218.01 1975.44,-209.84 1965.07,-212.01 1968.69,-218.01"/>
</g>
<!-- mirl_windowing_minifb -->
<g id="node18" class="node">
<title>mirl_windowing_minifb</title>
<polygon fill="none" stroke="black" points="1916.17,-208.8 1762.51,-208.8 1762.51,-172.8 1916.17,-172.8 1916.17,-208.8"/>
<text xml:space="preserve" text-anchor="middle" x="1839.34" y="-186.6" font-family="Times,serif" font-size="14.00">mirl_windowing_minifb</text>
</g>
<!-- mirl_windowing&#45;&gt;mirl_windowing_minifb -->
<g id="edge71" class="edge">
<title>mirl_windowing-&gt;mirl_windowing_minifb</title>
<path fill="none" stroke="black" stroke-dasharray="1,5" d="M1876.98,-244.5C1871.29,-236.53 1864.41,-226.9 1858.1,-218.06"/>
<polygon fill="black" stroke="black" points="1861.1,-216.24 1852.44,-210.14 1855.4,-220.31 1861.1,-216.24"/>
</g>
<!-- mirl_windowing_console&#45;&gt;mirl_buffer -->
<g id="edge72" class="edge">
<title>mirl_windowing_console-&gt;mirl_buffer</title>
<path fill="none" stroke="black" d="M2120.7,-172.33C2109.15,-169.25 2096.93,-166.49 2085.34,-164.8 2056.64,-160.62 1590,-168.21 1563.34,-156.8 1551.51,-151.74 1541.07,-142.32 1532.9,-133.02"/>
<polygon fill="black" stroke="black" points="1535.77,-131.01 1526.74,-125.47 1530.35,-135.43 1535.77,-131.01"/>
</g>
<!-- mirl_windowing_console&#45;&gt;mirl_buffer_interpolation -->
<g id="edge73" class="edge">
<title>mirl_windowing_console-&gt;mirl_buffer_interpolation</title>
<path fill="none" stroke="black" d="M2116.7,-172.33C2106.32,-169.55 2095.56,-166.91 2085.34,-164.8 1968.46,-140.71 1831.67,-124.4 1743.61,-115.4"/>
<polygon fill="black" stroke="black" points="1744.12,-111.94 1733.82,-114.41 1743.42,-118.9 1744.12,-111.94"/>
</g>
<!-- mirl_windowing_console&#45;&gt;mirl_build_tools -->
<g id="edge75" class="edge">
<title>mirl_windowing_console-&gt;mirl_build_tools</title>
<path fill="none" stroke="#00cd00" d="M2121.18,-172.4C2109.49,-169.27 2097.1,-166.48 2085.34,-164.8 1993.16,-151.65 1340.13,-164.63 1247.34,-156.8 1162.14,-149.61 1065,-132.63 1002.28,-120.49"/>
<polygon fill="#00cd00" stroke="#00cd00" points="1003.34,-117.13 992.86,-118.65 1002,-124 1003.34,-117.13"/>
</g>
<!-- mirl_windowing_console&#45;&gt;mirl_core -->
<g id="edge74" class="edge">
<title>mirl_windowing_console-&gt;mirl_core</title>
<path fill="none" stroke="black" d="M2120.7,-172.3C2109.15,-169.23 2096.94,-166.47 2085.34,-164.8 1948.3,-145.02 1599.28,-177.23 1462.34,-156.8 1419.01,-150.34 1371.27,-135.78 1337.27,-124.06"/>
<polygon fill="black" stroke="black" points="1338.76,-120.87 1328.17,-120.87 1336.45,-127.48 1338.76,-120.87"/>
</g>
<!-- mirl_windowing_core -->
<g id="node16" class="node">
<title>mirl_windowing_core</title>
<polygon fill="none" stroke="black" points="2202.55,-280.8 2062.13,-280.8 2062.13,-244.8 2202.55,-244.8 2202.55,-280.8"/>
<text xml:space="preserve" text-anchor="middle" x="2132.34" y="-258.6" font-family="Times,serif" font-size="14.00">mirl_windowing_core</text>
</g>
<!-- mirl_windowing_core&#45;&gt;mirl_buffer -->
<g id="edge76" class="edge">
<title>mirl_windowing_core-&gt;mirl_buffer</title>
<path fill="none" stroke="black" d="M2203.02,-249.64C2226.18,-241.93 2249.49,-229.35 2263.34,-208.8 2274.27,-192.59 2277.09,-178.71 2263.34,-164.8 2249.67,-150.97 1581.23,-164.42 1563.34,-156.8 1551.5,-151.76 1541.06,-142.34 1532.89,-133.04"/>
<polygon fill="black" stroke="black" points="1535.76,-131.03 1526.74,-125.49 1530.33,-135.45 1535.76,-131.03"/>
</g>
<!-- mirl_windowing_core&#45;&gt;mirl_build_tools -->
<g id="edge79" class="edge">
<title>mirl_windowing_core-&gt;mirl_build_tools</title>
<path fill="none" stroke="#00cd00" d="M2061.98,-250.09C2029.08,-245.1 1989.3,-239.75 1953.34,-236.8 1922.52,-234.27 861.93,-230.94 840.34,-208.8 826.69,-194.8 830.72,-181.82 840.34,-164.8 848.78,-149.86 862.8,-138.36 877.55,-129.7"/>
<polygon fill="#00cd00" stroke="#00cd00" points="878.85,-132.97 885.96,-125.13 875.51,-126.82 878.85,-132.97"/>
</g>
<!-- mirl_windowing_core&#45;&gt;mirl_derive -->
<g id="edge78" class="edge">
<title>mirl_windowing_core-&gt;mirl_derive</title>
<path fill="none" stroke="black" stroke-dasharray="1,5" d="M2202.81,-254.7C2232.42,-247.83 2264.16,-234.51 2282.34,-208.8 2293.63,-192.83 2293.11,-181.12 2282.34,-164.8 2229.63,-84.89 2177.72,-101.09 2084.34,-80 1874.34,-32.56 1196.5,-33.32 1002.6,-34.56"/>
<polygon fill="black" stroke="black" points="1002.82,-31.06 992.84,-34.63 1002.87,-38.06 1002.82,-31.06"/>
</g>
<!-- mirl_windowing_core&#45;&gt;mirl_core -->
<g id="edge77" class="edge">
<title>mirl_windowing_core-&gt;mirl_core</title>
<path fill="none" stroke="black" d="M2061.93,-250.61C2029.02,-245.73 1989.25,-240.33 1953.34,-236.8 1844.57,-226.12 1565.48,-244.95 1462.34,-208.8 1430.45,-197.62 1431.89,-176.9 1400.34,-164.8 1371.52,-153.74 1358.36,-171.73 1331.34,-156.8 1321.5,-151.37 1313.19,-142.43 1306.73,-133.62"/>
<polygon fill="black" stroke="black" points="1309.78,-131.89 1301.31,-125.53 1303.97,-135.78 1309.78,-131.89"/>
</g>
<!-- mirl_windowing_glfw&#45;&gt;mirl_buffer -->
<g id="edge80" class="edge">
<title>mirl_windowing_glfw-&gt;mirl_buffer</title>
<path fill="none" stroke="black" d="M1957.21,-172.37C1946.83,-169.29 1935.82,-166.52 1925.34,-164.8 1885.64,-158.29 1600.27,-172.76 1563.34,-156.8 1551.53,-151.7 1541.09,-142.27 1532.92,-132.98"/>
<polygon fill="black" stroke="black" points="1535.79,-130.97 1526.76,-125.43 1530.37,-135.39 1535.79,-130.97"/>
</g>
<!-- mirl_windowing_glfw&#45;&gt;mirl_build_tools -->
<g id="edge82" class="edge">
<title>mirl_windowing_glfw-&gt;mirl_build_tools</title>
<path fill="none" stroke="#00cd00" d="M1957.65,-172.42C1947.15,-169.29 1935.97,-166.49 1925.34,-164.8 1850.93,-152.99 1322.4,-163.22 1247.34,-156.8 1162.15,-149.52 1065,-132.55 1002.29,-120.45"/>
<polygon fill="#00cd00" stroke="#00cd00" points="1003.34,-117.09 992.86,-118.61 1002.01,-123.96 1003.34,-117.09"/>
</g>
<!-- mirl_windowing_glfw&#45;&gt;mirl_core -->
<g id="edge81" class="edge">
<title>mirl_windowing_glfw-&gt;mirl_core</title>
<path fill="none" stroke="black" d="M1957.22,-172.33C1946.84,-169.25 1935.83,-166.49 1925.34,-164.8 1823.75,-148.4 1564.08,-172.21 1462.34,-156.8 1419.03,-150.24 1371.29,-135.69 1337.28,-124"/>
<polygon fill="black" stroke="black" points="1338.77,-120.81 1328.17,-120.82 1336.46,-127.42 1338.77,-120.81"/>
</g>
<!-- mirl_windowing_minifb&#45;&gt;mirl_buffer -->
<g id="edge83" class="edge">
<title>mirl_windowing_minifb-&gt;mirl_buffer</title>
<path fill="none" stroke="black" d="M1783.46,-172.33C1771.95,-169.33 1759.83,-166.6 1748.34,-164.8 1728.01,-161.61 1582.14,-165.16 1563.34,-156.8 1551.58,-151.57 1541.15,-142.12 1532.97,-132.85"/>
<polygon fill="black" stroke="black" points="1535.85,-130.85 1526.81,-125.33 1530.44,-135.28 1535.85,-130.85"/>
</g>
<!-- mirl_windowing_minifb&#45;&gt;mirl_build_tools -->
<g id="edge85" class="edge">
<title>mirl_windowing_minifb-&gt;mirl_build_tools</title>
<path fill="none" stroke="#00cd00" d="M1762.14,-175.72C1735.38,-171.42 1705.13,-167.19 1677.34,-164.8 1486.9,-148.41 1437.73,-173.73 1247.34,-156.8 1162.18,-149.23 1065.02,-132.33 1002.3,-120.32"/>
<polygon fill="#00cd00" stroke="#00cd00" points="1003.35,-116.96 992.87,-118.5 1002.02,-123.83 1003.35,-116.96"/>
</g>
<!-- mirl_windowing_minifb&#45;&gt;mirl_core -->
<g id="edge84" class="edge">
<title>mirl_windowing_minifb-&gt;mirl_core</title>
<path fill="none" stroke="black" d="M1762.11,-176.01C1735.35,-171.73 1705.1,-167.45 1677.34,-164.8 1582.15,-155.72 1556.74,-172.06 1462.34,-156.8 1419.1,-149.81 1371.35,-135.3 1337.32,-123.74"/>
<polygon fill="black" stroke="black" points="1338.8,-120.55 1328.21,-120.6 1336.52,-127.17 1338.8,-120.55"/>
</g>
<!-- mirl -->
<g id="node19" class="node">
<title>mirl</title>
<polygon fill="none" stroke="black" points="1107.34,-208.8 1053.34,-208.8 1053.34,-172.8 1107.34,-172.8 1107.34,-208.8"/>
<text xml:space="preserve" text-anchor="middle" x="1080.34" y="-186.6" font-family="Times,serif" font-size="14.00">mirl</text>
</g>
<!-- mirl&#45;&gt;mirl_buffer -->
<g id="edge1" class="edge">
<title>mirl-&gt;mirl_buffer</title>
<path fill="none" stroke="black" d="M1101.34,-172.31C1106.02,-169.27 1111.14,-166.53 1116.34,-164.8 1162.54,-149.4 1287.22,-164.27 1335.34,-156.8 1379.25,-149.99 1427.73,-136.09 1463.15,-124.7"/>
<polygon fill="black" stroke="black" points="1463.84,-128.16 1472.27,-121.73 1461.67,-121.5 1463.84,-128.16"/>
</g>
<!-- mirl&#45;&gt;mirl_build_tools -->
<g id="edge4" class="edge">
<title>mirl-&gt;mirl_build_tools</title>
<path fill="none" stroke="#00cd00" d="M1056.19,-172.47C1052.28,-169.82 1048.23,-167.18 1044.34,-164.8 1024.2,-152.47 1001.21,-139.97 981.63,-129.75"/>
<polygon fill="#00cd00" stroke="#00cd00" points="983.28,-126.66 972.79,-125.18 980.06,-132.88 983.28,-126.66"/>
</g>
<!-- mirl&#45;&gt;mirl_derive -->
<g id="edge3" class="edge">
<title>mirl-&gt;mirl_derive</title>
<path fill="none" stroke="black" stroke-dasharray="1,5" d="M1073.65,-172.59C1064.06,-149.52 1044.61,-108.19 1018.34,-80 1010.89,-72.01 1001.75,-64.74 992.62,-58.49"/>
<polygon fill="black" stroke="black" points="994.74,-55.7 984.44,-53.19 990.93,-61.57 994.74,-55.7"/>
</g>
<!-- mirl&#45;&gt;mirl_core -->
<g id="edge2" class="edge">
<title>mirl-&gt;mirl_core</title>
<path fill="none" stroke="black" d="M1103.36,-172.38C1107.55,-169.63 1111.98,-166.98 1116.34,-164.8 1157.98,-144.01 1208.8,-128.19 1244.92,-118.4"/>
<polygon fill="black" stroke="black" points="1245.4,-121.89 1254.17,-115.94 1243.6,-115.13 1245.4,-121.89"/>
</g>
<!-- mirl_collections&#45;&gt;mirl_build_tools -->
<g id="edge16" class="edge">
<title>mirl_collections-&gt;mirl_build_tools</title>
<path fill="none" stroke="#00cd00" d="M669.19,-172.4C677.13,-169.58 685.42,-166.9 693.34,-164.8 714.67,-159.14 720.74,-161.33 742.34,-156.8 785.4,-147.78 833.27,-135.51 870.7,-125.41"/>
<polygon fill="#00cd00" stroke="#00cd00" points="871.26,-128.88 880,-122.88 869.43,-122.13 871.26,-128.88"/>
</g>
<!-- mirl_collections&#45;&gt;mirl_derive -->
<g id="edge15" class="edge">
<title>mirl_collections-&gt;mirl_derive</title>
<path fill="none" stroke="black" stroke-dasharray="1,5" d="M662.88,-172.34C721.98,-144.11 838.49,-88.44 903.56,-57.35"/>
<polygon fill="black" stroke="black" points="905.06,-60.51 912.57,-53.05 902.04,-54.2 905.06,-60.51"/>
</g>
<!-- mirl_collections&#45;&gt;mirl_core -->
<g id="edge14" class="edge">
<title>mirl_collections-&gt;mirl_core</title>
<path fill="none" stroke="black" d="M680.33,-182.47C723.54,-176.86 785.73,-169.32 840.34,-164.8 912.62,-158.81 931.25,-164.77 1003.34,-156.8 1089.21,-147.3 1188.26,-128.41 1244.97,-116.82"/>
<polygon fill="black" stroke="black" points="1245.5,-120.28 1254.59,-114.84 1244.08,-113.43 1245.5,-120.28"/>
</g>
<!-- mirl_consts -->
<g id="node21" class="node">
<title>mirl_consts</title>
<polygon fill="none" stroke="black" points="2352,-280.8 2270.67,-280.8 2270.67,-244.8 2352,-244.8 2352,-280.8"/>
<text xml:space="preserve" text-anchor="middle" x="2311.34" y="-258.6" font-family="Times,serif" font-size="14.00">mirl_consts</text>
</g>
<!-- mirl_core&#45;&gt;mirl_build_tools -->
<g id="edge18" class="edge">
<title>mirl_core-&gt;mirl_build_tools</title>
<path fill="none" stroke="#00cd00" d="M1255.9,-106C1171.54,-106 1087.18,-106 1002.82,-106"/>
<polygon fill="#00cd00" stroke="#00cd00" points="1002.97,-102.5 992.97,-106 1002.97,-109.5 1002.97,-102.5"/>
</g>
<!-- mirl_core&#45;&gt;mirl_derive -->
<g id="edge17" class="edge">
<title>mirl_core-&gt;mirl_derive</title>
<path fill="none" stroke="black" stroke-dasharray="1,5" d="M1255.81,-97.71C1195.46,-85.32 1072.65,-60.11 1002.52,-45.71"/>
<polygon fill="black" stroke="black" points="1003.3,-42.3 992.8,-43.72 1001.89,-49.16 1003.3,-42.3"/>
</g>
<!-- mirl_graphics&#45;&gt;mirl_buffer -->
<g id="edge41" class="edge">
<title>mirl_graphics-&gt;mirl_buffer</title>
<path fill="none" stroke="black" d="M1587.21,-172.46C1579.11,-167.79 1570.69,-162.45 1563.34,-156.8 1554.06,-149.67 1544.82,-140.84 1536.9,-132.6"/>
<polygon fill="black" stroke="black" points="1539.59,-130.36 1530.21,-125.44 1534.48,-135.14 1539.59,-130.36"/>
</g>
<!-- mirl_graphics&#45;&gt;mirl_build_tools -->
<g id="edge44" class="edge">
<title>mirl_graphics-&gt;mirl_build_tools</title>
<path fill="none" stroke="#00cd00" d="M1588.65,-172.37C1581.48,-169.28 1573.8,-166.51 1566.34,-164.8 1497.23,-148.92 1317.95,-163.31 1247.34,-156.8 1162.38,-148.97 1065.44,-132.18 1002.7,-120.27"/>
<polygon fill="#00cd00" stroke="#00cd00" points="1003.36,-116.83 992.88,-118.39 1002.04,-123.7 1003.36,-116.83"/>
</g>
<!-- mirl_graphics&#45;&gt;mirl_derive -->
<g id="edge43" class="edge">
<title>mirl_graphics-&gt;mirl_derive</title>
<path fill="none" stroke="black" stroke-dasharray="1,5" d="M1587.98,-172.41C1580.99,-169.4 1573.55,-166.65 1566.34,-164.8 1543.89,-159.03 1483.2,-166.9 1462.34,-156.8 1420.5,-136.55 1432.93,-100.77 1391.34,-80 1324.36,-46.55 1104.5,-37.95 1002.8,-35.75"/>
<polygon fill="black" stroke="black" points="1002.87,-32.25 992.8,-35.55 1002.73,-39.25 1002.87,-32.25"/>
</g>
<!-- mirl_graphics&#45;&gt;mirl_core -->
<g id="edge42" class="edge">
<title>mirl_graphics-&gt;mirl_core</title>
<path fill="none" stroke="black" d="M1588.31,-172.41C1581.23,-169.36 1573.67,-166.6 1566.34,-164.8 1502.79,-149.22 1483.29,-170.61 1419.34,-156.8 1391.24,-150.73 1361.23,-139.34 1337.33,-128.98"/>
<polygon fill="black" stroke="black" points="1338.75,-125.78 1328.19,-124.93 1335.92,-132.18 1338.75,-125.78"/>
</g>
<!-- mirl_input&#45;&gt;mirl_buffer -->
<g id="edge45" class="edge">
<title>mirl_input-&gt;mirl_buffer</title>
<path fill="none" stroke="black" d="M1025.05,-172.38C1031.19,-169.3 1037.82,-166.52 1044.34,-164.8 1106.89,-148.28 1271.37,-166.43 1335.34,-156.8 1379.28,-150.19 1427.76,-136.27 1463.17,-124.83"/>
<polygon fill="black" stroke="black" points="1463.87,-128.28 1472.28,-121.84 1461.69,-121.63 1463.87,-128.28"/>
</g>
<!-- mirl_input&#45;&gt;mirl_build_tools -->
<g id="edge48" class="edge">
<title>mirl_input-&gt;mirl_build_tools</title>
<path fill="none" stroke="#00cd00" d="M984.7,-172.64C976.41,-161.4 965.41,-146.46 955.99,-133.68"/>
<polygon fill="#00cd00" stroke="#00cd00" points="958.82,-131.61 950.07,-125.64 953.18,-135.76 958.82,-131.61"/>
</g>
<!-- mirl_input&#45;&gt;mirl_derive -->
<g id="edge47" class="edge">
<title>mirl_input-&gt;mirl_derive</title>
<path fill="none" stroke="black" stroke-dasharray="1,5" d="M1002.22,-172.55C1007.6,-150.14 1013.84,-110.31 1000.34,-80 997.01,-72.52 991.75,-65.76 985.87,-59.89"/>
<polygon fill="black" stroke="black" points="988.49,-57.54 978.72,-53.46 983.81,-62.75 988.49,-57.54"/>
</g>
<!-- mirl_input&#45;&gt;mirl_core -->
<g id="edge46" class="edge">
<title>mirl_input-&gt;mirl_core</title>
<path fill="none" stroke="black" d="M1027.4,-172.34C1032.92,-169.56 1038.72,-166.91 1044.34,-164.8 1111.85,-139.44 1194.05,-122.87 1244.53,-114.23"/>
<polygon fill="black" stroke="black" points="1244.95,-117.71 1254.23,-112.6 1243.79,-110.8 1244.95,-117.71"/>
</g>
<!-- mirl_rendering -->
<g id="node25" class="node">
<title>mirl_rendering</title>
<polygon fill="none" stroke="black" points="1225.33,-208.8 1125.35,-208.8 1125.35,-172.8 1225.33,-172.8 1225.33,-208.8"/>
<text xml:space="preserve" text-anchor="middle" x="1175.34" y="-186.6" font-family="Times,serif" font-size="14.00">mirl_rendering</text>
</g>
<!-- mirl_rendering&#45;&gt;mirl_buffer -->
<g id="edge49" class="edge">
<title>mirl_rendering-&gt;mirl_buffer</title>
<path fill="none" stroke="black" d="M1225.62,-180.34C1257.24,-174.17 1298.81,-165.64 1335.34,-156.8 1378.67,-146.32 1427.38,-132.64 1463.04,-122.27"/>
<polygon fill="black" stroke="black" points="1463.6,-125.75 1472.21,-119.59 1461.63,-119.04 1463.6,-125.75"/>
</g>
<!-- mirl_rendering&#45;&gt;mirl_build_tools -->
<g id="edge52" class="edge">
<title>mirl_rendering-&gt;mirl_build_tools</title>
<path fill="none" stroke="#00cd00" d="M1135.55,-172.36C1129.16,-169.73 1122.6,-167.12 1116.34,-164.8 1078.86,-150.87 1036.29,-137.11 1001.97,-126.51"/>
<polygon fill="#00cd00" stroke="#00cd00" points="1003.16,-123.22 992.57,-123.63 1001.11,-129.91 1003.16,-123.22"/>
</g>
<!-- mirl_rendering&#45;&gt;mirl_derive -->
<g id="edge51" class="edge">
<title>mirl_rendering-&gt;mirl_derive</title>
<path fill="none" stroke="black" stroke-dasharray="1,5" d="M1160.28,-172.6C1139.02,-149.15 1098.14,-106.99 1056.34,-80 1039.64,-69.22 1019.92,-60.02 1002.05,-52.81"/>
<polygon fill="black" stroke="black" points="1003.49,-49.61 992.9,-49.24 1000.94,-56.13 1003.49,-49.61"/>
</g>
<!-- mirl_rendering&#45;&gt;mirl_core -->
<g id="edge50" class="edge">
<title>mirl_rendering-&gt;mirl_core</title>
<path fill="none" stroke="black" d="M1199.66,-172.44C1216.52,-160.41 1239.19,-144.23 1257.76,-130.97"/>
<polygon fill="black" stroke="black" points="1259.72,-133.87 1265.82,-125.21 1255.65,-128.18 1259.72,-133.87"/>
</g>
<!-- mirl_system -->
<g id="node26" class="node">
<title>mirl_system</title>
<polygon fill="none" stroke="black" points="1556.95,-208.8 1471.73,-208.8 1471.73,-172.8 1556.95,-172.8 1556.95,-208.8"/>
<text xml:space="preserve" text-anchor="middle" x="1514.34" y="-186.6" font-family="Times,serif" font-size="14.00">mirl_system</text>
</g>
<!-- mirl_system&#45;&gt;mirl_buffer -->
<g id="edge53" class="edge">
<title>mirl_system-&gt;mirl_buffer</title>
<path fill="none" stroke="black" d="M1514.34,-172.64C1514.34,-161.95 1514.34,-147.92 1514.34,-135.57"/>
<polygon fill="black" stroke="black" points="1517.84,-135.93 1514.34,-125.93 1510.84,-135.93 1517.84,-135.93"/>
</g>
<!-- mirl_system&#45;&gt;mirl_build_tools -->
<g id="edge56" class="edge">
<title>mirl_system-&gt;mirl_build_tools</title>
<path fill="none" stroke="#00cd00" d="M1471.27,-184.96C1418.44,-178.91 1326.19,-167.98 1247.34,-156.8 1162.73,-144.8 1065.53,-128.89 1002.64,-118.32"/>
<polygon fill="#00cd00" stroke="#00cd00" points="1003.24,-114.87 992.8,-116.66 1002.08,-121.78 1003.24,-114.87"/>
</g>
<!-- mirl_system&#45;&gt;mirl_derive -->
<g id="edge55" class="edge">
<title>mirl_system-&gt;mirl_derive</title>
<path fill="none" stroke="black" stroke-dasharray="1,5" d="M1477.67,-172.4C1470.99,-169.61 1464.03,-166.95 1457.34,-164.8 1440.91,-159.53 1434.69,-164.68 1419.34,-156.8 1374.33,-133.71 1381.35,-101.02 1335.34,-80 1277.29,-53.48 1093.89,-41.55 1002.77,-37.16"/>
<polygon fill="black" stroke="black" points="1003,-33.66 992.85,-36.69 1002.68,-40.66 1003,-33.66"/>
</g>
<!-- mirl_system&#45;&gt;mirl_core -->
<g id="edge54" class="edge">
<title>mirl_system-&gt;mirl_core</title>
<path fill="none" stroke="black" d="M1479.72,-172.42C1472.48,-169.42 1464.78,-166.66 1457.34,-164.8 1412.8,-153.64 1397.09,-173.54 1354.34,-156.8 1340.24,-151.28 1326.77,-141.48 1315.93,-132.03"/>
<polygon fill="black" stroke="black" points="1318.33,-129.48 1308.6,-125.29 1313.59,-134.64 1318.33,-129.48"/>
</g>
<!-- mirl_terminal -->
<g id="node27" class="node">
<title>mirl_terminal</title>
<polygon fill="none" stroke="black" points="941.83,-208.8 848.85,-208.8 848.85,-172.8 941.83,-172.8 941.83,-208.8"/>
<text xml:space="preserve" text-anchor="middle" x="895.34" y="-186.6" font-family="Times,serif" font-size="14.00">mirl_terminal</text>
</g>
<!-- mirl_terminal&#45;&gt;mirl_build_tools -->
<g id="edge58" class="edge">
<title>mirl_terminal-&gt;mirl_build_tools</title>
<path fill="none" stroke="#00cd00" d="M903.83,-172.64C909.3,-161.62 916.51,-147.04 922.76,-134.43"/>
<polygon fill="#00cd00" stroke="#00cd00" points="925.74,-136.29 927.04,-125.78 919.47,-133.18 925.74,-136.29"/>
</g>
<!-- mirl_terminal&#45;&gt;mirl_core -->
<g id="edge57" class="edge">
<title>mirl_terminal-&gt;mirl_core</title>
<path fill="none" stroke="black" d="M929.99,-172.31C936.62,-169.46 943.6,-166.8 950.34,-164.8 973.18,-158.03 979.82,-160.61 1003.34,-156.8 1088.63,-142.99 1187.87,-125.52 1244.77,-115.37"/>
<polygon fill="black" stroke="black" points="1245.19,-118.85 1254.42,-113.64 1243.96,-111.96 1245.19,-118.85"/>
</g>
</g>
</svg>