<svg xmlns="http://www.w3.org/2000/svg" xmlns:xlink="http://www.w3.org/1999/xlink" width="1259pt" height="692pt" viewBox="0.00 0.00 1259.00 692.00">
<g id="graph0" class="graph" transform="scale(1 1) rotate(0) translate(4 688)">
<polygon fill="white" stroke="none" points="-4,4 -4,-688 1255,-688 1255,4 -4,4"/>
<!-- 0 -->
<g id="node1" class="node">
<title>0</title>
<polygon fill="none" stroke="black" points="462,-612 408,-612 408,-576 462,-576 462,-612"/>
<text xml:space="preserve" text-anchor="middle" x="435" y="-589.8" font-family="Times,serif" font-size="14.00">mirl</text>
</g>
<!-- 1 -->
<g id="node2" class="node">
<title>1</title>
<polygon fill="none" stroke="black" points="650.72,-468 545.28,-468 545.28,-432 650.72,-432 650.72,-468"/>
<text xml:space="preserve" text-anchor="middle" x="598" y="-445.8" font-family="Times,serif" font-size="14.00">mirl_extensions</text>
</g>
<!-- 0&#45;&gt;1 -->
<g id="edge4" class="edge">
<title>0-&gt;1</title>
<path fill="none" stroke="black" d="M454.99,-575.59C483.66,-550.61 536.62,-504.47 569.42,-475.89"/>
<polygon fill="black" stroke="black" points="571.72,-478.53 576.96,-469.33 567.12,-473.26 571.72,-478.53"/>
</g>
<!-- 5 -->
<g id="node6" class="node">
<title>5</title>
<polygon fill="none" stroke="black" points="575.21,-180 504.79,-180 504.79,-144 575.21,-144 575.21,-180"/>
<text xml:space="preserve" text-anchor="middle" x="540" y="-157.8" font-family="Times,serif" font-size="14.00">mirl_core</text>
</g>
<!-- 0&#45;&gt;5 -->
<g id="edge2" class="edge">
<title>0-&gt;5</title>
<path fill="none" stroke="black" d="M437.19,-575.56C441.57,-539.11 451,-452.21 451,-379 451,-379 451,-379 451,-305 451,-264.03 452.72,-250.38 475,-216 482.03,-205.15 492.01,-195.45 502.04,-187.4"/>
<polygon fill="black" stroke="black" points="504.11,-190.23 509.98,-181.41 499.89,-184.64 504.11,-190.23"/>
</g>
<!-- 8 -->
<g id="node9" class="node">
<title>8</title>
<polygon fill="none" stroke="black" points="744.16,-540 669.84,-540 669.84,-504 744.16,-504 744.16,-540"/>
<text xml:space="preserve" text-anchor="middle" x="707" y="-517.8" font-family="Times,serif" font-size="14.00">mirl_math</text>
</g>
<!-- 0&#45;&gt;8 -->
<g id="edge5" class="edge">
<title>0-&gt;8</title>
<path fill="none" stroke="black" d="M462.33,-585.97C508.3,-574.14 601.68,-550.1 658.85,-535.39"/>
<polygon fill="black" stroke="black" points="659.5,-538.84 668.31,-532.96 657.76,-532.06 659.5,-538.84"/>
</g>
<!-- 12 -->
<g id="node13" class="node">
<title>12</title>
<polygon fill="none" stroke="black" points="844.67,-108 735.33,-108 735.33,-72 844.67,-72 844.67,-108"/>
<text xml:space="preserve" text-anchor="middle" x="790" y="-85.8" font-family="Times,serif" font-size="14.00">mirl_build_tools</text>
</g>
<!-- 0&#45;&gt;12 -->
<g id="edge1" class="edge">
<title>0-&gt;12</title>
<path fill="none" stroke="#00cd00" d="M431.99,-575.59C425.96,-539.2 413,-452.39 413,-379 413,-379 413,-379 413,-233 413,-178.91 448.52,-169.9 496,-144 567.26,-105.13 661.28,-93.98 723.59,-91.18"/>
<polygon fill="#00cd00" stroke="#00cd00" points="723.47,-94.69 733.33,-90.81 723.2,-87.69 723.47,-94.69"/>
</g>
<!-- 14 -->
<g id="node15" class="node">
<title>14</title>
<polygon fill="none" stroke="#00cd00" points="992.66,-36 911.34,-36 911.34,0 992.66,0 992.66,-36"/>
<text xml:space="preserve" text-anchor="middle" x="952" y="-13.8" font-family="Times,serif" font-size="14.00">mirl_derive</text>
</g>
<!-- 0&#45;&gt;14 -->
<g id="edge3" class="edge">
<title>0-&gt;14</title>
<path fill="none" stroke="#00cd00" stroke-dasharray="1,5" d="M407.7,-593.14C365.81,-591.9 285.45,-583.52 237,-540 154.41,-465.82 147,-418.01 147,-307 147,-307 147,-307 147,-161 147,-84.31 720.86,-35.9 899.54,-22.68"/>
<polygon fill="#00cd00" stroke="#00cd00" points="899.75,-26.17 909.46,-21.95 899.23,-19.19 899.75,-26.17"/>
</g>
<!-- 2 -->
<g id="node3" class="node">
<title>2</title>
<polygon fill="none" stroke="black" points="767.26,-252 630.74,-252 630.74,-216 767.26,-216 767.26,-252"/>
<text xml:space="preserve" text-anchor="middle" x="699" y="-229.8" font-family="Times,serif" font-size="14.00">mirl_extensions_core</text>
</g>
<!-- 1&#45;&gt;2 -->
<g id="edge8" class="edge">
<title>1-&gt;2</title>
<path fill="none" stroke="black" d="M606.09,-431.85C623.57,-394.83 664.93,-307.18 686.07,-262.39"/>
<polygon fill="black" stroke="black" points="689.12,-264.14 690.22,-253.6 682.79,-261.15 689.12,-264.14"/>
</g>
<!-- 1&#45;&gt;5 -->
<g id="edge7" class="edge">
<title>1-&gt;5</title>
<path fill="none" stroke="black" d="M589.64,-431.69C578.63,-408 559.66,-363.87 551,-324 541.08,-278.36 539.42,-223.89 539.46,-191.44"/>
<polygon fill="black" stroke="black" points="542.96,-191.69 539.54,-181.66 535.96,-191.64 542.96,-191.69"/>
</g>
<!-- 10 -->
<g id="node11" class="node">
<title>10</title>
<polygon fill="none" stroke="black" points="863.59,-396 750.41,-396 750.41,-360 863.59,-360 863.59,-396"/>
<text xml:space="preserve" text-anchor="middle" x="807" y="-373.8" font-family="Times,serif" font-size="14.00">mirl_values_core</text>
</g>
<!-- 1&#45;&gt;10 -->
<g id="edge9" class="edge">
<title>1-&gt;10</title>
<path fill="none" stroke="black" stroke-dasharray="1,5" d="M650.2,-431.52C678.74,-421.96 714.28,-410.05 744.31,-400"/>
<polygon fill="black" stroke="black" points="745.3,-403.36 753.67,-396.86 743.07,-396.72 745.3,-403.36"/>
</g>
<!-- 1&#45;&gt;12 -->
<g id="edge6" class="edge">
<title>1-&gt;12</title>
<path fill="none" stroke="#00cd00" d="M599.01,-431.52C600.47,-404.73 603,-351.9 603,-307 603,-307 603,-307 603,-233 603,-170.32 670.45,-131.71 724.33,-110.87"/>
<polygon fill="#00cd00" stroke="#00cd00" points="725.34,-114.23 733.49,-107.46 722.89,-107.67 725.34,-114.23"/>
</g>
<!-- 2&#45;&gt;5 -->
<g id="edge11" class="edge">
<title>2-&gt;5</title>
<path fill="none" stroke="black" d="M659.29,-215.52C637.03,-205.72 609.17,-193.45 585.98,-183.24"/>
<polygon fill="black" stroke="black" points="587.63,-180.15 577.07,-179.32 584.81,-186.55 587.63,-180.15"/>
</g>
<!-- 2&#45;&gt;12 -->
<g id="edge10" class="edge">
<title>2-&gt;12</title>
<path fill="none" stroke="#00cd00" d="M710.16,-215.59C725.87,-191.08 754.63,-146.19 773.01,-117.52"/>
<polygon fill="#00cd00" stroke="#00cd00" points="775.77,-119.69 778.22,-109.39 769.88,-115.92 775.77,-119.69"/>
</g>
<!-- 3 -->
<g id="node4" class="node">
<title>3</title>
<polygon fill="none" stroke="black" points="234.67,-684 125.33,-684 125.33,-648 234.67,-648 234.67,-684"/>
<text xml:space="preserve" text-anchor="middle" x="180" y="-661.8" font-family="Times,serif" font-size="14.00">mirl_windowing</text>
</g>
<!-- 3&#45;&gt;0 -->
<g id="edge12" class="edge">
<title>3-&gt;0</title>
<path fill="none" stroke="black" d="M235.02,-649.9C283.7,-636.53 353.5,-617.37 396.45,-605.58"/>
<polygon fill="black" stroke="black" points="397.37,-608.96 406.09,-602.94 395.52,-602.21 397.37,-608.96"/>
</g>
<!-- 3&#45;&gt;1 -->
<g id="edge16" class="edge">
<title>3-&gt;1</title>
<path fill="none" stroke="black" d="M235.13,-659.48C308.01,-651.42 431.8,-634.87 471,-612 525.44,-580.24 565.32,-515.42 584.74,-478.45"/>
<polygon fill="black" stroke="black" points="587.77,-480.21 589.2,-469.72 581.53,-477.03 587.77,-480.21"/>
</g>
<!-- 4 -->
<g id="node5" class="node">
<title>4</title>
<polygon fill="none" stroke="black" points="386.21,-540 245.79,-540 245.79,-504 386.21,-504 386.21,-540"/>
<text xml:space="preserve" text-anchor="middle" x="316" y="-517.8" font-family="Times,serif" font-size="14.00">mirl_windowing_core</text>
</g>
<!-- 3&#45;&gt;4 -->
<g id="edge18" class="edge">
<title>3-&gt;4</title>
<path fill="none" stroke="black" stroke-dasharray="1,5" d="M196.68,-647.59C220.46,-622.76 264.27,-577.01 291.67,-548.4"/>
<polygon fill="black" stroke="black" points="294.18,-550.85 298.57,-541.2 289.12,-546.01 294.18,-550.85"/>
</g>
<!-- 3&#45;&gt;5 -->
<g id="edge14" class="edge">
<title>3-&gt;5</title>
<path fill="none" stroke="black" d="M149.46,-647.67C104.82,-619.89 29.86,-562.56 57,-504 140.28,-324.32 226.02,-315.92 397,-216 427.4,-198.23 464.82,-184.62 493.75,-175.64"/>
<polygon fill="black" stroke="black" points="494.38,-179.11 502.94,-172.87 492.35,-172.41 494.38,-179.11"/>
</g>
<!-- 6 -->
<g id="node7" class="node">
<title>6</title>
<polygon fill="none" stroke="black" points="151.61,-540 66.39,-540 66.39,-504 151.61,-504 151.61,-540"/>
<text xml:space="preserve" text-anchor="middle" x="109" y="-517.8" font-family="Times,serif" font-size="14.00">mirl_system</text>
</g>
<!-- 3&#45;&gt;6 -->
<g id="edge17" class="edge">
<title>3-&gt;6</title>
<path fill="none" stroke="black" d="M171.29,-647.59C159.15,-623.29 136.99,-578.97 122.64,-550.27"/>
<polygon fill="black" stroke="black" points="125.83,-548.84 118.23,-541.46 119.57,-551.97 125.83,-548.84"/>
</g>
<!-- 3&#45;&gt;12 -->
<g id="edge13" class="edge">
<title>3-&gt;12</title>
<path fill="none" stroke="#00cd00" d="M186.22,-647.78C205.19,-594.7 261,-433.83 261,-379 261,-379 261,-379 261,-233 261,-177.37 299.04,-168.46 349,-144 413.48,-112.43 617.5,-98.74 723.93,-93.63"/>
<polygon fill="#00cd00" stroke="#00cd00" points="723.83,-97.14 733.65,-93.17 723.5,-90.15 723.83,-97.14"/>
</g>
<!-- 3&#45;&gt;14 -->
<g id="edge15" class="edge">
<title>3-&gt;14</title>
<path fill="none" stroke="#00cd00" stroke-dasharray="1,5" d="M125.02,-647.71C72.08,-627.22 0,-587.48 0,-523 0,-523 0,-523 0,-161 0,-99.48 48.88,-94.85 106,-72 179.46,-42.62 726.54,-25.2 899.64,-20.38"/>
<polygon fill="#00cd00" stroke="#00cd00" points="899.56,-23.88 909.46,-20.11 899.37,-16.88 899.56,-23.88"/>
</g>
<!-- 4&#45;&gt;1 -->
<g id="edge20" class="edge">
<title>4-&gt;1</title>
<path fill="none" stroke="black" d="M386.43,-503.52C431.61,-492.3 489.8,-477.86 533.71,-466.96"/>
<polygon fill="black" stroke="black" points="534.51,-470.37 543.37,-464.56 532.82,-463.57 534.51,-470.37"/>
</g>
<!-- 4&#45;&gt;12 -->
<g id="edge19" class="edge">
<title>4-&gt;12</title>
<path fill="none" stroke="#00cd00" d="M320.25,-503.63C326.39,-476.99 337,-424.36 337,-379 337,-379 337,-379 337,-233 337,-184.79 357.87,-169.14 399,-144 452.08,-111.56 626.64,-98.48 723.6,-93.61"/>
<polygon fill="#00cd00" stroke="#00cd00" points="723.69,-97.11 733.51,-93.13 723.35,-90.12 723.69,-97.11"/>
</g>
<!-- 5&#45;&gt;12 -->
<g id="edge21" class="edge">
<title>5-&gt;12</title>
<path fill="none" stroke="#00cd00" d="M575.49,-148.33C580.02,-146.82 584.61,-145.34 589,-144 633.71,-130.37 684.63,-116.97 724.03,-107.05"/>
<polygon fill="#00cd00" stroke="#00cd00" points="724.77,-110.47 733.62,-104.65 723.07,-103.68 724.77,-110.47"/>
</g>
<!-- 5&#45;&gt;14 -->
<g id="edge22" class="edge">
<title>5-&gt;14</title>
<path fill="none" stroke="#00cd00" stroke-dasharray="1,5" d="M571.04,-143.58C607.26,-123.86 669.44,-91.9 726,-72 784.18,-51.53 853.56,-36.59 899.96,-27.89"/>
<polygon fill="#00cd00" stroke="#00cd00" points="900.55,-31.34 909.75,-26.09 899.28,-24.46 900.55,-31.34"/>
</g>
<!-- 6&#45;&gt;1 -->
<g id="edge26" class="edge">
<title>6-&gt;1</title>
<path fill="none" stroke="black" d="M151.97,-514.85C238.14,-502.51 432.47,-474.7 533.8,-460.19"/>
<polygon fill="black" stroke="black" points="534.19,-463.67 543.59,-458.79 533.19,-456.74 534.19,-463.67"/>
</g>
<!-- 6&#45;&gt;5 -->
<g id="edge24" class="edge">
<title>6-&gt;5</title>
<path fill="none" stroke="black" d="M151.86,-509.3C178.16,-500.71 211.56,-487.19 237,-468 351.15,-381.89 326.5,-306.75 437,-216 453.97,-202.06 475.2,-190.38 493.97,-181.55"/>
<polygon fill="black" stroke="black" points="495.35,-184.77 503.01,-177.45 492.46,-178.39 495.35,-184.77"/>
</g>
<!-- 6&#45;&gt;12 -->
<g id="edge23" class="edge">
<title>6-&gt;12</title>
<path fill="none" stroke="#00cd00" d="M114.18,-503.59C135.46,-432.6 216.48,-167.62 247,-144 284.02,-115.35 587.68,-99.34 724.09,-93.54"/>
<polygon fill="#00cd00" stroke="#00cd00" points="723.83,-97.05 733.67,-93.14 723.53,-90.06 723.83,-97.05"/>
</g>
<!-- 6&#45;&gt;14 -->
<g id="edge25" class="edge">
<title>6-&gt;14</title>
<path fill="none" stroke="#00cd00" stroke-dasharray="1,5" d="M109,-503.51C109,-476.71 109,-423.87 109,-379 109,-379 109,-379 109,-161 109,-120.03 101.3,-97.95 133,-72 192.18,-23.55 728.19,-19.09 899.57,-18.91"/>
<polygon fill="#00cd00" stroke="#00cd00" points="899.52,-22.41 909.52,-18.91 899.51,-15.41 899.52,-22.41"/>
</g>
<!-- 7 -->
<g id="node8" class="node">
<title>7</title>
<polygon fill="none" stroke="black" points="688.99,-684 589.01,-684 589.01,-648 688.99,-648 688.99,-684"/>
<text xml:space="preserve" text-anchor="middle" x="639" y="-661.8" font-family="Times,serif" font-size="14.00">mirl_rendering</text>
</g>
<!-- 7&#45;&gt;0 -->
<g id="edge27" class="edge">
<title>7-&gt;0</title>
<path fill="none" stroke="black" d="M588.71,-649.77C556.31,-639.69 513.41,-625.81 476,-612 474.88,-611.59 473.74,-611.16 472.6,-610.73"/>
<polygon fill="black" stroke="black" points="474.22,-607.6 463.64,-607.2 471.66,-614.12 474.22,-607.6"/>
</g>
<!-- 7&#45;&gt;1 -->
<g id="edge31" class="edge">
<title>7-&gt;1</title>
<path fill="none" stroke="black" d="M635.71,-647.85C628.68,-611.14 612.11,-524.66 603.47,-479.53"/>
<polygon fill="black" stroke="black" points="606.91,-478.88 601.59,-469.72 600.03,-480.2 606.91,-478.88"/>
</g>
<!-- 7&#45;&gt;5 -->
<g id="edge29" class="edge">
<title>7-&gt;5</title>
<path fill="none" stroke="black" d="M622.08,-647.62C582.86,-605.41 489,-492.54 489,-379 489,-379 489,-379 489,-305 489,-262.96 509.05,-217.82 524,-189.99"/>
<polygon fill="black" stroke="black" points="526.9,-191.98 528.7,-181.54 520.78,-188.58 526.9,-191.98"/>
</g>
<!-- 7&#45;&gt;8 -->
<g id="edge32" class="edge">
<title>7-&gt;8</title>
<path fill="none" stroke="black" d="M647.34,-647.59C658.97,-623.29 680.2,-578.97 693.94,-550.27"/>
<polygon fill="black" stroke="black" points="696.99,-552.01 698.15,-541.48 690.68,-548.98 696.99,-552.01"/>
</g>
<!-- 7&#45;&gt;12 -->
<g id="edge28" class="edge">
<title>7-&gt;12</title>
<path fill="none" stroke="#00cd00" d="M689.41,-663.16C791.1,-658.77 1017.01,-645.47 1086,-612 1136.33,-587.58 1175,-578.94 1175,-523 1175,-523 1175,-523 1175,-305 1175,-211.62 1120.05,-192.09 1040,-144 983.84,-110.26 909.29,-97.81 856.25,-93.32"/>
<polygon fill="#00cd00" stroke="#00cd00" points="856.68,-89.84 846.44,-92.56 856.15,-96.82 856.68,-89.84"/>
</g>
<!-- 7&#45;&gt;14 -->
<g id="edge30" class="edge">
<title>7-&gt;14</title>
<path fill="none" stroke="#00cd00" stroke-dasharray="1,5" d="M689.4,-663.03C798.66,-658.21 1053.99,-643.82 1134,-612 1194.71,-587.86 1251,-588.33 1251,-523 1251,-523 1251,-523 1251,-161 1251,-53.04 1089.98,-27.06 1004.27,-20.88"/>
<polygon fill="#00cd00" stroke="#00cd00" points="1004.66,-17.4 994.46,-20.24 1004.21,-24.38 1004.66,-17.4"/>
</g>
<!-- 8&#45;&gt;1 -->
<g id="edge35" class="edge">
<title>8-&gt;1</title>
<path fill="none" stroke="black" d="M679.78,-503.52C666.02,-494.68 649.13,-483.84 634.29,-474.3"/>
<polygon fill="black" stroke="black" points="636.46,-471.54 626.15,-469.08 632.67,-477.43 636.46,-471.54"/>
</g>
<!-- 8&#45;&gt;5 -->
<g id="edge34" class="edge">
<title>8-&gt;5</title>
<path fill="none" stroke="black" d="M698.95,-503.73C672.1,-446.19 585.56,-260.66 552.76,-190.35"/>
<polygon fill="black" stroke="black" points="556.01,-189.05 548.61,-181.47 549.67,-192.01 556.01,-189.05"/>
</g>
<!-- 8&#45;&gt;12 -->
<g id="edge33" class="edge">
<title>8-&gt;12</title>
<path fill="none" stroke="#00cd00" d="M744.58,-505.21C784.78,-486.02 846.35,-449.43 873,-396 923.62,-294.52 886.28,-244.11 833,-144 827.98,-134.58 821.17,-125.22 814.45,-117.05"/>
<polygon fill="#00cd00" stroke="#00cd00" points="817.17,-114.84 807.99,-109.54 811.86,-119.41 817.17,-114.84"/>
</g>
<!-- 9 -->
<g id="node10" class="node">
<title>9</title>
<polygon fill="none" stroke="black" points="988.05,-540 905.95,-540 905.95,-504 988.05,-504 988.05,-540"/>
<text xml:space="preserve" text-anchor="middle" x="947" y="-517.8" font-family="Times,serif" font-size="14.00">mirl_values</text>
</g>
<!-- 9&#45;&gt;1 -->
<g id="edge38" class="edge">
<title>9-&gt;1</title>
<path fill="none" stroke="black" d="M905.59,-512.7C845.35,-500.61 733,-478.08 662.04,-463.84"/>
<polygon fill="black" stroke="black" points="663,-460.47 652.5,-461.93 661.62,-467.33 663,-460.47"/>
</g>
<!-- 9&#45;&gt;10 -->
<g id="edge39" class="edge">
<title>9-&gt;10</title>
<path fill="none" stroke="black" d="M929.83,-503.59C905.24,-478.65 859.86,-432.62 831.68,-404.03"/>
<polygon fill="black" stroke="black" points="834.45,-401.85 824.93,-397.19 829.46,-406.77 834.45,-401.85"/>
</g>
<!-- 9&#45;&gt;12 -->
<g id="edge36" class="edge">
<title>9-&gt;12</title>
<path fill="none" stroke="#00cd00" d="M946.08,-503.58C943.11,-456.05 931.61,-320.69 893,-216 880.55,-182.24 878.75,-171.87 856,-144 847.38,-133.43 836.33,-123.56 825.75,-115.27"/>
<polygon fill="#00cd00" stroke="#00cd00" points="827.95,-112.55 817.86,-109.32 823.74,-118.14 827.95,-112.55"/>
</g>
<!-- 9&#45;&gt;14 -->
<g id="edge37" class="edge">
<title>9-&gt;14</title>
<path fill="none" stroke="#00cd00" stroke-dasharray="1,5" d="M950.63,-503.91C952.64,-493.57 954.95,-480.09 956,-468 969.88,-308.6 957.56,-268 958,-108 958.04,-92 958.9,-87.97 958,-72 957.55,-64.02 956.72,-55.39 955.82,-47.47"/>
<polygon fill="#00cd00" stroke="#00cd00" points="959.31,-47.15 954.62,-37.65 952.36,-48 959.31,-47.15"/>
</g>
<!-- 10&#45;&gt;2 -->
<g id="edge43" class="edge">
<title>10-&gt;2</title>
<path fill="none" stroke="black" d="M770.72,-359.56C755.67,-350.74 739.16,-338.75 728,-324 714.59,-306.26 707.23,-282.06 703.28,-263.38"/>
<polygon fill="black" stroke="black" points="706.77,-262.96 701.48,-253.77 699.89,-264.25 706.77,-262.96"/>
</g>
<!-- 10&#45;&gt;12 -->
<g id="edge40" class="edge">
<title>10-&gt;12</title>
<path fill="none" stroke="#00cd00" d="M827.38,-359.53C836.81,-350.09 847.01,-337.6 852,-324 857.52,-308.98 854.21,-303.85 852,-288 843.33,-225.89 817.57,-156.69 802.11,-119.08"/>
<polygon fill="#00cd00" stroke="#00cd00" points="805.35,-117.74 798.26,-109.86 798.89,-120.44 805.35,-117.74"/>
</g>
<!-- 13 -->
<g id="node14" class="node">
<title>13</title>
<polygon fill="none" stroke="black" points="843.49,-324 736.51,-324 736.51,-288 843.49,-288 843.49,-324"/>
<text xml:space="preserve" text-anchor="middle" x="790" y="-301.8" font-family="Times,serif" font-size="14.00">mirl_collections</text>
</g>
<!-- 10&#45;&gt;13 -->
<g id="edge41" class="edge">
<title>10-&gt;13</title>
<path fill="none" stroke="black" d="M802.8,-359.7C801.01,-352.32 798.87,-343.52 796.86,-335.25"/>
<polygon fill="black" stroke="black" points="800.27,-334.47 794.51,-325.58 793.47,-336.12 800.27,-334.47"/>
</g>
<!-- 10&#45;&gt;14 -->
<g id="edge42" class="edge">
<title>10-&gt;14</title>
<path fill="none" stroke="#00cd00" stroke-dasharray="1,5" d="M833.38,-359.61C845.53,-350.36 859.18,-338.01 868,-324 925,-233.51 943.88,-104.23 949.66,-47.51"/>
<polygon fill="#00cd00" stroke="#00cd00" points="953.13,-48.04 950.59,-37.75 946.16,-47.38 953.13,-48.04"/>
</g>
<!-- 11 -->
<g id="node12" class="node">
<title>11</title>
<polygon fill="none" stroke="black" points="1077.26,-612 968.74,-612 968.74,-576 1077.26,-576 1077.26,-612"/>
<text xml:space="preserve" text-anchor="middle" x="1023" y="-589.8" font-family="Times,serif" font-size="14.00">mirl_codec_info</text>
</g>
<!-- 11&#45;&gt;1 -->
<g id="edge47" class="edge">
<title>11-&gt;1</title>
<path fill="none" stroke="black" d="M968.25,-590.23C880.09,-584.9 711.42,-570.92 661,-540 637.61,-525.66 620.51,-499.02 610.07,-478.61"/>
<polygon fill="black" stroke="black" points="613.26,-477.16 605.76,-469.69 606.96,-480.21 613.26,-477.16"/>
</g>
<!-- 11&#45;&gt;5 -->
<g id="edge45" class="edge">
<title>11-&gt;5</title>
<path fill="none" stroke="black" d="M1019.6,-575.71C1015.62,-557.35 1008.12,-527.76 997,-504 931.05,-363.08 929.41,-299.3 798,-216 732.87,-174.72 641.6,-164.83 586.89,-162.88"/>
<polygon fill="black" stroke="black" points="587.06,-159.38 576.97,-162.61 586.87,-166.38 587.06,-159.38"/>
</g>
<!-- 11&#45;&gt;9 -->
<g id="edge48" class="edge">
<title>11-&gt;9</title>
<path fill="none" stroke="black" d="M1004.21,-575.7C995.17,-567.37 984.16,-557.22 974.22,-548.07"/>
<polygon fill="black" stroke="black" points="976.67,-545.57 966.95,-541.37 971.93,-550.72 976.67,-545.57"/>
</g>
<!-- 11&#45;&gt;12 -->
<g id="edge44" class="edge">
<title>11-&gt;12</title>
<path fill="none" stroke="#00cd00" d="M1030.69,-575.91C1041.79,-549.62 1061,-497.45 1061,-451 1061,-451 1061,-451 1061,-233 1061,-140.8 936.4,-108.35 856.18,-97.01"/>
<polygon fill="#00cd00" stroke="#00cd00" points="857.04,-93.59 846.67,-95.74 856.12,-100.53 857.04,-93.59"/>
</g>
<!-- 11&#45;&gt;14 -->
<g id="edge46" class="edge">
<title>11-&gt;14</title>
<path fill="none" stroke="#00cd00" stroke-dasharray="1,5" d="M1040.2,-575.75C1086.97,-526.92 1213,-381.71 1213,-235 1213,-235 1213,-235 1213,-161 1213,-66.92 1080.52,-34.82 1004.33,-24.13"/>
<polygon fill="#00cd00" stroke="#00cd00" points="1004.94,-20.68 994.57,-22.85 1004.03,-27.62 1004.94,-20.68"/>
</g>
<!-- 12&#45;&gt;14 -->
<g id="edge49" class="edge">
<title>12-&gt;14</title>
<path fill="none" stroke="#00cd00" stroke-dasharray="1,5" d="M830.46,-71.52C851.9,-62.25 878.45,-50.78 901.25,-40.93"/>
<polygon fill="#00cd00" stroke="#00cd00" points="902.59,-44.16 910.38,-36.98 899.82,-37.74 902.59,-44.16"/>
</g>
<!-- 13&#45;&gt;2 -->
<g id="edge53" class="edge">
<title>13-&gt;2</title>
<path fill="none" stroke="black" d="M767.51,-287.7C756.35,-279.11 742.69,-268.61 730.51,-259.24"/>
<polygon fill="black" stroke="black" points="732.81,-256.59 722.75,-253.27 728.54,-262.14 732.81,-256.59"/>
</g>
<!-- 13&#45;&gt;5 -->
<g id="edge51" class="edge">
<title>13-&gt;5</title>
<path fill="none" stroke="black" d="M792.51,-287.83C794.39,-267.9 794.08,-235.29 776,-216 750.64,-188.94 647.94,-173.99 586.69,-167.32"/>
<polygon fill="black" stroke="black" points="587.21,-163.86 576.9,-166.29 586.48,-170.82 587.21,-163.86"/>
</g>
<!-- 13&#45;&gt;12 -->
<g id="edge50" class="edge">
<title>13-&gt;12</title>
<path fill="none" stroke="#00cd00" d="M793.25,-287.89C795.05,-277.54 797.09,-264.06 798,-252 801.47,-205.72 797.09,-151.85 793.57,-119.64"/>
<polygon fill="#00cd00" stroke="#00cd00" points="797.07,-119.45 792.46,-109.91 790.12,-120.25 797.07,-119.45"/>
</g>
<!-- 13&#45;&gt;14 -->
<g id="edge52" class="edge">
<title>13-&gt;14</title>
<path fill="none" stroke="#00cd00" stroke-dasharray="1,5" d="M799.89,-287.54C827.18,-239.36 903.7,-104.27 936.62,-46.15"/>
<polygon fill="#00cd00" stroke="#00cd00" points="939.61,-47.97 941.49,-37.55 933.52,-44.52 939.61,-47.97"/>
</g>
</g>
</svg>