<svg width="1965pt" height="764pt" viewBox="0.00 0.00 1965.00 764.00" xmlns="http://www.w3.org/2000/svg" xmlns:xlink="http://www.w3.org/1999/xlink">
<g id="graph0" class="graph" transform="scale(1 1) rotate(0) translate(4 760)">
<polygon fill="white" stroke="none" points="-4,4 -4,-760 1960.86,-760 1960.86,4 -4,4"/>
<!-- 0 -->
<g id="node1" class="node">
<title>0</title>
<polygon fill="none" stroke="black" points="1583.1,-396 1502.57,-396 1502.57,-360 1583.1,-360 1583.1,-396"/>
<text xml:space="preserve" text-anchor="middle" x="1542.83" y="-373.8" font-family="Times,serif" font-size="14.00">mirl_buffer</text>
</g>
<!-- 7 -->
<g id="node8" class="node">
<title>7</title>
<polygon fill="none" stroke="black" points="743.5,-108 634.16,-108 634.16,-72 743.5,-72 743.5,-108"/>
<text xml:space="preserve" text-anchor="middle" x="688.83" y="-85.8" font-family="Times,serif" font-size="14.00">mirl_build_tools</text>
</g>
<!-- 0&#45;&gt;7 -->
<g id="edge1" class="edge">
<title>0-&gt;7</title>
<path fill="none" stroke="#00cd00" d="M1547.59,-359.5C1558.26,-315.88 1578.77,-201.65 1518.83,-144 1464.27,-91.52 942.01,-89.46 755.02,-90.42"/>
<polygon fill="#00cd00" stroke="#00cd00" points="755.21,-86.92 745.23,-90.48 755.25,-93.92 755.21,-86.92"/>
</g>
<!-- 12 -->
<g id="node13" class="node">
<title>12</title>
<polygon fill="none" stroke="#00cd00" points="592.49,-36 511.18,-36 511.18,0 592.49,0 592.49,-36"/>
<text xml:space="preserve" text-anchor="middle" x="551.83" y="-13.8" font-family="Times,serif" font-size="14.00">mirl_derive</text>
</g>
<!-- 0&#45;&gt;12 -->
<g id="edge2" class="edge">
<title>0-&gt;12</title>
<path fill="none" stroke="#00cd00" stroke-dasharray="1,5" d="M1583.52,-368.9C1644.83,-354.06 1753.83,-316.25 1753.83,-235 1753.83,-235 1753.83,-235 1753.83,-161 1753.83,-43.47 835.73,-22.91 604.3,-19.6"/>
<polygon fill="#00cd00" stroke="#00cd00" points="604.42,-16.1 594.37,-19.46 604.32,-23.1 604.42,-16.1"/>
</g>
<!-- 1 -->
<g id="node2" class="node">
<title>1</title>
<polygon fill="none" stroke="black" points="1190.37,-612 1031.3,-612 1031.3,-576 1190.37,-576 1190.37,-612"/>
<text xml:space="preserve" text-anchor="middle" x="1110.83" y="-589.8" font-family="Times,serif" font-size="14.00">mirl_buffer_interpolation</text>
</g>
<!-- 1&#45;&gt;7 -->
<g id="edge3" class="edge">
<title>1-&gt;7</title>
<path fill="none" stroke="#00cd00" d="M1106.71,-575.56C1102.42,-557.58 1095.41,-528.77 1088.83,-504 1065.46,-416.03 1032.83,-398.02 1032.83,-307 1032.83,-307 1032.83,-307 1032.83,-233 1032.83,-173.51 854.83,-126.13 754.91,-104.22"/>
<polygon fill="#00cd00" stroke="#00cd00" points="755.71,-100.81 745.2,-102.12 754.23,-107.65 755.71,-100.81"/>
</g>
<!-- 13 -->
<g id="node14" class="node">
<title>13</title>
<polygon fill="none" stroke="black" points="1269.71,-468 1175.95,-468 1175.95,-432 1269.71,-432 1269.71,-468"/>
<text xml:space="preserve" text-anchor="middle" x="1222.83" y="-445.8" font-family="Times,serif" font-size="14.00">mirl_graphics</text>
</g>
<!-- 1&#45;&gt;13 -->
<g id="edge5" class="edge">
<title>1-&gt;13</title>
<path fill="none" stroke="black" d="M1127.76,-575.85C1137.48,-565.71 1149.73,-552.46 1159.83,-540 1176.23,-519.77 1193.19,-495.59 1205.38,-477.54"/>
<polygon fill="black" stroke="black" points="1208.13,-479.73 1210.78,-469.47 1202.31,-475.83 1208.13,-479.73"/>
</g>
<!-- 15 -->
<g id="node16" class="node">
<title>15</title>
<polygon fill="none" stroke="black" points="1080.05,-540 939.62,-540 939.62,-504 1080.05,-504 1080.05,-540"/>
<text xml:space="preserve" text-anchor="middle" x="1009.83" y="-517.8" font-family="Times,serif" font-size="14.00">mirl_extensions_math</text>
</g>
<!-- 1&#45;&gt;15 -->
<g id="edge4" class="edge">
<title>1-&gt;15</title>
<path fill="none" stroke="black" d="M1085.61,-575.52C1072.98,-566.76 1057.51,-556.04 1043.85,-546.58"/>
<polygon fill="black" stroke="black" points="1046.19,-543.94 1035.98,-541.12 1042.21,-549.7 1046.19,-543.94"/>
</g>
<!-- 2 -->
<g id="node3" class="node">
<title>2</title>
<polygon fill="none" stroke="black" points="249.09,-756 140.57,-756 140.57,-720 249.09,-720 249.09,-756"/>
<text xml:space="preserve" text-anchor="middle" x="194.83" y="-733.8" font-family="Times,serif" font-size="14.00">mirl_codec_info</text>
</g>
<!-- 3 -->
<g id="node4" class="node">
<title>3</title>
<polygon fill="none" stroke="black" points="235.88,-684 153.78,-684 153.78,-648 235.88,-648 235.88,-684"/>
<text xml:space="preserve" text-anchor="middle" x="194.83" y="-661.8" font-family="Times,serif" font-size="14.00">mirl_values</text>
</g>
<!-- 2&#45;&gt;3 -->
<g id="edge10" class="edge">
<title>2-&gt;3</title>
<path fill="none" stroke="black" d="M194.83,-719.7C194.83,-712.41 194.83,-703.73 194.83,-695.54"/>
<polygon fill="black" stroke="black" points="198.33,-695.62 194.83,-685.62 191.33,-695.62 198.33,-695.62"/>
</g>
<!-- 5 -->
<g id="node6" class="node">
<title>5</title>
<polygon fill="none" stroke="black" points="775.55,-612 670.12,-612 670.12,-576 775.55,-576 775.55,-612"/>
<text xml:space="preserve" text-anchor="middle" x="722.83" y="-589.8" font-family="Times,serif" font-size="14.00">mirl_extensions</text>
</g>
<!-- 2&#45;&gt;5 -->
<g id="edge9" class="edge">
<title>2-&gt;5</title>
<path fill="none" stroke="black" d="M249.23,-734.9C373.58,-729.61 670.5,-713.95 703.83,-684 720.45,-669.06 724.51,-643.46 724.81,-623.54"/>
<polygon fill="black" stroke="black" points="728.31,-623.75 724.63,-613.82 721.31,-623.88 728.31,-623.75"/>
</g>
<!-- 2&#45;&gt;7 -->
<g id="edge6" class="edge">
<title>2-&gt;7</title>
<path fill="none" stroke="#00cd00" d="M172.82,-719.72C162.5,-710.32 151.12,-697.82 144.83,-684 88.4,-560.03 114.83,-515.21 114.83,-379 114.83,-379 114.83,-379 114.83,-233 114.83,-181.84 142.8,-168.29 187.83,-144 261.31,-104.37 503.78,-94.37 622.36,-91.85"/>
<polygon fill="#00cd00" stroke="#00cd00" points="622.34,-95.35 632.27,-91.65 622.2,-88.35 622.34,-95.35"/>
</g>
<!-- 10 -->
<g id="node11" class="node">
<title>10</title>
<polygon fill="none" stroke="black" points="1220.04,-180 1149.62,-180 1149.62,-144 1220.04,-144 1220.04,-180"/>
<text xml:space="preserve" text-anchor="middle" x="1184.83" y="-157.8" font-family="Times,serif" font-size="14.00">mirl_core</text>
</g>
<!-- 2&#45;&gt;10 -->
<g id="edge7" class="edge">
<title>2-&gt;10</title>
<path fill="none" stroke="black" d="M249.35,-736.87C450.37,-736.03 1142.87,-729.8 1229.83,-684 1273.88,-660.8 1297.83,-644.78 1297.83,-595 1297.83,-595 1297.83,-595 1297.83,-521 1297.83,-463.22 1250.9,-275.95 1222.83,-216 1218.48,-206.71 1212.46,-197.36 1206.48,-189.16"/>
<polygon fill="black" stroke="black" points="1209.36,-187.16 1200.52,-181.33 1203.79,-191.4 1209.36,-187.16"/>
</g>
<!-- 2&#45;&gt;12 -->
<g id="edge8" class="edge">
<title>2-&gt;12</title>
<path fill="none" stroke="#00cd00" stroke-dasharray="1,5" d="M140.28,-722.55C82.9,-703.66 0.83,-664.5 0.83,-595 0.83,-595 0.83,-595 0.83,-161 0.83,-120.03 -6.4,-98.51 24.83,-72 60.57,-41.67 373.65,-26.03 499.65,-20.92"/>
<polygon fill="#00cd00" stroke="#00cd00" points="499.52,-24.43 509.37,-20.54 499.24,-17.44 499.52,-24.43"/>
</g>
<!-- 4 -->
<g id="node5" class="node">
<title>4</title>
<polygon fill="none" stroke="black" points="624.43,-396 511.24,-396 511.24,-360 624.43,-360 624.43,-396"/>
<text xml:space="preserve" text-anchor="middle" x="567.83" y="-373.8" font-family="Times,serif" font-size="14.00">mirl_values_core</text>
</g>
<!-- 3&#45;&gt;4 -->
<g id="edge14" class="edge">
<title>3-&gt;4</title>
<path fill="none" stroke="black" d="M217.6,-647.54C281.61,-598.46 463.24,-459.2 536.56,-402.98"/>
<polygon fill="black" stroke="black" points="538.35,-406.01 544.16,-397.15 534.09,-400.46 538.35,-406.01"/>
</g>
<!-- 3&#45;&gt;5 -->
<g id="edge13" class="edge">
<title>3-&gt;5</title>
<path fill="none" stroke="black" d="M236.26,-659.51C327.95,-647.35 548.58,-618.1 658.44,-603.54"/>
<polygon fill="black" stroke="black" points="658.72,-607.03 668.17,-602.25 657.8,-600.09 658.72,-607.03"/>
</g>
<!-- 3&#45;&gt;7 -->
<g id="edge11" class="edge">
<title>3-&gt;7</title>
<path fill="none" stroke="#00cd00" d="M194.02,-647.52C192.85,-620.72 190.83,-567.89 190.83,-523 190.83,-523 190.83,-523 190.83,-233 190.83,-192.03 183.75,-170.69 214.83,-144 245.18,-117.95 499.74,-101.03 622.77,-94.3"/>
<polygon fill="#00cd00" stroke="#00cd00" points="622.59,-97.81 632.38,-93.78 622.21,-90.82 622.59,-97.81"/>
</g>
<!-- 3&#45;&gt;12 -->
<g id="edge12" class="edge">
<title>3-&gt;12</title>
<path fill="none" stroke="#00cd00" stroke-dasharray="1,5" d="M181.98,-647.64C151.4,-604.56 76.83,-488.31 76.83,-379 76.83,-379 76.83,-379 76.83,-161 76.83,-112.79 97.61,-96.99 138.83,-72 198.38,-35.9 402.23,-24.12 499.44,-20.5"/>
<polygon fill="#00cd00" stroke="#00cd00" points="499.37,-24 509.24,-20.15 499.12,-17.01 499.37,-24"/>
</g>
<!-- 6 -->
<g id="node7" class="node">
<title>6</title>
<polygon fill="none" stroke="black" points="929.09,-252 792.57,-252 792.57,-216 929.09,-216 929.09,-252"/>
<text xml:space="preserve" text-anchor="middle" x="860.83" y="-229.8" font-family="Times,serif" font-size="14.00">mirl_extensions_core</text>
</g>
<!-- 4&#45;&gt;6 -->
<g id="edge18" class="edge">
<title>4-&gt;6</title>
<path fill="none" stroke="black" d="M573.96,-359.67C582.1,-339.27 598.48,-305.9 623.83,-288 669.61,-255.69 731.73,-242.64 780.89,-237.57"/>
<polygon fill="black" stroke="black" points="780.99,-241.07 790.62,-236.66 780.34,-234.1 780.99,-241.07"/>
</g>
<!-- 4&#45;&gt;7 -->
<g id="edge15" class="edge">
<title>4-&gt;7</title>
<path fill="none" stroke="#00cd00" d="M570.41,-359.57C573.41,-341.36 579.1,-312.12 587.83,-288 610.92,-224.25 650.15,-154.81 672.31,-117.8"/>
<polygon fill="#00cd00" stroke="#00cd00" points="675.12,-119.91 677.3,-109.54 669.13,-116.29 675.12,-119.91"/>
</g>
<!-- 8 -->
<g id="node9" class="node">
<title>8</title>
<polygon fill="none" stroke="black" points="739.32,-324 632.34,-324 632.34,-288 739.32,-288 739.32,-324"/>
<text xml:space="preserve" text-anchor="middle" x="685.83" y="-301.8" font-family="Times,serif" font-size="14.00">mirl_collections</text>
</g>
<!-- 4&#45;&gt;8 -->
<g id="edge16" class="edge">
<title>4-&gt;8</title>
<path fill="none" stroke="black" d="M597.3,-359.52C612.34,-350.6 630.83,-339.63 647.01,-330.03"/>
<polygon fill="black" stroke="black" points="648.62,-333.15 655.43,-325.03 645.05,-327.12 648.62,-333.15"/>
</g>
<!-- 4&#45;&gt;12 -->
<g id="edge17" class="edge">
<title>4-&gt;12</title>
<path fill="none" stroke="#00cd00" stroke-dasharray="1,5" d="M567.06,-359.73C564.5,-302.43 556.27,-118.18 553.09,-47.22"/>
<polygon fill="#00cd00" stroke="#00cd00" points="556.61,-47.44 552.66,-37.61 549.61,-47.75 556.61,-47.44"/>
</g>
<!-- 5&#45;&gt;0 -->
<g id="edge19" class="edge">
<title>5-&gt;0</title>
<path fill="none" stroke="black" d="M775.78,-590.42C855.13,-585.62 1009.13,-572.65 1135.83,-540 1271.72,-504.99 1423.35,-436.71 1497.29,-401.38"/>
<polygon fill="black" stroke="black" points="1498.77,-404.55 1506.27,-397.07 1495.74,-398.25 1498.77,-404.55"/>
</g>
<!-- 5&#45;&gt;4 -->
<g id="edge28" class="edge">
<title>5-&gt;4</title>
<path fill="none" stroke="black" stroke-dasharray="1,5" d="M695.66,-575.63C681.74,-566.04 665,-553.37 651.83,-540 624.14,-511.87 618.25,-502.91 599.83,-468 589.59,-448.58 581.32,-425.17 575.75,-407.23"/>
<polygon fill="black" stroke="black" points="579.14,-406.36 572.92,-397.78 572.44,-408.36 579.14,-406.36"/>
</g>
<!-- 5&#45;&gt;6 -->
<g id="edge24" class="edge">
<title>5-&gt;6</title>
<path fill="none" stroke="black" d="M723.3,-575.57C724.58,-545.47 729.3,-482.15 746.83,-432 769.81,-366.26 815.19,-297.66 841.23,-261.3"/>
<polygon fill="black" stroke="black" points="843.79,-263.73 846.83,-253.58 838.12,-259.62 843.79,-263.73"/>
</g>
<!-- 5&#45;&gt;7 -->
<g id="edge20" class="edge">
<title>5-&gt;7</title>
<path fill="none" stroke="#00cd00" d="M677.48,-575.55C657.68,-566.66 634.91,-554.62 616.83,-540 553.16,-488.48 528.91,-473.3 501.83,-396 461.71,-281.46 591.77,-164.09 655.6,-114.93"/>
<polygon fill="#00cd00" stroke="#00cd00" points="657.45,-117.93 663.31,-109.1 653.22,-112.35 657.45,-117.93"/>
</g>
<!-- 5&#45;&gt;8 -->
<g id="edge21" class="edge">
<title>5-&gt;8</title>
<path fill="none" stroke="black" stroke-dasharray="1,5" d="M706.03,-575.79C685.31,-553.22 651.19,-511.39 637.83,-468 623.35,-420.96 648.82,-365.98 667.86,-333.97"/>
<polygon fill="black" stroke="black" points="670.68,-336.06 672.96,-325.71 664.73,-332.38 670.68,-336.06"/>
</g>
<!-- 5&#45;&gt;10 -->
<g id="edge22" class="edge">
<title>5-&gt;10</title>
<path fill="none" stroke="black" d="M760.3,-575.54C801.58,-556.65 870.17,-526.24 930.83,-504 981.91,-485.27 1006.03,-502.82 1047.83,-468 1093.26,-430.16 1153.14,-259.4 1175.71,-191.24"/>
<polygon fill="black" stroke="black" points="1178.97,-192.51 1178.77,-181.92 1172.32,-190.33 1178.97,-192.51"/>
</g>
<!-- 5&#45;&gt;13 -->
<g id="edge26" class="edge">
<title>5-&gt;13</title>
<path fill="none" stroke="black" stroke-dasharray="1,5" d="M775.87,-592.55C848.73,-590.35 982.83,-580.51 1088.83,-540 1128.56,-524.82 1168.45,-496.2 1194.24,-475.51"/>
<polygon fill="black" stroke="black" points="1196.38,-478.28 1201.91,-469.24 1191.95,-472.86 1196.38,-478.28"/>
</g>
<!-- 14 -->
<g id="node15" class="node">
<title>14</title>
<polygon fill="none" stroke="black" points="1439.39,-540 1364.28,-540 1364.28,-504 1439.39,-504 1439.39,-540"/>
<text xml:space="preserve" text-anchor="middle" x="1401.83" y="-517.8" font-family="Times,serif" font-size="14.00">mirl_input</text>
</g>
<!-- 5&#45;&gt;14 -->
<g id="edge27" class="edge">
<title>5-&gt;14</title>
<path fill="none" stroke="black" stroke-dasharray="1,5" d="M775.7,-588.55C873.94,-580.15 1091.23,-560.9 1273.83,-540 1299.86,-537.02 1328.8,-533.22 1352.57,-529.97"/>
<polygon fill="black" stroke="black" points="1352.86,-533.46 1362.29,-528.63 1351.91,-526.52 1352.86,-533.46"/>
</g>
<!-- 5&#45;&gt;15 -->
<g id="edge25" class="edge">
<title>5-&gt;15</title>
<path fill="none" stroke="black" d="M775.81,-580.08C818.57,-569.65 879.46,-554.8 928.42,-542.86"/>
<polygon fill="black" stroke="black" points="928.95,-546.33 937.84,-540.56 927.29,-539.53 928.95,-546.33"/>
</g>
<!-- 21 -->
<g id="node22" class="node">
<title>21</title>
<polygon fill="none" stroke="black" points="929.76,-468 755.9,-468 755.9,-432 929.76,-432 929.76,-468"/>
<text xml:space="preserve" text-anchor="middle" x="842.83" y="-445.8" font-family="Times,serif" font-size="14.00">mirl_extensions_conversion</text>
</g>
<!-- 5&#45;&gt;21 -->
<g id="edge23" class="edge">
<title>5-&gt;21</title>
<path fill="none" stroke="black" d="M737.55,-575.59C758.44,-550.86 796.86,-505.41 821.05,-476.77"/>
<polygon fill="black" stroke="black" points="823.61,-479.16 827.4,-469.27 818.27,-474.65 823.61,-479.16"/>
</g>
<!-- 6&#45;&gt;7 -->
<g id="edge29" class="edge">
<title>6-&gt;7</title>
<path fill="none" stroke="#00cd00" d="M847.34,-215.51C832.07,-196.46 805.8,-165.78 778.83,-144 764.94,-132.79 748.43,-122.36 733.36,-113.77"/>
<polygon fill="#00cd00" stroke="#00cd00" points="735.47,-110.94 725.03,-109.14 732.07,-117.06 735.47,-110.94"/>
</g>
<!-- 6&#45;&gt;10 -->
<g id="edge30" class="edge">
<title>6-&gt;10</title>
<path fill="none" stroke="black" d="M929.54,-218.15C992.32,-204.59 1083.45,-184.9 1138.15,-173.08"/>
<polygon fill="black" stroke="black" points="1138.74,-176.54 1147.77,-171.01 1137.26,-169.7 1138.74,-176.54"/>
</g>
<!-- 7&#45;&gt;12 -->
<g id="edge31" class="edge">
<title>7-&gt;12</title>
<path fill="none" stroke="#00cd00" stroke-dasharray="1,5" d="M654.61,-71.52C636.83,-62.43 614.88,-51.22 595.85,-41.49"/>
<polygon fill="#00cd00" stroke="#00cd00" points="597.46,-38.38 586.96,-36.95 594.27,-44.62 597.46,-38.38"/>
</g>
<!-- 8&#45;&gt;6 -->
<g id="edge35" class="edge">
<title>8-&gt;6</title>
<path fill="none" stroke="black" d="M729.54,-287.52C753.02,-278.13 782.16,-266.47 807.02,-256.53"/>
<polygon fill="black" stroke="black" points="807.99,-259.91 815.97,-252.94 805.39,-253.41 807.99,-259.91"/>
</g>
<!-- 8&#45;&gt;7 -->
<g id="edge32" class="edge">
<title>8-&gt;7</title>
<path fill="none" stroke="#00cd00" d="M681.37,-287.95C678.9,-277.63 676.08,-264.15 674.83,-252 669.93,-204.25 668.65,-191.6 674.83,-144 675.89,-135.88 677.81,-127.24 679.9,-119.34"/>
<polygon fill="#00cd00" stroke="#00cd00" points="683.22,-120.47 682.59,-109.9 676.49,-118.55 683.22,-120.47"/>
</g>
<!-- 8&#45;&gt;10 -->
<g id="edge33" class="edge">
<title>8-&gt;10</title>
<path fill="none" stroke="black" d="M699.28,-287.55C716.43,-266.69 748.18,-232.54 783.83,-216 845.93,-187.19 1046,-171.52 1137.89,-165.69"/>
<polygon fill="black" stroke="black" points="1138.06,-169.19 1147.82,-165.07 1137.62,-162.2 1138.06,-169.19"/>
</g>
<!-- 8&#45;&gt;12 -->
<g id="edge34" class="edge">
<title>8-&gt;12</title>
<path fill="none" stroke="#00cd00" stroke-dasharray="1,5" d="M677.65,-287.54C655.12,-239.46 592.05,-104.83 564.72,-46.51"/>
<polygon fill="#00cd00" stroke="#00cd00" points="567.96,-45.17 560.55,-37.6 561.62,-48.14 567.96,-45.17"/>
</g>
<!-- 9 -->
<g id="node10" class="node">
<title>9</title>
<polygon fill="none" stroke="black" points="1854.5,-756 1773.17,-756 1773.17,-720 1854.5,-720 1854.5,-756"/>
<text xml:space="preserve" text-anchor="middle" x="1813.83" y="-733.8" font-family="Times,serif" font-size="14.00">mirl_consts</text>
</g>
<!-- 10&#45;&gt;7 -->
<g id="edge36" class="edge">
<title>10-&gt;7</title>
<path fill="none" stroke="#00cd00" d="M1149.24,-154.64C1130.17,-151.3 1106.25,-147.25 1084.83,-144 968.98,-126.41 833.57,-108.95 754.88,-99.11"/>
<polygon fill="#00cd00" stroke="#00cd00" points="755.55,-95.67 745.19,-97.91 754.68,-102.62 755.55,-95.67"/>
</g>
<!-- 10&#45;&gt;12 -->
<g id="edge37" class="edge">
<title>10-&gt;12</title>
<path fill="none" stroke="#00cd00" stroke-dasharray="1,5" d="M1149.44,-153.06C1043.53,-129.3 728.66,-58.67 603.74,-30.64"/>
<polygon fill="#00cd00" stroke="#00cd00" points="604.61,-27.25 594.08,-28.48 603.07,-34.08 604.61,-27.25"/>
</g>
<!-- 11 -->
<g id="node12" class="node">
<title>11</title>
<polygon fill="none" stroke="black" points="1759.83,-684 1705.83,-684 1705.83,-648 1759.83,-648 1759.83,-684"/>
<text xml:space="preserve" text-anchor="middle" x="1732.83" y="-661.8" font-family="Times,serif" font-size="14.00">mirl</text>
</g>
<!-- 11&#45;&gt;0 -->
<g id="edge38" class="edge">
<title>11-&gt;0</title>
<path fill="none" stroke="black" d="M1721.23,-647.54C1689.16,-599.26 1599.11,-463.71 1560.63,-405.79"/>
<polygon fill="black" stroke="black" points="1563.57,-403.88 1555.12,-397.49 1557.74,-407.76 1563.57,-403.88"/>
</g>
<!-- 11&#45;&gt;5 -->
<g id="edge42" class="edge">
<title>11-&gt;5</title>
<path fill="none" stroke="black" d="M1705.56,-663.11C1571.78,-653.84 983.53,-613.07 787.01,-599.45"/>
<polygon fill="black" stroke="black" points="787.47,-595.97 777.25,-598.77 786.99,-602.95 787.47,-595.97"/>
</g>
<!-- 11&#45;&gt;7 -->
<g id="edge39" class="edge">
<title>11-&gt;7</title>
<path fill="none" stroke="#00cd00" d="M1746.94,-647.62C1773.84,-612.65 1829.83,-530.34 1829.83,-451 1829.83,-451 1829.83,-451 1829.83,-377 1829.83,-213.39 1697.16,-203.71 1544.83,-144 1472.1,-115.49 943.39,-98.11 755.15,-92.77"/>
<polygon fill="#00cd00" stroke="#00cd00" points="755.39,-89.27 745.3,-92.49 755.19,-96.27 755.39,-89.27"/>
</g>
<!-- 11&#45;&gt;10 -->
<g id="edge40" class="edge">
<title>11-&gt;10</title>
<path fill="none" stroke="black" d="M1733.62,-647.55C1735.32,-588.32 1732.63,-392.82 1630.83,-288 1579.31,-234.95 1551.2,-238.72 1480.83,-216 1395.13,-188.33 1290.53,-173.88 1231.41,-167.41"/>
<polygon fill="black" stroke="black" points="1232.03,-163.95 1221.72,-166.37 1231.29,-170.91 1232.03,-163.95"/>
</g>
<!-- 11&#45;&gt;12 -->
<g id="edge41" class="edge">
<title>11-&gt;12</title>
<path fill="none" stroke="#00cd00" stroke-dasharray="1,5" d="M1760.24,-648.51C1809.03,-616.85 1905.83,-542.49 1905.83,-451 1905.83,-451 1905.83,-451 1905.83,-161 1905.83,-56.35 1790.03,-94.54 1687.83,-72 1477.16,-25.53 798.34,-19.78 604.16,-19.09"/>
<polygon fill="#00cd00" stroke="#00cd00" points="604.4,-15.59 594.39,-19.06 604.38,-22.59 604.4,-15.59"/>
</g>
<!-- 13&#45;&gt;0 -->
<g id="edge43" class="edge">
<title>13-&gt;0</title>
<path fill="none" stroke="black" d="M1270.05,-438.67C1329.3,-425.71 1430.52,-403.57 1491.6,-390.21"/>
<polygon fill="black" stroke="black" points="1492.02,-393.7 1501.04,-388.14 1490.52,-386.86 1492.02,-393.7"/>
</g>
<!-- 13&#45;&gt;7 -->
<g id="edge44" class="edge">
<title>13-&gt;7</title>
<path fill="none" stroke="#00cd00" d="M1218.65,-431.86C1204.71,-378.83 1154.56,-216.6 1046.83,-144 950.82,-79.29 903.25,-125.7 788.83,-108 777.87,-106.3 766.24,-104.41 754.95,-102.53"/>
<polygon fill="#00cd00" stroke="#00cd00" points="755.74,-99.11 745.29,-100.9 754.57,-106.01 755.74,-99.11"/>
</g>
<!-- 13&#45;&gt;8 -->
<g id="edge45" class="edge">
<title>13-&gt;8</title>
<path fill="none" stroke="black" stroke-dasharray="1,5" d="M1175.65,-436.52C1079.4,-411.07 860.27,-353.13 750.71,-324.16"/>
<polygon fill="black" stroke="black" points="751.84,-320.84 741.28,-321.66 750.05,-327.6 751.84,-320.84"/>
</g>
<!-- 13&#45;&gt;10 -->
<g id="edge46" class="edge">
<title>13-&gt;10</title>
<path fill="none" stroke="black" d="M1228.66,-431.56C1231.76,-421.33 1235.26,-408.08 1236.83,-396 1238.89,-380.13 1238.89,-375.87 1236.83,-360 1228.85,-298.49 1207.41,-228.81 1194.69,-191.02"/>
<polygon fill="black" stroke="black" points="1198.08,-190.12 1191.53,-181.79 1191.45,-192.38 1198.08,-190.12"/>
</g>
<!-- 14&#45;&gt;0 -->
<g id="edge47" class="edge">
<title>14-&gt;0</title>
<path fill="none" stroke="black" d="M1419.12,-503.59C1443.89,-478.65 1489.59,-432.62 1517.98,-404.03"/>
<polygon fill="black" stroke="black" points="1520.21,-406.75 1524.78,-397.18 1515.25,-401.81 1520.21,-406.75"/>
</g>
<!-- 14&#45;&gt;7 -->
<g id="edge48" class="edge">
<title>14-&gt;7</title>
<path fill="none" stroke="#00cd00" d="M1402.96,-503.81C1405.34,-453.95 1405.85,-307.01 1337.83,-216 1303.08,-169.49 1283.55,-163.41 1228.83,-144 1143.06,-113.58 879.15,-98.89 754.86,-93.51"/>
<polygon fill="#00cd00" stroke="#00cd00" points="755.29,-90.03 745.15,-93.1 754.99,-97.02 755.29,-90.03"/>
</g>
<!-- 14&#45;&gt;10 -->
<g id="edge49" class="edge">
<title>14-&gt;10</title>
<path fill="none" stroke="black" d="M1384.66,-503.83C1375.91,-494.1 1365.86,-481.25 1359.83,-468 1312.62,-364.31 1384.59,-304.5 1312.83,-216 1292.8,-191.29 1259.29,-177.96 1231.59,-170.86"/>
<polygon fill="black" stroke="black" points="1232.52,-167.48 1221.99,-168.6 1230.93,-174.3 1232.52,-167.48"/>
</g>
<!-- 14&#45;&gt;12 -->
<g id="edge50" class="edge">
<title>14-&gt;12</title>
<path fill="none" stroke="#00cd00" stroke-dasharray="1,5" d="M1439.79,-505.85C1552.66,-458.54 1872.06,-306.9 1767.83,-144 1726.68,-79.68 1685.98,-90.24 1611.83,-72 1417.51,-24.2 789.8,-19.36 604.07,-18.99"/>
<polygon fill="#00cd00" stroke="#00cd00" points="604.25,-15.49 594.25,-18.97 604.24,-22.49 604.25,-15.49"/>
</g>
<!-- 14&#45;&gt;13 -->
<g id="edge51" class="edge">
<title>14-&gt;13</title>
<path fill="none" stroke="black" d="M1363.87,-506.15C1338.85,-496.37 1305.67,-483.39 1277.78,-472.49"/>
<polygon fill="black" stroke="black" points="1279.37,-469.35 1268.78,-468.97 1276.82,-475.87 1279.37,-469.35"/>
</g>
<!-- 15&#45;&gt;6 -->
<g id="edge55" class="edge">
<title>15-&gt;6</title>
<path fill="none" stroke="black" d="M1000.72,-503.83C995.23,-493.46 988.11,-479.98 981.83,-468 942.94,-393.74 897.48,-305.92 874.96,-262.36"/>
<polygon fill="black" stroke="black" points="878.14,-260.89 870.44,-253.61 871.92,-264.1 878.14,-260.89"/>
</g>
<!-- 15&#45;&gt;7 -->
<g id="edge52" class="edge">
<title>15-&gt;7</title>
<path fill="none" stroke="#00cd00" d="M1010.33,-503.85C1010.92,-454.09 1006.38,-307.41 937.83,-216 893.12,-156.38 812.04,-123.24 754.56,-106.31"/>
<polygon fill="#00cd00" stroke="#00cd00" points="755.79,-103.02 745.21,-103.65 753.87,-109.76 755.79,-103.02"/>
</g>
<!-- 15&#45;&gt;10 -->
<g id="edge53" class="edge">
<title>15-&gt;10</title>
<path fill="none" stroke="black" d="M1041.73,-503.6C1056.47,-494.42 1073.41,-482.14 1085.83,-468 1133.47,-413.8 1138.54,-392.63 1160.83,-324 1175.39,-279.19 1181.16,-224.47 1183.42,-191.75"/>
<polygon fill="black" stroke="black" points="1186.91,-192.06 1184.03,-181.86 1179.92,-191.62 1186.91,-192.06"/>
</g>
<!-- 15&#45;&gt;13 -->
<g id="edge56" class="edge">
<title>15-&gt;13</title>
<path fill="none" stroke="black" d="M1063.03,-503.52C1094,-493.34 1133.08,-480.5 1164.84,-470.06"/>
<polygon fill="black" stroke="black" points="1165.9,-473.39 1174.31,-466.95 1163.71,-466.74 1165.9,-473.39"/>
</g>
<!-- 15&#45;&gt;21 -->
<g id="edge54" class="edge">
<title>15-&gt;21</title>
<path fill="none" stroke="black" d="M968.12,-503.52C945.92,-494.21 918.41,-482.68 894.83,-472.79"/>
<polygon fill="black" stroke="black" points="896.27,-469.6 885.7,-468.97 893.57,-476.06 896.27,-469.6"/>
</g>
<!-- 16 -->
<g id="node17" class="node">
<title>16</title>
<polygon fill="none" stroke="black" points="1754.82,-756 1654.85,-756 1654.85,-720 1754.82,-720 1754.82,-756"/>
<text xml:space="preserve" text-anchor="middle" x="1704.83" y="-733.8" font-family="Times,serif" font-size="14.00">mirl_rendering</text>
</g>
<!-- 16&#45;&gt;0 -->
<g id="edge58" class="edge">
<title>16-&gt;0</title>
<path fill="none" stroke="black" d="M1702.4,-719.74C1694.88,-670.91 1668.46,-529.02 1603.83,-432 1596.75,-421.36 1586.98,-411.58 1577.33,-403.4"/>
<polygon fill="black" stroke="black" points="1579.75,-400.85 1569.77,-397.3 1575.36,-406.3 1579.75,-400.85"/>
</g>
<!-- 16&#45;&gt;1 -->
<g id="edge59" class="edge">
<title>16-&gt;1</title>
<path fill="none" stroke="black" d="M1654.44,-724.95C1552.34,-700.55 1320.1,-645.03 1194.76,-615.06"/>
<polygon fill="black" stroke="black" points="1195.73,-611.7 1185.19,-612.78 1194.1,-618.5 1195.73,-611.7"/>
</g>
<!-- 16&#45;&gt;5 -->
<g id="edge63" class="edge">
<title>16-&gt;5</title>
<path fill="none" stroke="black" d="M1654.61,-734.58C1553.85,-729.25 1320.04,-714.47 1125.83,-684 1053.4,-672.63 1036.52,-663.39 964.83,-648 887.19,-631.34 867.23,-629.77 789.83,-612 788.83,-611.77 787.83,-611.54 786.82,-611.3"/>
<polygon fill="black" stroke="black" points="787.82,-607.94 777.28,-609.03 786.2,-614.75 787.82,-607.94"/>
</g>
<!-- 16&#45;&gt;7 -->
<g id="edge60" class="edge">
<title>16-&gt;7</title>
<path fill="none" stroke="#00cd00" d="M1741.38,-719.51C1756.58,-710.68 1773.33,-698.7 1784.83,-684 1852.57,-597.42 1867.83,-560.93 1867.83,-451 1867.83,-451 1867.83,-451 1867.83,-305 1867.83,-169.08 1740.1,-175.29 1607.83,-144 1445.68,-105.63 937.93,-94.6 755.19,-91.83"/>
<polygon fill="#00cd00" stroke="#00cd00" points="755.45,-88.34 745.4,-91.69 755.35,-95.34 755.45,-88.34"/>
</g>
<!-- 16&#45;&gt;10 -->
<g id="edge61" class="edge">
<title>16-&gt;10</title>
<path fill="none" stroke="black" d="M1735.94,-719.67C1748.61,-710.81 1761.9,-698.75 1768.83,-684 1775.64,-669.52 1770.33,-663.93 1768.83,-648 1753.16,-481.43 1775.53,-407.88 1658.83,-288 1617.81,-245.87 1602.86,-236.73 1547.83,-216 1439.57,-175.23 1302.2,-165.63 1231.52,-163.5"/>
<polygon fill="black" stroke="black" points="1231.95,-160.01 1221.87,-163.25 1231.77,-167 1231.95,-160.01"/>
</g>
<!-- 16&#45;&gt;11 -->
<g id="edge57" class="edge">
<title>16-&gt;11</title>
<path fill="none" stroke="black" d="M1711.75,-719.7C1714.77,-712.15 1718.38,-703.12 1721.76,-694.68"/>
<polygon fill="black" stroke="black" points="1724.96,-696.09 1725.43,-685.51 1718.46,-693.49 1724.96,-696.09"/>
</g>
<!-- 16&#45;&gt;12 -->
<g id="edge62" class="edge">
<title>16-&gt;12</title>
<path fill="none" stroke="#00cd00" stroke-dasharray="1,5" d="M1752.34,-719.61C1822.04,-692.6 1943.83,-639.1 1943.83,-595 1943.83,-595 1943.83,-595 1943.83,-161 1943.83,-138.77 2019.37,-138.13 1801.83,-72 1686.16,-36.84 826.23,-22.75 604.08,-19.67"/>
<polygon fill="#00cd00" stroke="#00cd00" points="604.34,-16.18 594.29,-19.54 604.24,-23.18 604.34,-16.18"/>
</g>
<!-- 16&#45;&gt;13 -->
<g id="edge64" class="edge">
<title>16-&gt;13</title>
<path fill="none" stroke="black" d="M1672,-719.66C1609.4,-686.36 1469.06,-610.5 1354.83,-540 1320.69,-518.93 1282.82,-493.13 1256.43,-474.75"/>
<polygon fill="black" stroke="black" points="1258.7,-472.06 1248.5,-469.2 1254.69,-477.8 1258.7,-472.06"/>
</g>
<!-- 17 -->
<g id="node18" class="node">
<title>17</title>
<polygon fill="none" stroke="black" points="1220.44,-684 1135.22,-684 1135.22,-648 1220.44,-648 1220.44,-684"/>
<text xml:space="preserve" text-anchor="middle" x="1177.83" y="-661.8" font-family="Times,serif" font-size="14.00">mirl_system</text>
</g>
<!-- 17&#45;&gt;0 -->
<g id="edge65" class="edge">
<title>17-&gt;0</title>
<path fill="none" stroke="black" d="M1220.68,-654.39C1278.52,-638.2 1382.02,-602.44 1448.83,-540 1489.69,-501.81 1518.22,-441.82 1532.45,-406.86"/>
<polygon fill="black" stroke="black" points="1535.59,-408.45 1536.01,-397.86 1529.08,-405.87 1535.59,-408.45"/>
</g>
<!-- 17&#45;&gt;5 -->
<g id="edge70" class="edge">
<title>17-&gt;5</title>
<path fill="none" stroke="black" d="M1135.14,-657.41C1117.17,-654.32 1096.01,-650.82 1076.83,-648 949.64,-629.33 916.15,-635.85 789.83,-612 788.83,-611.81 787.81,-611.61 786.79,-611.41"/>
<polygon fill="black" stroke="black" points="787.72,-608.03 777.21,-609.38 786.26,-614.88 787.72,-608.03"/>
</g>
<!-- 17&#45;&gt;7 -->
<g id="edge66" class="edge">
<title>17-&gt;7</title>
<path fill="none" stroke="#00cd00" d="M1134.88,-652.12C1034.54,-621.05 789.96,-539.27 746.83,-468 705.41,-399.56 760.98,-366.91 747.83,-288 739.5,-237.95 725.16,-228.67 710.83,-180 704.92,-159.9 699.27,-136.94 695.18,-119.38"/>
<polygon fill="#00cd00" stroke="#00cd00" points="698.59,-118.62 692.95,-109.66 691.77,-120.19 698.59,-118.62"/>
</g>
<!-- 17&#45;&gt;8 -->
<g id="edge67" class="edge">
<title>17-&gt;8</title>
<path fill="none" stroke="black" d="M1134.87,-658.84C1042.91,-645.6 834.71,-615.36 827.83,-612 817.38,-606.9 680.43,-478.69 675.83,-468 657.12,-424.51 667.49,-368.24 676.68,-335.04"/>
<polygon fill="black" stroke="black" points="679.95,-336.35 679.41,-325.77 673.23,-334.38 679.95,-336.35"/>
</g>
<!-- 17&#45;&gt;10 -->
<g id="edge68" class="edge">
<title>17-&gt;10</title>
<path fill="none" stroke="black" d="M1220.74,-659.71C1283.77,-649.35 1399.28,-619.93 1448.83,-540 1479.27,-490.91 1521.9,-389.44 1337.83,-216 1302.09,-182.32 1277.76,-196.06 1231.16,-181.95"/>
<polygon fill="black" stroke="black" points="1232.56,-178.73 1221.96,-178.85 1230.32,-185.36 1232.56,-178.73"/>
</g>
<!-- 17&#45;&gt;12 -->
<g id="edge69" class="edge">
<title>17-&gt;12</title>
<path fill="none" stroke="#00cd00" stroke-dasharray="1,5" d="M1134.9,-663.01C1027.32,-657.63 748.58,-641.22 660.83,-612 410.97,-528.8 152.83,-570.35 152.83,-307 152.83,-307 152.83,-307 152.83,-161 152.83,-88.2 391.6,-43.06 499.73,-26.35"/>
<polygon fill="#00cd00" stroke="#00cd00" points="500.15,-29.82 509.51,-24.86 499.1,-22.9 500.15,-29.82"/>
</g>
<!-- 17&#45;&gt;13 -->
<g id="edge71" class="edge">
<title>17-&gt;13</title>
<path fill="none" stroke="black" d="M1186.3,-647.72C1190.96,-637.55 1196.46,-624.3 1199.83,-612 1212.28,-566.61 1218.27,-512.06 1220.93,-479.53"/>
<polygon fill="black" stroke="black" points="1224.41,-479.95 1221.68,-469.72 1217.43,-479.42 1224.41,-479.95"/>
</g>
<!-- 17&#45;&gt;14 -->
<g id="edge72" class="edge">
<title>17-&gt;14</title>
<path fill="none" stroke="black" d="M1205.3,-647.59C1245.38,-622.18 1319.98,-574.89 1364.85,-546.44"/>
<polygon fill="black" stroke="black" points="1366.64,-549.45 1373.21,-541.14 1362.89,-543.54 1366.64,-549.45"/>
</g>
<!-- 18 -->
<g id="node19" class="node">
<title>18</title>
<polygon fill="none" stroke="black" points="1232.5,-756 1123.17,-756 1123.17,-720 1232.5,-720 1232.5,-756"/>
<text xml:space="preserve" text-anchor="middle" x="1177.83" y="-733.8" font-family="Times,serif" font-size="14.00">mirl_windowing</text>
</g>
<!-- 18&#45;&gt;0 -->
<g id="edge74" class="edge">
<title>18-&gt;0</title>
<path fill="none" stroke="black" d="M1232.7,-731.88C1305.73,-721.99 1433.57,-693.44 1501.83,-612 1551.23,-553.07 1550.3,-455.73 1546.24,-407.67"/>
<polygon fill="black" stroke="black" points="1549.73,-407.42 1545.29,-397.8 1542.77,-408.09 1549.73,-407.42"/>
</g>
<!-- 18&#45;&gt;5 -->
<g id="edge78" class="edge">
<title>18-&gt;5</title>
<path fill="none" stroke="black" d="M1122.95,-719.87C1038.32,-693.46 876.37,-642.92 786.64,-614.91"/>
<polygon fill="black" stroke="black" points="787.83,-611.62 777.24,-611.98 785.74,-618.3 787.83,-611.62"/>
</g>
<!-- 18&#45;&gt;7 -->
<g id="edge75" class="edge">
<title>18-&gt;7</title>
<path fill="none" stroke="#00cd00" d="M1122.76,-736.38C950.4,-734.02 428.97,-723.66 364.83,-684 262.85,-620.94 228.83,-570.91 228.83,-451 228.83,-451 228.83,-451 228.83,-233 228.83,-151.56 495.37,-111.83 622.67,-97.49"/>
<polygon fill="#00cd00" stroke="#00cd00" points="622.74,-101.01 632.3,-96.43 621.97,-94.05 622.74,-101.01"/>
</g>
<!-- 18&#45;&gt;10 -->
<g id="edge76" class="edge">
<title>18-&gt;10</title>
<path fill="none" stroke="black" d="M1232.86,-735C1289.72,-730.98 1379.67,-719.07 1448.83,-684 1554.22,-630.56 1575.11,-582.62 1603.83,-468 1641.06,-319.45 1508.23,-279.41 1368.83,-216 1324.13,-195.67 1269.75,-181.15 1231.75,-172.51"/>
<polygon fill="black" stroke="black" points="1232.51,-169.09 1221.99,-170.35 1230.99,-175.93 1232.51,-169.09"/>
</g>
<!-- 18&#45;&gt;11 -->
<g id="edge73" class="edge">
<title>18-&gt;11</title>
<path fill="none" stroke="black" d="M1232.82,-730.06C1344.93,-715.92 1597.47,-684.07 1694.17,-671.88"/>
<polygon fill="black" stroke="black" points="1694.44,-675.37 1703.93,-670.65 1693.57,-668.42 1694.44,-675.37"/>
</g>
<!-- 18&#45;&gt;12 -->
<g id="edge77" class="edge">
<title>18-&gt;12</title>
<path fill="none" stroke="#00cd00" stroke-dasharray="1,5" d="M1122.7,-737.48C920.32,-738.78 225.88,-739.16 144.83,-684 50.78,-619.99 38.83,-564.77 38.83,-451 38.83,-451 38.83,-451 38.83,-161 38.83,-115.63 51.04,-97.11 88.83,-72 155.08,-27.98 392.71,-20.31 499.36,-19.13"/>
<polygon fill="#00cd00" stroke="#00cd00" points="499.31,-22.63 509.28,-19.03 499.25,-15.63 499.31,-22.63"/>
</g>
<!-- 18&#45;&gt;14 -->
<g id="edge79" class="edge">
<title>18-&gt;14</title>
<path fill="none" stroke="black" d="M1232.97,-724.45C1259.15,-716.33 1289.52,-703.52 1311.83,-684 1353.69,-647.37 1380.18,-586.33 1392.89,-550.86"/>
<polygon fill="black" stroke="black" points="1396.08,-552.34 1396.04,-541.74 1389.46,-550.05 1396.08,-552.34"/>
</g>
<!-- 18&#45;&gt;17 -->
<g id="edge80" class="edge">
<title>18-&gt;17</title>
<path fill="none" stroke="black" d="M1177.83,-719.7C1177.83,-712.41 1177.83,-703.73 1177.83,-695.54"/>
<polygon fill="black" stroke="black" points="1181.33,-695.62 1177.83,-685.62 1174.33,-695.62 1181.33,-695.62"/>
</g>
<!-- 19 -->
<g id="node20" class="node">
<title>19</title>
<polygon fill="none" stroke="black" points="695.04,-684 554.62,-684 554.62,-648 695.04,-648 695.04,-684"/>
<text xml:space="preserve" text-anchor="middle" x="624.83" y="-661.8" font-family="Times,serif" font-size="14.00">mirl_windowing_core</text>
</g>
<!-- 18&#45;&gt;19 -->
<g id="edge81" class="edge">
<title>18-&gt;19</title>
<path fill="none" stroke="black" stroke-dasharray="1,5" d="M1122.79,-730.03C1024.96,-717.65 820.41,-691.76 706.26,-677.31"/>
<polygon fill="black" stroke="black" points="707.03,-673.88 696.67,-676.09 706.15,-680.82 707.03,-673.88"/>
</g>
<!-- 19&#45;&gt;5 -->
<g id="edge83" class="edge">
<title>19-&gt;5</title>
<path fill="none" stroke="black" d="M649.31,-647.52C661.44,-638.85 676.28,-628.25 689.44,-618.85"/>
<polygon fill="black" stroke="black" points="691.33,-621.8 697.44,-613.14 687.26,-616.1 691.33,-621.8"/>
</g>
<!-- 19&#45;&gt;7 -->
<g id="edge82" class="edge">
<title>19-&gt;7</title>
<path fill="none" stroke="#00cd00" d="M569.36,-647.52C516.47,-626.97 444.83,-587.28 444.83,-523 444.83,-523 444.83,-523 444.83,-449 444.83,-300.76 464.27,-236.85 579.83,-144 595.19,-131.66 613.89,-121.26 631.44,-113.03"/>
<polygon fill="#00cd00" stroke="#00cd00" points="632.56,-116.36 640.23,-109.05 629.67,-109.98 632.56,-116.36"/>
</g>
<!-- 20 -->
<g id="node21" class="node">
<title>20</title>
<polygon fill="none" stroke="black" points="473.43,-684 374.23,-684 374.23,-648 473.43,-648 473.43,-684"/>
<text xml:space="preserve" text-anchor="middle" x="423.83" y="-661.8" font-family="Times,serif" font-size="14.00">mirl_geometry</text>
</g>
<!-- 20&#45;&gt;5 -->
<g id="edge86" class="edge">
<title>20-&gt;5</title>
<path fill="none" stroke="black" d="M473.88,-653.28C524.66,-641.4 603.46,-622.95 658.77,-610"/>
<polygon fill="black" stroke="black" points="659.44,-613.44 668.38,-607.75 657.84,-606.62 659.44,-613.44"/>
</g>
<!-- 20&#45;&gt;7 -->
<g id="edge84" class="edge">
<title>20-&gt;7</title>
<path fill="none" stroke="#00cd00" d="M400.26,-647.65C388.99,-638.24 376.16,-625.73 367.83,-612 290.81,-484.99 228.28,-424.94 285.83,-288 321.27,-203.69 352.12,-187.01 432.83,-144 492.29,-112.32 568.87,-99.56 622.72,-94.43"/>
<polygon fill="#00cd00" stroke="#00cd00" points="622.69,-97.94 632.35,-93.58 622.08,-90.97 622.69,-97.94"/>
</g>
<!-- 20&#45;&gt;10 -->
<g id="edge85" class="edge">
<title>20-&gt;10</title>
<path fill="none" stroke="black" d="M467.49,-647.55C542.81,-617.55 702.15,-554.55 837.83,-504 882.49,-487.36 899.97,-495.58 938.83,-468 995.69,-427.65 1119.21,-256.38 1166.19,-189.71"/>
<polygon fill="black" stroke="black" points="1169.04,-191.73 1171.93,-181.54 1163.31,-187.71 1169.04,-191.73"/>
</g>
<!-- 22 -->
<g id="node23" class="node">
<title>22</title>
<polygon fill="none" stroke="black" points="424.98,-324 294.69,-324 294.69,-288 424.98,-288 424.98,-324"/>
<text xml:space="preserve" text-anchor="middle" x="359.83" y="-301.8" font-family="Times,serif" font-size="14.00">mirl_geometry_core</text>
</g>
<!-- 20&#45;&gt;22 -->
<g id="edge87" class="edge">
<title>20-&gt;22</title>
<path fill="none" stroke="black" d="M410.68,-647.69C392.48,-621.95 361.83,-571.42 361.83,-523 361.83,-523 361.83,-523 361.83,-449 361.83,-409.74 361.06,-364.37 360.47,-335.69"/>
<polygon fill="black" stroke="black" points="363.98,-335.92 360.27,-326 356.98,-336.07 363.98,-335.92"/>
</g>
<!-- 21&#45;&gt;4 -->
<g id="edge91" class="edge">
<title>21-&gt;4</title>
<path fill="none" stroke="black" stroke-dasharray="1,5" d="M774.15,-431.52C731.8,-420.74 677.71,-406.97 635.54,-396.24"/>
<polygon fill="black" stroke="black" points="636.56,-392.88 626.01,-393.81 634.83,-399.67 636.56,-392.88"/>
</g>
<!-- 21&#45;&gt;6 -->
<g id="edge90" class="edge">
<title>21-&gt;6</title>
<path fill="none" stroke="black" d="M845.15,-431.64C848.28,-407.54 853.81,-362.53 856.83,-324 858.41,-303.93 859.41,-281.25 860.02,-263.82"/>
<polygon fill="black" stroke="black" points="863.52,-264.04 860.34,-253.93 856.52,-263.81 863.52,-264.04"/>
</g>
<!-- 21&#45;&gt;7 -->
<g id="edge88" class="edge">
<title>21-&gt;7</title>
<path fill="none" stroke="#00cd00" d="M836.7,-431.92C825.98,-402.36 802.88,-339.82 780.83,-288 754.81,-226.83 721.05,-156.59 702.51,-118.71"/>
<polygon fill="#00cd00" stroke="#00cd00" points="705.71,-117.27 698.16,-109.83 699.42,-120.35 705.71,-117.27"/>
</g>
<!-- 21&#45;&gt;10 -->
<g id="edge89" class="edge">
<title>21-&gt;10</title>
<path fill="none" stroke="black" d="M859.13,-431.55C897.68,-390.85 998.47,-287.63 1094.83,-216 1109.52,-205.09 1126.61,-194.54 1141.92,-185.77"/>
<polygon fill="black" stroke="black" points="1143.37,-188.97 1150.37,-181.02 1139.94,-182.87 1143.37,-188.97"/>
</g>
<!-- 22&#45;&gt;7 -->
<g id="edge92" class="edge">
<title>22-&gt;7</title>
<path fill="none" stroke="#00cd00" d="M367.44,-287.58C382.93,-254.25 421.41,-181.4 476.83,-144 520.08,-114.81 578.05,-101.69 622.43,-95.79"/>
<polygon fill="#00cd00" stroke="#00cd00" points="622.7,-99.29 632.2,-94.6 621.84,-92.34 622.7,-99.29"/>
</g>
</g>
</svg>