<svg xmlns="http://www.w3.org/2000/svg" viewBox="0 0 1832 764"><g class="graph" transform="translate(4 760)"><polygon fill="#fff" points="-4 4 -4 -760 1828 -760 1828 4 -4 4"/><g class="node"><polygon fill="none" stroke="#000" points="1294.27 -396 1213.73 -396 1213.73 -360 1294.27 -360 1294.27 -396"/><text xml:space="preserve" text-anchor="middle" x="1254" y="-373.8" font-family="Times,serif" font-size="14">mirl_buffer</text></g><g class="node"><polygon fill="none" stroke="#000" points="1090.67 -108 981.33 -108 981.33 -72 1090.67 -72 1090.67 -108"/><text xml:space="preserve" text-anchor="middle" x="1036" y="-85.8" font-family="Times,serif" font-size="14">mirl_build_tools</text></g><g class="edge" stroke="#00cd00"><path fill="none" d="M1260.99-359.77c15.79 42.04 49.06 151.17-1.99 215.77-19.28 24.4-98.17 38.77-156.68 46.25"/><polygon fill="#00cd00" points="1102.77 -94.28 1092.42 -96.53 1101.91 -101.22 1102.77 -94.28"/></g><g class="node"><polygon fill="none" stroke="#00cd00" points="1266.66 -36 1185.34 -36 1185.34 0 1266.66 0 1266.66 -36"/><text xml:space="preserve" text-anchor="middle" x="1226" y="-13.8" font-family="Times,serif" font-size="14">mirl_derive</text></g><g class="edge" stroke="#00cd00"><path fill="none" stroke-dasharray="1 5" d="M1269.39-359.62c7.78 9.79 16.62 22.63 21.61 35.62 17.28 44.96 17.61 60.61 9 108-11.47 63.14-42.04 132.39-60.1 169.63"/><polygon fill="#00cd00" points="1243.18 -45.1 1235.62 -37.67 1236.9 -48.19 1243.18 -45.1"/></g><g class="node"><polygon fill="none" stroke="#000" points="1051.53 -612 892.47 -612 892.47 -576 1051.53 -576 1051.53 -612"/><text xml:space="preserve" text-anchor="middle" x="972" y="-589.8" font-family="Times,serif" font-size="14">mirl_buffer_interpolation</text></g><g class="edge" stroke="#00cd00"><path fill="none" d="M983.77-575.9c15.72 23.46 43.62 67.32 61.23 107.9 39.39 90.78 46.51 117.33 54 216 3.65 48.11 10.58 64.85-11 108-5.14 10.27-12.99 19.81-21.05 27.88"/><polygon fill="#00cd00" points="1069.37 -113.59 1059.68 -109.3 1064.58 -118.7 1069.37 -113.59"/></g><g class="node"><polygon fill="none" stroke="#000" points="1035.88 -468 942.12 -468 942.12 -432 1035.88 -432 1035.88 -468"/><text xml:space="preserve" text-anchor="middle" x="989" y="-445.8" font-family="Times,serif" font-size="14">mirl_graphics</text></g><g class="edge" stroke="#000"><path fill="none" d="m974.08-575.59 11.52 96.17"/><polygon points="989.06 -479.96 986.77 -469.61 982.11 -479.13 989.06 -479.96"/></g><g class="node"><polygon fill="none" stroke="#000" points="884.21 -540 743.79 -540 743.79 -504 884.21 -504 884.21 -540"/><text xml:space="preserve" text-anchor="middle" x="814" y="-517.8" font-family="Times,serif" font-size="14">mirl_extensions_math</text></g><g class="edge" stroke="#000"><path fill="none" d="m932.54-575.52-69.05 30.59"/><polygon points="865.18 -541.85 854.62 -540.99 862.34 -548.25 865.18 -541.85"/></g><g class="node"><polygon fill="none" stroke="#000" points="210.26 -756 101.74 -756 101.74 -720 210.26 -720 210.26 -756"/><text xml:space="preserve" text-anchor="middle" x="156" y="-733.8" font-family="Times,serif" font-size="14">mirl_codec_info</text></g><g class="node"><polygon fill="none" stroke="#000" points="197.05 -684 114.95 -684 114.95 -648 197.05 -648 197.05 -684"/><text xml:space="preserve" text-anchor="middle" x="156" y="-661.8" font-family="Times,serif" font-size="14">mirl_values</text></g><g class="edge" stroke="#000"><path fill="none" d="M156-719.7v24.16"/><polygon points="159.5 -695.62 156 -685.62 152.5 -695.62 159.5 -695.62"/></g><g class="node"><polygon fill="none" stroke="#000" points="810.72 -612 705.28 -612 705.28 -576 810.72 -576 810.72 -612"/><text xml:space="preserve" text-anchor="middle" x="758" y="-589.8" font-family="Times,serif" font-size="14">mirl_extensions</text></g><g class="edge" stroke="#000"><path fill="none" d="M210.67-728.33c57.6 9.48 150.8 25.81 230.33 44.33 88.55 20.62 189.43 49.97 253.14 69.25"/><polygon points="694.81 -618.21 703.37 -611.95 692.78 -611.51 694.81 -618.21"/></g><g class="edge" stroke="#00cd00"><path fill="none" d="M109.06-719.65C92.05-711.24 74.07-699.54 62-684c-25.13 32.35-24 48.03-24 89v74c0 107.76 114 106.24 114 214v74c0 45.15 10.87 64.81 49 89 64.23 40.76 582.49 50.3 768.69 52.42"/><polygon fill="#00cd00" points="969.47 -95.08 979.43 -91.47 969.39 -88.08 969.47 -95.08"/></g><g class="node"><polygon fill="none" stroke="#000" points="900.21 -180 829.79 -180 829.79 -144 900.21 -144 900.21 -180"/><text xml:space="preserve" text-anchor="middle" x="865" y="-157.8" font-family="Times,serif" font-size="14">mirl_core</text></g><g class="edge" stroke="#000"><path fill="none" d="M176.93-719.54c10.17 9.53 21.74 22.1 29.07 35.54 19.51 35.77 22 48.25 22 89v74c0 163.58 60.02 231.19 206 305 66.43 33.59 286.83 46.89 384.13 51.22"/><polygon points="818.02 -168.29 827.86 -164.36 817.72 -161.29 818.02 -168.29"/></g><g class="edge" stroke="#00cd00"><path fill="none" stroke-dasharray="1 5" d="M101.52-722.15C79.52-713.89 55.3-701.63 38-684 7.87-653.31 0-638.01 0-595v434c0 62.89 51.23 66.62 110 89 99.97 38.07 856.29 49.88 1063.6 52.42"/><polygon fill="#00cd00" points="1173.57 -23.08 1183.53 -19.46 1173.49 -16.08 1173.57 -23.08"/></g><g class="node"><polygon fill="none" stroke="#000" points="635.59 -396 522.41 -396 522.41 -360 635.59 -360 635.59 -396"/><text xml:space="preserve" text-anchor="middle" x="579" y="-373.8" font-family="Times,serif" font-size="14">mirl_values_core</text></g><g class="edge" stroke="#000"><path fill="none" d="m181.82-647.54 361.93 244.71"/><polygon points="545.67 -405.76 551.99 -397.26 541.75 -399.96 545.67 -405.76"/></g><g class="edge" stroke="#000"><path fill="none" d="m197.38-660.19 496.39 57.72"/><polygon points="693.92 -605.97 703.45 -601.34 693.11 -599.02 693.92 -605.97"/></g><g class="edge" stroke="#00cd00"><path fill="none" d="M158.84-647.55C167.01-595.77 190-438.42 190-307v74c0 48.21 20.04 65.26 62 89 61.69 34.9 539.85 48.07 717.68 51.78"/><polygon fill="#00cd00" points="969.51 -95.72 979.44 -92.02 969.37 -88.72 969.51 -95.72"/></g><g class="edge" stroke="#00cd00"><path fill="none" stroke-dasharray="1 5" d="M147.3-647.56C135-621.25 114-569.53 114-523v362C114-52.73 954.15-25.39 1173.91-20.1"/><polygon fill="#00cd00" points="1173.68 -23.6 1183.59 -19.87 1173.51 -16.6 1173.68 -23.6"/></g><g class="node"><polygon fill="none" stroke="#000" points="704.26 -252 567.74 -252 567.74 -216 704.26 -216 704.26 -252"/><text xml:space="preserve" text-anchor="middle" x="636" y="-229.8" font-family="Times,serif" font-size="14">mirl_extensions_core</text></g><g class="edge" stroke="#000"><path fill="none" d="m585.99-359.59 38.91 96.94"/><polygon points="628.09 -264.1 628.57 -253.52 621.59 -261.49 628.09 -264.1"/></g><g class="edge" stroke="#00cd00"><path fill="none" d="M570.58-359.78C556.79-328.91 533.36-262.97 559-216c28.36 51.94 56.57 51.28 112 72 99.84 37.32 224.16 48.52 298.91 51.78"/><polygon fill="#00cd00" points="969.66 -95.73 979.51 -91.84 969.38 -88.74 969.66 -95.73"/></g><g class="node"><polygon fill="none" stroke="#000" points="912.49 -324 805.51 -324 805.51 -288 912.49 -288 912.49 -324"/><text xml:space="preserve" text-anchor="middle" x="859" y="-301.8" font-family="Times,serif" font-size="14">mirl_collections</text></g><g class="edge" stroke="#000"><path fill="none" d="m636-362.75 158.24 39.56"/><polygon points="795.08 -326.59 803.93 -320.77 793.38 -319.8 795.08 -326.59"/></g><g class="edge" stroke="#00cd00"><path fill="none" stroke-dasharray="1 5" d="M564.32-359.61C557-349.82 548.9-336.98 545-324c-23.55 78.3-27.39 130.91 38 180 93.89 70.49 454.63 108.59 590.67 120.69"/><polygon fill="#00cd00" points="1173.82 -26.81 1183.47 -22.45 1173.21 -19.84 1173.82 -26.81"/></g><g class="edge" stroke="#000"><path fill="none" d="M811.2-578.74c33.9 9.66 78.48 23.41 116.8 38.74 105.54 42.21 223.92 104.71 284.84 138.06"/><polygon points="1214.42 -405.07 1221.5 -397.18 1211.05 -398.93 1214.42 -405.07"/></g><g class="edge" stroke="#000"><path fill="none" stroke-dasharray="1 5" d="M718.3-575.54C678.33-555.69 618.48-519.24 589-468c-10.44 18.15-12.67 41.85-12.43 60.22"/><polygon points="580.07 -407.96 576.98 -397.83 573.07 -407.67 580.07 -407.96"/></g><g class="edge" stroke="#000"><path fill="none" d="M704.95-581.5c-28.71 8.13-63.59 21.27-89.95 41.5-62.21 47.76-78.21 69.27-102 144-18.01 56.59 41.24 108.57 83.68 137.4"/><polygon points="598.56 -261.55 604.98 -253.12 594.7 -255.71 598.56 -261.55"/></g><g class="edge" stroke="#00cd00"><path fill="none" d="M705.04-592.8c-50.6 2.74-126.7 13.78-179.04 52.8-99.76 74.37-175.75 139.77-122 252 44.1 92.09 84.84 104.52 179 144 68.26 28.61 278.38 43.7 386.79 49.76"/><polygon fill="#00cd00" points="969.91 -97.74 979.71 -93.7 969.53 -90.75 969.91 -97.74"/></g><g class="edge" stroke="#000"><path fill="none" stroke-dasharray="1 5" d="M746.59-575.56C736.05-557.07 723.61-527.39 735-504c11.37 23.34 29.7 15.8 46 36 33.29 41.26 56.87 99.08 68.88 133.03"/><polygon points="853.07 -336.45 853.02 -325.86 846.45 -334.18 853.07 -336.45"/></g><g class="edge" stroke="#000"><path fill="none" d="M705.17-588.53C664.34-582.8 608.19-569.74 568-540c-68.01 50.34-72.34 96.02-62 180 8.33 67.69-1.5 103 53 144 40.16 30.21 184.11 44.53 259.38 50.08"/><polygon points="818.18 -169.45 827.9 -165.24 817.68 -162.46 818.18 -169.45"/></g><g class="edge" stroke="#000"><path fill="none" stroke-dasharray="1 5" d="M811.13-577.29c25.8 8.89 56.6 21.42 81.87 37.29 15.17 9.53 48.06 41.07 71.09 63.9"/><polygon points="966.4 -478.75 971.01 -469.21 961.46 -473.79 966.4 -478.75"/></g><g class="node"><polygon fill="none" stroke="#000" points="1623.56 -540 1548.44 -540 1548.44 -504 1623.56 -504 1623.56 -540"/><text xml:space="preserve" text-anchor="middle" x="1586" y="-517.8" font-family="Times,serif" font-size="14">mirl_input</text></g><g class="edge" stroke="#000"><path fill="none" stroke-dasharray="1 5" d="M811.14-585.06c22.17 3.13 48.23 6.56 71.86 9.06 245.06 25.88 539.48 43.83 654.05 50.32"/><polygon points="1536.91 -529.19 1546.69 -525.14 1536.51 -522.2 1536.91 -529.19"/></g><g class="edge" stroke="#000"><path fill="none" d="m771.84-575.7 21.37 26.72"/><polygon points="795.86 -551.28 799.37 -541.29 790.39 -546.91 795.86 -551.28"/></g><g class="node"><polygon fill="none" stroke="#000" points="771.93 -468 598.07 -468 598.07 -432 771.93 -432 771.93 -468"/><text xml:space="preserve" text-anchor="middle" x="685" y="-445.8" font-family="Times,serif" font-size="14">mirl_extensions_conversion</text></g><g class="edge" stroke="#000"><path fill="none" d="M733.62-575.72c-11.33 9.31-23.97 21.75-31.62 35.72-10.11 18.48-14.3 41.97-15.99 60.18"/><polygon points="689.51 -479.69 685.32 -469.96 682.53 -480.18 689.51 -479.69"/></g><g class="edge" stroke="#00cd00"><path fill="none" d="M646.67-215.73C660.43-195.06 686.4-161.09 718-144c42.35 22.9 171.39 38.96 251.49 47.03"/><polygon fill="#00cd00" points="969.82 -100.46 979.42 -95.99 969.13 -93.49 969.82 -100.46"/></g><g class="edge" stroke="#000"><path fill="none" d="m693.2-215.52 125.59 38.4"/><polygon points="819.56 -180.55 828.1 -174.28 817.51 -173.86 819.56 -180.55"/></g><g class="edge" stroke="#00cd00"><path fill="none" stroke-dasharray="1 5" d="M1083.45-71.52 1174.43-38"/><polygon fill="#00cd00" points="1175.35 -41.39 1183.52 -34.65 1172.93 -34.82 1175.35 -41.39"/></g><g class="edge" stroke="#000"><path fill="none" d="M805.02-288.05 702.28-255.8"/><polygon points="703.46 -252.51 692.87 -252.85 701.36 -259.19 703.46 -252.51"/></g><g class="edge" stroke="#00cd00"><path fill="none" d="m873.19-287.85 141.32 170.87"/><polygon fill="#00cd00" points="1017.11 -119.34 1020.78 -109.4 1011.71 -114.87 1017.11 -119.34"/></g><g class="edge" stroke="#000"><path fill="none" d="M855.18-287.56c-3.4 17.98-7.4 46.79-4.18 71.56a198.95 198.95 0 0 0 5.07 24.66"/><polygon points="859.39 -192.47 858.76 -181.9 852.66 -190.55 859.39 -192.47"/></g><g class="edge" stroke="#00cd00"><path fill="none" stroke-dasharray="1 5" d="M883.52-287.59A2317.9 2317.9 0 0 1 932-252c97.89 74.27 211.18 165.63 264 208.54"/><polygon fill="#00cd00" points="1198.12 -46.25 1203.67 -37.22 1193.71 -40.82 1198.12 -46.25"/></g><g class="node"><polygon fill="none" stroke="#000" points="1542.67 -756 1461.33 -756 1461.33 -720 1542.67 -720 1542.67 -756"/><text xml:space="preserve" text-anchor="middle" x="1502" y="-733.8" font-family="Times,serif" font-size="14">mirl_consts</text></g><g class="edge" stroke="#00cd00"><path fill="none" d="m900.43-146.5 82.53 33.79"/><polygon fill="#00cd00" points="984.02 -116.06 991.95 -109.03 981.37 -109.58 984.02 -116.06"/></g><g class="edge" stroke="#00cd00"><path fill="none" stroke-dasharray="1 5" d="M880.59-143.66C899.96-123.25 935.01-89.86 972-72c65.19 31.47 148.63 44.32 201.72 49.52"/><polygon fill="#00cd00" points="1173.75 -25.99 1183.39 -21.59 1173.11 -19.02 1173.75 -25.99"/></g><g class="node"><polygon fill="none" stroke="#000" points="1127 -684 1073 -684 1073 -648 1127 -648 1127 -684"/><text xml:space="preserve" text-anchor="middle" x="1100" y="-661.8" font-family="Times,serif" font-size="14">mirl</text></g><g class="edge" stroke="#000"><path fill="none" d="M1127.14-652.28C1151-640.6 1183.25-623.41 1192-612c.4.52 38.05 142.59 54.48 204.6"/><polygon points="1249.81 -408.49 1248.99 -397.93 1243.04 -406.7 1249.81 -408.49"/></g><g class="edge" stroke="#000"><path fill="none" d="M1072.6-659.01A6654.1 6654.1 0 0 1 1021-648a23722.56 23722.56 0 0 1-198.83 40.31"/><polygon points="823.16 -604.32 812.67 -605.8 821.8 -611.18 823.16 -604.32"/></g><g class="edge" stroke="#00cd00"><path fill="none" d="M1116.78-647.77c8.55 9.74 18.36 22.59 24.22 35.77 32.6 73.29 19.21 100.03 13 180-10.03 129.16 22.59 177.48-45 288-7.09 11.59-17.75 21.4-28.75 29.32"/><polygon fill="#00cd00" points="1082.51 -111.98 1072.26 -109.32 1078.61 -117.79 1082.51 -111.98"/></g><g class="edge" stroke="#000"><path fill="none" d="M1108.29-647.51C1120-621.15 1140-569.36 1140-523v74c0 35.08-187.79 208.61-213 233a658 658 0 0 1-31.77 28.44"/><polygon points="897.6 -184.98 887.68 -181.26 893.11 -190.35 897.6 -184.98"/></g><g class="edge" stroke="#00cd00"><path fill="none" stroke-dasharray="1 5" d="M1127.22-658.75c107.96 24.8 500.33 115.1 505.78 118.75 73.05 48.96 115 73.07 115 161v218c0 96.64-337.31 129.67-469.63 138.91"/><polygon fill="#00cd00" points="1278.68 -18.61 1268.47 -21.42 1278.21 -25.59 1278.68 -18.61"/></g><g class="edge" stroke="#000"><path fill="none" d="M1036.27-435.74c4.63 1.28 9.27 2.54 13.73 3.74a13774.24 13774.24 0 0 0 152.16 39.8"/><polygon points="1203.02 -395.59 1211.84 -389.72 1201.28 -388.81 1203.02 -395.59"/></g><g class="edge" stroke="#00cd00"><path fill="none" d="M1004.83-431.59c19.52 22.76 51.65 64.81 64.17 107.59 22.47 76.78 21.99 103.08 0 180-2.6 9.09-7.25 18.13-12.26 26.11"/><polygon fill="#00cd00" points="1059.68 -116 1051.18 -109.69 1053.89 -119.93 1059.68 -116"/></g><g class="edge" stroke="#000"><path fill="none" d="M987.68-431.79c-2.84 30.3-11.2 94.62-33.68 143.79-8.32 18.19-15.28 19.79-27 36a3497.45 3497.45 0 0 0-43.98 62.62"/><polygon points="886.11 -187.7 877.57 -181.43 880.34 -191.66 886.11 -187.7"/></g><g class="edge" stroke="#000"><path fill="none" d="M1548.12-504.22A14295.68 14295.68 0 0 1 1382-432a7561.69 7561.69 0 0 1-76.86 32.08"/><polygon points="1306.7 -396.78 1296.12 -396.21 1304.04 -403.25 1306.7 -396.78"/></g><g class="edge" stroke="#00cd00"><path fill="none" d="M1582.53-503.74c-4.04 18.33-11.59 47.89-22.53 71.74-31.81 69.36-122.98 246.47-187 288-43.53 28.23-185.31 42.65-270.48 48.93"/><polygon fill="#00cd00" points="1102.88 -91.59 1092.66 -94.36 1102.38 -98.57 1102.88 -91.59"/></g><g class="edge" stroke="#000"><path fill="none" d="M1577.94-503.53c-9.13 18.77-25.2 48.94-43.94 71.53-31.18 37.59-42.08 45.35-83 72-125.96 82.02-163.02 97.65-306 144-79.75 25.85-176.6 40.7-232.97 47.79"/><polygon points="912.49 -164.74 902.14 -167 911.64 -171.69 912.49 -164.74"/></g><g class="edge" stroke="#00cd00"><path fill="none" stroke-dasharray="1 5" d="M1595.95-503.71C1610.01-477.58 1634-426.1 1634-379v218c0 74.52-245.84 118.91-355.86 135.05"/><polygon fill="#00cd00" points="1278.88 -22.52 1268.49 -24.56 1277.89 -29.45 1278.88 -22.52"/></g><g class="edge" stroke="#000"><path fill="none" d="m1548.2-516.57-500.59 58.7"/><polygon points="1048.17 -454.41 1037.83 -456.72 1047.35 -461.37 1048.17 -454.41"/></g><g class="edge" stroke="#000"><path fill="none" d="M809.15-503.66c-5.5 18.4-15.39 48.02-28.15 71.66-35.69 66.15-91.35 135-122.29 171.2"/><polygon points="661.57 -258.76 652.39 -253.47 656.26 -263.33 661.57 -258.76"/></g><g class="edge" stroke="#00cd00"><path fill="none" d="M839.44-503.63c12.65 9.5 27.55 22.08 38.56 35.63 90.56 111.45 136.67 282.25 152.02 348.95"/><polygon fill="#00cd00" points="1033.35 -120.2 1032.13 -109.67 1026.52 -118.66 1033.35 -120.2"/></g><g class="edge" stroke="#000"><path fill="none" d="M827.46-503.54c24.42 32.9 75.19 107.3 93.54 179.54 3.94 15.51 4.49 20.64 0 36-5.32 18.22-14.54 19-23 36-9.82 19.73-18.38 43.13-24.32 60.98"/><polygon points="877.04 -190.06 870.63 -181.62 870.38 -192.21 877.04 -190.06"/></g><g class="edge" stroke="#000"><path fill="none" d="m857.71-503.52 77.47 30.99"/><polygon points="936.16 -475.91 944.14 -468.94 933.56 -469.41 936.16 -475.91"/></g><g class="edge" stroke="#000"><path fill="none" d="m781.78-503.52-55.09 29.9"/><polygon points="728.6 -470.68 718.14 -468.98 725.26 -476.83 728.6 -470.68"/></g><g class="node"><polygon fill="none" stroke="#000" points="870.99 -756 771.01 -756 771.01 -720 870.99 -720 870.99 -756"/><text xml:space="preserve" text-anchor="middle" x="821" y="-733.8" font-family="Times,serif" font-size="14">mirl_rendering</text></g><g class="edge" stroke="#000"><path fill="none" d="M871.27-737.5c64.64 1.3 178.77 10.28 264.73 53.5 1.29.65 74.27 70.76 75 72 38.59 65.57 43.86 158.03 43.82 204.29"/><polygon points="1258.32 -407.95 1254.72 -397.98 1251.32 -408.02 1258.32 -407.95"/></g><g class="edge" stroke="#000"><path fill="none" d="M839.78-719.62A9745.9 9745.9 0 0 1 878-684c22.88 21.47 48.76 45.99 67.57 63.85"/><polygon points="947.74 -622.91 952.58 -613.49 942.92 -617.84 947.74 -622.91"/></g><g class="edge" stroke="#000"><path fill="none" d="m813.27-719.59-43.17 97.32"/><polygon points="773.46 -621.22 766.21 -613.49 767.06 -624.05 773.46 -621.22"/></g><g class="edge" stroke="#00cd00"><path fill="none" d="M770.6-734.89C646.92-729.29 335.83-712.5 299-684c-33.37 25.81-33 46.81-33 89v74c0 183.08 3.08 293.48 166 377 92.39 47.36 400.99 53.2 537.77 53.39"/><polygon fill="#00cd00" points="969.77 -94.11 979.77 -90.61 969.76 -87.11 969.77 -94.11"/></g><g class="edge" stroke="#000"><path fill="none" d="M770.9-734.96C651.17-729.63 355.87-713.61 323-684c-30.05 27.07-19 48.55-19 89v146c0 65.29 122.56 200.17 179 233 56.01 32.58 245.7 46.19 334.91 50.89"/><polygon points="817.97 -168.61 827.78 -164.6 817.62 -161.62 817.97 -168.61"/></g><g class="edge" stroke="#000"><path fill="none" d="m871.2-724.4 190.57 47.81"/><polygon points="1062.32 -680.06 1071.16 -674.23 1060.61 -673.27 1062.32 -680.06"/></g><g class="edge" stroke="#00cd00"><path fill="none" stroke-dasharray="1 5" d="M770.61-736.44C616.41-734.29 158.25-724.53 106-684c-32.98 25.59-30 47.26-30 89v434c0 16.81-58.62 25.47 129 89 92.01 31.15 773.2 47.78 968.69 51.95"/><polygon fill="#00cd00" points="1173.62 -23.56 1183.54 -19.85 1173.47 -16.56 1173.62 -23.56"/></g><g class="edge" stroke="#000"><path fill="none" d="M824.54-719.57c6.98 31.21 24.85 97.65 58.46 143.57 15.13 20.67 27.57 17.23 45 36 17.56 18.91 33.88 43.23 45.21 61.67"/><polygon points="976.19 -480.17 978.35 -469.8 970.19 -476.56 976.19 -480.17"/></g><g class="node"><polygon fill="none" stroke="#000" points="1524.61 -684 1439.39 -684 1439.39 -648 1524.61 -648 1524.61 -684"/><text xml:space="preserve" text-anchor="middle" x="1482" y="-661.8" font-family="Times,serif" font-size="14">mirl_system</text></g><g class="edge" stroke="#000"><path fill="none" d="M1470.13-647.75c-27.4 39.44-97.77 138.76-164.13 215.75a563.28 563.28 0 0 1-25.92 27.75"/><polygon points="1282.55 -401.77 1272.99 -397.19 1277.61 -406.73 1282.55 -401.77"/></g><g class="edge" stroke="#000"><path fill="none" d="M1439.04-659.75A5132.9 5132.9 0 0 1 1332-648c-199.27 19.27-249.96 14.5-449 36-19.75 2.13-41.2 4.89-60.66 7.56"/><polygon points="823.03 -601 812.64 -603.09 822.07 -607.94 823.03 -601"/></g><g class="edge" stroke="#00cd00"><path fill="none" d="M1519.17-647.57c37.4 19.94 92.49 56.55 113.83 107.57 6.17 14.76 4.12 20.54 0 36-14.26 53.48-95.79 168.38-124 216-19.12 32.27-22.29 41.42-44 72-23.95 33.73-22.96 51.68-59 72-50.62 28.53-211.49 43.08-303.59 49.25"/><polygon fill="#00cd00" points="1102.71 -91.26 1092.5 -94.1 1102.25 -98.25 1102.71 -91.26"/></g><g class="edge" stroke="#000"><path fill="none" d="M1477.87-647.5c-13.79 54.08-63.81 219.04-174.87 287.5-61.93 38.17-271.16 48.86-378.81 51.85"/><polygon points="924.43 -304.66 914.35 -307.9 924.25 -311.66 924.43 -304.66"/></g><g class="edge" stroke="#000"><path fill="none" d="M1482.43-647.71c.09 18.11-.83 47.25-6.43 71.71-25.37 110.81-44.93 149.31-137 216-139.32 100.92-338.05 161.65-427.37 185.43"/><polygon points="912.55 -171.2 901.99 -172.05 910.78 -177.97 912.55 -171.2"/></g><g class="edge" stroke="#00cd00"><path fill="none" stroke-dasharray="1 5" d="M1524.97-651.63c25.18 8.98 56.87 22.34 82.03 39.63 107.63 73.95 179 102.41 179 233v218c0 62.54-51.42 64.6-109 89-70.86 30.03-295.93 45.08-398.8 50.53"/><polygon fill="#00cd00" points="1278.55 -17.98 1268.38 -20.96 1278.19 -24.97 1278.55 -17.98"/></g><g class="edge" stroke="#000"><path fill="none" d="m1442.07-647.67-402.5 174.72"/><polygon points="1041.25 -469.87 1030.69 -469.1 1038.47 -476.29 1041.25 -469.87"/></g><g class="edge" stroke="#000"><path fill="none" d="M1500.98-647.86c10.41 9.91 23.16 22.95 33.02 35.86 14.89 19.5 28.75 43.63 38.4 61.85"/><polygon points="1575.38 -552.02 1576.88 -541.53 1569.17 -548.79 1575.38 -552.02"/></g><g class="node"><polygon fill="none" stroke="#000" points="1443.67 -756 1334.33 -756 1334.33 -720 1443.67 -720 1443.67 -756"/><text xml:space="preserve" text-anchor="middle" x="1389" y="-733.8" font-family="Times,serif" font-size="14">mirl_windowing</text></g><g class="edge" stroke="#000"><path fill="none" d="m1382.49-719.73-118.01 312.94"/><polygon points="1267.78 -405.63 1260.98 -397.51 1261.23 -408.1 1267.78 -405.63"/></g><g class="edge" stroke="#000"><path fill="none" d="M1333.98-730.1c-64.95 8.62-176.02 24.86-269.98 46.1-84.89 19.19-180.99 48.4-242.48 68.07"/><polygon points="822.87 -612.68 812.27 -612.95 820.72 -619.35 822.87 -612.68"/></g><g class="edge" stroke="#00cd00"><path fill="none" d="M1443.85-722.08c46.34 12.95 106.66 30.73 116.15 38.08 59.49 46.06 68.44 71.63 89 144 13.49 47.49-4.86 63.38-26 108-65.03 137.27-53.57 210.16-184 288-55.38 33.05-237.09 45.92-336.52 50.58"/><polygon fill="#00cd00" points="1102.73 -89.93 1092.58 -92.97 1102.41 -96.92 1102.73 -89.93"/></g><g class="edge" stroke="#000"><path fill="none" d="M1390.34-719.89c3.57 58.14 7.37 250.53-87.34 359.89-27.66 31.94-48.97 19.8-88 36-76.16 31.61-96.04 37.63-171 72-46.8 21.46-99.47 47.94-135.49 66.41"/><polygon points="910.19 -182.52 899.69 -181.06 906.99 -188.74 910.19 -182.52"/></g><g class="edge" stroke="#000"><path fill="none" d="m1333.96-723.67-195.62 47.38"/><polygon points="1139.36 -672.93 1128.81 -673.98 1137.71 -679.73 1139.36 -672.93"/></g><g class="edge" stroke="#00cd00"><path fill="none" stroke-dasharray="1 5" d="M1443.96-722.12 1452-720c168.74 44.15 372-49.42 372 125v434c0 56.89-40.45 64.94-92 89-79.63 37.16-341.12 48.57-453.69 51.81"/><polygon fill="#00cd00" points="1278.54 -16.69 1268.45 -19.91 1278.34 -23.69 1278.54 -16.69"/></g><g class="edge" stroke="#000"><path fill="none" d="M1443.94-722.18c35.3 10.49 76.91 24.98 90.06 38.18 35.85 35.99 47 96.83 50.45 132.52"/><polygon points="1587.91 -552.17 1585.23 -541.92 1580.93 -551.6 1587.91 -552.17"/></g><g class="edge" stroke="#000"><path fill="none" d="m1411.99-719.7 37.81 28.46"/><polygon points="1451.86 -694.07 1457.74 -685.26 1447.65 -688.47 1451.86 -694.07"/></g><g class="node"><polygon fill="none" stroke="#000" points="1323.21 -684 1182.79 -684 1182.79 -648 1323.21 -648 1323.21 -684"/><text xml:space="preserve" text-anchor="middle" x="1253" y="-661.8" font-family="Times,serif" font-size="14">mirl_windowing_core</text></g><g class="edge" stroke="#000"><path fill="none" stroke-dasharray="1 5" d="m1355.03-719.52-58.34 30.03"/><polygon points="1298.37 -686.42 1287.88 -684.95 1295.17 -692.64 1298.37 -686.42"/></g><g class="edge" stroke="#000"><path fill="none" d="M1182.48-654.7A18736.2 18736.2 0 0 1 1136-648a93682.59 93682.59 0 0 1-313.94 44.12"/><polygon points="822.8 -600.45 812.41 -602.54 821.83 -607.39 822.8 -600.45"/></g><g class="edge" stroke="#00cd00"><path fill="none" d="M1261.8-647.82C1298.02-574.49 1427-285.08 1283-144c-25.23 24.72-116.5 39.31-180.71 46.74"/><polygon fill="#00cd00" points="1102.86 -93.8 1092.54 -96.17 1102.08 -100.76 1102.86 -93.8"/></g><g class="node"><polygon fill="none" stroke="#000" points="431.6 -684 332.4 -684 332.4 -648 431.6 -648 431.6 -684"/><text xml:space="preserve" text-anchor="middle" x="382" y="-661.8" font-family="Times,serif" font-size="14">mirl_geometry</text></g><g class="edge" stroke="#000"><path fill="none" d="m431.93-655.7 261.86 48.75"/><polygon points="694.15 -610.45 703.34 -605.18 692.87 -603.57 694.15 -610.45"/></g><g class="edge" stroke="#00cd00"><path fill="none" d="M373.71-647.51C362-621.15 342-569.36 342-523v74c0 152.26 17.09 242.66 156 305 82.72 37.12 347.05 48.4 471.72 51.7"/><polygon fill="#00cd00" points="969.56 -95.81 979.47 -92.05 969.38 -88.81 969.56 -95.81"/></g><g class="edge" stroke="#000"><path fill="none" d="M381.45-647.81C380.32-580.57 385.88-333.22 522-216c43.56 37.51 212.76 48.55 296.09 51.74"/><polygon points="818.11 -167.76 827.98 -163.91 817.86 -160.77 818.11 -167.76"/></g><g class="edge" stroke="#000"><path fill="none" stroke-dasharray="1 5" d="m658.53-431.52-43.83 28.94"/><polygon points="616.67 -399.68 606.4 -397.09 612.82 -405.53 616.67 -399.68"/></g><g class="edge" stroke="#000"><path fill="none" d="m681.07-431.85-38.6 168.61"/><polygon points="645.93 -262.67 640.28 -253.71 639.1 -264.24 645.93 -262.67"/></g><g class="edge" stroke="#00cd00"><path fill="none" d="M687.26-431.55C695.02-378.99 725.65-221.1 821-144c41.89 33.87 102.33 46.54 148.47 51.07"/><polygon fill="#00cd00" points="969.71 -96.42 979.37 -92.07 969.1 -89.45 969.71 -96.42"/></g><g class="edge" stroke="#000"><path fill="none" d="m695.99-431.54 152.15 241.75"/><polygon points="850.98 -191.84 853.35 -181.51 845.06 -188.11 850.98 -191.84"/></g></g></svg>