<svg width="2472pt" height="908pt" viewBox="0.00 0.00 2472.00 908.00" xmlns="http://www.w3.org/2000/svg" xmlns:xlink="http://www.w3.org/1999/xlink">
<g id="graph0" class="graph" transform="scale(1 1) rotate(0) translate(4 904)">
<polygon fill="white" stroke="none" points="-4,4 -4,-904 2468,-904 2468,4 -4,4"/>
<!-- 0 -->
<g id="node1" class="node">
<title>0</title>
<polygon fill="none" stroke="black" points="1820.27,-324 1739.73,-324 1739.73,-288 1820.27,-288 1820.27,-324"/>
<text xml:space="preserve" text-anchor="middle" x="1780" y="-301.8" font-family="Times,serif" font-size="14.00">mirl_buffer</text>
</g>
<!-- 9 -->
<g id="node10" class="node">
<title>9</title>
<polygon fill="none" stroke="black" points="1040.67,-108 931.33,-108 931.33,-72 1040.67,-72 1040.67,-108"/>
<text xml:space="preserve" text-anchor="middle" x="986" y="-85.8" font-family="Times,serif" font-size="14.00">mirl_build_tools</text>
</g>
<!-- 0&#45;&gt;9 -->
<g id="edge1" class="edge">
<title>0-&gt;9</title>
<path fill="none" stroke="#00cd00" d="M1775.01,-287.6C1764.16,-253.28 1734.85,-177.3 1680,-144 1627.17,-111.93 1215.53,-97.27 1052.33,-92.67"/>
<polygon fill="#00cd00" stroke="#00cd00" points="1052.63,-89.18 1042.53,-92.4 1052.43,-96.18 1052.63,-89.18"/>
</g>
<!-- 10 -->
<g id="node11" class="node">
<title>10</title>
<polygon fill="none" stroke="#00cd00" points="1145.66,-36 1064.34,-36 1064.34,0 1145.66,0 1145.66,-36"/>
<text xml:space="preserve" text-anchor="middle" x="1105" y="-13.8" font-family="Times,serif" font-size="14.00">mirl_derive</text>
</g>
<!-- 0&#45;&gt;10 -->
<g id="edge2" class="edge">
<title>0-&gt;10</title>
<path fill="none" stroke="#00cd00" stroke-dasharray="1,5" d="M1779.97,-287.6C1779.37,-269.16 1776.78,-239.5 1767,-216 1751.63,-179.07 1746.78,-165.42 1713,-144 1619.79,-84.91 1286.54,-40.36 1157.01,-24.91"/>
<polygon fill="#00cd00" stroke="#00cd00" points="1157.7,-21.46 1147.36,-23.76 1156.88,-28.41 1157.7,-21.46"/>
</g>
<!-- 1 -->
<g id="node2" class="node">
<title>1</title>
<polygon fill="none" stroke="black" points="753.53,-612 594.47,-612 594.47,-576 753.53,-576 753.53,-612"/>
<text xml:space="preserve" text-anchor="middle" x="674" y="-589.8" font-family="Times,serif" font-size="14.00">mirl_buffer_interpolation</text>
</g>
<!-- 8 -->
<g id="node9" class="node">
<title>8</title>
<polygon fill="none" stroke="black" points="848.21,-540 707.79,-540 707.79,-504 848.21,-504 848.21,-540"/>
<text xml:space="preserve" text-anchor="middle" x="778" y="-517.8" font-family="Times,serif" font-size="14.00">mirl_extensions_math</text>
</g>
<!-- 1&#45;&gt;8 -->
<g id="edge4" class="edge">
<title>1-&gt;8</title>
<path fill="none" stroke="black" d="M699.98,-575.52C712.98,-566.76 728.91,-556.04 742.97,-546.58"/>
<polygon fill="black" stroke="black" points="744.76,-549.59 751.1,-541.11 740.85,-543.79 744.76,-549.59"/>
</g>
<!-- 1&#45;&gt;9 -->
<g id="edge3" class="edge">
<title>1-&gt;9</title>
<path fill="none" stroke="#00cd00" d="M637.88,-575.72C621.79,-566.73 603.47,-554.55 590,-540 565.42,-513.45 560.7,-503.12 552,-468 534.69,-398.11 504.27,-197.91 552,-144 575.95,-116.95 804.37,-100.82 919.85,-94.33"/>
<polygon fill="#00cd00" stroke="#00cd00" points="919.69,-97.84 929.48,-93.79 919.31,-90.85 919.69,-97.84"/>
</g>
<!-- 15 -->
<g id="node16" class="node">
<title>15</title>
<polygon fill="none" stroke="black" points="1351.88,-396 1258.12,-396 1258.12,-360 1351.88,-360 1351.88,-396"/>
<text xml:space="preserve" text-anchor="middle" x="1305" y="-373.8" font-family="Times,serif" font-size="14.00">mirl_graphics</text>
</g>
<!-- 1&#45;&gt;15 -->
<g id="edge5" class="edge">
<title>1-&gt;15</title>
<path fill="none" stroke="black" d="M753.77,-577.03C847.24,-557.05 1005.89,-519.14 1136,-468 1182.71,-449.64 1233.26,-421.88 1266.78,-402.26"/>
<polygon fill="black" stroke="black" points="1268.48,-405.32 1275.31,-397.22 1264.92,-399.29 1268.48,-405.32"/>
</g>
<!-- 2 -->
<g id="node3" class="node">
<title>2</title>
<polygon fill="none" stroke="black" points="430.26,-756 321.74,-756 321.74,-720 430.26,-720 430.26,-756"/>
<text xml:space="preserve" text-anchor="middle" x="376" y="-733.8" font-family="Times,serif" font-size="14.00">mirl_codec_info</text>
</g>
<!-- 3 -->
<g id="node4" class="node">
<title>3</title>
<polygon fill="none" stroke="black" points="569.05,-684 486.95,-684 486.95,-648 569.05,-648 569.05,-684"/>
<text xml:space="preserve" text-anchor="middle" x="528" y="-661.8" font-family="Times,serif" font-size="14.00">mirl_values</text>
</g>
<!-- 2&#45;&gt;3 -->
<g id="edge10" class="edge">
<title>2-&gt;3</title>
<path fill="none" stroke="black" d="M413.96,-719.52C433.9,-710.34 458.54,-698.99 479.8,-689.2"/>
<polygon fill="black" stroke="black" points="481.26,-692.38 488.88,-685.01 478.33,-686.02 481.26,-692.38"/>
</g>
<!-- 5 -->
<g id="node6" class="node">
<title>5</title>
<polygon fill="none" stroke="black" points="1152.72,-612 1047.28,-612 1047.28,-576 1152.72,-576 1152.72,-612"/>
<text xml:space="preserve" text-anchor="middle" x="1100" y="-589.8" font-family="Times,serif" font-size="14.00">mirl_extensions</text>
</g>
<!-- 2&#45;&gt;5 -->
<g id="edge9" class="edge">
<title>2-&gt;5</title>
<path fill="none" stroke="black" d="M430.57,-722.81C516.02,-700.72 677.64,-659.43 736,-648 840.25,-627.57 962.71,-611.32 1035.7,-602.43"/>
<polygon fill="black" stroke="black" points="1035.97,-605.93 1045.48,-601.25 1035.13,-598.98 1035.97,-605.93"/>
</g>
<!-- 2&#45;&gt;9 -->
<g id="edge6" class="edge">
<title>2-&gt;9</title>
<path fill="none" stroke="#00cd00" d="M321.55,-724.94C294.47,-716.84 262.57,-703.91 239,-684 203.83,-654.29 186,-641.04 186,-595 186,-595 186,-595 186,-521 186,-338.28 185.95,-224.46 350,-144 448.91,-95.49 777.94,-90.36 919.88,-90.49"/>
<polygon fill="#00cd00" stroke="#00cd00" points="919.47,-93.99 929.48,-90.51 919.49,-86.99 919.47,-93.99"/>
</g>
<!-- 2&#45;&gt;10 -->
<g id="edge8" class="edge">
<title>2-&gt;10</title>
<path fill="none" stroke="#00cd00" stroke-dasharray="1,5" d="M321.52,-730.56C283.9,-723.9 234.31,-710.55 198,-684 74.43,-593.65 38,-532.08 38,-379 38,-379 38,-379 38,-161 38,-98.46 88.69,-94.62 147,-72 231.48,-39.23 864.4,-23.88 1052.46,-20.01"/>
<polygon fill="#00cd00" stroke="#00cd00" points="1052.5,-23.51 1062.42,-19.81 1052.36,-16.51 1052.5,-23.51"/>
</g>
<!-- 13 -->
<g id="node14" class="node">
<title>13</title>
<polygon fill="none" stroke="black" points="1373.21,-180 1302.79,-180 1302.79,-144 1373.21,-144 1373.21,-180"/>
<text xml:space="preserve" text-anchor="middle" x="1338" y="-157.8" font-family="Times,serif" font-size="14.00">mirl_core</text>
</g>
<!-- 2&#45;&gt;13 -->
<g id="edge7" class="edge">
<title>2-&gt;13</title>
<path fill="none" stroke="black" d="M383.5,-719.65C417.34,-643.74 564.12,-339.18 791,-216 876.83,-169.4 1175.19,-163.44 1291.28,-162.92"/>
<polygon fill="black" stroke="black" points="1291.08,-166.42 1301.06,-162.89 1291.05,-159.42 1291.08,-166.42"/>
</g>
<!-- 4 -->
<g id="node5" class="node">
<title>4</title>
<polygon fill="none" stroke="black" points="1049.59,-396 936.41,-396 936.41,-360 1049.59,-360 1049.59,-396"/>
<text xml:space="preserve" text-anchor="middle" x="993" y="-373.8" font-family="Times,serif" font-size="14.00">mirl_values_core</text>
</g>
<!-- 3&#45;&gt;4 -->
<g id="edge14" class="edge">
<title>3-&gt;4</title>
<path fill="none" stroke="black" d="M536.17,-647.69C545.84,-628.52 563.39,-597.47 585,-576 682.52,-479.1 837.05,-422.69 925.29,-396.65"/>
<polygon fill="black" stroke="black" points="926.16,-400.04 934.79,-393.89 924.21,-393.32 926.16,-400.04"/>
</g>
<!-- 3&#45;&gt;5 -->
<g id="edge13" class="edge">
<title>3-&gt;5</title>
<path fill="none" stroke="black" d="M569.14,-659.97C667.56,-647.92 917.2,-617.37 1035.69,-602.87"/>
<polygon fill="black" stroke="black" points="1036.07,-606.35 1045.57,-601.66 1035.22,-599.4 1036.07,-606.35"/>
</g>
<!-- 3&#45;&gt;9 -->
<g id="edge11" class="edge">
<title>3-&gt;9</title>
<path fill="none" stroke="#00cd00" d="M525.03,-647.63C511.42,-565.36 458.58,-215.81 531,-144 558.11,-117.11 800.63,-100.74 920.09,-94.24"/>
<polygon fill="#00cd00" stroke="#00cd00" points="919.95,-97.75 929.74,-93.72 919.57,-90.76 919.95,-97.75"/>
</g>
<!-- 3&#45;&gt;10 -->
<g id="edge12" class="edge">
<title>3-&gt;10</title>
<path fill="none" stroke="#00cd00" stroke-dasharray="1,5" d="M502.82,-647.65C395.83,-572.01 -7.33,-266.09 176,-72 206.27,-39.95 860.47,-24.02 1052.47,-20.02"/>
<polygon fill="#00cd00" stroke="#00cd00" points="1052.48,-23.53 1062.4,-19.82 1052.33,-16.53 1052.48,-23.53"/>
</g>
<!-- 7 -->
<g id="node8" class="node">
<title>7</title>
<polygon fill="none" stroke="black" points="958.26,-252 821.74,-252 821.74,-216 958.26,-216 958.26,-252"/>
<text xml:space="preserve" text-anchor="middle" x="890" y="-229.8" font-family="Times,serif" font-size="14.00">mirl_extensions_core</text>
</g>
<!-- 4&#45;&gt;7 -->
<g id="edge18" class="edge">
<title>4-&gt;7</title>
<path fill="none" stroke="black" d="M980.37,-359.59C962.51,-334.97 929.75,-289.8 908.96,-261.14"/>
<polygon fill="black" stroke="black" points="912,-259.38 903.3,-253.34 906.34,-263.49 912,-259.38"/>
</g>
<!-- 4&#45;&gt;9 -->
<g id="edge15" class="edge">
<title>4-&gt;9</title>
<path fill="none" stroke="#00cd00" d="M992.57,-359.54C991.4,-311.76 988.14,-178.51 986.7,-119.61"/>
<polygon fill="#00cd00" stroke="#00cd00" points="990.2,-119.66 986.46,-109.74 983.2,-119.83 990.2,-119.66"/>
</g>
<!-- 4&#45;&gt;10 -->
<g id="edge17" class="edge">
<title>4-&gt;10</title>
<path fill="none" stroke="#00cd00" stroke-dasharray="1,5" d="M998.4,-359.73C1016.37,-302.31 1074.21,-117.42 1096.31,-46.79"/>
<polygon fill="#00cd00" stroke="#00cd00" points="1099.55,-48.13 1099.2,-37.54 1092.87,-46.04 1099.55,-48.13"/>
</g>
<!-- 11 -->
<g id="node12" class="node">
<title>11</title>
<polygon fill="none" stroke="black" points="1196.49,-324 1089.51,-324 1089.51,-288 1196.49,-288 1196.49,-324"/>
<text xml:space="preserve" text-anchor="middle" x="1143" y="-301.8" font-family="Times,serif" font-size="14.00">mirl_collections</text>
</g>
<!-- 4&#45;&gt;11 -->
<g id="edge16" class="edge">
<title>4-&gt;11</title>
<path fill="none" stroke="black" d="M1030.46,-359.52C1050.14,-350.34 1074.45,-338.99 1095.44,-329.2"/>
<polygon fill="black" stroke="black" points="1096.8,-332.42 1104.38,-325.02 1093.84,-326.08 1096.8,-332.42"/>
</g>
<!-- 5&#45;&gt;0 -->
<g id="edge19" class="edge">
<title>5-&gt;0</title>
<path fill="none" stroke="black" d="M1153.19,-587.22C1243.76,-575.62 1431.65,-543.8 1571,-468 1633.74,-433.87 1632.48,-402.34 1690,-360 1704.73,-349.15 1721.83,-338.62 1737.15,-329.85"/>
<polygon fill="black" stroke="black" points="1738.6,-333.05 1745.59,-325.09 1735.16,-326.95 1738.6,-333.05"/>
</g>
<!-- 5&#45;&gt;4 -->
<g id="edge28" class="edge">
<title>5-&gt;4</title>
<path fill="none" stroke="black" stroke-dasharray="1,5" d="M1046.99,-578.26C996.26,-561.01 922.62,-527 889,-468 881.08,-454.1 880.64,-445.64 889,-432 897.6,-417.96 911.22,-407.49 925.8,-399.75"/>
<polygon fill="black" stroke="black" points="927.17,-402.98 934.64,-395.47 924.12,-396.68 927.17,-402.98"/>
</g>
<!-- 6 -->
<g id="node7" class="node">
<title>6</title>
<polygon fill="none" stroke="black" points="1071.93,-468 898.07,-468 898.07,-432 1071.93,-432 1071.93,-468"/>
<text xml:space="preserve" text-anchor="middle" x="985" y="-445.8" font-family="Times,serif" font-size="14.00">mirl_extensions_conversion</text>
</g>
<!-- 5&#45;&gt;6 -->
<g id="edge23" class="edge">
<title>5-&gt;6</title>
<path fill="none" stroke="black" d="M1085.9,-575.59C1065.87,-550.86 1029.06,-505.41 1005.87,-476.77"/>
<polygon fill="black" stroke="black" points="1008.82,-474.86 999.81,-469.29 1003.38,-479.26 1008.82,-474.86"/>
</g>
<!-- 5&#45;&gt;7 -->
<g id="edge24" class="edge">
<title>5-&gt;7</title>
<path fill="none" stroke="black" d="M1046.87,-589.45C1006.4,-584.22 951.43,-571.4 914,-540 832.76,-471.86 863.63,-324.52 881.16,-262.94"/>
<polygon fill="black" stroke="black" points="884.45,-264.18 883.92,-253.59 877.73,-262.19 884.45,-264.18"/>
</g>
<!-- 5&#45;&gt;8 -->
<g id="edge25" class="edge">
<title>5-&gt;8</title>
<path fill="none" stroke="black" d="M1046.83,-581.44C995.9,-570.37 918.32,-553.5 859.57,-540.73"/>
<polygon fill="black" stroke="black" points="860.46,-537.34 849.94,-538.64 858.97,-544.18 860.46,-537.34"/>
</g>
<!-- 5&#45;&gt;9 -->
<g id="edge20" class="edge">
<title>5-&gt;9</title>
<path fill="none" stroke="#00cd00" d="M1046.83,-589.36C943.65,-581.82 724.14,-563.23 699,-540 669.29,-512.55 680,-491.45 680,-451 680,-451 680,-451 680,-233 680,-187.19 694.82,-170.76 732,-144 761.49,-122.77 854.67,-107.25 919.56,-98.68"/>
<polygon fill="#00cd00" stroke="#00cd00" points="919.96,-102.16 929.43,-97.4 919.06,-95.21 919.96,-102.16"/>
</g>
<!-- 5&#45;&gt;11 -->
<g id="edge21" class="edge">
<title>5-&gt;11</title>
<path fill="none" stroke="black" stroke-dasharray="1,5" d="M1102.63,-575.54C1109.81,-527.76 1129.84,-394.51 1138.7,-335.61"/>
<polygon fill="black" stroke="black" points="1142.16,-336.14 1140.18,-325.73 1135.24,-335.1 1142.16,-336.14"/>
</g>
<!-- 5&#45;&gt;13 -->
<g id="edge22" class="edge">
<title>5-&gt;13</title>
<path fill="none" stroke="black" d="M1109.62,-575.61C1146.41,-509.15 1278.3,-270.86 1323.03,-190.04"/>
<polygon fill="black" stroke="black" points="1326,-191.9 1327.78,-181.46 1319.88,-188.51 1326,-191.9"/>
</g>
<!-- 5&#45;&gt;15 -->
<g id="edge26" class="edge">
<title>5-&gt;15</title>
<path fill="none" stroke="black" stroke-dasharray="1,5" d="M1153.13,-580.87C1178.4,-572.83 1207.5,-559.98 1228,-540 1265.62,-503.34 1252.71,-479.08 1276,-432 1280.19,-423.54 1285.01,-414.48 1289.51,-406.28"/>
<polygon fill="black" stroke="black" points="1292.43,-408.24 1294.23,-397.8 1286.31,-404.84 1292.43,-408.24"/>
</g>
<!-- 16 -->
<g id="node17" class="node">
<title>16</title>
<polygon fill="none" stroke="black" points="2007.56,-540 1932.44,-540 1932.44,-504 2007.56,-504 2007.56,-540"/>
<text xml:space="preserve" text-anchor="middle" x="1970" y="-517.8" font-family="Times,serif" font-size="14.00">mirl_input</text>
</g>
<!-- 5&#45;&gt;16 -->
<g id="edge27" class="edge">
<title>5-&gt;16</title>
<path fill="none" stroke="black" stroke-dasharray="1,5" d="M1153.11,-588.73C1309.88,-576.11 1769.11,-539.16 1920.76,-526.96"/>
<polygon fill="black" stroke="black" points="1920.78,-530.47 1930.47,-526.18 1920.22,-523.49 1920.78,-530.47"/>
</g>
<!-- 6&#45;&gt;0 -->
<g id="edge29" class="edge">
<title>6-&gt;0</title>
<path fill="none" stroke="black" stroke-dasharray="1,5" d="M1032.41,-431.58C1096.35,-408.33 1207.04,-369.05 1249,-360 1422.01,-322.7 1632.5,-311.56 1728.19,-308.3"/>
<polygon fill="black" stroke="black" points="1728.16,-311.8 1738.04,-307.98 1727.93,-304.81 1728.16,-311.8"/>
</g>
<!-- 6&#45;&gt;4 -->
<g id="edge34" class="edge">
<title>6-&gt;4</title>
<path fill="none" stroke="black" stroke-dasharray="1,5" d="M986.98,-431.7C987.81,-424.41 988.8,-415.73 989.74,-407.54"/>
<polygon fill="black" stroke="black" points="993.22,-407.94 990.87,-397.61 986.26,-407.15 993.22,-407.94"/>
</g>
<!-- 6&#45;&gt;7 -->
<g id="edge32" class="edge">
<title>6-&gt;7</title>
<path fill="none" stroke="black" d="M959.68,-431.52C948.07,-422.25 935.11,-409.9 927,-396 902.54,-354.08 894.25,-297.23 891.44,-263.51"/>
<polygon fill="black" stroke="black" points="894.95,-263.44 890.74,-253.71 887.96,-263.93 894.95,-263.44"/>
</g>
<!-- 6&#45;&gt;9 -->
<g id="edge30" class="edge">
<title>6-&gt;9</title>
<path fill="none" stroke="#00cd00" d="M1022.78,-431.56C1036.81,-422.98 1051.2,-411.18 1059,-396 1107.84,-300.94 1038.87,-172.35 1004.04,-117.53"/>
<polygon fill="#00cd00" stroke="#00cd00" points="1007.17,-115.93 998.79,-109.45 1001.3,-119.74 1007.17,-115.93"/>
</g>
<!-- 6&#45;&gt;13 -->
<g id="edge31" class="edge">
<title>6-&gt;13</title>
<path fill="none" stroke="black" d="M1026.52,-431.51C1046.94,-422.15 1071.5,-409.73 1092,-396 1112.15,-382.5 1112.88,-373.53 1133,-360 1162.69,-340.03 1177.53,-346.92 1205,-324 1251.07,-285.56 1246.9,-261.51 1286,-216 1294.06,-206.61 1303.39,-196.81 1311.9,-188.23"/>
<polygon fill="black" stroke="black" points="1314.37,-190.71 1318.99,-181.18 1309.43,-185.75 1314.37,-190.71"/>
</g>
<!-- 6&#45;&gt;15 -->
<g id="edge33" class="edge">
<title>6-&gt;15</title>
<path fill="none" stroke="black" stroke-dasharray="1,5" d="M1064.92,-431.52C1121.37,-419.17 1195.74,-402.9 1246.66,-391.76"/>
<polygon fill="black" stroke="black" points="1247.29,-395.21 1256.32,-389.65 1245.8,-388.37 1247.29,-395.21"/>
</g>
<!-- 7&#45;&gt;9 -->
<g id="edge35" class="edge">
<title>7-&gt;9</title>
<path fill="none" stroke="#00cd00" d="M901.77,-215.59C918.34,-191.08 948.69,-146.19 968.07,-117.52"/>
<polygon fill="#00cd00" stroke="#00cd00" points="970.88,-119.61 973.58,-109.36 965.08,-115.69 970.88,-119.61"/>
</g>
<!-- 7&#45;&gt;13 -->
<g id="edge36" class="edge">
<title>7-&gt;13</title>
<path fill="none" stroke="black" d="M958.53,-222.29C1050.69,-207.89 1212.15,-182.66 1291.41,-170.28"/>
<polygon fill="black" stroke="black" points="1291.66,-173.78 1301,-168.78 1290.58,-166.87 1291.66,-173.78"/>
</g>
<!-- 8&#45;&gt;6 -->
<g id="edge39" class="edge">
<title>8-&gt;6</title>
<path fill="none" stroke="black" d="M829.7,-503.52C857.96,-493.96 893.17,-482.05 922.91,-472"/>
<polygon fill="black" stroke="black" points="923.81,-475.39 932.17,-468.87 921.57,-468.75 923.81,-475.39"/>
</g>
<!-- 8&#45;&gt;7 -->
<g id="edge40" class="edge">
<title>8-&gt;7</title>
<path fill="none" stroke="black" d="M782.2,-503.77C792.13,-464.37 819.05,-365.14 856,-288 860.3,-279.03 865.84,-269.74 871.19,-261.49"/>
<polygon fill="black" stroke="black" points="874.02,-263.55 876.69,-253.29 868.21,-259.65 874.02,-263.55"/>
</g>
<!-- 8&#45;&gt;9 -->
<g id="edge37" class="edge">
<title>8-&gt;9</title>
<path fill="none" stroke="#00cd00" d="M765.28,-503.62C747.66,-477.81 718,-427.17 718,-379 718,-379 718,-379 718,-233 718,-141.91 840.38,-109.09 919.74,-97.38"/>
<polygon fill="#00cd00" stroke="#00cd00" points="920.2,-100.85 929.62,-96.01 919.23,-93.91 920.2,-100.85"/>
</g>
<!-- 8&#45;&gt;13 -->
<g id="edge38" class="edge">
<title>8-&gt;13</title>
<path fill="none" stroke="black" d="M777.28,-503.54C775.26,-444.88 772.1,-256.31 813,-216 846.78,-182.71 1169.4,-168.6 1291.5,-164.42"/>
<polygon fill="black" stroke="black" points="1291.28,-167.93 1301.16,-164.1 1291.05,-160.93 1291.28,-167.93"/>
</g>
<!-- 8&#45;&gt;15 -->
<g id="edge41" class="edge">
<title>8-&gt;15</title>
<path fill="none" stroke="black" d="M848.64,-513.62C910.79,-505.95 1003.22,-491.69 1081,-468 1118.69,-456.52 1125.51,-446.85 1162,-432 1189.8,-420.68 1221.03,-408.99 1247.19,-399.48"/>
<polygon fill="black" stroke="black" points="1248.06,-402.89 1256.27,-396.2 1245.68,-396.31 1248.06,-402.89"/>
</g>
<!-- 9&#45;&gt;10 -->
<g id="edge42" class="edge">
<title>9-&gt;10</title>
<path fill="none" stroke="#00cd00" stroke-dasharray="1,5" d="M1015.72,-71.52C1030.89,-62.6 1049.53,-51.63 1065.85,-42.03"/>
<polygon fill="#00cd00" stroke="#00cd00" points="1067.51,-45.11 1074.35,-37.03 1063.96,-39.08 1067.51,-45.11"/>
</g>
<!-- 11&#45;&gt;7 -->
<g id="edge46" class="edge">
<title>11-&gt;7</title>
<path fill="none" stroke="black" d="M1089.04,-290.07C1052.56,-279.98 1003.92,-266.52 963.86,-255.44"/>
<polygon fill="black" stroke="black" points="964.84,-252.07 954.26,-252.78 962.97,-258.82 964.84,-252.07"/>
</g>
<!-- 11&#45;&gt;9 -->
<g id="edge43" class="edge">
<title>11-&gt;9</title>
<path fill="none" stroke="#00cd00" d="M1134.16,-287.55C1118.2,-256.89 1082.53,-192.01 1043,-144 1034.93,-134.2 1025.1,-124.45 1015.9,-116.04"/>
<polygon fill="#00cd00" stroke="#00cd00" points="1018.27,-113.46 1008.47,-109.43 1013.62,-118.69 1018.27,-113.46"/>
</g>
<!-- 11&#45;&gt;10 -->
<g id="edge45" class="edge">
<title>11-&gt;10</title>
<path fill="none" stroke="#00cd00" stroke-dasharray="1,5" d="M1142.14,-287.62C1140,-248.73 1133.56,-151.81 1119,-72 1117.51,-63.82 1115.4,-55.06 1113.28,-47.05"/>
<polygon fill="#00cd00" stroke="#00cd00" points="1116.67,-46.19 1110.63,-37.49 1109.93,-48.06 1116.67,-46.19"/>
</g>
<!-- 11&#45;&gt;13 -->
<g id="edge44" class="edge">
<title>11-&gt;13</title>
<path fill="none" stroke="black" d="M1160.08,-287.68C1179.24,-268.77 1211.75,-238.22 1243,-216 1258.55,-204.94 1276.62,-194.36 1292.81,-185.6"/>
<polygon fill="black" stroke="black" points="1294.08,-188.88 1301.26,-181.1 1290.79,-182.7 1294.08,-188.88"/>
</g>
<!-- 12 -->
<g id="node13" class="node">
<title>12</title>
<polygon fill="none" stroke="black" points="1781.67,-900 1700.33,-900 1700.33,-864 1781.67,-864 1781.67,-900"/>
<text xml:space="preserve" text-anchor="middle" x="1741" y="-877.8" font-family="Times,serif" font-size="14.00">mirl_consts</text>
</g>
<!-- 13&#45;&gt;9 -->
<g id="edge47" class="edge">
<title>13-&gt;9</title>
<path fill="none" stroke="#00cd00" d="M1302.31,-153.9C1243.71,-142.25 1126.21,-118.88 1052.09,-104.14"/>
<polygon fill="#00cd00" stroke="#00cd00" points="1053,-100.76 1042.51,-102.24 1051.64,-107.62 1053,-100.76"/>
</g>
<!-- 13&#45;&gt;10 -->
<g id="edge48" class="edge">
<title>13-&gt;10</title>
<path fill="none" stroke="#00cd00" stroke-dasharray="1,5" d="M1310.44,-143.57C1281.74,-125.48 1235.4,-96.46 1195,-72 1178.71,-62.14 1160.65,-51.45 1145,-42.27"/>
<polygon fill="#00cd00" stroke="#00cd00" points="1146.81,-39.28 1136.42,-37.25 1143.28,-45.32 1146.81,-39.28"/>
</g>
<!-- 14 -->
<g id="node15" class="node">
<title>14</title>
<polygon fill="none" stroke="black" points="1201,-684 1147,-684 1147,-648 1201,-648 1201,-684"/>
<text xml:space="preserve" text-anchor="middle" x="1174" y="-661.8" font-family="Times,serif" font-size="14.00">mirl</text>
</g>
<!-- 14&#45;&gt;0 -->
<g id="edge49" class="edge">
<title>14-&gt;0</title>
<path fill="none" stroke="black" d="M1201.41,-656.31C1272.68,-632.96 1468.04,-564.06 1609,-468 1640.16,-446.77 1715.53,-372.19 1754.98,-332.43"/>
<polygon fill="black" stroke="black" points="1757.45,-334.91 1761.99,-325.34 1752.47,-329.99 1757.45,-334.91"/>
</g>
<!-- 14&#45;&gt;5 -->
<g id="edge53" class="edge">
<title>14-&gt;5</title>
<path fill="none" stroke="black" d="M1155.71,-647.7C1146.9,-639.37 1136.18,-629.22 1126.5,-620.07"/>
<polygon fill="black" stroke="black" points="1129.11,-617.72 1119.44,-613.39 1124.3,-622.8 1129.11,-617.72"/>
</g>
<!-- 14&#45;&gt;9 -->
<g id="edge50" class="edge">
<title>14-&gt;9</title>
<path fill="none" stroke="#00cd00" d="M1146.68,-658.5C1043.7,-633.95 684.36,-547.89 675,-540 615.21,-489.59 604,-457.2 604,-379 604,-379 604,-379 604,-233 604,-178.3 640.8,-169.86 689,-144 761.45,-105.12 856.72,-94 919.59,-91.21"/>
<polygon fill="#00cd00" stroke="#00cd00" points="919.56,-94.71 929.42,-90.83 919.3,-87.71 919.56,-94.71"/>
</g>
<!-- 14&#45;&gt;10 -->
<g id="edge52" class="edge">
<title>14-&gt;10</title>
<path fill="none" stroke="#00cd00" stroke-dasharray="1,5" d="M1146.77,-665.47C1044.32,-666.81 682.8,-667.44 585,-612 412.85,-514.41 384.23,-440.18 323,-252 302.09,-187.75 367.45,-169.55 430,-144 650.01,-54.15 936.81,-28.43 1052.87,-21.45"/>
<polygon fill="#00cd00" stroke="#00cd00" points="1052.92,-24.96 1062.7,-20.89 1052.52,-17.97 1052.92,-24.96"/>
</g>
<!-- 14&#45;&gt;13 -->
<g id="edge51" class="edge">
<title>14-&gt;13</title>
<path fill="none" stroke="black" d="M1201.29,-648.8C1262.21,-610.34 1404,-507.07 1404,-379 1404,-379 1404,-379 1404,-305 1404,-261.42 1378.12,-216.73 1358.77,-189.42"/>
<polygon fill="black" stroke="black" points="1361.63,-187.39 1352.89,-181.4 1355.98,-191.53 1361.63,-187.39"/>
</g>
<!-- 15&#45;&gt;0 -->
<g id="edge54" class="edge">
<title>15-&gt;0</title>
<path fill="none" stroke="black" d="M1352.28,-370.03C1441.73,-356.85 1635.08,-328.36 1728.03,-314.66"/>
<polygon fill="black" stroke="black" points="1728.51,-318.13 1737.89,-313.21 1727.49,-311.2 1728.51,-318.13"/>
</g>
<!-- 15&#45;&gt;9 -->
<g id="edge55" class="edge">
<title>15-&gt;9</title>
<path fill="none" stroke="#00cd00" d="M1289.9,-359.62C1254.17,-319.04 1160.6,-216.07 1070,-144 1056.51,-133.27 1040.76,-122.84 1026.56,-114.11"/>
<polygon fill="#00cd00" stroke="#00cd00" points="1028.69,-111.31 1018.32,-109.14 1025.07,-117.31 1028.69,-111.31"/>
</g>
<!-- 15&#45;&gt;11 -->
<g id="edge56" class="edge">
<title>15-&gt;11</title>
<path fill="none" stroke="black" stroke-dasharray="1,5" d="M1264.54,-359.52C1243.1,-350.25 1216.55,-338.78 1193.75,-328.93"/>
<polygon fill="black" stroke="black" points="1195.18,-325.74 1184.62,-324.98 1192.41,-332.16 1195.18,-325.74"/>
</g>
<!-- 15&#45;&gt;13 -->
<g id="edge57" class="edge">
<title>15-&gt;13</title>
<path fill="none" stroke="black" d="M1308.01,-359.83C1309.8,-349.46 1312.09,-335.98 1314,-324 1321.38,-277.72 1329.27,-223.85 1333.91,-191.63"/>
<polygon fill="black" stroke="black" points="1337.35,-192.3 1335.31,-181.91 1330.42,-191.31 1337.35,-192.3"/>
</g>
<!-- 16&#45;&gt;0 -->
<g id="edge58" class="edge">
<title>16-&gt;0</title>
<path fill="none" stroke="black" d="M1955.86,-503.75C1931.28,-473.92 1878.78,-411 1832,-360 1823.64,-350.88 1814.23,-341.15 1805.74,-332.54"/>
<polygon fill="black" stroke="black" points="1808.23,-330.08 1798.7,-325.45 1803.27,-335.02 1808.23,-330.08"/>
</g>
<!-- 16&#45;&gt;9 -->
<g id="edge59" class="edge">
<title>16-&gt;9</title>
<path fill="none" stroke="#00cd00" d="M1980.61,-503.84C2015.7,-444.72 2120.3,-247.46 2022,-144 1988.55,-108.79 1275.65,-95.28 1052.3,-91.91"/>
<polygon fill="#00cd00" stroke="#00cd00" points="1052.66,-88.41 1042.61,-91.76 1052.56,-95.41 1052.66,-88.41"/>
</g>
<!-- 16&#45;&gt;10 -->
<g id="edge61" class="edge">
<title>16-&gt;10</title>
<path fill="none" stroke="#00cd00" stroke-dasharray="1,5" d="M2007.89,-513.15C2089.38,-493.8 2274,-435.76 2274,-307 2274,-307 2274,-307 2274,-161 2274,-46.84 1384.04,-23.79 1157.15,-19.77"/>
<polygon fill="#00cd00" stroke="#00cd00" points="1157.49,-16.27 1147.43,-19.6 1157.37,-23.27 1157.49,-16.27"/>
</g>
<!-- 16&#45;&gt;13 -->
<g id="edge60" class="edge">
<title>16-&gt;13</title>
<path fill="none" stroke="black" d="M1967.2,-503.53C1959.37,-460.47 1933.28,-348.33 1866,-288 1794.3,-223.7 1500.28,-182.37 1384.84,-168.34"/>
<polygon fill="black" stroke="black" points="1385.44,-164.89 1375.1,-167.17 1384.61,-171.84 1385.44,-164.89"/>
</g>
<!-- 16&#45;&gt;15 -->
<g id="edge62" class="edge">
<title>16-&gt;15</title>
<path fill="none" stroke="black" d="M1932.3,-519.09C1830.01,-513.59 1548.96,-496.28 1461,-468 1415.06,-453.23 1367.66,-423.79 1337.35,-402.82"/>
<polygon fill="black" stroke="black" points="1339.56,-400.1 1329.37,-397.21 1335.53,-405.82 1339.56,-400.1"/>
</g>
<!-- 17 -->
<g id="node18" class="node">
<title>17</title>
<polygon fill="none" stroke="black" points="347.6,-684 248.4,-684 248.4,-648 347.6,-648 347.6,-684"/>
<text xml:space="preserve" text-anchor="middle" x="298" y="-661.8" font-family="Times,serif" font-size="14.00">mirl_geometry</text>
</g>
<!-- 17&#45;&gt;5 -->
<g id="edge65" class="edge">
<title>17-&gt;5</title>
<path fill="none" stroke="black" d="M348.03,-660.15C384.15,-656.68 434.08,-651.95 478,-648 681.76,-629.7 923.22,-609.57 1035.99,-600.26"/>
<polygon fill="black" stroke="black" points="1035.96,-603.77 1045.64,-599.46 1035.39,-596.8 1035.96,-603.77"/>
</g>
<!-- 17&#45;&gt;9 -->
<g id="edge63" class="edge">
<title>17-&gt;9</title>
<path fill="none" stroke="#00cd00" d="M290.71,-647.87C280.2,-621.53 262,-569.29 262,-523 262,-523 262,-523 262,-377 262,-249.33 309.8,-187.02 430,-144 518.53,-112.32 792.04,-98.22 919.44,-93.25"/>
<polygon fill="#00cd00" stroke="#00cd00" points="919.56,-96.75 929.42,-92.87 919.29,-89.75 919.56,-96.75"/>
</g>
<!-- 17&#45;&gt;13 -->
<g id="edge64" class="edge">
<title>17-&gt;13</title>
<path fill="none" stroke="black" d="M306.6,-647.86C322.49,-617.1 358.65,-551.36 400,-504 530.7,-354.32 558.53,-292.34 742,-216 841.18,-174.73 1169.13,-165.55 1291.46,-163.55"/>
<polygon fill="black" stroke="black" points="1291.18,-167.05 1301.13,-163.4 1291.07,-160.05 1291.18,-167.05"/>
</g>
<!-- 18 -->
<g id="node19" class="node">
<title>18</title>
<polygon fill="none" stroke="black" points="462.15,-252 331.85,-252 331.85,-216 462.15,-216 462.15,-252"/>
<text xml:space="preserve" text-anchor="middle" x="397" y="-229.8" font-family="Times,serif" font-size="14.00">mirl_geometry_core</text>
</g>
<!-- 17&#45;&gt;18 -->
<g id="edge66" class="edge">
<title>17-&gt;18</title>
<path fill="none" stroke="black" d="M298.4,-647.51C298.99,-620.71 300,-567.87 300,-523 300,-523 300,-523 300,-449 300,-375.86 347.59,-300.19 376.1,-261.42"/>
<polygon fill="black" stroke="black" points="378.77,-263.69 381.99,-253.59 373.18,-259.48 378.77,-263.69"/>
</g>
<!-- 18&#45;&gt;9 -->
<g id="edge67" class="edge">
<title>18-&gt;9</title>
<path fill="none" stroke="#00cd00" d="M406.72,-215.78C419.59,-194.82 444.39,-160.23 476,-144 551.86,-105.06 799.78,-94.72 919.76,-91.98"/>
<polygon fill="#00cd00" stroke="#00cd00" points="919.53,-95.49 929.45,-91.77 919.38,-88.49 919.53,-95.49"/>
</g>
<!-- 19 -->
<g id="node20" class="node">
<title>19</title>
<polygon fill="none" stroke="black" points="1216.99,-756 1117.01,-756 1117.01,-720 1216.99,-720 1216.99,-756"/>
<text xml:space="preserve" text-anchor="middle" x="1167" y="-733.8" font-family="Times,serif" font-size="14.00">mirl_rendering</text>
</g>
<!-- 19&#45;&gt;0 -->
<g id="edge69" class="edge">
<title>19-&gt;0</title>
<path fill="none" stroke="black" d="M1217.46,-737.2C1277.79,-735.39 1380.11,-725.69 1456,-684 1612.13,-598.24 1727.12,-405.7 1765.81,-334.31"/>
<polygon fill="black" stroke="black" points="1768.82,-336.11 1770.45,-325.64 1762.64,-332.81 1768.82,-336.11"/>
</g>
<!-- 19&#45;&gt;1 -->
<g id="edge70" class="edge">
<title>19-&gt;1</title>
<path fill="none" stroke="black" d="M1116.53,-736.11C1046.14,-733.41 915.5,-723.02 812,-684 771.19,-668.62 729.88,-639.84 703.24,-619.17"/>
<polygon fill="black" stroke="black" points="705.66,-616.62 695.64,-613.17 701.32,-622.11 705.66,-616.62"/>
</g>
<!-- 19&#45;&gt;5 -->
<g id="edge74" class="edge">
<title>19-&gt;5</title>
<path fill="none" stroke="black" d="M1156.9,-719.56C1151.12,-709.33 1143.87,-696.08 1138,-684 1128.2,-663.82 1118.29,-640.48 1111.04,-622.76"/>
<polygon fill="black" stroke="black" points="1114.36,-621.64 1107.37,-613.69 1107.87,-624.27 1114.36,-621.64"/>
</g>
<!-- 19&#45;&gt;9 -->
<g id="edge71" class="edge">
<title>19-&gt;9</title>
<path fill="none" stroke="#00cd00" d="M1116.78,-726.01C1044.48,-708.83 908.39,-671.28 805,-612 783.67,-599.77 784.68,-587.6 763,-576 710.9,-548.12 679.69,-578.67 635,-540 626.25,-532.43 566,-384.06 566,-379 566,-379 566,-379 566,-233 566,-186.03 583.53,-169.47 623,-144 670.79,-113.16 828.6,-99.55 919.64,-94.15"/>
<polygon fill="#00cd00" stroke="#00cd00" points="919.65,-97.65 929.43,-93.58 919.25,-90.66 919.65,-97.65"/>
</g>
<!-- 19&#45;&gt;10 -->
<g id="edge73" class="edge">
<title>19-&gt;10</title>
<path fill="none" stroke="#00cd00" stroke-dasharray="1,5" d="M1116.71,-736.12C966.69,-733.09 529.48,-721.13 478,-684 311.57,-563.95 337.39,-455.99 315,-252 309.54,-202.24 310.75,-178.52 347,-144 411.19,-82.87 446.71,-92.28 533,-72 720.71,-27.88 951.16,-20.17 1052.71,-19.04"/>
<polygon fill="#00cd00" stroke="#00cd00" points="1052.68,-22.54 1062.65,-18.95 1052.61,-15.54 1052.68,-22.54"/>
</g>
<!-- 19&#45;&gt;13 -->
<g id="edge72" class="edge">
<title>19-&gt;13</title>
<path fill="none" stroke="black" d="M1217.44,-733.37C1296.83,-724.62 1442,-694.94 1442,-595 1442,-595 1442,-595 1442,-305 1442,-256.19 1401.51,-213.01 1371.06,-187.43"/>
<polygon fill="black" stroke="black" points="1373.53,-184.93 1363.56,-181.34 1369.11,-190.36 1373.53,-184.93"/>
</g>
<!-- 19&#45;&gt;14 -->
<g id="edge68" class="edge">
<title>19-&gt;14</title>
<path fill="none" stroke="black" d="M1168.73,-719.7C1169.46,-712.41 1170.33,-703.73 1171.15,-695.54"/>
<polygon fill="black" stroke="black" points="1174.63,-695.91 1172.14,-685.61 1167.66,-695.21 1174.63,-695.91"/>
</g>
<!-- 19&#45;&gt;15 -->
<g id="edge75" class="edge">
<title>19-&gt;15</title>
<path fill="none" stroke="black" d="M1183.97,-719.59C1192.76,-709.79 1203.06,-696.95 1210,-684 1260.75,-589.26 1289.1,-463.19 1299.89,-407.5"/>
<polygon fill="black" stroke="black" points="1303.28,-408.39 1301.7,-397.91 1296.4,-407.09 1303.28,-408.39"/>
</g>
<!-- 20 -->
<g id="node21" class="node">
<title>20</title>
<polygon fill="none" stroke="black" points="2007.61,-684 1922.39,-684 1922.39,-648 2007.61,-648 2007.61,-684"/>
<text xml:space="preserve" text-anchor="middle" x="1965" y="-661.8" font-family="Times,serif" font-size="14.00">mirl_system</text>
</g>
<!-- 20&#45;&gt;0 -->
<g id="edge76" class="edge">
<title>20-&gt;0</title>
<path fill="none" stroke="black" d="M1978.75,-647.66C2000.72,-617.7 2039.15,-554.59 2017,-504 1980.06,-419.62 1885.61,-359.63 1827.72,-329.4"/>
<polygon fill="black" stroke="black" points="1829.55,-326.4 1819.05,-324.96 1826.36,-332.63 1829.55,-326.4"/>
</g>
<!-- 20&#45;&gt;5 -->
<g id="edge81" class="edge">
<title>20-&gt;5</title>
<path fill="none" stroke="black" d="M1922.16,-660.47C1887.59,-656.87 1837.69,-651.84 1794,-648 1562.53,-627.66 1287.22,-607.97 1164.53,-599.43"/>
<polygon fill="black" stroke="black" points="1164.87,-595.95 1154.65,-598.75 1164.39,-602.93 1164.87,-595.95"/>
</g>
<!-- 20&#45;&gt;9 -->
<g id="edge77" class="edge">
<title>20-&gt;9</title>
<path fill="none" stroke="#00cd00" d="M1994.51,-647.73C2057.21,-608.57 2198,-506.45 2198,-379 2198,-379 2198,-379 2198,-305 2198,-207.2 2136.68,-185.24 2048,-144 1958.07,-102.18 1270.72,-93.22 1052.36,-91.43"/>
<polygon fill="#00cd00" stroke="#00cd00" points="1052.64,-87.93 1042.61,-91.35 1052.58,-94.93 1052.64,-87.93"/>
</g>
<!-- 20&#45;&gt;10 -->
<g id="edge80" class="edge">
<title>20-&gt;10</title>
<path fill="none" stroke="#00cd00" stroke-dasharray="1,5" d="M2007.89,-651.78C2115.43,-615.69 2388,-504.71 2388,-307 2388,-307 2388,-307 2388,-161 2388,-34.97 1397.43,-20.79 1157.07,-19.2"/>
<polygon fill="#00cd00" stroke="#00cd00" points="1157.41,-15.7 1147.39,-19.14 1157.37,-22.7 1157.41,-15.7"/>
</g>
<!-- 20&#45;&gt;11 -->
<g id="edge78" class="edge">
<title>20-&gt;11</title>
<path fill="none" stroke="black" d="M1936.29,-647.56C1852.04,-596.46 1609.07,-449.56 1571,-432 1481.41,-390.67 1455.7,-387.68 1361,-360 1309.93,-345.07 1251.29,-330.98 1207.7,-321.09"/>
<polygon fill="black" stroke="black" points="1208.67,-317.72 1198.15,-318.94 1207.13,-324.55 1208.67,-317.72"/>
</g>
<!-- 20&#45;&gt;13 -->
<g id="edge79" class="edge">
<title>20-&gt;13</title>
<path fill="none" stroke="black" d="M1959,-647.65C1933.63,-574.46 1836.25,-294.41 1829,-288 1774.7,-240.03 1737.79,-277.59 1670,-252 1638.74,-240.2 1635.41,-227.39 1604,-216 1529.77,-189.07 1438.65,-174.68 1384.62,-167.96"/>
<polygon fill="black" stroke="black" points="1385.19,-164.5 1374.85,-166.78 1384.36,-171.45 1385.19,-164.5"/>
</g>
<!-- 20&#45;&gt;15 -->
<g id="edge82" class="edge">
<title>20-&gt;15</title>
<path fill="none" stroke="black" d="M1922.02,-659.01C1819.95,-643.09 1558.26,-592.15 1381,-468 1357.08,-451.25 1336.07,-425.26 1322.23,-405.68"/>
<polygon fill="black" stroke="black" points="1325.25,-403.89 1316.71,-397.63 1319.48,-407.85 1325.25,-403.89"/>
</g>
<!-- 20&#45;&gt;16 -->
<g id="edge83" class="edge">
<title>20-&gt;16</title>
<path fill="none" stroke="black" d="M1965.61,-647.59C1966.46,-623.61 1967.99,-580.14 1969,-551.42"/>
<polygon fill="black" stroke="black" points="1972.49,-551.74 1969.34,-541.62 1965.49,-551.49 1972.49,-551.74"/>
</g>
<!-- 21 -->
<g id="node22" class="node">
<title>21</title>
<polygon fill="none" stroke="black" points="1682.67,-900 1573.33,-900 1573.33,-864 1682.67,-864 1682.67,-900"/>
<text xml:space="preserve" text-anchor="middle" x="1628" y="-877.8" font-family="Times,serif" font-size="14.00">mirl_windowing</text>
</g>
<!-- 21&#45;&gt;5 -->
<g id="edge86" class="edge">
<title>21-&gt;5</title>
<path fill="none" stroke="black" d="M1573.26,-876.49C1448.36,-865 1148.3,-830.11 1085,-756 1053.27,-718.86 1071.61,-657.83 1086.6,-622.54"/>
<polygon fill="black" stroke="black" points="1089.6,-624.41 1090.48,-613.85 1083.21,-621.56 1089.6,-624.41"/>
</g>
<!-- 21&#45;&gt;9 -->
<g id="edge84" class="edge">
<title>21-&gt;9</title>
<path fill="none" stroke="#00cd00" d="M1573.27,-879.04C1293.68,-868.69 38,-817.81 38,-739 38,-739 38,-739 38,-593 38,-496.4 76,-475.6 76,-379 76,-379 76,-379 76,-233 76,-158.89 146.56,-167.02 217,-144 346.73,-101.59 757.95,-93.12 919.71,-91.42"/>
<polygon fill="#00cd00" stroke="#00cd00" points="919.44,-94.93 929.41,-91.33 919.38,-87.93 919.44,-94.93"/>
</g>
<!-- 21&#45;&gt;10 -->
<g id="edge85" class="edge">
<title>21-&gt;10</title>
<path fill="none" stroke="#00cd00" stroke-dasharray="1,5" d="M1573.09,-881.2C1347.93,-881.66 494.75,-879.86 231,-828 123.04,-806.77 0,-849.02 0,-739 0,-739 0,-739 0,-161 0,-113.79 17.07,-95.54 58,-72 144.58,-22.21 852.43,-18.84 1052.5,-18.89"/>
<polygon fill="#00cd00" stroke="#00cd00" points="1052.33,-22.39 1062.33,-18.89 1052.34,-15.39 1052.33,-22.39"/>
</g>
<!-- 22 -->
<g id="node23" class="node">
<title>22</title>
<polygon fill="none" stroke="black" points="2252.21,-756 2111.79,-756 2111.79,-720 2252.21,-720 2252.21,-756"/>
<text xml:space="preserve" text-anchor="middle" x="2182" y="-733.8" font-family="Times,serif" font-size="14.00">mirl_windowing_core</text>
</g>
<!-- 21&#45;&gt;22 -->
<g id="edge88" class="edge">
<title>21-&gt;22</title>
<path fill="none" stroke="black" d="M1682.87,-865.74C1685.61,-865.12 1688.33,-864.53 1691,-864 1809.7,-840.18 1843.94,-858.85 1961,-828 2023.63,-811.49 2092.33,-781.88 2136.24,-761.37"/>
<polygon fill="black" stroke="black" points="2137.66,-764.57 2145.21,-757.14 2134.67,-758.24 2137.66,-764.57"/>
</g>
<!-- 23 -->
<g id="node24" class="node">
<title>23</title>
<polygon fill="none" stroke="black" points="1707.55,-828 1548.45,-828 1548.45,-792 1707.55,-792 1707.55,-828"/>
<text xml:space="preserve" text-anchor="middle" x="1628" y="-805.8" font-family="Times,serif" font-size="14.00">mirl_windowing_console</text>
</g>
<!-- 21&#45;&gt;23 -->
<g id="edge87" class="edge">
<title>21-&gt;23</title>
<path fill="none" stroke="black" stroke-dasharray="1,5" d="M1628,-863.7C1628,-856.41 1628,-847.73 1628,-839.54"/>
<polygon fill="lightgrey" stroke="black" points="1631.5,-839.62 1628,-829.62 1624.5,-839.62 1631.5,-839.62"/>
</g>
<!-- 24 -->
<g id="node25" class="node">
<title>24</title>
<polygon fill="none" stroke="black" points="2302,-828 2160,-828 2160,-792 2302,-792 2302,-828"/>
<text xml:space="preserve" text-anchor="middle" x="2231" y="-805.8" font-family="Times,serif" font-size="14.00">mirl_windowing_glfw</text>
</g>
<!-- 21&#45;&gt;24 -->
<g id="edge89" class="edge">
<title>21-&gt;24</title>
<path fill="none" stroke="black" stroke-dasharray="1,5" d="M1682.85,-865.59C1685.59,-865.01 1688.32,-864.47 1691,-864 1872.43,-831.87 1920.86,-848.23 2104,-828 2118.36,-826.41 2133.61,-824.54 2148.37,-822.62"/>
<polygon fill="lightgrey" stroke="black" points="2148.58,-826.13 2158.04,-821.35 2147.67,-819.18 2148.58,-826.13"/>
</g>
<!-- 25 -->
<g id="node26" class="node">
<title>25</title>
<polygon fill="none" stroke="black" points="1951.83,-828 1798.17,-828 1798.17,-792 1951.83,-792 1951.83,-828"/>
<text xml:space="preserve" text-anchor="middle" x="1875" y="-805.8" font-family="Times,serif" font-size="14.00">mirl_windowing_minifb</text>
</g>
<!-- 21&#45;&gt;25 -->
<g id="edge90" class="edge">
<title>21-&gt;25</title>
<path fill="none" stroke="black" stroke-dasharray="1,5" d="M1683.12,-865.38C1718.32,-855.4 1764.34,-842.36 1802.49,-831.55"/>
<polygon fill="lightgrey" stroke="black" points="1803.41,-834.93 1812.08,-828.83 1801.51,-828.19 1803.41,-834.93"/>
</g>
<!-- 22&#45;&gt;0 -->
<g id="edge91" class="edge">
<title>22-&gt;0</title>
<path fill="none" stroke="black" d="M2175.76,-719.76C2152.65,-658.63 2065.56,-451.05 1918,-360 1891.13,-343.42 1858.2,-330.53 1831.26,-321.62"/>
<polygon fill="black" stroke="black" points="1832.52,-318.35 1821.93,-318.62 1830.38,-325.01 1832.52,-318.35"/>
</g>
<!-- 22&#45;&gt;5 -->
<g id="edge95" class="edge">
<title>22-&gt;5</title>
<path fill="none" stroke="black" d="M2111.63,-722.59C2014.79,-703.2 1834.84,-668.76 1680,-648 1493.38,-622.98 1271.37,-606.31 1164.2,-599.09"/>
<polygon fill="black" stroke="black" points="1164.67,-595.61 1154.46,-598.44 1164.2,-602.6 1164.67,-595.61"/>
</g>
<!-- 22&#45;&gt;9 -->
<g id="edge92" class="edge">
<title>22-&gt;9</title>
<path fill="none" stroke="#00cd00" d="M2196.41,-719.54C2230.26,-676.68 2312,-561.72 2312,-451 2312,-451 2312,-451 2312,-305 2312,-185.98 2209.99,-184.32 2098,-144 1999.86,-108.67 1276.52,-95.24 1052.17,-91.89"/>
<polygon fill="#00cd00" stroke="#00cd00" points="1052.49,-88.4 1042.44,-91.75 1052.39,-95.4 1052.49,-88.4"/>
</g>
<!-- 22&#45;&gt;10 -->
<g id="edge94" class="edge">
<title>22-&gt;10</title>
<path fill="none" stroke="#00cd00" stroke-dasharray="1,5" d="M2252.61,-719.67C2312.24,-700.3 2388,-662.44 2388,-595 2388,-595 2388,-595 2388,-521 2388,-353.33 2491.66,-285.68 2402,-144 2362.03,-80.83 2322.53,-90.08 2250,-72 2038.9,-19.37 1353.09,-17.98 1157.5,-18.69"/>
<polygon fill="#00cd00" stroke="#00cd00" points="1157.64,-15.19 1147.65,-18.73 1157.67,-22.19 1157.64,-15.19"/>
</g>
<!-- 22&#45;&gt;13 -->
<g id="edge93" class="edge">
<title>22-&gt;13</title>
<path fill="none" stroke="black" d="M2187.79,-719.51C2202.52,-672.34 2238.48,-538.91 2212,-432 2194.6,-361.76 2188.27,-338.05 2136,-288 2082.01,-236.3 2056.2,-235.37 1984,-216 1870.7,-185.6 1513.47,-169.56 1384.78,-164.66"/>
<polygon fill="black" stroke="black" points="1385.05,-161.17 1374.92,-164.29 1384.79,-168.16 1385.05,-161.17"/>
</g>
<!-- 22&#45;&gt;16 -->
<g id="edge96" class="edge">
<title>22-&gt;16</title>
<path fill="none" stroke="black" d="M2157.15,-719.53C2125.89,-696.87 2071.53,-655.09 2032,-612 2014.39,-592.8 1997.7,-568.35 1986.08,-549.94"/>
<polygon fill="black" stroke="black" points="1989.22,-548.35 1980.98,-541.69 1983.26,-552.03 1989.22,-548.35"/>
</g>
<!-- 22&#45;&gt;20 -->
<g id="edge97" class="edge">
<title>22-&gt;20</title>
<path fill="none" stroke="black" d="M2127.8,-719.52C2094.53,-708.78 2052.08,-695.09 2018.87,-684.38"/>
<polygon fill="black" stroke="black" points="2020.02,-681.07 2009.43,-681.33 2017.87,-687.73 2020.02,-681.07"/>
</g>
<!-- 23&#45;&gt;0 -->
<g id="edge98" class="edge">
<title>23-&gt;0</title>
<path fill="none" stroke="black" d="M1633.48,-791.73C1651.39,-735.13 1709.7,-550.01 1755,-396 1760.98,-375.67 1767.45,-352.62 1772.3,-335.08"/>
<polygon fill="black" stroke="black" points="1775.55,-336.46 1774.84,-325.89 1768.8,-334.6 1775.55,-336.46"/>
</g>
<!-- 23&#45;&gt;1 -->
<g id="edge99" class="edge">
<title>23-&gt;1</title>
<path fill="none" stroke="black" d="M1548.24,-806.09C1356.28,-797.79 874.57,-768.84 741,-684 717.37,-668.99 699.04,-642.49 687.57,-622.3"/>
<polygon fill="black" stroke="black" points="690.77,-620.87 682.93,-613.75 684.62,-624.2 690.77,-620.87"/>
</g>
<!-- 23&#45;&gt;5 -->
<g id="edge102" class="edge">
<title>23-&gt;5</title>
<path fill="none" stroke="black" d="M1548.05,-806.48C1409.74,-801.31 1137.68,-787.26 1108,-756 1074.44,-720.65 1082.84,-658.89 1091.64,-623.01"/>
<polygon fill="black" stroke="black" points="1094.9,-624.36 1094.07,-613.8 1088.13,-622.57 1094.9,-624.36"/>
</g>
<!-- 23&#45;&gt;9 -->
<g id="edge100" class="edge">
<title>23-&gt;9</title>
<path fill="none" stroke="#00cd00" d="M1548.21,-807.54C1281.77,-802.43 432.77,-784.1 313,-756 218.67,-733.87 114,-763.89 114,-667 114,-667 114,-667 114,-377 114,-248.02 171.2,-200.8 287,-144 342.89,-116.59 755.89,-99.14 919.51,-93.24"/>
<polygon fill="#00cd00" stroke="#00cd00" points="919.47,-96.74 929.34,-92.89 919.22,-89.75 919.47,-96.74"/>
</g>
<!-- 23&#45;&gt;13 -->
<g id="edge101" class="edge">
<title>23-&gt;13</title>
<path fill="none" stroke="black" d="M1629.8,-791.66C1637.04,-712.09 1655.74,-378.7 1482,-216 1455.16,-190.86 1415.39,-177.42 1384.45,-170.38"/>
<polygon fill="black" stroke="black" points="1385.47,-167.02 1374.96,-168.37 1384.02,-173.86 1385.47,-167.02"/>
</g>
<!-- 23&#45;&gt;16 -->
<g id="edge103" class="edge">
<title>23-&gt;16</title>
<path fill="none" stroke="black" d="M1661.14,-791.72C1678.62,-782.06 1700.1,-769.31 1718,-756 1808.52,-688.71 1902.96,-593.53 1946.03,-548.51"/>
<polygon fill="black" stroke="black" points="1948.3,-551.2 1952.66,-541.54 1943.23,-546.37 1948.3,-551.2"/>
</g>
<!-- 23&#45;&gt;20 -->
<g id="edge104" class="edge">
<title>23-&gt;20</title>
<path fill="none" stroke="black" d="M1707.59,-794.82C1746.19,-786.33 1792.61,-773.68 1832,-756 1870.15,-738.87 1909.42,-711.12 1935.3,-691.16"/>
<polygon fill="black" stroke="black" points="1937.29,-694.04 1943.01,-685.12 1932.98,-688.53 1937.29,-694.04"/>
</g>
<!-- 23&#45;&gt;22 -->
<g id="edge106" class="edge">
<title>23-&gt;22</title>
<path fill="none" stroke="black" d="M1707.96,-798.9C1812.62,-785.67 1995.09,-762.62 2100.5,-749.3"/>
<polygon fill="black" stroke="black" points="2100.73,-752.8 2110.21,-748.07 2099.85,-745.85 2100.73,-752.8"/>
</g>
<!-- 26 -->
<g id="node27" class="node">
<title>26</title>
<polygon fill="none" stroke="black" points="1562.49,-468 1469.51,-468 1469.51,-432 1562.49,-432 1562.49,-468"/>
<text xml:space="preserve" text-anchor="middle" x="1516" y="-445.8" font-family="Times,serif" font-size="14.00">mirl_terminal</text>
</g>
<!-- 23&#45;&gt;26 -->
<g id="edge105" class="edge">
<title>23-&gt;26</title>
<path fill="none" stroke="black" d="M1622.6,-791.73C1604.63,-734.31 1546.79,-549.42 1524.69,-478.79"/>
<polygon fill="black" stroke="black" points="1528.13,-478.04 1521.8,-469.54 1521.45,-480.13 1528.13,-478.04"/>
</g>
<!-- 24&#45;&gt;0 -->
<g id="edge107" class="edge">
<title>24-&gt;0</title>
<path fill="none" stroke="black" d="M2251.82,-791.62C2261.46,-782.2 2271.89,-769.7 2277,-756 2282.6,-741.01 2281.18,-735.45 2277,-720 2246.95,-608.84 2066.5,-464.16 2034,-432 2000.23,-398.58 1996.31,-383.46 1955,-360 1916.35,-338.05 1867.63,-324.25 1831.42,-316.26"/>
<polygon fill="black" stroke="black" points="1832.59,-312.93 1822.08,-314.28 1831.14,-319.78 1832.59,-312.93"/>
</g>
<!-- 24&#45;&gt;5 -->
<g id="edge110" class="edge">
<title>24-&gt;5</title>
<path fill="none" stroke="black" d="M2159.82,-795.53C1954.09,-756.61 1360.86,-644.36 1164.2,-607.15"/>
<polygon fill="black" stroke="black" points="1164.89,-603.72 1154.41,-605.3 1163.58,-610.59 1164.89,-603.72"/>
</g>
<!-- 24&#45;&gt;9 -->
<g id="edge108" class="edge">
<title>24-&gt;9</title>
<path fill="none" stroke="#00cd00" d="M2302.49,-796.59C2370.98,-780.11 2464,-743.62 2464,-667 2464,-667 2464,-667 2464,-377 2464,-209.58 2329.61,-187.74 2168,-144 2060.39,-114.87 1285.33,-97.03 1052.18,-92.28"/>
<polygon fill="#00cd00" stroke="#00cd00" points="1052.42,-88.79 1042.35,-92.08 1052.28,-95.79 1052.42,-88.79"/>
</g>
<!-- 24&#45;&gt;13 -->
<g id="edge109" class="edge">
<title>24-&gt;13</title>
<path fill="none" stroke="black" d="M2294.85,-791.59C2351.72,-771.75 2426,-733.17 2426,-667 2426,-667 2426,-667 2426,-521 2426,-306.17 2255.14,-282.92 2051,-216 1926.65,-175.23 1523.44,-165.67 1385.1,-163.56"/>
<polygon fill="black" stroke="black" points="1385.25,-160.06 1375.2,-163.42 1385.15,-167.06 1385.25,-160.06"/>
</g>
<!-- 24&#45;&gt;16 -->
<g id="edge111" class="edge">
<title>24-&gt;16</title>
<path fill="none" stroke="black" d="M2244.93,-791.59C2257.89,-773.14 2273.46,-743.48 2261,-720 2209.63,-623.19 2087.06,-565.24 2018.52,-539.29"/>
<polygon fill="black" stroke="black" points="2020.01,-536.11 2009.42,-535.92 2017.58,-542.67 2020.01,-536.11"/>
</g>
<!-- 24&#45;&gt;20 -->
<g id="edge112" class="edge">
<title>24-&gt;20</title>
<path fill="none" stroke="black" d="M2183.26,-791.6C2158.78,-782.09 2128.78,-769.51 2103,-756 2065.73,-736.47 2025.56,-709.87 1998.23,-690.85"/>
<polygon fill="black" stroke="black" points="2000.56,-688.21 1990.36,-685.33 1996.54,-693.94 2000.56,-688.21"/>
</g>
<!-- 24&#45;&gt;22 -->
<g id="edge113" class="edge">
<title>24-&gt;22</title>
<path fill="none" stroke="black" d="M2218.89,-791.7C2213.31,-783.73 2206.57,-774.1 2200.38,-765.26"/>
<polygon fill="black" stroke="black" points="2203.44,-763.53 2194.84,-757.34 2197.71,-767.54 2203.44,-763.53"/>
</g>
<!-- 25&#45;&gt;0 -->
<g id="edge114" class="edge">
<title>25-&gt;0</title>
<path fill="none" stroke="black" d="M1862.3,-791.58C1855.49,-781.57 1847.41,-768.54 1842,-756 1771.75,-593.23 1820.31,-535.32 1794,-360 1792.79,-351.91 1790.81,-343.27 1788.71,-335.37"/>
<polygon fill="black" stroke="black" points="1792.13,-334.6 1786.05,-325.92 1785.4,-336.5 1792.13,-334.6"/>
</g>
<!-- 25&#45;&gt;5 -->
<g id="edge117" class="edge">
<title>25-&gt;5</title>
<path fill="none" stroke="black" d="M1811.91,-791.58C1666.71,-751.49 1310.21,-653.05 1164.07,-612.69"/>
<polygon fill="black" stroke="black" points="1165.12,-609.35 1154.55,-610.06 1163.26,-616.1 1165.12,-609.35"/>
</g>
<!-- 25&#45;&gt;9 -->
<g id="edge115" class="edge">
<title>25-&gt;9</title>
<path fill="none" stroke="#00cd00" d="M1875.99,-791.84C1879.98,-720.24 1893.95,-445.04 1878,-360 1855.73,-241.27 1822.22,-195.62 1713,-144 1654.17,-116.19 1220.63,-98.86 1052.43,-93.12"/>
<polygon fill="#00cd00" stroke="#00cd00" points="1052.65,-89.62 1042.54,-92.78 1052.42,-96.62 1052.65,-89.62"/>
</g>
<!-- 25&#45;&gt;13 -->
<g id="edge116" class="edge">
<title>25-&gt;13</title>
<path fill="none" stroke="black" d="M1913.78,-791.53C1931.24,-782.5 1951.39,-770.34 1967,-756 2008.84,-717.55 2122,-555.75 2122,-523 2122,-523 2122,-523 2122,-377 2122,-223.28 1554.02,-176.21 1384.94,-165.6"/>
<polygon fill="black" stroke="black" points="1385.17,-162.1 1374.98,-164.99 1384.74,-169.09 1385.17,-162.1"/>
</g>
<!-- 25&#45;&gt;16 -->
<g id="edge118" class="edge">
<title>25-&gt;16</title>
<path fill="none" stroke="black" d="M1877.92,-791.77C1883.22,-761.97 1895.51,-699.08 1913,-648 1924.84,-613.4 1942.94,-575.41 1955.56,-550.5"/>
<polygon fill="black" stroke="black" points="1958.62,-552.2 1960.07,-541.7 1952.4,-549 1958.62,-552.2"/>
</g>
<!-- 25&#45;&gt;20 -->
<g id="edge119" class="edge">
<title>25-&gt;20</title>
<path fill="none" stroke="black" d="M1907.93,-791.56C1921.69,-782.68 1936.62,-770.63 1946,-756 1957.54,-738 1962.19,-714.15 1964.01,-695.67"/>
<polygon fill="black" stroke="black" points="1967.48,-696.16 1964.73,-685.93 1960.5,-695.65 1967.48,-696.16"/>
</g>
<!-- 25&#45;&gt;22 -->
<g id="edge120" class="edge">
<title>25-&gt;22</title>
<path fill="none" stroke="black" d="M1951.68,-791.52C1996.88,-781.21 2054.06,-768.17 2100.13,-757.67"/>
<polygon fill="black" stroke="black" points="2100.84,-761.09 2109.81,-755.46 2099.29,-754.27 2100.84,-761.09"/>
</g>
<!-- 26&#45;&gt;9 -->
<g id="edge121" class="edge">
<title>26-&gt;9</title>
<path fill="none" stroke="#00cd00" d="M1532.95,-431.7C1570.88,-390.88 1655.36,-286.65 1604,-216 1539.61,-127.42 1198.36,-100.95 1052.36,-93.61"/>
<polygon fill="#00cd00" stroke="#00cd00" points="1052.61,-90.12 1042.45,-93.13 1052.27,-97.11 1052.61,-90.12"/>
</g>
<!-- 26&#45;&gt;13 -->
<g id="edge122" class="edge">
<title>26-&gt;13</title>
<path fill="none" stroke="black" d="M1516.38,-431.51C1516.36,-389.36 1510.65,-280.84 1456,-216 1437.8,-194.41 1409.01,-181.24 1384.43,-173.43"/>
<polygon fill="black" stroke="black" points="1385.51,-170.1 1374.93,-170.64 1383.54,-176.82 1385.51,-170.1"/>
</g>
<!-- 26&#45;&gt;15 -->
<g id="edge123" class="edge">
<title>26-&gt;15</title>
<path fill="none" stroke="black" d="M1469.17,-433.46C1437.73,-423.03 1396.09,-409.22 1362.62,-398.12"/>
<polygon fill="black" stroke="black" points="1364.09,-394.92 1353.5,-395.09 1361.89,-401.56 1364.09,-394.92"/>
</g>
</g>
</svg>