<svg xmlns="http://www.w3.org/2000/svg" width="32" height="32"><defs><filter style="color-interpolation-filters:sRGB" id="a" x="-.12908236" width="1.2581647" y="-.09283735" height="1.1856747"><feGaussianBlur stdDeviation=".70686964"/></filter></defs><path style="color:#000;font-style:normal;font-variant:normal;font-weight:400;font-stretch:normal;font-size:medium;line-height:normal;font-family:sans-serif;font-variant-ligatures:normal;font-variant-position:normal;font-variant-caps:normal;font-variant-numeric:normal;font-variant-alternates:normal;font-variant-east-asian:normal;font-feature-settings:normal;font-variation-settings:normal;text-indent:0;text-align:start;text-decoration:none;text-decoration-line:none;text-decoration-style:solid;text-decoration-color:#000;letter-spacing:normal;word-spacing:normal;text-transform:none;writing-mode:lr-tb;direction:ltr;text-orientation:mixed;dominant-baseline:auto;baseline-shift:baseline;text-anchor:start;white-space:normal;shape-padding:0;shape-margin:0;inline-size:0;clip-rule:nonzero;display:inline;overflow:visible;visibility:visible;opacity:.35;isolation:auto;mix-blend-mode:normal;color-interpolation:sRGB;color-interpolation-filters:linearRGB;solid-color:#000;solid-opacity:1;vector-effect:none;fill:#151515;fill-opacity:1;fill-rule:nonzero;stroke:none;stroke-width:1;stroke-linecap:butt;stroke-linejoin:miter;stroke-miterlimit:4;stroke-dasharray:none;stroke-dashoffset:0;stroke-opacity:1;filter:url(#a);color-rendering:auto;image-rendering:auto;shape-rendering:auto;text-rendering:auto;enable-background:accumulate;stop-color:#000" d="M15.333081 7.0425585c-.839177-.087195-1.537193.2812372-2 .7949219-.462807.5136845-.745288 1.1566232-.962891 1.7402346l-3.7031246 9.929688c-.02902.06047-.24421.522359-.238281 1.140625.0063.659899.382113 1.52704 1.4082027 1.927734.5725009.223567 1.1641819.134832 1.6894529-.06836.04652.06011.0865.123949.140625.179687l1.9375 1.994141c.789016.812507 2.101554.831985 2.914063.04297l1.99414-1.9375c.08703-.08451.159708-.178178.228516-.273437.41861.109407.878388.126188 1.326172-.04687.477401-.184517.944359-.505104 1.232422-1.009766.288062-.504662.361969-1.170814.148437-1.917968-.18453-.645678-1.010374-2.879116-1.816406-5.042969-.806033-2.163854-1.574219-4.189454-1.574219-4.189454l-.002-.0078-.002-.0059c-.480635-1.170122-.852024-1.9048576-1.265531-2.4101338-.413507-.5052762-.919258-.7521443-1.423828-.8359375l-.01563-.00391z"/><g transform="translate(-67 2.52587797)"><rect style="fill:#{main};fill-opacity:1;stroke:#151515;stroke-width:1;stroke-miterlimit:4;stroke-dasharray:none;stroke-opacity:1" width="5.9014645" height="5.9014645" x="66.969063" y="-49.509258" ry="1.5599623" transform="rotate(45.84)"/><path style="fill:#fff;fill-opacity:1;stroke:#151515;stroke-width:1px;stroke-linecap:butt;stroke-linejoin:miter;stroke-opacity:1" d="M82.281915 3.9841986c-1.364503-.1417785-2.02771 1.0949243-2.444429 2.2125635l-3.702638 9.9304799s-.843568 1.753811.883671 2.428308c1.727239.674503 3.830151-2.341915 5.303746-2.028224 1.473596.31369 3.024867 2.512118 4.564024 1.917231.79699-.308038 1.452237-1.026252 1.081318-2.324107-.310628-1.086896-3.377217-9.1928848-3.377217-9.1928848-.947436-2.3057033-1.453383-2.8013629-2.308475-2.9433666Z"/></g></svg>