<svg xmlns="http://www.w3.org/2000/svg" width="32" height="32"><defs><filter id="a" x="-.065" width="1.13" y="-.324" height="1.648" color-interpolation-filters="sRGB"><feGaussianBlur stdDeviation=".81"/></filter></defs><g transform="translate(0 1)" opacity=".3" fill="#151515" filter="url(#a)"><path d="M15.775 13a3 3 0 1 0 0 6 3 3 0 0 0 0-6z"/><path d="M15.775 14a2 2 0 1 0 0 4 2 2 0 0 0 0-4z"/><g color="#000" font-weight="400" font-family="sans-serif"><path style="line-height:normal;font-variant-ligatures:normal;font-variant-position:normal;font-variant-caps:normal;font-variant-numeric:normal;font-variant-alternates:normal;font-variant-east-asian:normal;font-feature-settings:normal;font-variation-settings:normal;text-indent:0;text-align:start;text-decoration-line:none;text-decoration-style:solid;text-decoration-color:#000;text-transform:none;text-orientation:mixed;white-space:normal;shape-padding:0;shape-margin:0;inline-size:0;isolation:auto;mix-blend-mode:normal;solid-color:#000;solid-opacity:1" d="M10.973 13a1 1 0 0 0-.19.023l-9 2a1 1 0 0 0 0 1.954l9 2A1 1 0 0 0 12 18v-4a1 1 0 0 0-1.027-1ZM10 15.246v1.508L6.611 16Z" transform="translate(-.225)" overflow="visible" enable-background="accumulate"/><path style="line-height:normal;font-variant-ligatures:normal;font-variant-position:normal;font-variant-caps:normal;font-variant-numeric:normal;font-variant-alternates:normal;font-variant-east-asian:normal;font-feature-settings:normal;font-variation-settings:normal;text-indent:0;text-align:start;text-decoration-line:none;text-decoration-style:solid;text-decoration-color:#000;text-transform:none;text-orientation:mixed;white-space:normal;shape-padding:0;shape-margin:0;inline-size:0;isolation:auto;mix-blend-mode:normal;solid-color:#000;solid-opacity:1" d="m11 14-9 2 9 2z" transform="translate(-.225)" overflow="visible" enable-background="accumulate"/></g><g color="#000" font-weight="400" font-family="sans-serif"><path style="line-height:normal;font-variant-ligatures:normal;font-variant-position:normal;font-variant-caps:normal;font-variant-numeric:normal;font-variant-alternates:normal;font-variant-east-asian:normal;font-feature-settings:normal;font-variation-settings:normal;text-indent:0;text-align:start;text-decoration-line:none;text-decoration-style:solid;text-decoration-color:#000;text-transform:none;text-orientation:mixed;white-space:normal;shape-padding:0;shape-margin:0;inline-size:0;isolation:auto;mix-blend-mode:normal;solid-color:#000;solid-opacity:1" d="M1.801 11.246a1 1 0 0 0 .19-.023l9-2a1 1 0 0 0 0-1.954l-9-2a1 1 0 0 0-1.217.977v4a1 1 0 0 0 1.027 1zM2.774 9V7.492l3.389.754z" transform="translate(19 7.754)" overflow="visible" enable-background="accumulate"/><path style="line-height:normal;font-variant-ligatures:normal;font-variant-position:normal;font-variant-caps:normal;font-variant-numeric:normal;font-variant-alternates:normal;font-variant-east-asian:normal;font-feature-settings:normal;font-variation-settings:normal;text-indent:0;text-align:start;text-decoration-line:none;text-decoration-style:solid;text-decoration-color:#000;text-transform:none;text-orientation:mixed;white-space:normal;shape-padding:0;shape-margin:0;inline-size:0;isolation:auto;mix-blend-mode:normal;solid-color:#000;solid-opacity:1" d="m1.774 10.246 9-2-9-2z" transform="translate(19 7.754)" overflow="visible" enable-background="accumulate"/></g></g><path d="M15.775 13a3 3 0 1 0 0 6 3 3 0 0 0 0-6z" fill="#151515"/><path d="M15.775 14a2 2 0 1 0 0 4 2 2 0 0 0 0-4z" fill="#{main}"/><path style="line-height:normal;font-variant-ligatures:normal;font-variant-position:normal;font-variant-caps:normal;font-variant-numeric:normal;font-variant-alternates:normal;font-variant-east-asian:normal;font-feature-settings:normal;font-variation-settings:normal;text-indent:0;text-align:start;text-decoration-line:none;text-decoration-style:solid;text-decoration-color:#000;text-transform:none;text-orientation:mixed;white-space:normal;shape-padding:0;shape-margin:0;inline-size:0;isolation:auto;mix-blend-mode:normal;solid-color:#000;solid-opacity:1" d="M10.973 13a1 1 0 0 0-.19.023l-9 2a1 1 0 0 0 0 1.954l9 2A1 1 0 0 0 12 18v-4a1 1 0 0 0-1.027-1ZM10 15.246v1.508L6.611 16Z" transform="translate(-.225)" color="#000" font-weight="400" font-family="sans-serif" overflow="visible" fill="#151515" enable-background="accumulate"/><path style="line-height:normal;font-variant-ligatures:normal;font-variant-position:normal;font-variant-caps:normal;font-variant-numeric:normal;font-variant-alternates:normal;font-variant-east-asian:normal;font-feature-settings:normal;font-variation-settings:normal;text-indent:0;text-align:start;text-decoration-line:none;text-decoration-style:solid;text-decoration-color:#000;text-transform:none;text-orientation:mixed;white-space:normal;shape-padding:0;shape-margin:0;inline-size:0;isolation:auto;mix-blend-mode:normal;solid-color:#000;solid-opacity:1" d="m11 14-9 2 9 2z" transform="translate(-.225)" color="#000" font-weight="400" font-family="sans-serif" overflow="visible" fill="#fff" enable-background="accumulate"/><path style="line-height:normal;font-variant-ligatures:normal;font-variant-position:normal;font-variant-caps:normal;font-variant-numeric:normal;font-variant-alternates:normal;font-variant-east-asian:normal;font-feature-settings:normal;font-variation-settings:normal;text-indent:0;text-align:start;text-decoration-line:none;text-decoration-style:solid;text-decoration-color:#000;text-transform:none;text-orientation:mixed;white-space:normal;shape-padding:0;shape-margin:0;inline-size:0;isolation:auto;mix-blend-mode:normal;solid-color:#000;solid-opacity:1" d="M1.801 11.246a1 1 0 0 0 .19-.023l9-2a1 1 0 0 0 0-1.954l-9-2a1 1 0 0 0-1.217.977v4a1 1 0 0 0 1.027 1zM2.774 9V7.492l3.389.754z" transform="translate(19 7.754)" color="#000" font-weight="400" font-family="sans-serif" overflow="visible" fill="#151515" enable-background="accumulate"/><path style="line-height:normal;font-variant-ligatures:normal;font-variant-position:normal;font-variant-caps:normal;font-variant-numeric:normal;font-variant-alternates:normal;font-variant-east-asian:normal;font-feature-settings:normal;font-variation-settings:normal;text-indent:0;text-align:start;text-decoration-line:none;text-decoration-style:solid;text-decoration-color:#000;text-transform:none;text-orientation:mixed;white-space:normal;shape-padding:0;shape-margin:0;inline-size:0;isolation:auto;mix-blend-mode:normal;solid-color:#000;solid-opacity:1" d="m1.774 10.246 9-2-9-2z" transform="translate(19 7.754)" color="#000" font-weight="400" font-family="sans-serif" overflow="visible" fill="#fff" enable-background="accumulate"/></svg>