<svg xmlns="http://www.w3.org/2000/svg" width="32" height="32"><defs><filter height="1.2939" y="-.1469" width="1.2917" x="-.1459" id="a" color-interpolation-filters="sRGB"><feGaussianBlur stdDeviation="1.1439"/></filter></defs><path d="M137.7813 860.8125c-1.113-.003-2.1.4259-2.9063 1.0313-.8064.6054-1.454 1.3793-1.875 2.1875-.4005.7687-.6222 1.5629-.4375 2.4062-.314-.0527-.6506.0555-.875.2813l-1.4063 1.4062c-.3842.3718-.3842 1.0658 0 1.4375a1.0009 1.0009 0 0 0-.125.0937l-5.5937 5.625c-.3842.3718-.9467 2.7092-.5625 3.081l1 1c.3718.3842 2.7532-.1342 3.125-.5185l5.5938-5.625a1.0009 1.0009 0 0 0 .0937-.125c.3717.3843 1.0657.3843 1.4375 0l1.4062-1.4062c.2258-.2244.334-.5611.2813-.875 1.9491.3228 3.9096-.69 5-2.3438 1.102-1.6715 1.1364-4.2073-.8438-6.1875-1.007-1.007-2.1996-1.4654-3.3125-1.4687z" style="line-height:normal;-inkscape-font-specification:Sans;text-indent:0;text-align:start;text-decoration-line:none;text-transform:none;block-progression:tb;marker:none" transform="translate(-122.0992 -848.4213)" color="#000" font-weight="400" font-family="Sans" overflow="visible" opacity=".2" filter="url(#a)" enable-background="accumulate"/><path style="line-height:normal;-inkscape-font-specification:Sans;text-indent:0;text-align:start;text-decoration-line:none;text-transform:none;block-progression:tb;marker:none" d="M137.7813 859.8125c-1.113-.003-2.1.4258-2.9063 1.0313-.8064.6054-1.454 1.3793-1.875 2.1875-.4005.7687-.6222 1.5628-.4375 2.4062-.314-.0527-.6506.0555-.875.2813l-1.4063 1.4062c-.3842.3718-.3842 1.0657 0 1.4375a1.0009 1.0009 0 0 0-.125.0937l-5.5937 5.625a1.0073 1.0073 0 0 0-.25.5313l-.2813 1.3437c-.0711.3184-.0311 1.206-.0311 1.206l1 1s.8423.0343 1.1562-.0185l1.4063-.2188a1.0085 1.0085 0 0 0 .5624-.2812l5.5938-5.625a1.0009 1.0009 0 0 0 .0937-.125c.3718.3842 1.0657.3842 1.4375 0l1.4063-1.4063c.2257-.2244.334-.561.2812-.875 1.9491.3228 3.9097-.69 5-2.3437 1.102-1.6716 1.1364-4.2073-.8438-6.1875-1.007-1.007-2.1995-1.4655-3.3125-1.4688z" transform="translate(-122.0992 -848.4213)" color="#000" font-weight="400" font-family="Sans" overflow="visible" fill="#151515" enable-background="accumulate"/><path d="M15.686 12.3765c-2.5313-.007-4.6524 3.0529-4.254 4.5156l.2813 1.125c.2425.9701-1.4063 0-1.4063 0l-1.4062 1.4062.705.7051-6.4237 6.4512-.2813 1.375 1 1 1.4063-.25 6.4238-6.4512.7012.7012 1.4062-1.4063s-.9701-1.6487 0-1.4062l1.125.2812c2.9375.5313 6.7399-3.4163 3.3125-6.8437-.8568-.8568-1.746-1.2006-2.5898-1.2031zm-5.3633 8.4687.6875.6875-3.7344 3.7344-1.6875.3125 4.7344-4.7344z" fill="#fff"/></svg>