<svg xmlns="http://www.w3.org/2000/svg" width="32" height="32"><defs><filter id="a" x="-.12" y="-.12" width="1.24" height="1.24" color-interpolation-filters="sRGB"><feGaussianBlur stdDeviation=".65"/></filter><filter id="b" x="-.129" width="1.258" y="-.093" height="1.186" color-interpolation-filters="sRGB"><feGaussianBlur stdDeviation=".674"/></filter></defs><circle cx="21.94" cy="23.862" r="6.5" filter="url(#a)" opacity=".25"/><path fill="none" opacity=".2" d="M-.936.962h24v24h-24z"/><circle cx="21.5" cy="23.462" r="6.5" fill="#151515"/><circle cx="21.5" cy="23.454" r="5.5" fill="#{secondary}"/><path d="M18 21h7v1h-7zm0 2h7v1h-7zm0 2h7v1h-7z" fill="#fff" paint-order="stroke fill markers"/><path style="line-height:normal;font-variant-ligatures:normal;font-variant-position:normal;font-variant-caps:normal;font-variant-numeric:normal;font-variant-alternates:normal;font-variant-east-asian:normal;font-feature-settings:normal;font-variation-settings:normal;text-indent:0;text-align:start;text-decoration-line:none;text-decoration-style:solid;text-decoration-color:#000;text-transform:none;text-orientation:mixed;white-space:normal;shape-padding:0;shape-margin:0;inline-size:0;isolation:auto;mix-blend-mode:normal;solid-color:#000;solid-opacity:1" d="M7.791 4.65a2.259 2.259 0 0 0-.396.041l-.016.002-.016.004c-.817.212-1.341.803-1.595 1.446-.255.643-.295 1.344-.295 1.966v10.598l.002-.045s-.063.581.173 1.197c.237.617.891 1.298 1.993 1.315.624.01 1.155-.29 1.58-.672.003-.003.004-.007.008-.01.029.017.053.04.084.055l2.472 1.273a2.067 2.067 0 0 0 2.776-.886l1.273-2.473c.077-.15.128-.304.166-.461.418-.048.839-.194 1.188-.504.382-.34.709-.803.802-1.377.094-.573-.07-1.224-.531-1.85-.393-.532-1.922-2.328-3.404-4.062-1.482-1.734-2.88-3.353-2.88-3.353l-.005-.006-.006-.008C10.302 5.909 9.666 5.338 9.076 5a2.483 2.483 0 0 0-1.285-.35Z" color="#000" font-weight="400" font-family="sans-serif" overflow="visible" opacity=".35" fill="#151515" filter="url(#b)" enable-background="accumulate"/><g transform="translate(23.605 .618)" stroke="#151515"><rect width="5.901" height="5.901" x="-5.949" y="17.155" ry="1.56" transform="rotate(27.27)" fill="#{main}"/><path d="M-16.518 3.562c-1.328.344-1.517 1.735-1.517 2.927v10.599s-.178 1.938 1.676 1.966c1.854.029 2.77-3.532 4.26-3.753 1.491-.22 3.713 1.297 4.947.202.64-.567 1.002-1.469.201-2.556-.67-.91-6.26-7.386-6.26-7.386-1.693-1.83-2.456-2.164-3.307-1.999Z" fill="#fff"/></g></svg>