<svg xmlns="http://www.w3.org/2000/svg" width="32" height="32"><defs><filter id="a" x="-.16459" y="-.16422" width="1.3292" height="1.3284" color-interpolation-filters="sRGB"><feGaussianBlur stdDeviation="1.2182592"/></filter></defs><path transform="matrix(1 0 0 -1 -257.988 529.57)" d="M260.84 498.56c-.55706.0984-.9489.74098-.78125 1.2812l1.0625 3.1875c.0401.14994.11563.29026.21875.40625l12.594 12.625c.1591.15646.3719.25726.59375.28125.30426.0426.62589-.0646.84375-.28125l2.125-2.125c.38424-.37177.38424-1.0657 0-1.4375l-12.594-12.625c-.11599-.10312-.25631-.17868-.40625-.21875l-3.1875-1.0625c-.15085-.0473-.31297-.058-.46875-.0312z" color="#000" filter="url(#a)" opacity=".2" style="block-progression:tb;text-decoration-line:none;text-indent:0;text-transform:none"/><path d="M88.531 860.56a1.0001 1.0001 0 0 0-.59375.28125l-12.594 12.625a1.0001 1.0001 0 0 0-.21875.40625L74.062 877.06a1.0001 1.0001 0 0 0 1.25 1.25l3.1875-1.0625a1.0001 1.0001 0 0 0 .40625-.21875l12.594-12.625a1.0001 1.0001 0 0 0 0-1.4375l-2.125-2.125a1.0001 1.0001 0 0 0-.84375-.28125z" color="#000" fill="#151515" style="block-progression:tb;text-decoration-line:none;text-indent:0;text-transform:none" transform="translate(-71.988 -848.33)"/><path d="M16.668 13.23 4.074 25.855l-1.0625 3.1875L6.199 27.98l12.594-12.625zm.0312 1.4375.6875.6875-1.3125 1.3125-.6875-.6875z" fill="#fff"/><g style="opacity:1"><path style="color:#000;font-style:normal;font-variant:normal;font-weight:400;font-stretch:normal;font-size:medium;line-height:normal;font-family:sans-serif;font-variant-ligatures:normal;font-variant-position:normal;font-variant-caps:normal;font-variant-numeric:normal;font-variant-alternates:normal;font-variant-east-asian:normal;font-feature-settings:normal;font-variation-settings:normal;text-indent:0;text-align:start;text-decoration:none;text-decoration-line:none;text-decoration-style:solid;text-decoration-color:#000;letter-spacing:normal;word-spacing:normal;text-transform:none;writing-mode:lr-tb;direction:ltr;text-orientation:mixed;dominant-baseline:auto;baseline-shift:baseline;text-anchor:start;white-space:normal;shape-padding:0;shape-margin:0;inline-size:0;clip-rule:nonzero;display:inline;overflow:visible;visibility:visible;isolation:auto;mix-blend-mode:normal;color-interpolation:sRGB;color-interpolation-filters:linearRGB;solid-color:#000;solid-opacity:1;vector-effect:none;fill:#151515;fill-opacity:1;fill-rule:nonzero;stroke:none;stroke-linecap:round;stroke-linejoin:round;stroke-miterlimit:4;stroke-dasharray:none;stroke-dashoffset:0;stroke-opacity:1;paint-order:stroke fill markers;color-rendering:auto;image-rendering:auto;shape-rendering:auto;text-rendering:auto;enable-background:accumulate;stop-color:#000;stop-opacity:1" d="M3.8808594 20.232422a1.0001 1.0001 0 0 0-1 1v3a1.0001 1.0001 0 0 0 1 1h3a1.0001 1.0001 0 0 0 1-1v-3a1.0001 1.0001 0 0 0-1-1zm1 2h1v1h-1z" transform="scale(1.06582) rotate(-45 -1.48287216 1.50996935)"/><path style="color:#000;font-style:normal;font-variant:normal;font-weight:400;font-stretch:normal;font-size:medium;line-height:normal;font-family:sans-serif;font-variant-ligatures:normal;font-variant-position:normal;font-variant-caps:normal;font-variant-numeric:normal;font-variant-alternates:normal;font-variant-east-asian:normal;font-feature-settings:normal;font-variation-settings:normal;text-indent:0;text-align:start;text-decoration:none;text-decoration-line:none;text-decoration-style:solid;text-decoration-color:#000;letter-spacing:normal;word-spacing:normal;text-transform:none;writing-mode:lr-tb;direction:ltr;text-orientation:mixed;dominant-baseline:auto;baseline-shift:baseline;text-anchor:start;white-space:normal;shape-padding:0;shape-margin:0;inline-size:0;clip-rule:nonzero;display:inline;overflow:visible;visibility:visible;isolation:auto;mix-blend-mode:normal;color-interpolation:sRGB;color-interpolation-filters:linearRGB;solid-color:#000;solid-opacity:1;vector-effect:none;fill:#{main};fill-opacity:1;fill-rule:nonzero;stroke:none;stroke-width:2;stroke-linecap:round;stroke-linejoin:round;stroke-miterlimit:4;stroke-dasharray:none;stroke-dashoffset:0;stroke-opacity:1;paint-order:stroke fill markers;color-rendering:auto;image-rendering:auto;shape-rendering:auto;text-rendering:auto;enable-background:accumulate;stop-color:#000;stop-opacity:1" d="M3.88077 21.231928h3v3h-3z" transform="scale(1.06582) rotate(-45 -1.48287216 1.50996935)"/></g></svg>