<svg xmlns="http://www.w3.org/2000/svg" width="32" height="32"><defs><filter id="a" x="-.12887" y="-.092948" width="1.2577" height="1.1859" color-interpolation-filters="sRGB"><feGaussianBlur stdDeviation=".67379049"/></filter></defs><path d="M-13.694 5.6504c-.13573.00218-.26774.015944-.39648.041016l-.01563.00195-.01563.00391c-.81676.21148-1.3415.80231-1.5957 1.4453-.2542.64299-.29492 1.3439-.29492 1.9668v10.598l.002-.04492s-.06264.58116.17383 1.1973c.23647.61611.89077 1.2975 1.9922 1.3145.62415.0096 1.1556-.28946 1.5801-.67188.0031-.0028.0047-.007.0078-.0098.02928.01697.05359.03902.08398.05469l2.4727 1.2734c1.0067.51893 2.2565.11997 2.7754-.88672l1.2734-2.4727c.076965-.14931.12842-.30411.16602-.46094.41812-.0484.83854-.19431 1.1875-.50391.38286-.33968.70913-.80345.80273-1.377.0936-.5735-.07015-1.2241-.53125-1.8496-.39278-.53279-1.9221-2.3285-3.4043-4.0625-1.4822-1.734-2.8789-3.3535-2.8789-3.3535l-.0059-.00586-.0059-.00781c-.86162-.931-1.4982-1.5017-2.0878-1.8398-.44221-.25355-.87796-.35616-1.2852-.34961z" color="#000" fill="#151515" filter="url(#a)" opacity=".35" style="font-variant-ligatures:normal;font-variant-position:normal;font-variant-caps:normal;font-variant-numeric:normal;font-variant-alternates:normal;font-variant-east-asian:normal;font-feature-settings:normal;font-variation-settings:normal;text-indent:0;text-decoration:none;text-decoration-line:none;text-decoration-style:solid;text-decoration-color:#000;text-transform:none;text-orientation:mixed;white-space:normal;shape-padding:0;shape-margin:0;inline-size:0;isolation:auto;mix-blend-mode:normal" transform="translate(21.393752 -.4670716)"/><g transform="translate(23.540852 .9706184)" stroke="#151515"><rect transform="rotate(27.27)" x="-5.9491" y="17.155001" width="5.9015002" height="5.9015002" ry="1.5599999" fill="#{}"/><path d="M-16.518 3.5623c-1.3281.34386-1.5174 1.7343-1.5174 2.9271v10.598s-.1777 1.938 1.6763 1.9666c1.854.02857 2.7706-3.5325 4.261-3.7533 1.4903-.22089 3.7119 1.2971 4.9462.20193.63915-.56706 1.0022-1.4689.20123-2.5554-.67077-.90989-6.2602-7.3864-6.2602-7.3864-1.6933-1.8294-2.4563-2.1644-3.3071-1.9987z" fill="#fff"/></g><path fill="none" opacity=".2" d="M-.93554997 1h24v24h-24z"/><g style="fill:#{};fill-opacity:1"><path style="opacity:1;fill:#{};fill-opacity:1;stroke-width:2.98558" d="m56.827754 1030.3884 12.999981-8.5 13.000017 8.5-13.000017 8.5z" transform="matrix(.1933 0 0 .1933 6.7584708 -181.53544)"/><g style="fill:#{};fill-opacity:1"><path style="fill:#{};fill-opacity:1;stroke-width:3.1048" d="M32.256031 1030.3884h13v13h-13zM45.256031 1030.3884h13v13h-13z" transform="matrix(.1933 0 0 .1933 11.508291 -181.53544)"/></g><path style="opacity:1;fill:#{};fill-opacity:1;stroke-width:2.98558" d="m56.827754 1043.3884 12.999981 8.5 13.000017-8.5-13.000017-8.5z" transform="matrix(.1933 0 0 .1933 6.7584708 -181.53544)"/></g><g style="fill:#{};fill-opacity:1"><path style="opacity:1;fill:#{};fill-opacity:1;stroke-width:2.98558" d="m56.827754 1030.3884 12.999981-8.5 13.000017 8.5-13.000017 8.5z" transform="matrix(.1933 0 0 .1933 12.245515 -181.53544)"/><g style="fill:#{};fill-opacity:1"><path style="fill:#{};fill-opacity:1;stroke-width:3.1048" d="M32.256031 1030.3884h13v13h-13zM45.256031 1030.3884h13v13h-13z" transform="matrix(.1933 0 0 .1933 16.9953352 -181.53544)"/></g><path style="opacity:1;fill:#{};fill-opacity:1;stroke-width:2.98558" d="m56.827754 1043.3884 12.999981 8.5 13.000017-8.5-13.000017-8.5z" transform="matrix(.1933 0 0 .1933 12.245515 -181.53544)"/></g><g style="fill:#{};fill-opacity:1"><path style="opacity:1;fill:#{};fill-opacity:1;stroke-width:2.98558" d="m56.827754 1030.3884 12.999981-8.5 13.000017 8.5-13.000017 8.5z" transform="matrix(.1933 0 0 .1933 14.989037 -177.02121)"/><g style="fill:#{};fill-opacity:1"><path style="fill:#{};fill-opacity:1;stroke-width:3.1048" d="M32.256031 1030.3884h13v13h-13zM45.256031 1030.3884h13v13h-13z" transform="matrix(.1933 0 0 .1933 19.7388572 -177.02121)"/></g><path style="opacity:1;fill:#{};fill-opacity:1;stroke-width:2.98558" d="m56.827754 1043.3884 12.999981 8.5 13.000017-8.5-13.000017-8.5z" transform="matrix(.1933 0 0 .1933 14.989037 -177.02121)"/></g><g style="fill:#{};fill-opacity:1"><path style="opacity:1;fill:#{};fill-opacity:1;stroke-width:2.98558" d="m56.827754 1030.3884 12.999981-8.5 13.000017 8.5-13.000017 8.5z" transform="matrix(.1933 0 0 .1933 12.245515 -172.50698)"/><g style="fill:#{};fill-opacity:1"><path style="fill:#{};fill-opacity:1;stroke-width:3.1048" d="M32.256031 1030.3884h13v13h-13zM45.256031 1030.3884h13v13h-13z" transform="matrix(.1933 0 0 .1933 16.9953352 -172.50698)"/></g><path style="opacity:1;fill:#{};fill-opacity:1;stroke-width:2.98558" d="m56.827754 1043.3884 12.999981 8.5 13.000017-8.5-13.000017-8.5z" transform="matrix(.1933 0 0 .1933 12.245515 -172.50698)"/></g><g style="fill:#{};fill-opacity:1"><path style="opacity:1;fill:#{};fill-opacity:1;stroke-width:2.98558" d="m56.827754 1030.3884 12.999981-8.5 13.000017 8.5-13.000017 8.5z" transform="matrix(.11 0 0 .11 12.575424 -86.129697)"/><g style="fill:#{};fill-opacity:1"><path style="fill:#{};fill-opacity:1;stroke-width:3.1048" d="M32.256031 1030.3884h13v13h-13zM45.256031 1030.3884h13v13h-13z" transform="matrix(.11 0 0 .11 15.27831353 -86.129697)"/></g><path style="opacity:1;fill:#{};fill-opacity:1;stroke-width:2.98558" d="m56.827754 1043.3884 12.999981 8.5 13.000017-8.5-13.000017-8.5z" transform="matrix(.11 0 0 .11 12.575424 -86.129697)"/></g></svg>