<svg viewBox="0 0 32 32" xmlns="http://www.w3.org/2000/svg"><defs><filter id="a" x="-.064801" y="-.32399" width="1.1296" height="1.648" color-interpolation-filters="sRGB"><feGaussianBlur stdDeviation=".81006351"/></filter></defs><g transform="translate(.22477 1)" fill="#151515" filter="url(#a)" opacity=".3"><path d="M15.77523 13c-1.6569 0-3 1.3432-3 3s1.3432 3 3 3 3-1.3432 3-3-1.3432-3-3-3z"/><path d="M15.77523 14c-1.1046 0-2 .89544-2 2 0 1.1046.89544 2 2 2s2-.89544 2-2c0-1.1046-.89544-2-2-2z"/><g color="#000"><path d="M10.973 13a1.0001 1.0001 0 0 0-.18945.02344l-9 2a1.0001 1.0001 0 0 0 0 1.9531l9 2a1.0001 1.0001 0 0 0 1.2168-.97656v-4a1.0001 1.0001 0 0 0-1.0273-1zm-.97266 2.2461v1.5078l-3.3887-.75391z" style="font-feature-settings:normal;font-variant-alternates:normal;font-variant-caps:normal;font-variant-east-asian:normal;font-variant-ligatures:normal;font-variant-numeric:normal;font-variant-position:normal;font-variation-settings:normal;inline-size:0;isolation:auto;mix-blend-mode:normal;shape-margin:0;shape-padding:0;text-decoration-color:#000;text-decoration-line:none;text-decoration-style:solid;text-indent:0;text-orientation:mixed;text-transform:none;white-space:normal" transform="translate(-.22477)"/><path d="m11 14-9 2 9 2z" style="font-feature-settings:normal;font-variant-alternates:normal;font-variant-caps:normal;font-variant-east-asian:normal;font-variant-ligatures:normal;font-variant-numeric:normal;font-variant-position:normal;font-variation-settings:normal;inline-size:0;isolation:auto;mix-blend-mode:normal;shape-margin:0;shape-padding:0;text-decoration-color:#000;text-decoration-line:none;text-decoration-style:solid;text-indent:0;text-orientation:mixed;text-transform:none;white-space:normal" transform="translate(-.22477)"/></g><g color="#000"><path d="M1.8014 11.246a1.0001 1.0001 0 0 0 .18945-.02344l9-2a1.0001 1.0001 0 0 0 0-1.9531l-9-2a1.0001 1.0001 0 0 0-1.2168.97656v4a1.0001 1.0001 0 0 0 1.0273 1zm.97266-2.2461V7.4921l3.3887.75391z" style="font-feature-settings:normal;font-variant-alternates:normal;font-variant-caps:normal;font-variant-east-asian:normal;font-variant-ligatures:normal;font-variant-numeric:normal;font-variant-position:normal;font-variation-settings:normal;inline-size:0;isolation:auto;mix-blend-mode:normal;shape-margin:0;shape-padding:0;text-decoration-color:#000;text-decoration-line:none;text-decoration-style:solid;text-indent:0;text-orientation:mixed;text-transform:none;white-space:normal" transform="translate(19.001 7.7539)"/><path d="m1.774 10.246 9-2-9-2z" style="font-feature-settings:normal;font-variant-alternates:normal;font-variant-caps:normal;font-variant-east-asian:normal;font-variant-ligatures:normal;font-variant-numeric:normal;font-variant-position:normal;font-variation-settings:normal;inline-size:0;isolation:auto;mix-blend-mode:normal;shape-margin:0;shape-padding:0;text-decoration-color:#000;text-decoration-line:none;text-decoration-style:solid;text-indent:0;text-orientation:mixed;text-transform:none;white-space:normal" transform="translate(19.001 7.7539)"/></g></g><path d="M16 12.999945c-1.6569 0-3 1.3432-3 3s1.3432 3 3 3 3-1.3432 3-3-1.3432-3-3-3z" fill="#151515"/><path d="M16 13.999945c-1.1046 0-2 .89544-2 2 0 1.1046.89544 2 2 2s2-.89544 2-2c0-1.1046-.89544-2-2-2z" fill="#{main}"/><g color="#000"><path d="M10.973 13a1.0001 1.0001 0 0 0-.18945.02344l-9 2a1.0001 1.0001 0 0 0 0 1.9531l9 2a1.0001 1.0001 0 0 0 1.2168-.97656v-4a1.0001 1.0001 0 0 0-1.0273-1zm-.97266 2.2461v1.5078l-3.3887-.75391z" fill="#151515" style="font-feature-settings:normal;font-variant-alternates:normal;font-variant-caps:normal;font-variant-east-asian:normal;font-variant-ligatures:normal;font-variant-numeric:normal;font-variant-position:normal;font-variation-settings:normal;inline-size:0;isolation:auto;mix-blend-mode:normal;shape-margin:0;shape-padding:0;text-decoration-color:#000;text-decoration-line:none;text-decoration-style:solid;text-indent:0;text-orientation:mixed;text-transform:none;white-space:normal" transform="translate(0 -.000055)"/><path d="m11 14-9 2 9 2z" fill="#fff" style="font-feature-settings:normal;font-variant-alternates:normal;font-variant-caps:normal;font-variant-east-asian:normal;font-variant-ligatures:normal;font-variant-numeric:normal;font-variant-position:normal;font-variation-settings:normal;inline-size:0;isolation:auto;mix-blend-mode:normal;shape-margin:0;shape-padding:0;text-decoration-color:#000;text-decoration-line:none;text-decoration-style:solid;text-indent:0;text-orientation:mixed;text-transform:none;white-space:normal" transform="translate(0 -.000055)"/></g><g color="#000"><path d="M1.8014 11.246a1.0001 1.0001 0 0 0 .18945-.02344l9-2a1.0001 1.0001 0 0 0 0-1.9531l-9-2a1.0001 1.0001 0 0 0-1.2168.97656v4a1.0001 1.0001 0 0 0 1.0273 1zm.97266-2.2461V7.4921l3.3887.75391z" fill="#151515" style="font-feature-settings:normal;font-variant-alternates:normal;font-variant-caps:normal;font-variant-east-asian:normal;font-variant-ligatures:normal;font-variant-numeric:normal;font-variant-position:normal;font-variation-settings:normal;inline-size:0;isolation:auto;mix-blend-mode:normal;shape-margin:0;shape-padding:0;text-decoration-color:#000;text-decoration-line:none;text-decoration-style:solid;text-indent:0;text-orientation:mixed;text-transform:none;white-space:normal" transform="translate(19.22577 7.753845)"/><path d="m1.774 10.246 9-2-9-2z" fill="#fff" style="font-feature-settings:normal;font-variant-alternates:normal;font-variant-caps:normal;font-variant-east-asian:normal;font-variant-ligatures:normal;font-variant-numeric:normal;font-variant-position:normal;font-variation-settings:normal;inline-size:0;isolation:auto;mix-blend-mode:normal;shape-margin:0;shape-padding:0;text-decoration-color:#000;text-decoration-line:none;text-decoration-style:solid;text-indent:0;text-orientation:mixed;text-transform:none;white-space:normal" transform="translate(19.22577 7.753845)"/></g></svg>