<svg viewBox="0 0 32 32" xmlns="http://www.w3.org/2000/svg"><defs><filter id="a" x="-.12" y="-.12" width="1.24" height="1.24" color-interpolation-filters="sRGB"><feGaussianBlur stdDeviation=".7060545"/></filter></defs><g color="#000"><path d="m337.88 211.29 7.293-7.293h-5.1719v-4h12v12h-4v-5.1719l-7.293 7.293z" filter="url(#a)" opacity=".35" style="isolation:auto;mix-blend-mode:normal;text-decoration-color:#000;text-decoration-line:none;text-decoration-style:solid;text-indent:0;text-transform:none;white-space:normal" transform="translate(-329 -191.04)"/><path d="m338.29 210.29 8.293-8.293h-6.5859v-2h10v10h-2v-6.5859l-8.293 8.293z" fill="#151515" style="font-feature-settings:normal;font-variant-alternates:normal;font-variant-caps:normal;font-variant-east-asian:normal;font-variant-ligatures:normal;font-variant-numeric:normal;font-variant-position:normal;font-variation-settings:normal;inline-size:0;isolation:auto;mix-blend-mode:normal;shape-margin:0;shape-padding:0;text-decoration-color:#000;text-decoration-line:none;text-decoration-style:solid;text-indent:0;text-orientation:mixed;text-transform:none;white-space:normal" transform="translate(-329 -191.04)"/><path d="M340 199a1.0001 1.0001 0 0 0-1 1v2a1.0001 1.0001 0 0 0 1 1h4.1699l-6.5859 6.5859a1.0001 1.0001 0 0 0 0 1.416l1.4141 1.4141a1.0001 1.0001 0 0 0 1.416 0L347 205.8301V210a1.0001 1.0001 0 0 0 1 1h2a1.0001 1.0001 0 0 0 1-1v-10a1.0001 1.0001 0 0 0-1-1zm6.5859 2H349v2.4141a1.0001 1.0001 0 0 0-1.6973-.7168 1.0001 1.0001 0 0 0-.7168-1.6973z" fill="#151515" style="font-feature-settings:normal;font-variant-alternates:normal;font-variant-caps:normal;font-variant-east-asian:normal;font-variant-ligatures:normal;font-variant-numeric:normal;font-variant-position:normal;font-variation-settings:normal;inline-size:0;isolation:auto;mix-blend-mode:normal;shape-margin:0;shape-padding:0;text-decoration-color:#000;text-decoration-line:none;text-decoration-style:solid;text-indent:0;text-orientation:mixed;text-transform:none;white-space:normal" transform="translate(-329 -191.04)"/><path d="m338.29 210.29 8.293-8.293h-6.5859v-2h10v10h-2v-6.5859l-8.293 8.293z" fill="#fff" style="font-feature-settings:normal;font-variant-alternates:normal;font-variant-caps:normal;font-variant-east-asian:normal;font-variant-ligatures:normal;font-variant-numeric:normal;font-variant-position:normal;font-variation-settings:normal;inline-size:0;isolation:auto;mix-blend-mode:normal;shape-margin:0;shape-padding:0;text-decoration-color:#000;text-decoration-line:none;text-decoration-style:solid;text-indent:0;text-orientation:mixed;text-transform:none;white-space:normal" transform="translate(-329 -191.04)"/></g></svg>