<svg viewBox="0 0 32 32" xmlns="http://www.w3.org/2000/svg"><defs><filter id="a" x="-.11901" y="-.12101" width="1.238" height="1.242" color-interpolation-filters="sRGB"><feGaussianBlur stdDeviation=".73740225"/></filter></defs><path transform="matrix(0 -1 -1 0 327 183.17)" d="m167.21 302.59-.70703.70703-2.0918 2.0938 2.6289 2.6289-7.041-.0176v4l7.0527.0176-2.6406 2.6406 2.8008 2.8008 7.4121-7.459z" color="#000" enable-background="new" filter="url(#a)" opacity=".35" style="isolation:auto;mix-blend-mode:normal;text-decoration-color:#000;text-decoration-line:none;text-decoration-style:solid;text-indent:0;text-transform:none;white-space:normal"/><path d="m243 310.79-1.3858 1.3851-3.6348-3.6349.0211 8.4614h-2l-.0211-8.4614-3.6344 3.6349-1.3851-1.3851 6.0406-6.0009z" color="#000" enable-background="new" fill="#151515" style="font-feature-settings:normal;font-variant-alternates:normal;font-variant-caps:normal;font-variant-east-asian:normal;font-variant-ligatures:normal;font-variant-numeric:normal;font-variant-position:normal;font-variation-settings:normal;inline-size:0;isolation:auto;mix-blend-mode:normal;shape-margin:0;shape-padding:0;text-decoration-color:#000;text-decoration-line:none;text-decoration-style:solid;text-indent:0;text-orientation:mixed;text-transform:none;white-space:normal" transform="translate(-221 -295.83)"/><path d="M237.03 303.79a1.0001 1.0001 0 0 0-.73438.29102l-6.0391 6a1.0001 1.0001 0 0 0-.004 1.418l1.3867 1.3848a1.0001 1.0001 0 0 0 1.4141 0l1.9316-1.9316.0156 6.0527a1.0001 1.0001 0 0 0 1 .99804h2a1.0001 1.0001 0 0 0 1.0001-1.002l-.0156-6.0391 1.9219 1.9219a1.0001 1.0001 0 0 0 1.4141 0l1.3867-1.3848a1.0001 1.0001 0 0 0 0-1.416l-6-6a1.0001 1.0001 0 0 0-.67773-.29297zm-.0312 2.4121 1.4648 1.4648a1.0001 1.0001 0 0 0-1.4844.87109 1.0001 1.0001 0 0 0-1.4258-.90039z" color="#000" enable-background="new" fill="#151515" style="font-feature-settings:normal;font-variant-alternates:normal;font-variant-caps:normal;font-variant-east-asian:normal;font-variant-ligatures:normal;font-variant-numeric:normal;font-variant-position:normal;font-variation-settings:normal;inline-size:0;isolation:auto;mix-blend-mode:normal;shape-margin:0;shape-padding:0;text-decoration-color:#000;text-decoration-line:none;text-decoration-style:solid;text-indent:0;text-orientation:mixed;text-transform:none;white-space:normal" transform="translate(-221 -295.83)"/><path d="m243 310.79-1.3858 1.3851-3.6348-3.6349.0211 8.4614h-2l-.0211-8.4614-3.6344 3.6349-1.3851-1.3851 6.0406-6.0009z" color="#000" enable-background="new" fill="#fff" style="font-feature-settings:normal;font-variant-alternates:normal;font-variant-caps:normal;font-variant-east-asian:normal;font-variant-ligatures:normal;font-variant-numeric:normal;font-variant-position:normal;font-variation-settings:normal;inline-size:0;isolation:auto;mix-blend-mode:normal;shape-margin:0;shape-padding:0;text-decoration-color:#000;text-decoration-line:none;text-decoration-style:solid;text-indent:0;text-orientation:mixed;text-transform:none;white-space:normal" transform="translate(-221 -295.83)"/><path fill="none" opacity=".2" d="M28 4.17v24H4v-24z"/></svg>