<svg xmlns="http://www.w3.org/2000/svg" width="32" height="32" viewBox="0 0 32 32.000001"><g style="fill:#{main};fill-opacity:1"><path style="opacity:1;fill:#{main};fill-opacity:1;stroke-width:2.98558" d="m56.827754 1030.3884 12.999981-8.5 13.000017 8.5-13.000017 8.5z" transform="matrix(.33828 0 0 .33828 -2.82035 -342.66118)"/><g style="fill:#{main};fill-opacity:1"><path style="fill:#{main};fill-opacity:1;stroke-width:3.1048" d="M32.256031 1030.3884h13v13h-13zM45.256031 1030.3884h13v13h-13z" transform="matrix(.33828 0 0 .33828 5.4918356 -342.66118)"/></g><path style="opacity:1;fill:#{main};fill-opacity:1;stroke-width:2.98558" d="m56.827754 1043.3884 12.999981 8.5 13.000017-8.5-13.000017-8.5z" transform="matrix(.33828 0 0 .33828 -2.82035 -342.66118)"/></g><g style="fill:#{main};fill-opacity:1"><path style="opacity:1;fill:#{main};fill-opacity:1;stroke-width:2.98558" d="m56.827754 1030.3884 12.999981-8.5 13.000017 8.5-13.000017 8.5z" transform="matrix(.33828 0 0 .33828 -17.223839 -334.76128)"/><g style="fill:#{main};fill-opacity:1"><path style="fill:#{main};fill-opacity:1;stroke-width:3.1048" d="M32.256031 1030.3884h13v13h-13zM45.256031 1030.3884h13v13h-13z" transform="matrix(.33828 0 0 .33828 -8.9116534 -334.76128)"/></g><path style="opacity:1;fill:#{main};fill-opacity:1;stroke-width:2.98558" d="m56.827754 1043.3884 12.999981 8.5 13.000017-8.5-13.000017-8.5z" transform="matrix(.33828 0 0 .33828 -17.223839 -334.76128)"/></g><g style="fill:#{main};fill-opacity:1"><path style="opacity:1;fill:#{main};fill-opacity:1;stroke-width:2.98558" d="m56.827754 1030.3884 12.999981-8.5 13.000017 8.5-13.000017 8.5z" transform="matrix(.33828 0 0 .33828 1.980814 -334.76128)"/><g style="fill:#{main};fill-opacity:1"><path style="fill:#{main};fill-opacity:1;stroke-width:3.1048" d="M32.256031 1030.3884h13v13h-13zM45.256031 1030.3884h13v13h-13z" transform="matrix(.33828 0 0 .33828 10.2929996 -334.76128)"/></g><path style="opacity:1;fill:#{main};fill-opacity:1;stroke-width:2.98558" d="m56.827754 1043.3884 12.999981 8.5 13.000017-8.5-13.000017-8.5z" transform="matrix(.33828 0 0 .33828 1.980814 -334.76128)"/></g><g style="fill:#{main};fill-opacity:1"><path style="opacity:1;fill:#{main};fill-opacity:1;stroke-width:2.98558" d="m56.827754 1030.3884 12.999981-8.5 13.000017 8.5-13.000017 8.5z" transform="matrix(.33828 0 0 .33828 -12.422677 -326.86137)"/><g style="fill:#{main};fill-opacity:1"><path style="fill:#{main};fill-opacity:1;stroke-width:3.1048" d="M32.256031 1030.3884h13v13h-13zM45.256031 1030.3884h13v13h-13z" transform="matrix(.33828 0 0 .33828 -4.1104914 -326.86137)"/></g><path style="opacity:1;fill:#{main};fill-opacity:1;stroke-width:2.98558" d="m56.827754 1043.3884 12.999981 8.5 13.000017-8.5-13.000017-8.5z" transform="matrix(.33828 0 0 .33828 -12.422677 -326.86137)"/></g><g style="fill:#{main};fill-opacity:1"><path style="opacity:1;fill:#{main};fill-opacity:1;stroke-width:2.98558" d="m56.827754 1030.3884 12.999981-8.5 13.000017 8.5-13.000017 8.5z" transform="matrix(.33828 0 0 .33828 -2.82035 -326.86137)"/><g style="fill:#{main};fill-opacity:1"><path style="fill:#{main};fill-opacity:1;stroke-width:3.1048" d="M32.256031 1030.3884h13v13h-13zM45.256031 1030.3884h13v13h-13z" transform="matrix(.33828 0 0 .33828 5.4918356 -326.86137)"/></g><path style="opacity:1;fill:#{main};fill-opacity:1;stroke-width:2.98558" d="m56.827754 1043.3884 12.999981 8.5 13.000017-8.5-13.000017-8.5z" transform="matrix(.33828 0 0 .33828 -2.82035 -326.86137)"/></g><g style="fill:#{main};fill-opacity:1"><path style="opacity:1;fill:#{main};fill-opacity:1;stroke-width:2.98558" d="m56.827754 1030.3884 12.999981-8.5 13.000017 8.5-13.000017 8.5z" transform="matrix(.2 0 0 .2 -2.7667157 -199.27759)"/><g style="fill:#{main};fill-opacity:1"><path style="fill:#{main};fill-opacity:1;stroke-width:3.1048" d="M32.256031 1030.3884h13v13h-13zM45.256031 1030.3884h13v13h-13z" transform="matrix(.2 0 0 .2 2.1476289 -199.27759)"/></g><path style="opacity:1;fill:#{main};fill-opacity:1;stroke-width:2.98558" d="m56.827754 1043.3884 12.999981 8.5 13.000017-8.5-13.000017-8.5z" transform="matrix(.2 0 0 .2 -2.7667157 -199.27759)"/></g></svg>