<svg viewBox="0 0 32 32" xmlns="http://www.w3.org/2000/svg"><g fill="#{}"><path d="m6.80077584 5.863712 4.39764-2.87538 4.39764 2.87538-4.39764 2.87538z"/><g stroke-width="3.1048"><path d="M6.80077584 5.863712h4.39764v4.39764h-4.39764zM11.19841584 5.863712h4.39764v4.39764h-4.39764z"/></g><path d="m6.80077584 10.261352 4.39764 2.87538 4.39764-2.87538-4.39764-2.87538zM16.40337584 5.863712l4.39764-2.87538 4.39764 2.87538-4.39764 2.87538z"/><g stroke-width="3.1048"><path d="M16.40337584 5.863712h4.39764v4.39764h-4.39764zM20.80101584 5.863712h4.39764v4.39764h-4.39764z"/></g><path d="m16.40337584 10.261352 4.39764 2.87538 4.39764-2.87538-4.39764-2.87538zM21.20457584 13.763712l4.39764-2.87538 4.39764 2.87538-4.39764 2.87538z"/><g stroke-width="3.1048"><path d="M21.20457584 13.763712h4.39764v4.39764h-4.39764zM25.60221584 13.763712h4.39764v4.39764h-4.39764z"/></g><path d="m21.20457584 18.161352 4.39764 2.87538 4.39764-2.87538-4.39764-2.87538z"/></g></svg>