<svg viewBox="0 0 32 32" xmlns="http://www.w3.org/2000/svg"><g fill="#{main}"><path d="m1.99977584 13.763712 4.39764-2.87538 4.39764 2.87538-4.39764 2.87538z"/><g stroke-width="3.1048"><path d="M1.99977584 13.763712h4.39764v4.39764h-4.39764zM6.39741584 13.763712h4.39764v4.39764h-4.39764z"/></g><path d="m1.99977584 18.161352 4.39764 2.87538 4.39764-2.87538-4.39764-2.87538zM21.20457584 13.763712l4.39764-2.87538 4.39764 2.87538-4.39764 2.87538z"/><g stroke-width="3.1048"><path d="M21.20457584 13.763712h4.39764v4.39764h-4.39764zM25.60221584 13.763712h4.39764v4.39764h-4.39764z"/></g><path d="m21.20457584 18.161352 4.39764 2.87538 4.39764-2.87538-4.39764-2.87538zM6.80077584 21.663712l4.39764-2.87538 4.39764 2.87538-4.39764 2.87538z"/><g stroke-width="3.1048"><path d="M6.80077584 21.663712h4.39764v4.39764h-4.39764zM11.19841584 21.663712h4.39764v4.39764h-4.39764z"/></g><path d="m6.80077584 26.061352 4.39764 2.87538 4.39764-2.87538-4.39764-2.87538zM16.40337584 21.663712l4.39764-2.87538 4.39764 2.87538-4.39764 2.87538z"/><g stroke-width="3.1048"><path d="M16.40337584 21.663712h4.39764v4.39764h-4.39764zM20.80101584 21.663712h4.39764v4.39764h-4.39764z"/></g><path d="m16.40337584 26.061352 4.39764 2.87538 4.39764-2.87538-4.39764-2.87538zM18.2012 6.76l2.6-1.7 2.6 1.7-2.6 1.7z"/><g stroke-width="3.1048"><path d="M18.2012 6.76h2.6v2.6h-2.6zM20.8012 6.76h2.6v2.6h-2.6z"/></g><path d="m18.2012 9.36 2.6 1.7 2.6-1.7-2.6-1.7z"/></g></svg>