<svg viewBox="0 0 32 32" xmlns="http://www.w3.org/2000/svg"><defs><filter id="a" x="-.15147" y="-.14392" width="1.3029" height="1.2878" color-interpolation-filters="sRGB"><feGaussianBlur stdDeviation="1.2035199"/></filter></defs><g transform="translate(-225.21 -846.56)"><path d="M240.5 855.38c-4.1303 0-7.5 3.3697-7.5 7.5s3.3697 7.5 7.5 7.5c1.2629 0 2.404-.38645 3.4375-.9375l.28125.28125c-.38424.37177-.38424 1.0657 0 1.4375l4 4c.37177.38424 1.0657.38424 1.4375 0l2.125-2.125c.38424-.37177.38424-1.0657 0-1.4375l-4-4c-.36968-.36548-1.0366-.36548-1.4062 0l-.125-.125c1.0287-1.2772 1.75-2.8226 1.75-4.5938 0-4.1303-3.3697-7.5-7.5-7.5z" color="#000" filter="url(#a)" opacity=".2" style="block-progression:tb;text-decoration-line:none;text-indent:0;text-transform:none"/><path d="M240.5 854.38c-4.1303 0-7.5 3.3697-7.5 7.5s3.3697 7.5 7.5 7.5c1.2629 0 2.404-.38645 3.4375-.9375l.28125.28125a1.0001 1.0001 0 0 0 0 1.4375l4 4a1.0001 1.0001 0 0 0 1.4375 0l2.125-2.125a1.0001 1.0001 0 0 0 0-1.4375l-4-4a1.0001 1.0001 0 0 0-1.4062 0l-.125-.125c1.0287-1.2772 1.75-2.8226 1.75-4.5938 0-4.1303-3.3697-7.5-7.5-7.5z" color="#000" fill="#151515" style="block-progression:tb;text-decoration-line:none;text-indent:0;text-transform:none"/><path d="M240.5 855.38c-3.5898 0-6.5 2.9102-6.5 6.5s2.9102 6.5 6.5 6.5c1.3619 0 2.6118-.44035 3.6562-1.1562l1.5 1.5-.71875.71875 4 4 2.125-2.125-4-4-.71875.6875-1.4062-1.4062c1.2608-1.1856 2.0625-2.8515 2.0625-4.7188 0-3.5898-2.9102-6.5-6.5-6.5z" fill="#fff"/><circle transform="translate(-363 387)" cx="603.5" cy="474.86" r="5.5" fill="#fff"/><path fill="#151515" d="M237 861.36h7v1h-7z"/></g></svg>