<svg width="2457pt" height="657pt" viewBox="0.00 0.00 2457.00 657.00" xmlns="http://www.w3.org/2000/svg" xmlns:xlink="http://www.w3.org/1999/xlink">
<g id="graph0" class="graph" transform="scale(1 1) rotate(0) translate(4 652.8)">
<polygon fill="white" stroke="none" points="-4,4 -4,-652.8 2453.03,-652.8 2453.03,4 -4,4"/>
<g id="clust1" class="cluster">
<title>cluster_platform</title>
<polygon fill="none" stroke="lightgray" points="396.03,-220.8 396.03,-640.8 1039.03,-640.8 1039.03,-220.8 396.03,-220.8"/>
<text xml:space="preserve" text-anchor="middle" x="717.53" y="-624.2" font-family="Times,serif" font-size="14.00">platform</text>
</g>
<g id="clust2" class="cluster">
<title>cluster_windowing</title>
<polygon fill="none" stroke="lightgray" points="504.03,-382.4 504.03,-608 1031.03,-608 1031.03,-382.4 504.03,-382.4"/>
<text xml:space="preserve" text-anchor="middle" x="767.53" y="-591.4" font-family="Times,serif" font-size="14.00">windowing</text>
</g>
<g id="clust3" class="cluster">
<title>cluster_buffer</title>
<polygon fill="none" stroke="lightgray" points="1077.03,-220.8 1077.03,-297.6 1351.03,-297.6 1351.03,-220.8 1077.03,-220.8"/>
<text xml:space="preserve" text-anchor="middle" x="1214.03" y="-281" font-family="Times,serif" font-size="14.00">buffer</text>
</g>
<g id="clust4" class="cluster">
<title>cluster_helper</title>
<polygon fill="none" stroke="lightgray" points="1429.03,-64 1429.03,-212.8 1555.03,-212.8 1555.03,-64 1429.03,-64"/>
<text xml:space="preserve" text-anchor="middle" x="1492.03" y="-196.2" font-family="Times,serif" font-size="14.00">helper</text>
</g>
<g id="clust5" class="cluster">
<title>cluster_codec</title>
<polygon fill="none" stroke="lightgray" points="2223.03,-220.8 2223.03,-459.2 2353.03,-459.2 2353.03,-220.8 2223.03,-220.8"/>
<text xml:space="preserve" text-anchor="middle" x="2288.03" y="-442.6" font-family="Times,serif" font-size="14.00">codec</text>
</g>
<g id="clust6" class="cluster">
<title>cluster_extensions</title>
<polygon fill="none" stroke="lightgray" points="1955.03,-64 1955.03,-374.4 2185.03,-374.4 2185.03,-64 1955.03,-64"/>
<text xml:space="preserve" text-anchor="middle" x="2070.03" y="-357.8" font-family="Times,serif" font-size="14.00">extensions</text>
</g>
<g id="clust7" class="cluster">
<title>cluster_math</title>
<polygon fill="none" stroke="lightgray" points="1543.03,-220.8 1543.03,-374.4 1689.03,-374.4 1689.03,-220.8 1543.03,-220.8"/>
<text xml:space="preserve" text-anchor="middle" x="1616.03" y="-357.8" font-family="Times,serif" font-size="14.00">math</text>
</g>
<g id="clust8" class="cluster">
<title>cluster_graphics</title>
<polygon fill="none" stroke="lightgray" points="184.03,-220.8 184.03,-459.2 320.03,-459.2 320.03,-220.8 184.03,-220.8"/>
<text xml:space="preserve" text-anchor="middle" x="252.03" y="-442.6" font-family="Times,serif" font-size="14.00">graphics</text>
</g>
<!-- mirl_audio -->
<g id="node1" class="node">
<title>mirl_audio</title>
<polygon fill="none" stroke="black" points="488.74,-575.2 411.31,-575.2 411.31,-539.2 488.74,-539.2 488.74,-575.2"/>
<text xml:space="preserve" text-anchor="middle" x="450.03" y="-553" font-family="Times,serif" font-size="14.00">mirl_audio</text>
</g>
<!-- mirl_build_tools -->
<g id="node12" class="node">
<title>mirl_build_tools</title>
<polygon fill="none" stroke="black" points="1546.69,-180 1437.36,-180 1437.36,-144 1546.69,-144 1546.69,-180"/>
<text xml:space="preserve" text-anchor="middle" x="1492.03" y="-157.8" font-family="Times,serif" font-size="14.00">mirl_build_tools</text>
</g>
<!-- mirl_audio&#45;&gt;mirl_build_tools -->
<g id="edge2" class="edge">
<title>mirl_audio-&gt;mirl_build_tools</title>
<path fill="none" stroke="#00cd00" d="M489.06,-541.84C492.73,-540.82 496.43,-539.91 500.03,-539.2 638.84,-511.74 1653.2,-537.56 1771.03,-459.2 1859.66,-400.25 1870.46,-294.88 1794.03,-220.8 1761.14,-188.93 1636.7,-173.82 1558.18,-167.32"/>
<polygon fill="#00cd00" stroke="#00cd00" points="1558.71,-163.85 1548.46,-166.54 1558.15,-170.82 1558.71,-163.85"/>
</g>
<!-- mirl_derive -->
<g id="node13" class="node">
<title>mirl_derive</title>
<polygon fill="none" stroke="#0000ee" points="1518.68,-108 1437.37,-108 1437.37,-72 1518.68,-72 1518.68,-108"/>
<text xml:space="preserve" text-anchor="middle" x="1478.03" y="-85.8" font-family="Times,serif" font-size="14.00">mirl_derive</text>
</g>
<!-- mirl_audio&#45;&gt;mirl_derive -->
<g id="edge1" class="edge">
<title>mirl_audio-&gt;mirl_derive</title>
<path fill="none" stroke="black" stroke-dasharray="1,5" d="M411.05,-556.23C332.72,-554.45 153.5,-541.01 34.03,-459.2 11.91,-444.06 0.03,-436.2 0.03,-409.4 0.03,-409.4 0.03,-409.4 0.03,-245.8 0.03,-197.35 -0.38,-172.19 39.03,-144 96.48,-102.91 1174.34,-93.06 1425.86,-91.32"/>
<polygon fill="black" stroke="black" points="1425.72,-94.82 1435.69,-91.25 1425.67,-87.82 1425.72,-94.82"/>
</g>
<!-- mirl_input -->
<g id="node2" class="node">
<title>mirl_input</title>
<polygon fill="none" stroke="black" points="990.58,-264.8 915.47,-264.8 915.47,-228.8 990.58,-228.8 990.58,-264.8"/>
<text xml:space="preserve" text-anchor="middle" x="953.03" y="-242.6" font-family="Times,serif" font-size="14.00">mirl_input</text>
</g>
<!-- mirl_buffer -->
<g id="node10" class="node">
<title>mirl_buffer</title>
<polygon fill="none" stroke="black" points="1343.29,-264.8 1262.76,-264.8 1262.76,-228.8 1343.29,-228.8 1343.29,-264.8"/>
<text xml:space="preserve" text-anchor="middle" x="1303.03" y="-242.6" font-family="Times,serif" font-size="14.00">mirl_buffer</text>
</g>
<!-- mirl_input&#45;&gt;mirl_buffer -->
<g id="edge60" class="edge">
<title>mirl_input-&gt;mirl_buffer</title>
<path fill="none" stroke="black" d="M986.04,-265.21C1011.42,-278.26 1047.81,-294.63 1082.03,-301.6 1099.77,-305.21 1227.31,-305.36 1245.03,-301.6 1261.12,-298.19 1274.76,-286.15 1284.76,-274.22"/>
<polygon fill="black" stroke="black" points="1287.41,-276.52 1290.75,-266.47 1281.87,-272.24 1287.41,-276.52"/>
</g>
<!-- mirl_input&#45;&gt;mirl_build_tools -->
<g id="edge63" class="edge">
<title>mirl_input-&gt;mirl_build_tools</title>
<path fill="none" stroke="#00cd00" d="M983.86,-228.39C990.64,-225.31 997.92,-222.53 1005.03,-220.8 1062.48,-206.79 1212.36,-220.22 1271.03,-212.8 1323.79,-206.12 1382.48,-192.61 1426.11,-181.34"/>
<polygon fill="#00cd00" stroke="#00cd00" points="1426.89,-184.75 1435.68,-178.83 1425.12,-177.98 1426.89,-184.75"/>
</g>
<!-- mirl_input&#45;&gt;mirl_derive -->
<g id="edge61" class="edge">
<title>mirl_input-&gt;mirl_derive</title>
<path fill="none" stroke="black" stroke-dasharray="1,5" d="M983.87,-228.42C990.65,-225.33 997.92,-222.55 1005.03,-220.8 1030.18,-214.61 1216.34,-226.97 1238.03,-212.8 1266.41,-194.24 1244.81,-165.51 1271.03,-144 1314.82,-108.07 1380.02,-96.14 1425.51,-92.37"/>
<polygon fill="black" stroke="black" points="1425.68,-95.87 1435.4,-91.67 1425.18,-88.89 1425.68,-95.87"/>
</g>
<!-- mirl_graphics -->
<g id="node23" class="node">
<title>mirl_graphics</title>
<polygon fill="none" stroke="black" points="311.9,-264.8 218.15,-264.8 218.15,-228.8 311.9,-228.8 311.9,-264.8"/>
<text xml:space="preserve" text-anchor="middle" x="265.03" y="-242.6" font-family="Times,serif" font-size="14.00">mirl_graphics</text>
</g>
<!-- mirl_input&#45;&gt;mirl_graphics -->
<g id="edge62" class="edge">
<title>mirl_input-&gt;mirl_graphics</title>
<path fill="none" stroke="black" d="M915.18,-246.8C718.07,-246.8 520.97,-246.8 323.87,-246.8"/>
<polygon fill="black" stroke="black" points="323.91,-243.3 313.91,-246.8 323.91,-250.3 323.91,-243.3"/>
</g>
<!-- mirl_system -->
<g id="node3" class="node">
<title>mirl_system</title>
<polygon fill="none" stroke="black" points="922.64,-341.6 837.42,-341.6 837.42,-305.6 922.64,-305.6 922.64,-341.6"/>
<text xml:space="preserve" text-anchor="middle" x="880.03" y="-319.4" font-family="Times,serif" font-size="14.00">mirl_system</text>
</g>
<!-- mirl_system&#45;&gt;mirl_input -->
<g id="edge75" class="edge">
<title>mirl_system-&gt;mirl_input</title>
<path fill="none" stroke="black" d="M896.96,-305.25C906.26,-295.72 917.98,-283.71 928.29,-273.15"/>
<polygon fill="black" stroke="black" points="930.65,-275.74 935.13,-266.14 925.64,-270.85 930.65,-275.74"/>
</g>
<!-- mirl_system&#45;&gt;mirl_buffer -->
<g id="edge70" class="edge">
<title>mirl_system-&gt;mirl_buffer</title>
<path fill="none" stroke="black" d="M922.86,-317.35C955.69,-313.52 1002.16,-308.5 1043.03,-305.6 1066.43,-303.94 1232.56,-307.07 1254.03,-297.6 1265.8,-292.4 1276.23,-282.96 1284.41,-273.68"/>
<polygon fill="black" stroke="black" points="1286.94,-276.11 1290.57,-266.16 1281.53,-271.68 1286.94,-276.11"/>
</g>
<!-- mirl_system&#45;&gt;mirl_build_tools -->
<g id="edge76" class="edge">
<title>mirl_system-&gt;mirl_build_tools</title>
<path fill="none" stroke="#00cd00" d="M923.02,-319.93C946.93,-316.95 976.51,-310.7 1000.03,-297.6 1041.17,-274.69 1030.14,-240.25 1073.03,-220.8 1092.88,-211.8 1247.41,-215.63 1269.03,-212.8 1322.4,-205.81 1381.84,-192.24 1425.92,-181.03"/>
<polygon fill="#00cd00" stroke="#00cd00" points="1426.79,-184.42 1435.61,-178.54 1425.05,-177.64 1426.79,-184.42"/>
</g>
<!-- mirl_system&#45;&gt;mirl_derive -->
<g id="edge72" class="edge">
<title>mirl_system-&gt;mirl_derive</title>
<path fill="none" stroke="black" stroke-dasharray="1,5" d="M873.1,-305.24C865.62,-283.33 856.99,-245.54 875.03,-220.8 940.08,-131.57 1291.68,-101.87 1425.91,-93.69"/>
<polygon fill="black" stroke="black" points="1425.79,-97.21 1435.57,-93.12 1425.38,-90.22 1425.79,-97.21"/>
</g>
<!-- mirl_extensions -->
<g id="node17" class="node">
<title>mirl_extensions</title>
<polygon fill="none" stroke="black" points="2068.74,-341.6 1963.31,-341.6 1963.31,-305.6 2068.74,-305.6 2068.74,-341.6"/>
<text xml:space="preserve" text-anchor="middle" x="2016.03" y="-319.4" font-family="Times,serif" font-size="14.00">mirl_extensions</text>
</g>
<!-- mirl_system&#45;&gt;mirl_extensions -->
<g id="edge73" class="edge">
<title>mirl_system-&gt;mirl_extensions</title>
<path fill="none" stroke="black" d="M922.93,-328.35C1028.87,-339.8 1311.43,-368.71 1548.03,-378.4 1583.33,-379.85 1831.23,-384.56 1866.03,-378.4 1900.76,-372.25 1938.03,-358.68 1966.72,-346.58"/>
<polygon fill="black" stroke="black" points="1968.09,-349.8 1975.89,-342.63 1965.32,-343.37 1968.09,-349.8"/>
</g>
<!-- mirl_system&#45;&gt;mirl_graphics -->
<g id="edge74" class="edge">
<title>mirl_system-&gt;mirl_graphics</title>
<path fill="none" stroke="black" d="M837.14,-322.17C734.37,-320.85 476.3,-315.78 392.03,-297.6 364.22,-291.6 334.55,-280.27 310.89,-269.93"/>
<polygon fill="black" stroke="black" points="312.4,-266.78 301.85,-265.89 309.55,-273.17 312.4,-266.78"/>
</g>
<!-- mirl_collections -->
<g id="node26" class="node">
<title>mirl_collections</title>
<polygon fill="none" stroke="black" points="1229.52,-180 1122.54,-180 1122.54,-144 1229.52,-144 1229.52,-180"/>
<text xml:space="preserve" text-anchor="middle" x="1176.03" y="-157.8" font-family="Times,serif" font-size="14.00">mirl_collections</text>
</g>
<!-- mirl_system&#45;&gt;mirl_collections -->
<g id="edge71" class="edge">
<title>mirl_system-&gt;mirl_collections</title>
<path fill="none" stroke="black" d="M879.28,-305.12C879.31,-282.37 883.02,-242.93 906.03,-220.8 934.83,-193.1 1040.63,-176.97 1110.92,-169.08"/>
<polygon fill="black" stroke="black" points="1111.25,-172.57 1120.81,-168 1110.49,-165.61 1111.25,-172.57"/>
</g>
<!-- mirl_terminal -->
<g id="node4" class="node">
<title>mirl_terminal</title>
<polygon fill="none" stroke="black" points="496.52,-426.4 403.54,-426.4 403.54,-390.4 496.52,-390.4 496.52,-426.4"/>
<text xml:space="preserve" text-anchor="middle" x="450.03" y="-404.2" font-family="Times,serif" font-size="14.00">mirl_terminal</text>
</g>
<!-- mirl_terminal&#45;&gt;mirl_build_tools -->
<g id="edge78" class="edge">
<title>mirl_terminal-&gt;mirl_build_tools</title>
<path fill="none" stroke="#00cd00" d="M473.3,-390.08C527.68,-350.78 668.79,-255.59 804.03,-220.8 850.74,-208.78 1190.07,-217.9 1238.03,-212.8 1302.42,-205.95 1374.8,-191.03 1425.77,-179.3"/>
<polygon fill="#00cd00" stroke="#00cd00" points="1426.53,-182.71 1435.48,-177.04 1424.95,-175.9 1426.53,-182.71"/>
</g>
<!-- mirl_terminal&#45;&gt;mirl_graphics -->
<g id="edge77" class="edge">
<title>mirl_terminal-&gt;mirl_graphics</title>
<path fill="none" stroke="black" d="M438.18,-389.91C421.87,-367.15 390.35,-327.69 354.03,-305.6 342.97,-298.87 337.5,-303.59 326.03,-297.6 313.47,-291.04 301.08,-281.63 290.78,-272.75"/>
<polygon fill="black" stroke="black" points="293.23,-270.24 283.45,-266.18 288.56,-275.46 293.23,-270.24"/>
</g>
<!-- mirl_windowing -->
<g id="node5" class="node">
<title>mirl_windowing</title>
<polygon fill="none" stroke="black" points="913.69,-575.2 804.36,-575.2 804.36,-539.2 913.69,-539.2 913.69,-575.2"/>
<text xml:space="preserve" text-anchor="middle" x="859.03" y="-553" font-family="Times,serif" font-size="14.00">mirl_windowing</text>
</g>
<!-- mirl_windowing_console -->
<g id="node6" class="node">
<title>mirl_windowing_console</title>
<polygon fill="none" stroke="black" points="851.57,-503.2 692.48,-503.2 692.48,-467.2 851.57,-467.2 851.57,-503.2"/>
<text xml:space="preserve" text-anchor="middle" x="772.03" y="-481" font-family="Times,serif" font-size="14.00">mirl_windowing_console</text>
</g>
<!-- mirl_windowing&#45;&gt;mirl_windowing_console -->
<g id="edge97" class="edge">
<title>mirl_windowing-&gt;mirl_windowing_console</title>
<path fill="none" stroke="black" stroke-dasharray="1,5" d="M837.52,-538.9C826.96,-530.4 814.05,-520.01 802.49,-510.71"/>
<polygon fill="black" stroke="black" points="804.75,-508.04 794.76,-504.5 800.36,-513.49 804.75,-508.04"/>
</g>
<!-- mirl_windowing_core -->
<g id="node7" class="node">
<title>mirl_windowing_core</title>
<polygon fill="none" stroke="black" points="943.24,-426.4 802.82,-426.4 802.82,-390.4 943.24,-390.4 943.24,-426.4"/>
<text xml:space="preserve" text-anchor="middle" x="873.03" y="-404.2" font-family="Times,serif" font-size="14.00">mirl_windowing_core</text>
</g>
<!-- mirl_windowing&#45;&gt;mirl_windowing_core -->
<g id="edge95" class="edge">
<title>mirl_windowing-&gt;mirl_windowing_core</title>
<path fill="none" stroke="black" d="M804.13,-540.09C802.75,-539.78 801.38,-539.48 800.03,-539.2 675.48,-513.32 434.39,-558.44 523.03,-467.2 533.71,-456.2 784.42,-463.89 799.03,-459.2 815.64,-453.87 831.96,-443.58 845.03,-433.74"/>
<polygon fill="black" stroke="black" points="847.05,-436.6 852.74,-427.66 842.72,-431.1 847.05,-436.6"/>
</g>
<!-- mirl_windowing_glfw -->
<g id="node8" class="node">
<title>mirl_windowing_glfw</title>
<polygon fill="none" stroke="black" points="674.02,-503.2 532.03,-503.2 532.03,-467.2 674.02,-467.2 674.02,-503.2"/>
<text xml:space="preserve" text-anchor="middle" x="603.03" y="-481" font-family="Times,serif" font-size="14.00">mirl_windowing_glfw</text>
</g>
<!-- mirl_windowing&#45;&gt;mirl_windowing_glfw -->
<g id="edge98" class="edge">
<title>mirl_windowing-&gt;mirl_windowing_glfw</title>
<path fill="none" stroke="black" stroke-dasharray="1,5" d="M804.07,-540.33C802.71,-539.95 801.36,-539.57 800.03,-539.2 760.6,-528.22 716.63,-516.35 680.25,-506.64"/>
<polygon fill="black" stroke="black" points="681.25,-503.28 670.68,-504.09 679.44,-510.04 681.25,-503.28"/>
</g>
<!-- mirl_windowing_minifb -->
<g id="node9" class="node">
<title>mirl_windowing_minifb</title>
<polygon fill="none" stroke="black" points="1022.86,-503.2 869.19,-503.2 869.19,-467.2 1022.86,-467.2 1022.86,-503.2"/>
<text xml:space="preserve" text-anchor="middle" x="946.03" y="-481" font-family="Times,serif" font-size="14.00">mirl_windowing_minifb</text>
</g>
<!-- mirl_windowing&#45;&gt;mirl_windowing_minifb -->
<g id="edge99" class="edge">
<title>mirl_windowing-&gt;mirl_windowing_minifb</title>
<path fill="none" stroke="black" stroke-dasharray="1,5" d="M880.53,-538.9C891.09,-530.4 904,-520.01 915.56,-510.71"/>
<polygon fill="black" stroke="black" points="917.69,-513.49 923.29,-504.5 913.3,-508.04 917.69,-513.49"/>
</g>
<!-- mirl_windowing&#45;&gt;mirl_buffer -->
<g id="edge92" class="edge">
<title>mirl_windowing-&gt;mirl_buffer</title>
<path fill="none" stroke="black" d="M914.12,-548.98C1011.89,-535.23 1210.52,-502.7 1264.03,-459.2 1318.11,-415.24 1314.04,-322.92 1307.88,-276.19"/>
<polygon fill="black" stroke="black" points="1311.39,-275.97 1306.48,-266.58 1304.46,-276.98 1311.39,-275.97"/>
</g>
<!-- mirl_windowing&#45;&gt;mirl_build_tools -->
<g id="edge96" class="edge">
<title>mirl_windowing-&gt;mirl_build_tools</title>
<path fill="none" stroke="#00cd00" d="M914.08,-553.93C1064.65,-547.56 1495.96,-528.39 1854.03,-503.2 2121.08,-484.41 2449.03,-677.11 2449.03,-409.4 2449.03,-409.4 2449.03,-409.4 2449.03,-322.6 2449.03,-268.19 2428.77,-246.9 2381.03,-220.8 2360.06,-209.34 1974.87,-214.31 1951.03,-212.8 1810.78,-203.91 1647.36,-183.84 1558.28,-172.07"/>
<polygon fill="#00cd00" stroke="#00cd00" points="1558.87,-168.62 1548.5,-170.77 1557.95,-175.56 1558.87,-168.62"/>
</g>
<!-- mirl_windowing&#45;&gt;mirl_derive -->
<g id="edge93" class="edge">
<title>mirl_windowing-&gt;mirl_derive</title>
<path fill="none" stroke="black" stroke-dasharray="1,5" d="M804.14,-540.07C802.76,-539.77 801.38,-539.48 800.03,-539.2 527.72,-484.01 450.1,-524.43 180.03,-459.2 115.01,-443.5 38.03,-476.28 38.03,-409.4 38.03,-409.4 38.03,-409.4 38.03,-245.8 38.03,-183.91 76.77,-169.78 133.03,-144 251.98,-89.49 1192.27,-89.79 1425.71,-90.72"/>
<polygon fill="black" stroke="black" points="1425.4,-94.22 1435.41,-90.76 1425.42,-87.22 1425.4,-94.22"/>
</g>
<!-- mirl_windowing&#45;&gt;mirl_extensions -->
<g id="edge94" class="edge">
<title>mirl_windowing-&gt;mirl_extensions</title>
<path fill="none" stroke="black" d="M913.99,-556.78C1104.86,-557.96 1736.8,-554.41 1911.03,-459.2 1955.19,-435.07 1986.96,-383.73 2003.35,-351.89"/>
<polygon fill="black" stroke="black" points="2006.32,-353.78 2007.64,-343.27 2000.05,-350.66 2006.32,-353.78"/>
</g>
<!-- mirl_windowing_console&#45;&gt;mirl_input -->
<g id="edge103" class="edge">
<title>mirl_windowing_console-&gt;mirl_input</title>
<path fill="none" stroke="black" d="M852.06,-468.33C854.74,-467.93 857.4,-467.55 860.03,-467.2 871.84,-465.62 958.92,-467.94 967.03,-459.2 990.24,-434.18 971.07,-339.49 967.03,-305.6 965.86,-295.87 963.64,-285.41 961.3,-276.09"/>
<polygon fill="black" stroke="black" points="964.7,-275.27 958.74,-266.52 957.94,-277.08 964.7,-275.27"/>
</g>
<!-- mirl_windowing_console&#45;&gt;mirl_system -->
<g id="edge104" class="edge">
<title>mirl_windowing_console-&gt;mirl_system</title>
<path fill="none" stroke="black" d="M767.66,-466.89C763.26,-445.38 759.17,-408.35 775.03,-382.4 776.93,-379.28 808.47,-362.12 836.49,-347.31"/>
<polygon fill="black" stroke="black" points="838.03,-350.45 845.25,-342.69 834.77,-344.26 838.03,-350.45"/>
</g>
<!-- mirl_windowing_console&#45;&gt;mirl_terminal -->
<g id="edge105" class="edge">
<title>mirl_windowing_console-&gt;mirl_terminal</title>
<path fill="none" stroke="black" d="M692.06,-468.36C689.01,-467.94 685.99,-467.55 683.03,-467.2 662.81,-464.84 518.66,-467.38 500.03,-459.2 488.12,-453.98 477.5,-444.53 469.14,-435.26"/>
<polygon fill="black" stroke="black" points="471.93,-433.14 462.82,-427.72 466.56,-437.63 471.93,-433.14"/>
</g>
<!-- mirl_windowing_console&#45;&gt;mirl_windowing_core -->
<g id="edge106" class="edge">
<title>mirl_windowing_console-&gt;mirl_windowing_core</title>
<path fill="none" stroke="black" d="M795.45,-466.85C808.84,-456.94 825.82,-444.36 840.49,-433.5"/>
<polygon fill="black" stroke="black" points="842.56,-436.32 848.51,-427.56 838.39,-430.69 842.56,-436.32"/>
</g>
<!-- mirl_windowing_console&#45;&gt;mirl_buffer -->
<g id="edge100" class="edge">
<title>mirl_windowing_console-&gt;mirl_buffer</title>
<path fill="none" stroke="black" d="M852.04,-468.16C854.73,-467.81 857.4,-467.48 860.03,-467.2 877.98,-465.26 1169.8,-468.92 1185.03,-459.2 1217.13,-438.71 1204.84,-415.86 1223.03,-382.4 1243.75,-344.28 1269.73,-301.37 1286.35,-274.46"/>
<polygon fill="black" stroke="black" points="1289.14,-276.61 1291.44,-266.26 1283.19,-272.92 1289.14,-276.61"/>
</g>
<!-- mirl_buffer_interpolation -->
<g id="node11" class="node">
<title>mirl_buffer_interpolation</title>
<polygon fill="none" stroke="black" points="1244.56,-264.8 1085.49,-264.8 1085.49,-228.8 1244.56,-228.8 1244.56,-264.8"/>
<text xml:space="preserve" text-anchor="middle" x="1165.03" y="-242.6" font-family="Times,serif" font-size="14.00">mirl_buffer_interpolation</text>
</g>
<!-- mirl_windowing_console&#45;&gt;mirl_buffer_interpolation -->
<g id="edge101" class="edge">
<title>mirl_windowing_console-&gt;mirl_buffer_interpolation</title>
<path fill="none" stroke="black" d="M852.04,-468.22C854.73,-467.85 857.4,-467.51 860.03,-467.2 880.24,-464.82 1025.63,-469.76 1043.03,-459.2 1110.98,-417.95 1144.86,-323.63 1158.11,-276.18"/>
<polygon fill="black" stroke="black" points="1161.45,-277.21 1160.65,-266.64 1154.69,-275.4 1161.45,-277.21"/>
</g>
<!-- mirl_windowing_console&#45;&gt;mirl_build_tools -->
<g id="edge107" class="edge">
<title>mirl_windowing_console-&gt;mirl_build_tools</title>
<path fill="none" stroke="#00cd00" d="M852.03,-468.11C854.72,-467.77 857.39,-467.46 860.03,-467.2 882.83,-464.91 1665.91,-471.85 1685.03,-459.2 1774.5,-399.99 1789.05,-305.38 1723.03,-220.8 1702.85,-194.95 1618.98,-178.95 1558.11,-170.51"/>
<polygon fill="#00cd00" stroke="#00cd00" points="1558.9,-167.08 1548.53,-169.22 1557.97,-174.02 1558.9,-167.08"/>
</g>
<!-- mirl_windowing_console&#45;&gt;mirl_extensions -->
<g id="edge102" class="edge">
<title>mirl_windowing_console-&gt;mirl_extensions</title>
<path fill="none" stroke="black" d="M852.03,-468.1C854.72,-467.77 857.39,-467.46 860.03,-467.2 884.93,-464.7 1738.1,-469.25 1761.03,-459.2 1803.87,-440.41 1793.43,-407.32 1833.03,-382.4 1869.18,-359.64 1915.04,-345.18 1951.8,-336.41"/>
<polygon fill="black" stroke="black" points="1952.45,-339.85 1961.42,-334.21 1950.89,-333.03 1952.45,-339.85"/>
</g>
<!-- mirl_windowing_core&#45;&gt;mirl_input -->
<g id="edge111" class="edge">
<title>mirl_windowing_core-&gt;mirl_input</title>
<path fill="none" stroke="black" d="M915.52,-389.93C921.86,-385.68 927.71,-380.55 932.03,-374.4 952.34,-345.5 955.54,-303.84 955.04,-276.31"/>
<polygon fill="black" stroke="black" points="958.55,-276.48 954.68,-266.62 951.56,-276.74 958.55,-276.48"/>
</g>
<!-- mirl_windowing_core&#45;&gt;mirl_system -->
<g id="edge112" class="edge">
<title>mirl_windowing_core-&gt;mirl_system</title>
<path fill="none" stroke="black" d="M874.48,-390.24C875.38,-379.55 876.57,-365.52 877.61,-353.17"/>
<polygon fill="black" stroke="black" points="881.07,-353.79 878.43,-343.53 874.1,-353.2 881.07,-353.79"/>
</g>
<!-- mirl_windowing_core&#45;&gt;mirl_buffer -->
<g id="edge108" class="edge">
<title>mirl_windowing_core-&gt;mirl_buffer</title>
<path fill="none" stroke="black" d="M943.33,-404.36C982.34,-400.58 1030.93,-392.3 1071.03,-374.4 1115.72,-354.44 1111.54,-323.69 1157.03,-305.6 1197.22,-289.61 1214.85,-315.94 1254.03,-297.6 1265.39,-292.28 1275.58,-283.12 1283.68,-274.09"/>
<polygon fill="black" stroke="black" points="1286.36,-276.35 1290.08,-266.43 1280.99,-271.86 1286.36,-276.35"/>
</g>
<!-- mirl_windowing_core&#45;&gt;mirl_build_tools -->
<g id="edge113" class="edge">
<title>mirl_windowing_core-&gt;mirl_build_tools</title>
<path fill="none" stroke="#00cd00" d="M837.16,-390.22C831.48,-385.88 826.38,-380.63 823.03,-374.4 806.85,-344.34 799.12,-245.17 823.03,-220.8 831.1,-212.57 1226.56,-214.02 1238.03,-212.8 1302.41,-205.92 1374.79,-191.01 1425.77,-179.28"/>
<polygon fill="#00cd00" stroke="#00cd00" points="1426.53,-182.7 1435.48,-177.03 1424.95,-175.88 1426.53,-182.7"/>
</g>
<!-- mirl_windowing_core&#45;&gt;mirl_derive -->
<g id="edge109" class="edge">
<title>mirl_windowing_core-&gt;mirl_derive</title>
<path fill="none" stroke="black" stroke-dasharray="1,5" d="M824.32,-390.02C815.94,-387.3 807.27,-384.64 799.03,-382.4 776.74,-376.34 406.6,-315.52 392.03,-297.6 370.49,-271.12 369.85,-246.75 392.03,-220.8 460.1,-141.15 1218.05,-102.36 1425.7,-93.18"/>
<polygon fill="black" stroke="black" points="1425.81,-96.68 1435.65,-92.74 1425.51,-89.68 1425.81,-96.68"/>
</g>
<!-- mirl_windowing_core&#45;&gt;mirl_extensions -->
<g id="edge110" class="edge">
<title>mirl_windowing_core-&gt;mirl_extensions</title>
<path fill="none" stroke="black" d="M943.35,-403.26C1039.14,-397.76 1215.99,-388.07 1367.03,-382.4 1511.86,-376.96 1548.66,-387.25 1693.03,-374.4 1783.26,-366.37 1886.58,-348.99 1951.56,-337.04"/>
<polygon fill="black" stroke="black" points="1952.16,-340.49 1961.36,-335.22 1950.88,-333.6 1952.16,-340.49"/>
</g>
<!-- mirl_windowing_glfw&#45;&gt;mirl_input -->
<g id="edge117" class="edge">
<title>mirl_windowing_glfw-&gt;mirl_input</title>
<path fill="none" stroke="black" d="M674.45,-468.36C677.34,-467.93 680.21,-467.54 683.03,-467.2 697.87,-465.42 941.59,-469.9 952.03,-459.2 976.58,-434.02 964.93,-328.08 957.52,-276.4"/>
<polygon fill="black" stroke="black" points="961,-275.96 956.07,-266.58 954.07,-276.98 961,-275.96"/>
</g>
<!-- mirl_windowing_glfw&#45;&gt;mirl_system -->
<g id="edge118" class="edge">
<title>mirl_windowing_glfw-&gt;mirl_system</title>
<path fill="none" stroke="black" d="M625.56,-466.82C655.08,-444.71 709.09,-406.53 760.03,-382.4 770.57,-377.4 774.26,-378.9 785.03,-374.4 803.66,-366.6 823.56,-356.47 840.31,-347.38"/>
<polygon fill="black" stroke="black" points="841.89,-350.51 848.97,-342.62 838.52,-344.38 841.89,-350.51"/>
</g>
<!-- mirl_windowing_glfw&#45;&gt;mirl_windowing_core -->
<g id="edge119" class="edge">
<title>mirl_windowing_glfw-&gt;mirl_windowing_core</title>
<path fill="none" stroke="black" d="M674.47,-468.5C677.35,-468.03 680.21,-467.59 683.03,-467.2 708.61,-463.62 774.59,-467.59 799.03,-459.2 815.41,-453.58 831.6,-443.36 844.64,-433.64"/>
<polygon fill="black" stroke="black" points="846.6,-436.55 852.35,-427.65 842.3,-431.02 846.6,-436.55"/>
</g>
<!-- mirl_windowing_glfw&#45;&gt;mirl_buffer -->
<g id="edge114" class="edge">
<title>mirl_windowing_glfw-&gt;mirl_buffer</title>
<path fill="none" stroke="black" d="M674.45,-468.33C677.34,-467.91 680.2,-467.53 683.03,-467.2 722.77,-462.58 1005.6,-473.35 1043.03,-459.2 1142.03,-421.76 1131.39,-354.95 1225.03,-305.6 1236.85,-299.37 1242.5,-304.37 1254.03,-297.6 1264.69,-291.33 1274.64,-282.15 1282.74,-273.38"/>
<polygon fill="black" stroke="black" points="1285.25,-275.83 1289.2,-266 1279.98,-271.22 1285.25,-275.83"/>
</g>
<!-- mirl_windowing_glfw&#45;&gt;mirl_build_tools -->
<g id="edge120" class="edge">
<title>mirl_windowing_glfw-&gt;mirl_build_tools</title>
<path fill="none" stroke="#00cd00" d="M674.44,-468.29C677.33,-467.88 680.2,-467.51 683.03,-467.2 729.64,-462.08 1481.49,-470.39 1527.03,-459.2 1547.14,-454.26 1682.21,-392.07 1693.03,-374.4 1728.66,-316.17 1734.09,-275.34 1693.03,-220.8 1676.59,-198.98 1610.05,-182.84 1557.97,-173.24"/>
<polygon fill="#00cd00" stroke="#00cd00" points="1558.71,-169.82 1548.25,-171.51 1557.48,-176.71 1558.71,-169.82"/>
</g>
<!-- mirl_windowing_glfw&#45;&gt;mirl_extensions -->
<g id="edge115" class="edge">
<title>mirl_windowing_glfw-&gt;mirl_extensions</title>
<path fill="none" stroke="black" d="M674.44,-468.28C677.33,-467.87 680.2,-467.51 683.03,-467.2 710.7,-464.18 1659.38,-470.02 1685.03,-459.2 1729.27,-440.53 1719.04,-405.71 1761.03,-382.4 1820.59,-349.34 1897.95,-335.17 1951.77,-329.12"/>
<polygon fill="black" stroke="black" points="1951.81,-332.63 1961.38,-328.1 1951.07,-325.67 1951.81,-332.63"/>
</g>
<!-- mirl_windowing_glfw&#45;&gt;mirl_graphics -->
<g id="edge116" class="edge">
<title>mirl_windowing_glfw-&gt;mirl_graphics</title>
<path fill="none" stroke="black" stroke-dasharray="1,5" d="M531.7,-483.08C479.38,-480.93 413.82,-475.02 392.03,-459.2 331.16,-415.02 363.57,-367.62 321.03,-305.6 313.08,-294.02 302.74,-282.61 293.1,-273.04"/>
<polygon fill="black" stroke="black" points="295.62,-270.61 285.99,-266.19 290.76,-275.65 295.62,-270.61"/>
</g>
<!-- mirl_windowing_minifb&#45;&gt;mirl_input -->
<g id="edge123" class="edge">
<title>mirl_windowing_minifb-&gt;mirl_input</title>
<path fill="none" stroke="black" d="M980.85,-467.05C983.27,-464.72 985.39,-462.11 987.03,-459.2 1020.45,-399.67 1004.96,-371.47 987.03,-305.6 984.08,-294.79 978.55,-283.95 972.79,-274.62"/>
<polygon fill="black" stroke="black" points="975.82,-272.85 967.39,-266.42 969.97,-276.7 975.82,-272.85"/>
</g>
<!-- mirl_windowing_minifb&#45;&gt;mirl_system -->
<g id="edge124" class="edge">
<title>mirl_windowing_minifb-&gt;mirl_system</title>
<path fill="none" stroke="black" d="M868.71,-468.47C866.12,-468.03 863.55,-467.6 861.03,-467.2 846.22,-464.84 803.98,-470.41 794.03,-459.2 771.37,-433.67 777.98,-412.52 794.03,-382.4 801.72,-367.95 814.81,-356.47 828.49,-347.68"/>
<polygon fill="black" stroke="black" points="829.9,-350.91 836.7,-342.79 826.32,-344.9 829.9,-350.91"/>
</g>
<!-- mirl_windowing_minifb&#45;&gt;mirl_windowing_core -->
<g id="edge125" class="edge">
<title>mirl_windowing_minifb-&gt;mirl_windowing_core</title>
<path fill="none" stroke="black" d="M929.09,-466.85C919.79,-457.32 908.07,-445.31 897.76,-434.75"/>
<polygon fill="black" stroke="black" points="900.41,-432.45 890.92,-427.74 895.4,-437.34 900.41,-432.45"/>
</g>
<!-- mirl_windowing_minifb&#45;&gt;mirl_buffer -->
<g id="edge121" class="edge">
<title>mirl_windowing_minifb-&gt;mirl_buffer</title>
<path fill="none" stroke="black" d="M1023.28,-481.39C1099.67,-477.96 1207.38,-471.08 1223.03,-459.2 1281.26,-414.97 1297.1,-323.12 1301.41,-276.41"/>
<polygon fill="black" stroke="black" points="1304.9,-276.79 1302.2,-266.54 1297.92,-276.24 1304.9,-276.79"/>
</g>
<!-- mirl_windowing_minifb&#45;&gt;mirl_build_tools -->
<g id="edge126" class="edge">
<title>mirl_windowing_minifb-&gt;mirl_build_tools</title>
<path fill="none" stroke="#00cd00" d="M1023.17,-479.57C1091.05,-475.67 1192.56,-470.24 1281.03,-467.2 1293.3,-466.78 1712.78,-465.97 1723.03,-459.2 1812.55,-400.06 1828.46,-304.26 1761.03,-220.8 1735.99,-189.81 1629.35,-174.66 1558.09,-167.87"/>
<polygon fill="#00cd00" stroke="#00cd00" points="1558.76,-164.42 1548.48,-166.99 1558.12,-171.39 1558.76,-164.42"/>
</g>
<!-- mirl_windowing_minifb&#45;&gt;mirl_extensions -->
<g id="edge122" class="edge">
<title>mirl_windowing_minifb-&gt;mirl_extensions</title>
<path fill="none" stroke="black" d="M1023.15,-484.71C1225.53,-485.67 1761.43,-485.63 1837.03,-459.2 1901.04,-436.81 1960.92,-382.45 1992.58,-350.08"/>
<polygon fill="black" stroke="black" points="1994.92,-352.69 1999.32,-343.06 1989.87,-347.84 1994.92,-352.69"/>
</g>
<!-- mirl_buffer&#45;&gt;mirl_build_tools -->
<g id="edge4" class="edge">
<title>mirl_buffer-&gt;mirl_build_tools</title>
<path fill="none" stroke="#00cd00" d="M1342.65,-228.44C1371.53,-215.79 1410.88,-198.55 1441.94,-184.94"/>
<polygon fill="#00cd00" stroke="#00cd00" points="1442.99,-188.3 1450.75,-181.08 1440.18,-181.89 1442.99,-188.3"/>
</g>
<!-- mirl_buffer&#45;&gt;mirl_derive -->
<g id="edge3" class="edge">
<title>mirl_buffer-&gt;mirl_derive</title>
<path fill="none" stroke="black" stroke-dasharray="1,5" d="M1308.24,-228.44C1315.73,-206.2 1331.51,-167.68 1357.03,-144 1376.47,-125.96 1403.05,-113.4 1426.35,-105.05"/>
<polygon fill="black" stroke="black" points="1427.35,-108.41 1435.69,-101.88 1425.1,-101.78 1427.35,-108.41"/>
</g>
<!-- mirl_buffer_interpolation&#45;&gt;mirl_build_tools -->
<g id="edge8" class="edge">
<title>mirl_buffer_interpolation-&gt;mirl_build_tools</title>
<path fill="none" stroke="#00cd00" d="M1223.16,-228.31C1233.39,-225.56 1243.98,-222.93 1254.03,-220.8 1278.19,-215.67 1284.84,-217.83 1309.03,-212.8 1348.29,-204.63 1391.63,-192.96 1426.27,-182.97"/>
<polygon fill="#00cd00" stroke="#00cd00" points="1427.11,-186.37 1435.74,-180.22 1425.16,-179.65 1427.11,-186.37"/>
</g>
<!-- mirl_buffer_interpolation&#45;&gt;mirl_derive -->
<g id="edge5" class="edge">
<title>mirl_buffer_interpolation-&gt;mirl_derive</title>
<path fill="none" stroke="black" stroke-dasharray="1,5" d="M1227.44,-228.37C1248.17,-222.19 1267.03,-215.98 1271.03,-212.8 1298.68,-190.75 1283.43,-166.12 1311.03,-144 1344.01,-117.56 1390.39,-104.21 1425.91,-97.53"/>
<polygon fill="black" stroke="black" points="1426.29,-101.01 1435.53,-95.84 1425.08,-94.12 1426.29,-101.01"/>
</g>
<!-- mirl_extensions_math -->
<g id="node20" class="node">
<title>mirl_extensions_math</title>
<polygon fill="none" stroke="black" points="2105.24,-264.8 1964.81,-264.8 1964.81,-228.8 2105.24,-228.8 2105.24,-264.8"/>
<text xml:space="preserve" text-anchor="middle" x="2035.03" y="-242.6" font-family="Times,serif" font-size="14.00">mirl_extensions_math</text>
</g>
<!-- mirl_buffer_interpolation&#45;&gt;mirl_extensions_math -->
<g id="edge6" class="edge">
<title>mirl_buffer_interpolation-&gt;mirl_extensions_math</title>
<path fill="none" stroke="black" d="M1188.34,-265.19C1207.23,-278.7 1235.19,-295.69 1263.03,-301.6 1281.48,-305.52 1923.58,-305.52 1942.03,-301.6 1964.76,-296.77 1987.3,-283.76 2004.49,-271.63"/>
<polygon fill="black" stroke="black" points="2006.26,-274.67 2012.24,-265.93 2002.11,-269.03 2006.26,-274.67"/>
</g>
<!-- mirl_buffer_interpolation&#45;&gt;mirl_graphics -->
<g id="edge7" class="edge">
<title>mirl_buffer_interpolation-&gt;mirl_graphics</title>
<path fill="none" stroke="black" d="M1140.34,-265.06C1120.39,-278.5 1090.95,-295.46 1062.03,-301.6 1044.06,-305.41 419.05,-305.1 401.03,-301.6 369.51,-295.49 336.03,-282.1 310.18,-270.08"/>
<polygon fill="black" stroke="black" points="311.86,-267 301.32,-265.87 308.85,-273.33 311.86,-267"/>
</g>
<!-- mirl_build_tools&#45;&gt;mirl_derive -->
<g id="edge9" class="edge">
<title>mirl_build_tools-&gt;mirl_derive</title>
<path fill="none" stroke="black" stroke-dasharray="1,5" d="M1488.56,-143.7C1487.09,-136.32 1485.33,-127.52 1483.68,-119.25"/>
<polygon fill="black" stroke="black" points="1487.14,-118.71 1481.74,-109.59 1480.27,-120.08 1487.14,-118.71"/>
</g>
<!-- mirl_codec_info -->
<g id="node14" class="node">
<title>mirl_codec_info</title>
<polygon fill="none" stroke="black" points="2339.29,-426.4 2230.76,-426.4 2230.76,-390.4 2339.29,-390.4 2339.29,-426.4"/>
<text xml:space="preserve" text-anchor="middle" x="2285.03" y="-404.2" font-family="Times,serif" font-size="14.00">mirl_codec_info</text>
</g>
<!-- mirl_codec_info&#45;&gt;mirl_build_tools -->
<g id="edge16" class="edge">
<title>mirl_codec_info-&gt;mirl_build_tools</title>
<path fill="none" stroke="#00cd00" d="M2318.95,-390.06C2325.02,-385.66 2330.77,-380.43 2335.03,-374.4 2374.71,-318.22 2402.18,-269.92 2354.03,-220.8 2346.19,-212.8 1962.2,-213.52 1951.03,-212.8 1810.79,-203.82 1647.36,-183.78 1558.28,-172.05"/>
<polygon fill="#00cd00" stroke="#00cd00" points="1558.87,-168.59 1548.5,-170.75 1557.95,-175.53 1558.87,-168.59"/>
</g>
<!-- mirl_codec_info&#45;&gt;mirl_derive -->
<g id="edge10" class="edge">
<title>mirl_codec_info-&gt;mirl_derive</title>
<path fill="none" stroke="black" stroke-dasharray="1,5" d="M2339.73,-395.37C2350.87,-390.55 2361.48,-383.81 2369.03,-374.4 2411.85,-320.97 2414.12,-280.74 2381.03,-220.8 2350.06,-164.71 2319.95,-163.84 2259.03,-144 2190.13,-121.57 1694.05,-99.73 1530.31,-93.06"/>
<polygon fill="black" stroke="black" points="1530.75,-89.58 1520.62,-92.67 1530.47,-96.57 1530.75,-89.58"/>
</g>
<!-- mirl_values -->
<g id="node15" class="node">
<title>mirl_values</title>
<polygon fill="none" stroke="black" points="2326.07,-341.6 2243.98,-341.6 2243.98,-305.6 2326.07,-305.6 2326.07,-341.6"/>
<text xml:space="preserve" text-anchor="middle" x="2285.03" y="-319.4" font-family="Times,serif" font-size="14.00">mirl_values</text>
</g>
<!-- mirl_codec_info&#45;&gt;mirl_values -->
<g id="edge15" class="edge">
<title>mirl_codec_info-&gt;mirl_values</title>
<path fill="none" stroke="black" d="M2285.03,-390.24C2285.03,-379.55 2285.03,-365.52 2285.03,-353.17"/>
<polygon fill="black" stroke="black" points="2288.53,-353.53 2285.03,-343.53 2281.53,-353.53 2288.53,-353.53"/>
</g>
<!-- mirl_codec_info&#45;&gt;mirl_extensions -->
<g id="edge11" class="edge">
<title>mirl_codec_info-&gt;mirl_extensions</title>
<path fill="none" stroke="black" d="M2230.27,-390.54C2186.7,-377.13 2125.66,-358.35 2079.87,-344.25"/>
<polygon fill="black" stroke="black" points="2080.91,-340.91 2070.32,-341.31 2078.85,-347.6 2080.91,-340.91"/>
</g>
<!-- mirl_geometry_core -->
<g id="node22" class="node">
<title>mirl_geometry_core</title>
<polygon fill="none" stroke="black" points="1681.17,-264.8 1550.88,-264.8 1550.88,-228.8 1681.17,-228.8 1681.17,-264.8"/>
<text xml:space="preserve" text-anchor="middle" x="1616.03" y="-242.6" font-family="Times,serif" font-size="14.00">mirl_geometry_core</text>
</g>
<!-- mirl_codec_info&#45;&gt;mirl_geometry_core -->
<g id="edge12" class="edge">
<title>mirl_codec_info-&gt;mirl_geometry_core</title>
<path fill="none" stroke="black" d="M2230.51,-406.39C2163.8,-404.16 2047.76,-397.04 1951.03,-374.4 1844.36,-349.44 1725.84,-298.87 1662.3,-269.76"/>
<polygon fill="black" stroke="black" points="1664.13,-266.75 1653.59,-265.74 1661.2,-273.11 1664.13,-266.75"/>
</g>
<!-- mirl_codec_info&#45;&gt;mirl_graphics -->
<g id="edge13" class="edge">
<title>mirl_codec_info-&gt;mirl_graphics</title>
<path fill="none" stroke="black" d="M2230.62,-406.74C2107.31,-404.85 1797.23,-397.97 1539.03,-374.4 1317.39,-354.17 1264.95,-322.29 1043.03,-305.6 970.89,-300.18 463.02,-311.47 392.03,-297.6 363.81,-292.09 333.79,-280.6 310.03,-270.05"/>
<polygon fill="black" stroke="black" points="311.51,-266.88 300.96,-265.92 308.61,-273.25 311.51,-266.88"/>
</g>
<!-- mirl_std_exposed -->
<g id="node27" class="node">
<title>mirl_std_exposed</title>
<polygon fill="none" stroke="black" points="2107.8,-36 1992.25,-36 1992.25,0 2107.8,0 2107.8,-36"/>
<text xml:space="preserve" text-anchor="middle" x="2050.03" y="-13.8" font-family="Times,serif" font-size="14.00">mirl_std_exposed</text>
</g>
<!-- mirl_codec_info&#45;&gt;mirl_std_exposed -->
<g id="edge14" class="edge">
<title>mirl_codec_info-&gt;mirl_std_exposed</title>
<path fill="none" stroke="black" d="M2250.24,-389.92C2244.38,-385.58 2238.94,-380.41 2235.03,-374.4 2158.88,-257.56 2278.77,-170.75 2189.03,-64 2171.68,-43.37 2144.78,-32.11 2119.25,-26"/>
<polygon fill="black" stroke="black" points="2120.03,-22.59 2109.52,-23.93 2118.57,-29.43 2120.03,-22.59"/>
</g>
<!-- mirl_values&#45;&gt;mirl_build_tools -->
<g id="edge87" class="edge">
<title>mirl_values-&gt;mirl_build_tools</title>
<path fill="none" stroke="#00cd00" d="M2243.62,-313.95C2226.76,-310.77 2207.04,-307.49 2189.03,-305.6 2175.87,-304.22 1962.15,-304.77 1951.03,-297.6 1919.01,-276.97 1943.93,-243.05 1913.03,-220.8 1857.62,-180.92 1662.31,-168.49 1558.33,-164.67"/>
<polygon fill="#00cd00" stroke="#00cd00" points="1558.66,-161.18 1548.54,-164.33 1558.41,-168.17 1558.66,-161.18"/>
</g>
<!-- mirl_values&#45;&gt;mirl_derive -->
<g id="edge84" class="edge">
<title>mirl_values-&gt;mirl_derive</title>
<path fill="none" stroke="black" stroke-dasharray="1,5" d="M2326.49,-316.42C2337.19,-312.73 2347.51,-306.88 2354.03,-297.6 2373.62,-269.65 2377.03,-246.02 2354.03,-220.8 2340.94,-206.46 2283.61,-222.89 2267.03,-212.8 2236.02,-193.93 2254.22,-162.55 2223.03,-144 2163.87,-108.83 1690.42,-95.54 1530.54,-92.03"/>
<polygon fill="black" stroke="black" points="1530.73,-88.53 1520.65,-91.82 1530.58,-95.53 1530.73,-88.53"/>
</g>
<!-- mirl_values_core -->
<g id="node16" class="node">
<title>mirl_values_core</title>
<polygon fill="none" stroke="black" points="2344.62,-264.8 2231.43,-264.8 2231.43,-228.8 2344.62,-228.8 2344.62,-264.8"/>
<text xml:space="preserve" text-anchor="middle" x="2288.03" y="-242.6" font-family="Times,serif" font-size="14.00">mirl_values_core</text>
</g>
<!-- mirl_values&#45;&gt;mirl_values_core -->
<g id="edge86" class="edge">
<title>mirl_values-&gt;mirl_values_core</title>
<path fill="none" stroke="black" d="M2285.72,-305.25C2286.07,-296.66 2286.49,-286.07 2286.88,-276.32"/>
<polygon fill="black" stroke="black" points="2290.37,-276.7 2287.27,-266.57 2283.37,-276.42 2290.37,-276.7"/>
</g>
<!-- mirl_values&#45;&gt;mirl_extensions -->
<g id="edge85" class="edge">
<title>mirl_values-&gt;mirl_extensions</title>
<path fill="none" stroke="black" d="M2243.69,-323.6C2189.24,-323.6 2134.79,-323.6 2080.34,-323.6"/>
<polygon fill="black" stroke="black" points="2080.6,-320.1 2070.6,-323.6 2080.6,-327.1 2080.6,-320.1"/>
</g>
<!-- mirl_values_core&#45;&gt;mirl_build_tools -->
<g id="edge91" class="edge">
<title>mirl_values_core-&gt;mirl_build_tools</title>
<path fill="none" stroke="#00cd00" d="M2231.12,-229.22C2217.44,-225.85 2202.8,-222.75 2189.03,-220.8 2084.23,-205.98 2056.6,-220.29 1951.03,-212.8 1810.85,-202.85 1647.4,-183.17 1558.3,-171.76"/>
<polygon fill="#00cd00" stroke="#00cd00" points="1558.88,-168.3 1548.52,-170.5 1557.99,-175.25 1558.88,-168.3"/>
</g>
<!-- mirl_values_core&#45;&gt;mirl_derive -->
<g id="edge89" class="edge">
<title>mirl_values_core-&gt;mirl_derive</title>
<path fill="none" stroke="black" stroke-dasharray="1,5" d="M2249.74,-228.35C2242.35,-223.93 2235.05,-218.73 2229.03,-212.8 2203.81,-188 2219.01,-162.77 2189.03,-144 2133.62,-109.32 1685.51,-95.78 1530.54,-92.11"/>
<polygon fill="black" stroke="black" points="1530.62,-88.61 1520.54,-91.88 1530.46,-95.61 1530.62,-88.61"/>
</g>
<!-- mirl_extensions_core -->
<g id="node19" class="node">
<title>mirl_extensions_core</title>
<polygon fill="none" stroke="black" points="2118.29,-108 1981.76,-108 1981.76,-72 2118.29,-72 2118.29,-108"/>
<text xml:space="preserve" text-anchor="middle" x="2050.03" y="-85.8" font-family="Times,serif" font-size="14.00">mirl_extensions_core</text>
</g>
<!-- mirl_values_core&#45;&gt;mirl_extensions_core -->
<g id="edge90" class="edge">
<title>mirl_values_core-&gt;mirl_extensions_core</title>
<path fill="none" stroke="black" d="M2280.68,-228.37C2270.24,-205.68 2249.01,-166.3 2219.03,-144 2192.99,-124.63 2159.69,-112.23 2129.55,-104.33"/>
<polygon fill="black" stroke="black" points="2130.63,-100.99 2120.08,-101.99 2128.95,-107.79 2130.63,-100.99"/>
</g>
<!-- mirl_values_core&#45;&gt;mirl_collections -->
<g id="edge88" class="edge">
<title>mirl_values_core-&gt;mirl_collections</title>
<path fill="none" stroke="black" d="M2231.15,-228.99C2217.47,-225.63 2202.83,-222.59 2189.03,-220.8 2104.84,-209.89 1509.46,-221.61 1425.03,-212.8 1361.84,-206.21 1290.89,-191.26 1240.94,-179.45"/>
<polygon fill="black" stroke="black" points="1241.99,-176.1 1231.45,-177.18 1240.36,-182.91 1241.99,-176.1"/>
</g>
<!-- mirl_extensions&#45;&gt;mirl_input -->
<g id="edge28" class="edge">
<title>mirl_extensions-&gt;mirl_input</title>
<path fill="none" stroke="black" stroke-dasharray="1,5" d="M1962.9,-319.16C1898.91,-315.16 1788.16,-308.72 1693.03,-305.6 1658.6,-304.47 1106.76,-304.55 1073.03,-297.6 1046.32,-292.1 1018.09,-280.69 995.72,-270.18"/>
<polygon fill="black" stroke="black" points="997.45,-267.13 986.92,-265.94 994.41,-273.44 997.45,-267.13"/>
</g>
<!-- mirl_extensions&#45;&gt;mirl_buffer -->
<g id="edge21" class="edge">
<title>mirl_extensions-&gt;mirl_buffer</title>
<path fill="none" stroke="black" d="M1962.87,-319.79C1898.86,-316.41 1788.08,-310.57 1693.03,-305.6 1624.58,-302.02 1606.98,-306.48 1539.03,-297.6 1474.83,-289.21 1402.1,-272.79 1354.55,-261.1"/>
<polygon fill="black" stroke="black" points="1355.64,-257.76 1345.09,-258.75 1353.95,-264.56 1355.64,-257.76"/>
</g>
<!-- mirl_extensions&#45;&gt;mirl_build_tools -->
<g id="edge30" class="edge">
<title>mirl_extensions-&gt;mirl_build_tools</title>
<path fill="none" stroke="#00cd00" d="M1963.23,-315.62C1949.2,-311.92 1934.71,-306.26 1923.03,-297.6 1890.68,-273.65 1908.67,-242.89 1875.03,-220.8 1824.18,-187.42 1653.95,-172.35 1558.45,-166.39"/>
<polygon fill="#00cd00" stroke="#00cd00" points="1558.89,-162.91 1548.7,-165.79 1558.47,-169.89 1558.89,-162.91"/>
</g>
<!-- mirl_extensions&#45;&gt;mirl_values_core -->
<g id="edge29" class="edge">
<title>mirl_extensions-&gt;mirl_values_core</title>
<path fill="none" stroke="black" stroke-dasharray="1,5" d="M2068.86,-319.4C2103.63,-316.22 2149.8,-309.94 2189.03,-297.6 2209.89,-291.04 2231.75,-280.48 2249.6,-270.77"/>
<polygon fill="black" stroke="black" points="2251.26,-273.86 2258.29,-265.93 2247.85,-267.74 2251.26,-273.86"/>
</g>
<!-- mirl_extensions_conversion -->
<g id="node18" class="node">
<title>mirl_extensions_conversion</title>
<polygon fill="none" stroke="black" points="2136.96,-180 1963.09,-180 1963.09,-144 2136.96,-144 2136.96,-180"/>
<text xml:space="preserve" text-anchor="middle" x="2050.03" y="-157.8" font-family="Times,serif" font-size="14.00">mirl_extensions_conversion</text>
</g>
<!-- mirl_extensions&#45;&gt;mirl_extensions_conversion -->
<g id="edge23" class="edge">
<title>mirl_extensions-&gt;mirl_extensions_conversion</title>
<path fill="none" stroke="black" d="M2068.98,-315.03C2088.83,-311.02 2108.05,-305.3 2114.03,-297.6 2134.97,-270.65 2127.89,-251.99 2114.03,-220.8 2108.28,-207.87 2098.05,-196.6 2087.43,-187.54"/>
<polygon fill="black" stroke="black" points="2089.7,-184.88 2079.7,-181.4 2085.35,-190.36 2089.7,-184.88"/>
</g>
<!-- mirl_extensions&#45;&gt;mirl_extensions_core -->
<g id="edge24" class="edge">
<title>mirl_extensions-&gt;mirl_extensions_core</title>
<path fill="none" stroke="black" d="M2069.02,-321.04C2088.91,-317.96 2110.44,-311.32 2126.03,-297.6 2156.14,-271.08 2150.03,-252.31 2157.03,-212.8 2162.36,-182.69 2173.15,-169.98 2157.03,-144 2148.93,-130.96 2136.57,-121.03 2123.09,-113.5"/>
<polygon fill="black" stroke="black" points="2124.97,-110.53 2114.47,-109.12 2121.8,-116.77 2124.97,-110.53"/>
</g>
<!-- mirl_extensions&#45;&gt;mirl_extensions_math -->
<g id="edge25" class="edge">
<title>mirl_extensions-&gt;mirl_extensions_math</title>
<path fill="none" stroke="black" d="M2020.43,-305.25C2022.64,-296.57 2025.36,-285.83 2027.86,-276"/>
<polygon fill="black" stroke="black" points="2031.2,-277.08 2030.27,-266.52 2024.42,-275.35 2031.2,-277.08"/>
</g>
<!-- mirl_extensions&#45;&gt;mirl_geometry_core -->
<g id="edge26" class="edge">
<title>mirl_extensions-&gt;mirl_geometry_core</title>
<path fill="none" stroke="black" stroke-dasharray="1,5" d="M1962.96,-320.39C1913.01,-317.56 1836.31,-311.26 1771.03,-297.6 1737.66,-290.62 1701.34,-279.16 1672.24,-269"/>
<polygon fill="black" stroke="black" points="1673.49,-265.73 1662.89,-265.68 1671.15,-272.33 1673.49,-265.73"/>
</g>
<!-- mirl_extensions&#45;&gt;mirl_graphics -->
<g id="edge27" class="edge">
<title>mirl_extensions-&gt;mirl_graphics</title>
<path fill="none" stroke="black" stroke-dasharray="1,5" d="M1962.9,-319.05C1898.92,-314.94 1788.17,-308.39 1693.03,-305.6 1656.9,-304.54 427.52,-304.42 392.03,-297.6 363.69,-292.15 333.56,-280.61 309.76,-270.01"/>
<polygon fill="black" stroke="black" points="311.23,-266.83 300.68,-265.86 308.32,-273.2 311.23,-266.83"/>
</g>
<!-- mirl_extensions&#45;&gt;mirl_collections -->
<g id="edge22" class="edge">
<title>mirl_extensions-&gt;mirl_collections</title>
<path fill="none" stroke="black" stroke-dasharray="1,5" d="M1962.99,-316.52C1935.23,-312.58 1900.9,-306.48 1871.03,-297.6 1788.44,-273.04 1777.14,-239.48 1693.03,-220.8 1634.86,-207.88 1484.22,-219.56 1425.03,-212.8 1361.91,-205.6 1290.95,-190.72 1240.98,-179.1"/>
<polygon fill="black" stroke="black" points="1242.02,-175.75 1231.49,-176.87 1240.42,-182.56 1242.02,-175.75"/>
</g>
<!-- mirl_extensions_conversion&#45;&gt;mirl_buffer -->
<g id="edge31" class="edge">
<title>mirl_extensions_conversion-&gt;mirl_buffer</title>
<path fill="none" stroke="black" stroke-dasharray="1,5" d="M1962.85,-172.66C1806.13,-190.03 1481.37,-226.03 1354.97,-240.04"/>
<polygon fill="black" stroke="black" points="1354.78,-236.54 1345.22,-241.12 1355.55,-243.5 1354.78,-236.54"/>
</g>
<!-- mirl_extensions_conversion&#45;&gt;mirl_build_tools -->
<g id="edge35" class="edge">
<title>mirl_extensions_conversion-&gt;mirl_build_tools</title>
<path fill="none" stroke="#00cd00" d="M1962.6,-162C1827.87,-162 1693.15,-162 1558.42,-162"/>
<polygon fill="#00cd00" stroke="#00cd00" points="1558.58,-158.5 1548.58,-162 1558.58,-165.5 1558.58,-158.5"/>
</g>
<!-- mirl_extensions_conversion&#45;&gt;mirl_values_core -->
<g id="edge34" class="edge">
<title>mirl_extensions_conversion-&gt;mirl_values_core</title>
<path fill="none" stroke="black" stroke-dasharray="1,5" d="M2098.92,-180.42C2126.03,-190.05 2160.36,-202.17 2191.03,-212.8 2202.17,-216.66 2214.05,-220.74 2225.53,-224.66"/>
<polygon fill="black" stroke="black" points="2224.36,-227.96 2234.96,-227.87 2226.62,-221.33 2224.36,-227.96"/>
</g>
<!-- mirl_extensions_conversion&#45;&gt;mirl_extensions_core -->
<g id="edge32" class="edge">
<title>mirl_extensions_conversion-&gt;mirl_extensions_core</title>
<path fill="none" stroke="black" d="M2050.03,-143.7C2050.03,-136.41 2050.03,-127.73 2050.03,-119.54"/>
<polygon fill="black" stroke="black" points="2053.53,-119.62 2050.03,-109.62 2046.53,-119.62 2053.53,-119.62"/>
</g>
<!-- mirl_extensions_conversion&#45;&gt;mirl_graphics -->
<g id="edge33" class="edge">
<title>mirl_extensions_conversion-&gt;mirl_graphics</title>
<path fill="none" stroke="black" stroke-dasharray="1,5" d="M1962.86,-174.35C1864.84,-186.52 1700.83,-205.14 1559.03,-212.8 1429.54,-219.79 521.04,-207.78 392.03,-220.8 369.47,-223.08 344.97,-227.44 323.57,-231.89"/>
<polygon fill="black" stroke="black" points="322.88,-228.46 313.83,-233.98 324.34,-235.31 322.88,-228.46"/>
</g>
<!-- mirl_extensions_core&#45;&gt;mirl_build_tools -->
<g id="edge37" class="edge">
<title>mirl_extensions_core-&gt;mirl_build_tools</title>
<path fill="none" stroke="#00cd00" d="M1981.59,-95.52C1886.65,-102.44 1709.87,-117.72 1561.03,-144 1560.02,-144.18 1559,-144.36 1557.98,-144.55"/>
<polygon fill="#00cd00" stroke="#00cd00" points="1557.47,-141.08 1548.36,-146.49 1558.85,-147.95 1557.47,-141.08"/>
</g>
<!-- mirl_extensions_core&#45;&gt;mirl_std_exposed -->
<g id="edge36" class="edge">
<title>mirl_extensions_core-&gt;mirl_std_exposed</title>
<path fill="none" stroke="black" d="M2050.03,-71.7C2050.03,-64.41 2050.03,-55.73 2050.03,-47.54"/>
<polygon fill="black" stroke="black" points="2053.53,-47.62 2050.03,-37.62 2046.53,-47.62 2053.53,-47.62"/>
</g>
<!-- mirl_extensions_math&#45;&gt;mirl_build_tools -->
<g id="edge41" class="edge">
<title>mirl_extensions_math-&gt;mirl_build_tools</title>
<path fill="none" stroke="#00cd00" d="M1981.14,-228.34C1971.2,-225.53 1960.85,-222.87 1951.03,-220.8 1812.86,-191.74 1648,-175.34 1558.27,-167.91"/>
<polygon fill="#00cd00" stroke="#00cd00" points="1558.67,-164.43 1548.42,-167.11 1558.1,-171.41 1558.67,-164.43"/>
</g>
<!-- mirl_extensions_math&#45;&gt;mirl_extensions_conversion -->
<g id="edge38" class="edge">
<title>mirl_extensions_math-&gt;mirl_extensions_conversion</title>
<path fill="none" stroke="black" d="M2038.13,-228.64C2040.07,-217.95 2042.61,-203.92 2044.85,-191.57"/>
<polygon fill="black" stroke="black" points="2048.26,-192.37 2046.6,-181.91 2041.37,-191.12 2048.26,-192.37"/>
</g>
<!-- mirl_extensions_math&#45;&gt;mirl_extensions_core -->
<g id="edge39" class="edge">
<title>mirl_extensions_math-&gt;mirl_extensions_core</title>
<path fill="none" stroke="black" d="M2105.49,-239.1C2121.24,-234.15 2136.17,-226.01 2146.03,-212.8 2164.31,-188.29 2161.57,-170.33 2146.03,-144 2138.51,-131.26 2126.71,-121.37 2113.92,-113.78"/>
<polygon fill="black" stroke="black" points="2115.8,-110.81 2105.34,-109.13 2112.47,-116.97 2115.8,-110.81"/>
</g>
<!-- mirl_extensions_math&#45;&gt;mirl_graphics -->
<g id="edge40" class="edge">
<title>mirl_extensions_math-&gt;mirl_graphics</title>
<path fill="none" stroke="black" d="M2013.46,-265.03C1995.64,-278.66 1968.97,-295.88 1942.03,-301.6 1921.09,-306.04 422.04,-305.67 401.03,-301.6 369.51,-295.49 336.03,-282.1 310.18,-270.08"/>
<polygon fill="black" stroke="black" points="311.86,-267 301.32,-265.87 308.85,-273.33 311.86,-267"/>
</g>
<!-- mirl_geometry -->
<g id="node21" class="node">
<title>mirl_geometry</title>
<polygon fill="none" stroke="black" points="1657.63,-341.6 1558.43,-341.6 1558.43,-305.6 1657.63,-305.6 1657.63,-341.6"/>
<text xml:space="preserve" text-anchor="middle" x="1608.03" y="-319.4" font-family="Times,serif" font-size="14.00">mirl_geometry</text>
</g>
<!-- mirl_geometry&#45;&gt;mirl_build_tools -->
<g id="edge45" class="edge">
<title>mirl_geometry-&gt;mirl_build_tools</title>
<path fill="none" stroke="#00cd00" d="M1557.98,-309.06C1552.11,-305.98 1546.6,-302.21 1542.03,-297.6 1513.17,-268.56 1500.76,-221.4 1495.57,-191.31"/>
<polygon fill="#00cd00" stroke="#00cd00" points="1499.09,-191.15 1494.1,-181.81 1492.17,-192.22 1499.09,-191.15"/>
</g>
<!-- mirl_geometry&#45;&gt;mirl_derive -->
<g id="edge42" class="edge">
<title>mirl_geometry-&gt;mirl_derive</title>
<path fill="none" stroke="black" stroke-dasharray="1,5" d="M1557.96,-318.03C1538.48,-314.54 1516.66,-308.4 1499.03,-297.6 1457.11,-271.92 1444.81,-259 1428.03,-212.8 1417.58,-184.06 1416.74,-172.42 1428.03,-144 1432.15,-133.62 1439.38,-124.09 1447.08,-116.06"/>
<polygon fill="black" stroke="black" points="1449.31,-118.78 1454.08,-109.32 1444.45,-113.74 1449.31,-118.78"/>
</g>
<!-- mirl_geometry&#45;&gt;mirl_extensions -->
<g id="edge43" class="edge">
<title>mirl_geometry-&gt;mirl_extensions</title>
<path fill="none" stroke="black" d="M1657.83,-323.6C1755.73,-323.6 1853.63,-323.6 1951.54,-323.6"/>
<polygon fill="black" stroke="black" points="1951.34,-327.1 1961.34,-323.6 1951.34,-320.1 1951.34,-327.1"/>
</g>
<!-- mirl_geometry&#45;&gt;mirl_geometry_core -->
<g id="edge44" class="edge">
<title>mirl_geometry-&gt;mirl_geometry_core</title>
<path fill="none" stroke="black" d="M1609.88,-305.25C1610.8,-296.66 1611.93,-286.07 1612.97,-276.32"/>
<polygon fill="black" stroke="black" points="1616.44,-276.88 1614.02,-266.56 1609.48,-276.13 1616.44,-276.88"/>
</g>
<!-- mirl_geometry_core&#45;&gt;mirl_build_tools -->
<g id="edge47" class="edge">
<title>mirl_geometry_core-&gt;mirl_build_tools</title>
<path fill="none" stroke="#00cd00" d="M1590.03,-228.44C1571.84,-216.3 1547.33,-199.93 1527.37,-186.6"/>
<polygon fill="#00cd00" stroke="#00cd00" points="1529.5,-183.82 1519.24,-181.18 1525.62,-189.64 1529.5,-183.82"/>
</g>
<!-- mirl_geometry_core&#45;&gt;mirl_derive -->
<g id="edge46" class="edge">
<title>mirl_geometry_core-&gt;mirl_derive</title>
<path fill="none" stroke="black" stroke-dasharray="1,5" d="M1608.68,-228.43C1598.95,-206.85 1580.16,-169.74 1556.03,-144 1545.49,-132.77 1532.18,-122.64 1519.54,-114.32"/>
<polygon fill="black" stroke="black" points="1521.67,-111.52 1511.34,-109.12 1517.92,-117.43 1521.67,-111.52"/>
</g>
<!-- mirl_graphics&#45;&gt;mirl_buffer -->
<g id="edge48" class="edge">
<title>mirl_graphics-&gt;mirl_buffer</title>
<path fill="none" stroke="black" d="M299.96,-265.22C326.77,-278.27 365.16,-294.65 401.03,-301.6 424.04,-306.06 1222.09,-306.47 1245.03,-301.6 1261.12,-298.19 1274.76,-286.15 1284.76,-274.22"/>
<polygon fill="black" stroke="black" points="1287.41,-276.52 1290.75,-266.47 1281.87,-272.24 1287.41,-276.52"/>
</g>
<!-- mirl_graphics&#45;&gt;mirl_build_tools -->
<g id="edge51" class="edge">
<title>mirl_graphics-&gt;mirl_build_tools</title>
<path fill="none" stroke="#00cd00" d="M312.17,-231.46C328.44,-227.16 346.88,-223.01 364.03,-220.8 460.34,-208.38 1141.41,-222.63 1238.03,-212.8 1302.45,-206.25 1374.82,-191.29 1425.79,-179.47"/>
<polygon fill="#00cd00" stroke="#00cd00" points="1426.56,-182.88 1435.5,-177.19 1424.96,-176.07 1426.56,-182.88"/>
</g>
<!-- mirl_graphics&#45;&gt;mirl_derive -->
<g id="edge50" class="edge">
<title>mirl_graphics-&gt;mirl_derive</title>
<path fill="none" stroke="black" stroke-dasharray="1,5" d="M269.79,-228.45C277.35,-204.68 294.54,-162.81 326.03,-144 421.13,-87.19 1212.78,-89 1425.55,-90.53"/>
<polygon fill="black" stroke="black" points="1425.45,-94.03 1435.48,-90.6 1425.51,-87.03 1425.45,-94.03"/>
</g>
<!-- mirl_graphics&#45;&gt;mirl_collections -->
<g id="edge49" class="edge">
<title>mirl_graphics-&gt;mirl_collections</title>
<path fill="none" stroke="black" stroke-dasharray="1,5" d="M312.26,-232.07C328.53,-227.82 346.96,-223.54 364.03,-220.8 639.55,-176.56 973.1,-166.18 1111.27,-163.74"/>
<polygon fill="black" stroke="black" points="1111,-167.25 1120.94,-163.58 1110.88,-160.25 1111,-167.25"/>
</g>
<!-- mirl_gui -->
<g id="node24" class="node">
<title>mirl_gui</title>
<polygon fill="none" stroke="black" points="303.14,-426.4 238.92,-426.4 238.92,-390.4 303.14,-390.4 303.14,-426.4"/>
<text xml:space="preserve" text-anchor="middle" x="271.03" y="-404.2" font-family="Times,serif" font-size="14.00">mirl_gui</text>
</g>
<!-- mirl_gui&#45;&gt;mirl_windowing_core -->
<g id="edge58" class="edge">
<title>mirl_gui-&gt;mirl_windowing_core</title>
<path fill="none" stroke="black" d="M303.52,-426.4C329.13,-439.52 366.22,-456.16 401.03,-463.2 422.21,-467.48 768.89,-467.69 790.03,-463.2 810.59,-458.84 830.36,-446.23 845.45,-434.21"/>
<polygon fill="black" stroke="black" points="847.62,-436.95 853.04,-427.85 843.13,-431.59 847.62,-436.95"/>
</g>
<!-- mirl_gui&#45;&gt;mirl_buffer -->
<g id="edge52" class="edge">
<title>mirl_gui-&gt;mirl_buffer</title>
<path fill="none" stroke="black" d="M303.62,-398.9C327.83,-393.02 361.74,-385.68 392.03,-382.4 410,-380.45 1028.08,-384.59 1043.03,-374.4 1070.3,-355.81 1044.04,-324.62 1071.03,-305.6 1087.66,-293.87 1235.43,-305.87 1254.03,-297.6 1265.78,-292.37 1276.21,-282.92 1284.39,-273.65"/>
<polygon fill="black" stroke="black" points="1286.92,-276.08 1290.56,-266.13 1281.51,-271.64 1286.92,-276.08"/>
</g>
<!-- mirl_gui&#45;&gt;mirl_build_tools -->
<g id="edge59" class="edge">
<title>mirl_gui-&gt;mirl_build_tools</title>
<path fill="none" stroke="#00cd00" d="M303.3,-389.93C309.71,-385.46 316.01,-380.24 321.03,-374.4 370.06,-317.38 328.86,-261.61 392.03,-220.8 411.76,-208.05 1214.65,-215.18 1238.03,-212.8 1302.45,-206.24 1374.82,-191.28 1425.79,-179.46"/>
<polygon fill="#00cd00" stroke="#00cd00" points="1426.56,-182.88 1435.5,-177.19 1424.96,-176.06 1426.56,-182.88"/>
</g>
<!-- mirl_gui&#45;&gt;mirl_derive -->
<g id="edge54" class="edge">
<title>mirl_gui-&gt;mirl_derive</title>
<path fill="none" stroke="black" stroke-dasharray="1,5" d="M238.43,-404.78C218.01,-401.26 193.15,-393.11 180.03,-374.4 121.24,-290.55 109.63,-217.41 181.03,-144 225.11,-98.67 1188.99,-92.09 1425.82,-91.15"/>
<polygon fill="black" stroke="black" points="1425.69,-94.65 1435.68,-91.11 1425.66,-87.65 1425.69,-94.65"/>
</g>
<!-- mirl_gui&#45;&gt;mirl_extensions -->
<g id="edge55" class="edge">
<title>mirl_gui-&gt;mirl_extensions</title>
<path fill="none" stroke="black" d="M303.62,-398.84C327.82,-392.93 361.73,-385.59 392.03,-382.4 535.79,-367.26 1548.92,-385.89 1693.03,-374.4 1783.33,-367.2 1886.63,-349.61 1951.59,-337.39"/>
<polygon fill="black" stroke="black" points="1952.21,-340.84 1961.38,-335.53 1950.9,-333.96 1952.21,-340.84"/>
</g>
<!-- mirl_gui&#45;&gt;mirl_graphics -->
<g id="edge56" class="edge">
<title>mirl_gui-&gt;mirl_graphics</title>
<path fill="none" stroke="black" d="M238.44,-399.78C225.07,-394.87 210.9,-386.97 203.03,-374.4 186.8,-348.48 190.83,-333.64 203.03,-305.6 208.62,-292.74 218.64,-281.44 229.02,-272.33"/>
<polygon fill="black" stroke="black" points="231.04,-275.2 236.56,-266.16 226.61,-269.78 231.04,-275.2"/>
</g>
<!-- mirl_rendering -->
<g id="node25" class="node">
<title>mirl_rendering</title>
<polygon fill="none" stroke="black" points="312.01,-341.6 212.04,-341.6 212.04,-305.6 312.01,-305.6 312.01,-341.6"/>
<text xml:space="preserve" text-anchor="middle" x="262.03" y="-319.4" font-family="Times,serif" font-size="14.00">mirl_rendering</text>
</g>
<!-- mirl_gui&#45;&gt;mirl_rendering -->
<g id="edge57" class="edge">
<title>mirl_gui-&gt;mirl_rendering</title>
<path fill="none" stroke="black" d="M269.16,-390.24C268,-379.55 266.47,-365.52 265.13,-353.17"/>
<polygon fill="black" stroke="black" points="268.64,-353.09 264.08,-343.52 261.68,-353.84 268.64,-353.09"/>
</g>
<!-- mirl_gui&#45;&gt;mirl_collections -->
<g id="edge53" class="edge">
<title>mirl_gui-&gt;mirl_collections</title>
<path fill="none" stroke="black" d="M238.72,-403.41C220.57,-399.33 199.34,-391.08 188.03,-374.4 182.34,-366.02 183.71,-226.37 189.03,-220.8 220.88,-187.42 895.67,-169.33 1110.77,-164.4"/>
<polygon fill="black" stroke="black" points="1110.73,-167.9 1120.65,-164.18 1110.58,-160.91 1110.73,-167.9"/>
</g>
<!-- mirl_rendering&#45;&gt;mirl_buffer -->
<g id="edge64" class="edge">
<title>mirl_rendering-&gt;mirl_buffer</title>
<path fill="none" stroke="black" d="M312.51,-314.56C336.52,-311.1 365.69,-307.44 392.03,-305.6 415.91,-303.93 1231.98,-306.96 1254.03,-297.6 1265.87,-292.57 1276.31,-283.16 1284.48,-273.86"/>
<polygon fill="black" stroke="black" points="1287.04,-276.26 1290.63,-266.3 1281.61,-271.85 1287.04,-276.26"/>
</g>
<!-- mirl_rendering&#45;&gt;mirl_buffer_interpolation -->
<g id="edge65" class="edge">
<title>mirl_rendering-&gt;mirl_buffer_interpolation</title>
<path fill="none" stroke="black" d="M312.51,-314.59C336.53,-311.14 365.69,-307.48 392.03,-305.6 464.18,-300.46 972.13,-311.97 1043.03,-297.6 1070.12,-292.11 1098.83,-280.7 1121.58,-270.19"/>
<polygon fill="black" stroke="black" points="1123.01,-273.39 1130.55,-265.94 1120.01,-267.06 1123.01,-273.39"/>
</g>
<!-- mirl_rendering&#45;&gt;mirl_build_tools -->
<g id="edge69" class="edge">
<title>mirl_rendering-&gt;mirl_build_tools</title>
<path fill="none" stroke="#00cd00" d="M215.76,-305.4C213.17,-303.11 210.88,-300.52 209.03,-297.6 190.75,-268.77 184.98,-245.03 209.03,-220.8 219.09,-210.65 1223.81,-214.24 1238.03,-212.8 1302.45,-206.29 1374.83,-191.33 1425.79,-179.5"/>
<polygon fill="#00cd00" stroke="#00cd00" points="1426.57,-182.91 1435.5,-177.21 1424.96,-176.09 1426.57,-182.91"/>
</g>
<!-- mirl_rendering&#45;&gt;mirl_derive -->
<g id="edge66" class="edge">
<title>mirl_rendering-&gt;mirl_derive</title>
<path fill="none" stroke="black" stroke-dasharray="1,5" d="M211.79,-314.58C202.86,-310.86 194.63,-305.45 189.03,-297.6 143.91,-234.47 200.41,-173.88 272.03,-144 379.39,-99.2 1207.76,-92.24 1425.66,-91.19"/>
<polygon fill="black" stroke="black" points="1425.56,-94.69 1435.54,-91.14 1425.52,-87.69 1425.56,-94.69"/>
</g>
<!-- mirl_rendering&#45;&gt;mirl_extensions -->
<g id="edge67" class="edge">
<title>mirl_rendering-&gt;mirl_extensions</title>
<path fill="none" stroke="black" d="M297.78,-342.02C325.21,-355.07 364.46,-371.45 401.03,-378.4 421.02,-382.2 1845.99,-381.95 1866.03,-378.4 1900.76,-372.25 1938.03,-358.68 1966.72,-346.58"/>
<polygon fill="black" stroke="black" points="1968.09,-349.8 1975.89,-342.63 1965.32,-343.37 1968.09,-349.8"/>
</g>
<!-- mirl_rendering&#45;&gt;mirl_graphics -->
<g id="edge68" class="edge">
<title>mirl_rendering-&gt;mirl_graphics</title>
<path fill="none" stroke="black" d="M262.72,-305.25C263.07,-296.66 263.49,-286.07 263.88,-276.32"/>
<polygon fill="black" stroke="black" points="267.37,-276.7 264.27,-266.57 260.37,-276.42 267.37,-276.7"/>
</g>
<!-- mirl_collections&#45;&gt;mirl_build_tools -->
<g id="edge20" class="edge">
<title>mirl_collections-&gt;mirl_build_tools</title>
<path fill="none" stroke="#00cd00" d="M1229.72,-162C1295.02,-162 1360.32,-162 1425.62,-162"/>
<polygon fill="#00cd00" stroke="#00cd00" points="1425.44,-165.5 1435.44,-162 1425.44,-158.5 1425.44,-165.5"/>
</g>
<!-- mirl_collections&#45;&gt;mirl_derive -->
<g id="edge17" class="edge">
<title>mirl_collections-&gt;mirl_derive</title>
<path fill="none" stroke="black" stroke-dasharray="1,5" d="M1229.75,-147.23C1234.24,-146.13 1238.71,-145.03 1243.03,-144 1305.91,-128.93 1378.55,-112.74 1426.23,-102.27"/>
<polygon fill="black" stroke="black" points="1426.7,-105.75 1435.71,-100.19 1425.2,-98.91 1426.7,-105.75"/>
</g>
<!-- mirl_collections&#45;&gt;mirl_extensions_core -->
<g id="edge18" class="edge">
<title>mirl_collections-&gt;mirl_extensions_core</title>
<path fill="none" stroke="black" d="M1229.71,-156.7C1378.08,-144.82 1794.3,-111.48 1970.08,-97.4"/>
<polygon fill="black" stroke="black" points="1970.11,-100.91 1979.8,-96.62 1969.55,-93.93 1970.11,-100.91"/>
</g>
<!-- mirl_collections&#45;&gt;mirl_std_exposed -->
<g id="edge19" class="edge">
<title>mirl_collections-&gt;mirl_std_exposed</title>
<path fill="none" stroke="black" d="M1210.84,-143.57C1258.05,-120.85 1345.6,-81.9 1425.03,-64 1529.15,-40.53 1840.88,-26.6 1980.76,-21.38"/>
<polygon fill="black" stroke="black" points="1980.77,-24.88 1990.63,-21.01 1980.51,-17.88 1980.77,-24.88"/>
</g>
<!-- mirl_unsorted_horrors -->
<g id="node28" class="node">
<title>mirl_unsorted_horrors</title>
<polygon fill="none" stroke="black" points="1518.02,-426.4 1376.04,-426.4 1376.04,-390.4 1518.02,-390.4 1518.02,-426.4"/>
<text xml:space="preserve" text-anchor="middle" x="1447.03" y="-404.2" font-family="Times,serif" font-size="14.00">mirl_unsorted_horrors</text>
</g>
<!-- mirl_unsorted_horrors&#45;&gt;mirl_build_tools -->
<g id="edge83" class="edge">
<title>mirl_unsorted_horrors-&gt;mirl_build_tools</title>
<path fill="none" stroke="#00cd00" d="M1447.98,-389.93C1450.1,-356.62 1456.19,-281.9 1471.03,-220.8 1473.43,-210.92 1476.95,-200.38 1480.42,-191.06"/>
<polygon fill="#00cd00" stroke="#00cd00" points="1483.66,-192.4 1484.02,-181.81 1477.13,-189.86 1483.66,-192.4"/>
</g>
<!-- mirl_unsorted_horrors&#45;&gt;mirl_derive -->
<g id="edge80" class="edge">
<title>mirl_unsorted_horrors-&gt;mirl_derive</title>
<path fill="none" stroke="black" stroke-dasharray="1,5" d="M1438.98,-390.09C1419.95,-346.49 1376.62,-229.52 1416.03,-144 1421.14,-132.89 1429.87,-123.24 1439.18,-115.33"/>
<polygon fill="black" stroke="black" points="1441.28,-118.14 1447,-109.23 1436.97,-112.63 1441.28,-118.14"/>
</g>
<!-- mirl_unsorted_horrors&#45;&gt;mirl_extensions -->
<g id="edge81" class="edge">
<title>mirl_unsorted_horrors-&gt;mirl_extensions</title>
<path fill="none" stroke="black" stroke-dasharray="1,5" d="M1518.39,-398.2C1567.52,-391.78 1634.28,-382.87 1693.03,-374.4 1782.82,-361.46 1886.46,-345.25 1951.61,-334.91"/>
<polygon fill="black" stroke="black" points="1952.1,-338.38 1961.42,-333.35 1951,-331.47 1952.1,-338.38"/>
</g>
<!-- mirl_unsorted_horrors&#45;&gt;mirl_extensions_core -->
<g id="edge82" class="edge">
<title>mirl_unsorted_horrors-&gt;mirl_extensions_core</title>
<path fill="none" stroke="black" d="M1457.34,-390.07C1460.23,-385.06 1463.32,-379.55 1466.03,-374.4 1501.13,-307.46 1480.63,-268.79 1539.03,-220.8 1547.48,-213.85 1828.7,-144.79 1970.27,-110.34"/>
<polygon fill="black" stroke="black" points="1971.09,-113.74 1979.98,-107.98 1969.44,-106.94 1971.09,-113.74"/>
</g>
<!-- mirl_unsorted_horrors&#45;&gt;mirl_collections -->
<g id="edge79" class="edge">
<title>mirl_unsorted_horrors-&gt;mirl_collections</title>
<path fill="none" stroke="black" d="M1375.72,-396.73C1277.71,-380.45 1109.32,-346.08 1073.03,-297.6 1052.57,-270.28 1055.78,-250.26 1073.03,-220.8 1081.95,-205.56 1096.53,-194.03 1111.95,-185.44"/>
<polygon fill="black" stroke="black" points="1113.5,-188.58 1120.8,-180.9 1110.31,-182.35 1113.5,-188.58"/>
</g>
</g>
</svg>