<svg width="1865pt" height="660pt" viewBox="0.00 0.00 1865.00 660.00" xmlns="http://www.w3.org/2000/svg" xmlns:xlink="http://www.w3.org/1999/xlink">
<g id="graph0" class="graph" transform="scale(1 1) rotate(0) translate(4 656)">
<polygon fill="white" stroke="none" points="-4,4 -4,-656 1860.64,-656 1860.64,4 -4,4"/>
<g id="clust1" class="cluster">
<title>cluster_platform</title>
<polygon fill="none" stroke="lightgray" points="138.64,-292.8 138.64,-644 981.64,-644 981.64,-292.8 138.64,-292.8"/>
<text xml:space="preserve" text-anchor="middle" x="560.14" y="-627.4" font-family="Times,serif" font-size="14.00">platform</text>
</g>
<g id="clust2" class="cluster">
<title>cluster_windowing</title>
<polygon fill="none" stroke="lightgray" points="266.64,-377.6 266.64,-611.2 794.64,-611.2 794.64,-377.6 266.64,-377.6"/>
<text xml:space="preserve" text-anchor="middle" x="530.64" y="-594.6" font-family="Times,serif" font-size="14.00">windowing</text>
</g>
<g id="clust3" class="cluster">
<title>cluster_buffer</title>
<polygon fill="none" stroke="lightgray" points="811.64,-208 811.64,-284.8 1085.64,-284.8 1085.64,-208 811.64,-208"/>
<text xml:space="preserve" text-anchor="middle" x="948.64" y="-268.2" font-family="Times,serif" font-size="14.00">buffer</text>
</g>
<g id="clust4" class="cluster">
<title>cluster_helper</title>
<polygon fill="none" stroke="lightgray" points="1306.64,-534.4 1306.64,-611.2 1531.64,-611.2 1531.64,-534.4 1306.64,-534.4"/>
<text xml:space="preserve" text-anchor="middle" x="1419.14" y="-594.6" font-family="Times,serif" font-size="14.00">helper</text>
</g>
<g id="clust5" class="cluster">
<title>cluster_codec</title>
<polygon fill="none" stroke="lightgray" points="1407.64,-208 1407.64,-369.6 1663.64,-369.6 1663.64,-208 1407.64,-208"/>
<text xml:space="preserve" text-anchor="middle" x="1535.64" y="-353" font-family="Times,serif" font-size="14.00">codec</text>
</g>
<g id="clust6" class="cluster">
<title>cluster_extensions</title>
<polygon fill="none" stroke="lightgray" points="1169.64,-64 1169.64,-369.6 1399.64,-369.6 1399.64,-64 1169.64,-64"/>
<text xml:space="preserve" text-anchor="middle" x="1284.64" y="-353" font-family="Times,serif" font-size="14.00">extensions</text>
</g>
<g id="clust7" class="cluster">
<title>cluster_math</title>
<polygon fill="none" stroke="lightgray" points="1702.64,-208 1702.64,-369.6 1848.64,-369.6 1848.64,-208 1702.64,-208"/>
<text xml:space="preserve" text-anchor="middle" x="1775.64" y="-353" font-family="Times,serif" font-size="14.00">math</text>
</g>
<g id="clust8" class="cluster">
<title>cluster_graphics</title>
<polygon fill="none" stroke="lightgray" points="1131.64,-377.6 1131.64,-526.4 1323.64,-526.4 1323.64,-377.6 1131.64,-377.6"/>
<text xml:space="preserve" text-anchor="middle" x="1227.64" y="-509.8" font-family="Times,serif" font-size="14.00">graphics</text>
</g>
<!-- mirl_audio -->
<g id="node1" class="node">
<title>mirl_audio</title>
<polygon fill="none" stroke="black" points="880.36,-578.4 802.92,-578.4 802.92,-542.4 880.36,-542.4 880.36,-578.4"/>
<text xml:space="preserve" text-anchor="middle" x="841.64" y="-556.2" font-family="Times,serif" font-size="14.00">mirl_audio</text>
</g>
<!-- mirl_input -->
<g id="node2" class="node">
<title>mirl_input</title>
<polygon fill="none" stroke="black" points="973.19,-578.4 898.08,-578.4 898.08,-542.4 973.19,-542.4 973.19,-578.4"/>
<text xml:space="preserve" text-anchor="middle" x="935.64" y="-556.2" font-family="Times,serif" font-size="14.00">mirl_input</text>
</g>
<!-- mirl_buffer -->
<g id="node10" class="node">
<title>mirl_buffer</title>
<polygon fill="none" stroke="black" points="1077.91,-252 997.37,-252 997.37,-216 1077.91,-216 1077.91,-252"/>
<text xml:space="preserve" text-anchor="middle" x="1037.64" y="-229.8" font-family="Times,serif" font-size="14.00">mirl_buffer</text>
</g>
<!-- mirl_input&#45;&gt;mirl_buffer -->
<g id="edge30" class="edge">
<title>mirl_input-&gt;mirl_buffer</title>
<path fill="none" stroke="black" d="M938.02,-541.96C944.35,-498.49 963.77,-382.4 1001.64,-292.8 1006.1,-282.24 1012.35,-271.39 1018.38,-261.99"/>
<polygon fill="black" stroke="black" points="1021.28,-263.95 1023.92,-253.69 1015.46,-260.06 1021.28,-263.95"/>
</g>
<!-- mirl_system -->
<g id="node3" class="node">
<title>mirl_system</title>
<polygon fill="none" stroke="black" points="714.25,-336.8 629.03,-336.8 629.03,-300.8 714.25,-300.8 714.25,-336.8"/>
<text xml:space="preserve" text-anchor="middle" x="671.64" y="-314.6" font-family="Times,serif" font-size="14.00">mirl_system</text>
</g>
<!-- mirl_system&#45;&gt;mirl_buffer -->
<g id="edge34" class="edge">
<title>mirl_system-&gt;mirl_buffer</title>
<path fill="none" stroke="black" d="M714.55,-307.24C737.81,-301.97 767.14,-296.04 793.64,-292.8 815.16,-290.17 968.82,-293.59 988.64,-284.8 1000.4,-279.59 1010.83,-270.14 1019.01,-260.87"/>
<polygon fill="black" stroke="black" points="1021.55,-263.29 1025.18,-253.34 1016.13,-258.86 1021.55,-263.29"/>
</g>
<!-- mirl_extensions -->
<g id="node17" class="node">
<title>mirl_extensions</title>
<polygon fill="none" stroke="black" points="1391.36,-336.8 1285.92,-336.8 1285.92,-300.8 1391.36,-300.8 1391.36,-336.8"/>
<text xml:space="preserve" text-anchor="middle" x="1338.64" y="-314.6" font-family="Times,serif" font-size="14.00">mirl_extensions</text>
</g>
<!-- mirl_system&#45;&gt;mirl_extensions -->
<g id="edge35" class="edge">
<title>mirl_system-&gt;mirl_extensions</title>
<path fill="none" stroke="black" d="M714.63,-318.8C901.15,-318.8 1087.67,-318.8 1274.19,-318.8"/>
<polygon fill="black" stroke="black" points="1274.11,-322.3 1284.11,-318.8 1274.11,-315.3 1274.11,-322.3"/>
</g>
<!-- mirl_terminal -->
<g id="node4" class="node">
<title>mirl_terminal</title>
<polygon fill="none" stroke="black" points="259.13,-421.6 166.15,-421.6 166.15,-385.6 259.13,-385.6 259.13,-421.6"/>
<text xml:space="preserve" text-anchor="middle" x="212.64" y="-399.4" font-family="Times,serif" font-size="14.00">mirl_terminal</text>
</g>
<!-- mirl_windowing -->
<g id="node5" class="node">
<title>mirl_windowing</title>
<polygon fill="none" stroke="black" points="764.31,-578.4 654.97,-578.4 654.97,-542.4 764.31,-542.4 764.31,-578.4"/>
<text xml:space="preserve" text-anchor="middle" x="709.64" y="-556.2" font-family="Times,serif" font-size="14.00">mirl_windowing</text>
</g>
<!-- mirl_windowing_console -->
<g id="node6" class="node">
<title>mirl_windowing_console</title>
<polygon fill="none" stroke="black" points="434.19,-493.6 275.09,-493.6 275.09,-457.6 434.19,-457.6 434.19,-493.6"/>
<text xml:space="preserve" text-anchor="middle" x="354.64" y="-471.4" font-family="Times,serif" font-size="14.00">mirl_windowing_console</text>
</g>
<!-- mirl_windowing&#45;&gt;mirl_windowing_console -->
<g id="edge41" class="edge">
<title>mirl_windowing-&gt;mirl_windowing_console</title>
<path fill="none" stroke="black" stroke-dasharray="1,5" d="M654.55,-558.71C599.8,-556.62 514.06,-549.49 443.64,-526.4 424.55,-520.14 404.9,-509.65 388.94,-499.91"/>
<polygon fill="black" stroke="black" points="391.12,-497.14 380.79,-494.79 387.4,-503.07 391.12,-497.14"/>
</g>
<!-- mirl_windowing_core -->
<g id="node7" class="node">
<title>mirl_windowing_core</title>
<polygon fill="none" stroke="black" points="786.85,-421.6 646.43,-421.6 646.43,-385.6 786.85,-385.6 786.85,-421.6"/>
<text xml:space="preserve" text-anchor="middle" x="716.64" y="-399.4" font-family="Times,serif" font-size="14.00">mirl_windowing_core</text>
</g>
<!-- mirl_windowing&#45;&gt;mirl_windowing_core -->
<g id="edge40" class="edge">
<title>mirl_windowing-&gt;mirl_windowing_core</title>
<path fill="none" stroke="black" d="M753.08,-541.95C763.55,-536.84 772.61,-531.3 775.64,-526.4 791.72,-500.39 788.09,-485.53 775.64,-457.6 770.75,-446.64 762.36,-437 753.4,-429.05"/>
<polygon fill="black" stroke="black" points="755.87,-426.55 745.92,-422.92 751.44,-431.97 755.87,-426.55"/>
</g>
<!-- mirl_windowing_glfw -->
<g id="node8" class="node">
<title>mirl_windowing_glfw</title>
<polygon fill="none" stroke="black" points="594.64,-493.6 452.64,-493.6 452.64,-457.6 594.64,-457.6 594.64,-493.6"/>
<text xml:space="preserve" text-anchor="middle" x="523.64" y="-471.4" font-family="Times,serif" font-size="14.00">mirl_windowing_glfw</text>
</g>
<!-- mirl_windowing&#45;&gt;mirl_windowing_glfw -->
<g id="edge42" class="edge">
<title>mirl_windowing-&gt;mirl_windowing_glfw</title>
<path fill="none" stroke="black" stroke-dasharray="1,5" d="M654.72,-545.21C637.99,-540.12 619.76,-533.78 603.64,-526.4 587.84,-519.17 571.38,-509.36 557.52,-500.37"/>
<polygon fill="black" stroke="black" points="559.47,-497.46 549.21,-494.84 555.6,-503.29 559.47,-497.46"/>
</g>
<!-- mirl_windowing_minifb -->
<g id="node9" class="node">
<title>mirl_windowing_minifb</title>
<polygon fill="none" stroke="black" points="766.47,-493.6 612.81,-493.6 612.81,-457.6 766.47,-457.6 766.47,-493.6"/>
<text xml:space="preserve" text-anchor="middle" x="689.64" y="-471.4" font-family="Times,serif" font-size="14.00">mirl_windowing_minifb</text>
</g>
<!-- mirl_windowing&#45;&gt;mirl_windowing_minifb -->
<g id="edge43" class="edge">
<title>mirl_windowing-&gt;mirl_windowing_minifb</title>
<path fill="none" stroke="black" stroke-dasharray="1,5" d="M705.5,-542.24C702.91,-531.55 699.52,-517.52 696.54,-505.17"/>
<polygon fill="black" stroke="black" points="699.95,-504.39 694.2,-495.49 693.15,-506.03 699.95,-504.39"/>
</g>
<!-- mirl_windowing&#45;&gt;mirl_buffer -->
<g id="edge38" class="edge">
<title>mirl_windowing-&gt;mirl_buffer</title>
<path fill="none" stroke="black" d="M744.8,-541.9C752.48,-538.83 760.69,-536.07 768.64,-534.4 783.84,-531.2 1316.74,-537.46 1327.64,-526.4 1350.85,-502.85 1350.44,-401.55 1327.64,-377.6 1315.21,-364.55 1180.71,-379.48 1165.64,-369.6 1133.79,-348.72 1153.03,-321.19 1127.64,-292.8 1115.35,-279.06 1099.06,-267.29 1083.72,-258.02"/>
<polygon fill="black" stroke="black" points="1085.55,-255.03 1075.14,-253.05 1082.04,-261.09 1085.55,-255.03"/>
</g>
<!-- mirl_windowing&#45;&gt;mirl_extensions -->
<g id="edge39" class="edge">
<title>mirl_windowing-&gt;mirl_extensions</title>
<path fill="none" stroke="black" d="M744.8,-541.9C752.48,-538.82 760.69,-536.07 768.64,-534.4 784.65,-531.03 1346.15,-538.05 1357.64,-526.4 1404.51,-478.89 1373.58,-391.92 1352.91,-347.5"/>
<polygon fill="black" stroke="black" points="1356.09,-346.02 1348.59,-338.54 1349.78,-349.07 1356.09,-346.02"/>
</g>
<!-- mirl_windowing_console&#45;&gt;mirl_system -->
<g id="edge47" class="edge">
<title>mirl_windowing_console-&gt;mirl_system</title>
<path fill="none" stroke="black" d="M274.75,-463.13C226.77,-454.43 172.26,-440.68 157.64,-421.6 145.74,-406.08 144.61,-392.18 157.64,-377.6 187.93,-343.72 491.71,-327.28 617.52,-321.88"/>
<polygon fill="black" stroke="black" points="617.41,-325.39 627.25,-321.47 617.11,-318.4 617.41,-325.39"/>
</g>
<!-- mirl_windowing_console&#45;&gt;mirl_terminal -->
<g id="edge48" class="edge">
<title>mirl_windowing_console-&gt;mirl_terminal</title>
<path fill="none" stroke="black" d="M319.17,-457.12C300.57,-447.94 277.57,-436.61 257.71,-426.82"/>
<polygon fill="black" stroke="black" points="259.53,-423.81 249.01,-422.53 256.43,-430.09 259.53,-423.81"/>
</g>
<!-- mirl_windowing_console&#45;&gt;mirl_windowing_core -->
<g id="edge49" class="edge">
<title>mirl_windowing_console-&gt;mirl_windowing_core</title>
<path fill="none" stroke="black" d="M434.69,-459.27C437.71,-458.71 440.7,-458.15 443.64,-457.6 528.29,-441.86 552.58,-439.82 634.97,-423.15"/>
<polygon fill="black" stroke="black" points="635.57,-426.6 644.67,-421.17 634.17,-419.74 635.57,-426.6"/>
</g>
<!-- mirl_windowing_console&#45;&gt;mirl_buffer -->
<g id="edge44" class="edge">
<title>mirl_windowing_console-&gt;mirl_buffer</title>
<path fill="none" stroke="black" d="M274.6,-469.27C206.01,-462.85 114.73,-449.27 91.64,-421.6 82.37,-410.49 79.88,-303.65 90.64,-292.8 108.2,-275.08 965.67,-294.54 988.64,-284.8 1000.49,-279.77 1010.93,-270.36 1019.1,-261.06"/>
<polygon fill="black" stroke="black" points="1021.65,-263.46 1025.25,-253.5 1016.22,-259.05 1021.65,-263.46"/>
</g>
<!-- mirl_buffer_interpolation -->
<g id="node11" class="node">
<title>mirl_buffer_interpolation</title>
<polygon fill="none" stroke="black" points="979.17,-252 820.1,-252 820.1,-216 979.17,-216 979.17,-252"/>
<text xml:space="preserve" text-anchor="middle" x="899.64" y="-229.8" font-family="Times,serif" font-size="14.00">mirl_buffer_interpolation</text>
</g>
<!-- mirl_windowing_console&#45;&gt;mirl_buffer_interpolation -->
<g id="edge45" class="edge">
<title>mirl_windowing_console-&gt;mirl_buffer_interpolation</title>
<path fill="none" stroke="black" d="M274.69,-473.04C188.55,-469.48 59.61,-458.02 28.64,-421.6 -8.45,-378 -10.48,-334.6 28.64,-292.8 81.07,-236.78 595.66,-233.22 808.36,-234.18"/>
<polygon fill="black" stroke="black" points="808.26,-237.68 818.28,-234.23 808.29,-230.68 808.26,-237.68"/>
</g>
<!-- mirl_windowing_console&#45;&gt;mirl_extensions -->
<g id="edge46" class="edge">
<title>mirl_windowing_console-&gt;mirl_extensions</title>
<path fill="none" stroke="black" d="M434.64,-458.98C437.67,-458.5 440.68,-458.03 443.64,-457.6 599.24,-434.83 646.18,-470.51 795.64,-421.6 832.37,-409.58 834.04,-390 870.64,-377.6 1009.13,-330.67 1182.18,-321.09 1274.16,-319.59"/>
<polygon fill="black" stroke="black" points="1274.04,-323.09 1283.99,-319.46 1273.95,-316.09 1274.04,-323.09"/>
</g>
<!-- mirl_windowing_core&#45;&gt;mirl_system -->
<g id="edge52" class="edge">
<title>mirl_windowing_core-&gt;mirl_system</title>
<path fill="none" stroke="black" d="M707.32,-385.44C701.32,-374.42 693.4,-359.84 686.55,-347.23"/>
<polygon fill="black" stroke="black" points="689.68,-345.66 681.83,-338.55 683.53,-349.01 689.68,-345.66"/>
</g>
<!-- mirl_windowing_core&#45;&gt;mirl_buffer -->
<g id="edge50" class="edge">
<title>mirl_windowing_core-&gt;mirl_buffer</title>
<path fill="none" stroke="black" d="M772.78,-385.12C780.47,-380.95 787.74,-375.83 793.64,-369.6 818.61,-343.21 792.38,-314.34 821.64,-292.8 836.6,-281.79 971.68,-292.39 988.64,-284.8 1000.39,-279.54 1010.81,-270.09 1018.99,-260.82"/>
<polygon fill="black" stroke="black" points="1021.52,-263.26 1025.16,-253.31 1016.11,-258.82 1021.52,-263.26"/>
</g>
<!-- mirl_windowing_core&#45;&gt;mirl_extensions -->
<g id="edge51" class="edge">
<title>mirl_windowing_core-&gt;mirl_extensions</title>
<path fill="none" stroke="black" d="M787.1,-387.59C805.15,-384.03 824.57,-380.44 842.64,-377.6 996.79,-353.37 1179.37,-334.64 1274.2,-325.65"/>
<polygon fill="black" stroke="black" points="1274.46,-329.14 1284.09,-324.72 1273.81,-322.17 1274.46,-329.14"/>
</g>
<!-- mirl_windowing_glfw&#45;&gt;mirl_system -->
<g id="edge55" class="edge">
<title>mirl_windowing_glfw-&gt;mirl_system</title>
<path fill="none" stroke="black" d="M540.33,-457.14C566.45,-429.82 617.11,-376.83 647.3,-345.26"/>
<polygon fill="black" stroke="black" points="649.81,-347.7 654.19,-338.05 644.75,-342.86 649.81,-347.7"/>
</g>
<!-- mirl_windowing_glfw&#45;&gt;mirl_windowing_core -->
<g id="edge56" class="edge">
<title>mirl_windowing_glfw-&gt;mirl_windowing_core</title>
<path fill="none" stroke="black" d="M571.84,-457.12C597.96,-447.64 630.44,-435.86 658.02,-425.86"/>
<polygon fill="black" stroke="black" points="659.09,-429.2 667.29,-422.5 656.7,-422.62 659.09,-429.2"/>
</g>
<!-- mirl_windowing_glfw&#45;&gt;mirl_buffer -->
<g id="edge53" class="edge">
<title>mirl_windowing_glfw-&gt;mirl_buffer</title>
<path fill="none" stroke="black" d="M452.18,-459.03C449.3,-458.53 446.44,-458.05 443.64,-457.6 368.82,-445.71 157.42,-475.94 104.64,-421.6 91.83,-408.41 93.49,-300.02 100.64,-292.8 118,-275.28 965.93,-294.43 988.64,-284.8 1000.49,-279.77 1010.93,-270.36 1019.1,-261.06"/>
<polygon fill="black" stroke="black" points="1021.65,-263.46 1025.25,-253.5 1016.22,-259.05 1021.65,-263.46"/>
</g>
<!-- mirl_windowing_glfw&#45;&gt;mirl_extensions -->
<g id="edge54" class="edge">
<title>mirl_windowing_glfw-&gt;mirl_extensions</title>
<path fill="none" stroke="black" d="M595.12,-459.13C597.99,-458.6 600.84,-458.09 603.64,-457.6 721.62,-437.14 752.71,-442.34 870.64,-421.6 947.85,-408.02 1165.26,-359.21 1274.42,-334.44"/>
<polygon fill="black" stroke="black" points="1275.14,-337.86 1284.11,-332.24 1273.59,-331.04 1275.14,-337.86"/>
</g>
<!-- mirl_windowing_minifb&#45;&gt;mirl_system -->
<g id="edge59" class="edge">
<title>mirl_windowing_minifb-&gt;mirl_system</title>
<path fill="none" stroke="black" d="M665.61,-457.28C654.89,-448.04 643.39,-435.68 637.64,-421.6 630.24,-403.5 632.5,-396.47 637.64,-377.6 640.58,-366.79 646.11,-355.95 651.88,-346.62"/>
<polygon fill="black" stroke="black" points="654.69,-348.7 657.27,-338.42 648.85,-344.85 654.69,-348.7"/>
</g>
<!-- mirl_windowing_minifb&#45;&gt;mirl_windowing_core -->
<g id="edge60" class="edge">
<title>mirl_windowing_minifb-&gt;mirl_windowing_core</title>
<path fill="none" stroke="black" d="M696.31,-457.3C699.22,-449.75 702.71,-440.72 705.96,-432.28"/>
<polygon fill="black" stroke="black" points="709.16,-433.71 709.5,-423.12 702.63,-431.19 709.16,-433.71"/>
</g>
<!-- mirl_windowing_minifb&#45;&gt;mirl_buffer -->
<g id="edge57" class="edge">
<title>mirl_windowing_minifb-&gt;mirl_buffer</title>
<path fill="none" stroke="black" d="M612.36,-458.87C609.42,-458.42 606.5,-457.99 603.64,-457.6 551.86,-450.52 170.15,-459.94 134.64,-421.6 95.74,-379.6 94.35,-333.47 134.64,-292.8 151.34,-275.95 966.8,-294.07 988.64,-284.8 1000.48,-279.77 1010.93,-270.36 1019.1,-261.06"/>
<polygon fill="black" stroke="black" points="1021.65,-263.46 1025.25,-253.5 1016.22,-259.04 1021.65,-263.46"/>
</g>
<!-- mirl_windowing_minifb&#45;&gt;mirl_extensions -->
<g id="edge58" class="edge">
<title>mirl_windowing_minifb-&gt;mirl_extensions</title>
<path fill="none" stroke="black" d="M766.95,-470.86C867.15,-464.92 1035.47,-450.85 1089.64,-421.6 1112.38,-409.32 1105.79,-391.39 1127.64,-377.6 1172.26,-349.45 1230.58,-334.83 1274.6,-327.34"/>
<polygon fill="black" stroke="black" points="1274.94,-330.83 1284.25,-325.79 1273.82,-323.92 1274.94,-330.83"/>
</g>
<!-- mirl_extensions_math -->
<g id="node20" class="node">
<title>mirl_extensions_math</title>
<polygon fill="none" stroke="black" points="1339.85,-252 1199.43,-252 1199.43,-216 1339.85,-216 1339.85,-252"/>
<text xml:space="preserve" text-anchor="middle" x="1269.64" y="-229.8" font-family="Times,serif" font-size="14.00">mirl_extensions_math</text>
</g>
<!-- mirl_buffer_interpolation&#45;&gt;mirl_extensions_math -->
<g id="edge1" class="edge">
<title>mirl_buffer_interpolation-&gt;mirl_extensions_math</title>
<path fill="none" stroke="black" d="M922.95,-252.39C941.84,-265.9 969.8,-282.89 997.64,-288.8 1017.1,-292.93 1157.18,-292.93 1176.64,-288.8 1180.92,-287.89 1181.76,-286.83 1185.64,-284.8 1201.11,-276.73 1217.64,-266.99 1231.91,-258.2"/>
<polygon fill="black" stroke="black" points="1233.45,-261.36 1240.1,-253.11 1229.76,-255.42 1233.45,-261.36"/>
</g>
<!-- mirl_build_tools -->
<g id="node12" class="node">
<title>mirl_build_tools</title>
<polygon fill="none" stroke="black" points="1424.31,-578.4 1314.97,-578.4 1314.97,-542.4 1424.31,-542.4 1424.31,-578.4"/>
<text xml:space="preserve" text-anchor="middle" x="1369.64" y="-556.2" font-family="Times,serif" font-size="14.00">mirl_build_tools</text>
</g>
<!-- mirl_derive -->
<g id="node13" class="node">
<title>mirl_derive</title>
<polygon fill="none" stroke="#0000ee" points="1523.29,-578.4 1441.98,-578.4 1441.98,-542.4 1523.29,-542.4 1523.29,-578.4"/>
<text xml:space="preserve" text-anchor="middle" x="1482.64" y="-556.2" font-family="Times,serif" font-size="14.00">mirl_derive</text>
</g>
<!-- mirl_codec_info -->
<g id="node14" class="node">
<title>mirl_codec_info</title>
<polygon fill="none" stroke="black" points="1655.9,-336.8 1547.38,-336.8 1547.38,-300.8 1655.9,-300.8 1655.9,-336.8"/>
<text xml:space="preserve" text-anchor="middle" x="1601.64" y="-314.6" font-family="Times,serif" font-size="14.00">mirl_codec_info</text>
</g>
<!-- mirl_values -->
<g id="node15" class="node">
<title>mirl_values</title>
<polygon fill="none" stroke="black" points="1497.69,-252 1415.59,-252 1415.59,-216 1497.69,-216 1497.69,-252"/>
<text xml:space="preserve" text-anchor="middle" x="1456.64" y="-229.8" font-family="Times,serif" font-size="14.00">mirl_values</text>
</g>
<!-- mirl_codec_info&#45;&gt;mirl_values -->
<g id="edge5" class="edge">
<title>mirl_codec_info-&gt;mirl_values</title>
<path fill="none" stroke="black" d="M1571.24,-300.44C1549.59,-288.08 1520.27,-271.33 1496.7,-257.88"/>
<polygon fill="black" stroke="black" points="1498.73,-255 1488.31,-253.09 1495.26,-261.08 1498.73,-255"/>
</g>
<!-- mirl_codec_info&#45;&gt;mirl_extensions -->
<g id="edge2" class="edge">
<title>mirl_codec_info-&gt;mirl_extensions</title>
<path fill="none" stroke="black" d="M1581.65,-337.17C1569.74,-347.52 1553.99,-360.22 1538.64,-369.6 1534.9,-371.88 1533.92,-372.69 1529.64,-373.6 1516.92,-376.3 1425.36,-376.3 1412.64,-373.6 1393.65,-369.57 1376.03,-357.04 1362.75,-344.97"/>
<polygon fill="black" stroke="black" points="1365.4,-342.67 1355.77,-338.26 1360.55,-347.71 1365.4,-342.67"/>
</g>
<!-- mirl_geometry_core -->
<g id="node22" class="node">
<title>mirl_geometry_core</title>
<polygon fill="none" stroke="black" points="1840.78,-252 1710.49,-252 1710.49,-216 1840.78,-216 1840.78,-252"/>
<text xml:space="preserve" text-anchor="middle" x="1775.64" y="-229.8" font-family="Times,serif" font-size="14.00">mirl_geometry_core</text>
</g>
<!-- mirl_codec_info&#45;&gt;mirl_geometry_core -->
<g id="edge3" class="edge">
<title>mirl_codec_info-&gt;mirl_geometry_core</title>
<path fill="none" stroke="black" d="M1638.12,-300.44C1664.48,-287.9 1700.3,-270.85 1728.78,-257.3"/>
<polygon fill="black" stroke="black" points="1730.02,-260.58 1737.55,-253.13 1727.01,-254.26 1730.02,-260.58"/>
</g>
<!-- mirl_std_exposed -->
<g id="node27" class="node">
<title>mirl_std_exposed</title>
<polygon fill="none" stroke="black" points="1599.41,-36 1483.87,-36 1483.87,0 1599.41,0 1599.41,-36"/>
<text xml:space="preserve" text-anchor="middle" x="1541.64" y="-13.8" font-family="Times,serif" font-size="14.00">mirl_std_exposed</text>
</g>
<!-- mirl_codec_info&#45;&gt;mirl_std_exposed -->
<g id="edge4" class="edge">
<title>mirl_codec_info-&gt;mirl_std_exposed</title>
<path fill="none" stroke="black" d="M1604.5,-300.73C1609.2,-269.24 1616.79,-200.11 1603.64,-144 1595.18,-107.89 1574.65,-70.25 1559.53,-45.84"/>
<polygon fill="black" stroke="black" points="1562.55,-44.07 1554.24,-37.5 1556.64,-47.82 1562.55,-44.07"/>
</g>
<!-- mirl_values&#45;&gt;mirl_extensions -->
<g id="edge36" class="edge">
<title>mirl_values-&gt;mirl_extensions</title>
<path fill="none" stroke="black" d="M1440.52,-252.46C1430.53,-262.68 1417.07,-275.37 1403.64,-284.8 1398.59,-288.34 1393.11,-291.74 1387.54,-294.9"/>
<polygon fill="black" stroke="black" points="1385.95,-291.78 1378.83,-299.63 1389.28,-297.94 1385.95,-291.78"/>
</g>
<!-- mirl_values_core -->
<g id="node16" class="node">
<title>mirl_values_core</title>
<polygon fill="none" stroke="black" points="1529.23,-336.8 1416.05,-336.8 1416.05,-300.8 1529.23,-300.8 1529.23,-336.8"/>
<text xml:space="preserve" text-anchor="middle" x="1472.64" y="-314.6" font-family="Times,serif" font-size="14.00">mirl_values_core</text>
</g>
<!-- mirl_extensions_core -->
<g id="node19" class="node">
<title>mirl_extensions_core</title>
<polygon fill="none" stroke="black" points="1391.9,-108 1255.38,-108 1255.38,-72 1391.9,-72 1391.9,-108"/>
<text xml:space="preserve" text-anchor="middle" x="1323.64" y="-85.8" font-family="Times,serif" font-size="14.00">mirl_extensions_core</text>
</g>
<!-- mirl_values_core&#45;&gt;mirl_extensions_core -->
<g id="edge37" class="edge">
<title>mirl_values_core-&gt;mirl_extensions_core</title>
<path fill="none" stroke="black" d="M1513.12,-300.42C1518.94,-296.17 1524.13,-291 1527.64,-284.8 1544.46,-255.1 1544.75,-237.54 1527.64,-208 1527.05,-206.99 1423.15,-147.69 1363.88,-113.91"/>
<polygon fill="black" stroke="black" points="1365.81,-110.98 1355.38,-109.07 1362.34,-117.07 1365.81,-110.98"/>
</g>
<!-- mirl_extensions&#45;&gt;mirl_input -->
<g id="edge14" class="edge">
<title>mirl_extensions-&gt;mirl_input</title>
<path fill="none" stroke="black" stroke-dasharray="1,5" d="M1357.26,-337.12C1369.61,-347.8 1386.62,-361.04 1403.64,-369.6 1415.2,-375.42 1423.85,-367.27 1431.64,-377.6 1471.46,-430.4 1476.93,-478.21 1431.64,-526.4 1421.8,-536.86 1316.97,-533.47 1302.64,-534.4 1188.85,-541.8 1055.25,-551.04 984.83,-555.95"/>
<polygon fill="black" stroke="black" points="984.92,-552.44 975.18,-556.63 985.4,-559.42 984.92,-552.44"/>
</g>
<!-- mirl_extensions&#45;&gt;mirl_buffer -->
<g id="edge8" class="edge">
<title>mirl_extensions-&gt;mirl_buffer</title>
<path fill="none" stroke="black" d="M1285.43,-310.23C1250.91,-304.69 1205.17,-296.16 1165.64,-284.8 1139.31,-277.23 1110.83,-266.43 1087.43,-256.81"/>
<polygon fill="black" stroke="black" points="1089.04,-253.69 1078.46,-253.08 1086.35,-260.15 1089.04,-253.69"/>
</g>
<!-- mirl_extensions&#45;&gt;mirl_values_core -->
<g id="edge15" class="edge">
<title>mirl_extensions-&gt;mirl_values_core</title>
<path fill="none" stroke="black" stroke-dasharray="1,5" d="M1391.77,-318.8C1396.02,-318.8 1400.27,-318.8 1404.52,-318.8"/>
<polygon fill="black" stroke="black" points="1404.26,-322.3 1414.26,-318.8 1404.26,-315.3 1404.26,-322.3"/>
</g>
<!-- mirl_extensions_conversion -->
<g id="node18" class="node">
<title>mirl_extensions_conversion</title>
<polygon fill="none" stroke="black" points="1351.57,-180 1177.71,-180 1177.71,-144 1351.57,-144 1351.57,-180"/>
<text xml:space="preserve" text-anchor="middle" x="1264.64" y="-157.8" font-family="Times,serif" font-size="14.00">mirl_extensions_conversion</text>
</g>
<!-- mirl_extensions&#45;&gt;mirl_extensions_conversion -->
<g id="edge10" class="edge">
<title>mirl_extensions-&gt;mirl_extensions_conversion</title>
<path fill="none" stroke="black" d="M1285.64,-312.92C1248.16,-308.24 1202.54,-299.64 1190.64,-284.8 1169.29,-258.17 1173.91,-237.75 1190.64,-208 1195.41,-199.52 1202.49,-192.45 1210.41,-186.63"/>
<polygon fill="black" stroke="black" points="1212.3,-189.58 1218.75,-181.17 1208.46,-183.72 1212.3,-189.58"/>
</g>
<!-- mirl_extensions&#45;&gt;mirl_extensions_core -->
<g id="edge11" class="edge">
<title>mirl_extensions-&gt;mirl_extensions_core</title>
<path fill="none" stroke="black" d="M1344.31,-300.43C1345.84,-295.42 1347.4,-289.92 1348.64,-284.8 1351.42,-273.3 1366.58,-191.79 1367.64,-180 1369.07,-164.06 1373.07,-159.05 1367.64,-144 1364.04,-134.03 1357.66,-124.61 1350.85,-116.55"/>
<polygon fill="black" stroke="black" points="1353.46,-114.22 1344.13,-109.2 1348.29,-118.94 1353.46,-114.22"/>
</g>
<!-- mirl_extensions&#45;&gt;mirl_extensions_math -->
<g id="edge12" class="edge">
<title>mirl_extensions-&gt;mirl_extensions_math</title>
<path fill="none" stroke="black" d="M1324.34,-300.64C1314.79,-289.17 1302.03,-273.87 1291.25,-260.93"/>
<polygon fill="black" stroke="black" points="1294.22,-259.02 1285.12,-253.58 1288.84,-263.5 1294.22,-259.02"/>
</g>
<!-- mirl_extensions&#45;&gt;mirl_geometry_core -->
<g id="edge13" class="edge">
<title>mirl_extensions-&gt;mirl_geometry_core</title>
<path fill="none" stroke="black" stroke-dasharray="1,5" d="M1377.53,-300.41C1385.98,-297.32 1394.99,-294.54 1403.64,-292.8 1461.18,-281.21 1610.51,-298.25 1667.64,-284.8 1691.6,-279.16 1716.67,-267.97 1736.61,-257.63"/>
<polygon fill="black" stroke="black" points="1738.03,-260.84 1745.21,-253.04 1734.74,-254.66 1738.03,-260.84"/>
</g>
<!-- mirl_collections -->
<g id="node26" class="node">
<title>mirl_collections</title>
<polygon fill="none" stroke="black" points="1595.13,-180 1488.15,-180 1488.15,-144 1595.13,-144 1595.13,-180"/>
<text xml:space="preserve" text-anchor="middle" x="1541.64" y="-157.8" font-family="Times,serif" font-size="14.00">mirl_collections</text>
</g>
<!-- mirl_extensions&#45;&gt;mirl_collections -->
<g id="edge9" class="edge">
<title>mirl_extensions-&gt;mirl_collections</title>
<path fill="none" stroke="black" stroke-dasharray="1,5" d="M1352.7,-300.38C1356.43,-295.46 1360.33,-290.02 1363.64,-284.8 1384.22,-252.28 1374.28,-232.88 1403.64,-208 1424.24,-190.55 1451.77,-179.82 1476.82,-173.25"/>
<polygon fill="black" stroke="black" points="1477.39,-176.71 1486.28,-170.95 1475.73,-169.91 1477.39,-176.71"/>
</g>
<!-- mirl_extensions_conversion&#45;&gt;mirl_buffer -->
<g id="edge16" class="edge">
<title>mirl_extensions_conversion-&gt;mirl_buffer</title>
<path fill="none" stroke="black" stroke-dasharray="1,5" d="M1208.21,-180.4C1171.62,-191.68 1124.34,-206.27 1088.84,-217.21"/>
<polygon fill="black" stroke="black" points="1088.19,-213.75 1079.67,-220.04 1090.26,-220.44 1088.19,-213.75"/>
</g>
<!-- mirl_extensions_conversion&#45;&gt;mirl_values_core -->
<g id="edge18" class="edge">
<title>mirl_extensions_conversion-&gt;mirl_values_core</title>
<path fill="none" stroke="black" stroke-dasharray="1,5" d="M1351.78,-167.72C1412.86,-173.06 1486.97,-184.34 1506.64,-208 1528.46,-234.25 1519.94,-253.36 1506.64,-284.8 1505.65,-287.14 1504.4,-289.39 1502.98,-291.55"/>
<polygon fill="black" stroke="black" points="1500.38,-289.2 1496.77,-299.17 1505.8,-293.63 1500.38,-289.2"/>
</g>
<!-- mirl_extensions_conversion&#45;&gt;mirl_extensions_core -->
<g id="edge17" class="edge">
<title>mirl_extensions_conversion-&gt;mirl_extensions_core</title>
<path fill="none" stroke="black" d="M1279.22,-143.7C1286.08,-135.56 1294.4,-125.69 1301.98,-116.7"/>
<polygon fill="black" stroke="black" points="1304.48,-119.16 1308.25,-109.26 1299.13,-114.65 1304.48,-119.16"/>
</g>
<!-- mirl_extensions_core&#45;&gt;mirl_std_exposed -->
<g id="edge19" class="edge">
<title>mirl_extensions_core-&gt;mirl_std_exposed</title>
<path fill="none" stroke="black" d="M1378.09,-71.52C1407.98,-61.92 1445.25,-49.95 1476.66,-39.86"/>
<polygon fill="black" stroke="black" points="1477.62,-43.23 1486.07,-36.84 1475.48,-36.57 1477.62,-43.23"/>
</g>
<!-- mirl_extensions_math&#45;&gt;mirl_extensions_conversion -->
<g id="edge20" class="edge">
<title>mirl_extensions_math-&gt;mirl_extensions_conversion</title>
<path fill="none" stroke="black" d="M1268.4,-215.7C1267.88,-208.41 1267.26,-199.73 1266.68,-191.54"/>
<polygon fill="black" stroke="black" points="1270.17,-191.34 1265.97,-181.61 1263.19,-191.84 1270.17,-191.34"/>
</g>
<!-- mirl_extensions_math&#45;&gt;mirl_extensions_core -->
<g id="edge21" class="edge">
<title>mirl_extensions_math-&gt;mirl_extensions_core</title>
<path fill="none" stroke="black" d="M1319.68,-215.6C1335.65,-207.41 1351.53,-195.85 1360.64,-180 1372.21,-159.86 1360.36,-135.4 1347.08,-117.22"/>
<polygon fill="black" stroke="black" points="1349.98,-115.24 1341.06,-109.53 1344.47,-119.56 1349.98,-115.24"/>
</g>
<!-- mirl_geometry -->
<g id="node21" class="node">
<title>mirl_geometry</title>
<polygon fill="none" stroke="black" points="1818.24,-336.8 1719.04,-336.8 1719.04,-300.8 1818.24,-300.8 1818.24,-336.8"/>
<text xml:space="preserve" text-anchor="middle" x="1768.64" y="-314.6" font-family="Times,serif" font-size="14.00">mirl_geometry</text>
</g>
<!-- mirl_geometry&#45;&gt;mirl_extensions -->
<g id="edge22" class="edge">
<title>mirl_geometry-&gt;mirl_extensions</title>
<path fill="none" stroke="black" d="M1750.95,-337.07C1735.94,-350.92 1713.01,-368.43 1688.64,-373.6 1673.64,-376.78 1427.64,-376.78 1412.64,-373.6 1393.65,-369.57 1376.03,-357.04 1362.75,-344.97"/>
<polygon fill="black" stroke="black" points="1365.4,-342.67 1355.77,-338.26 1360.55,-347.71 1365.4,-342.67"/>
</g>
<!-- mirl_geometry&#45;&gt;mirl_geometry_core -->
<g id="edge23" class="edge">
<title>mirl_geometry-&gt;mirl_geometry_core</title>
<path fill="none" stroke="black" d="M1770.09,-300.64C1770.99,-289.95 1772.18,-275.92 1773.22,-263.57"/>
<polygon fill="black" stroke="black" points="1776.68,-264.19 1774.04,-253.93 1769.71,-263.6 1776.68,-264.19"/>
</g>
<!-- mirl_graphics -->
<g id="node23" class="node">
<title>mirl_graphics</title>
<polygon fill="none" stroke="black" points="1315.52,-493.6 1221.76,-493.6 1221.76,-457.6 1315.52,-457.6 1315.52,-493.6"/>
<text xml:space="preserve" text-anchor="middle" x="1268.64" y="-471.4" font-family="Times,serif" font-size="14.00">mirl_graphics</text>
</g>
<!-- mirl_graphics&#45;&gt;mirl_buffer -->
<g id="edge24" class="edge">
<title>mirl_graphics-&gt;mirl_buffer</title>
<path fill="none" stroke="black" d="M1221.47,-459.06C1188.33,-447.61 1147.38,-432.25 1132.64,-421.6 1079.16,-382.95 1053.76,-305.3 1043.5,-263.39"/>
<polygon fill="black" stroke="black" points="1046.95,-262.76 1041.29,-253.81 1040.13,-264.34 1046.95,-262.76"/>
</g>
<!-- mirl_graphics&#45;&gt;mirl_collections -->
<g id="edge25" class="edge">
<title>mirl_graphics-&gt;mirl_collections</title>
<path fill="none" stroke="black" stroke-dasharray="1,5" d="M1315.95,-469.3C1412.05,-457.45 1624.62,-425.41 1667.64,-369.6 1689.56,-341.16 1688.33,-237.35 1667.64,-208 1653.49,-187.92 1629.53,-176.75 1606.28,-170.56"/>
<polygon fill="black" stroke="black" points="1607.33,-167.21 1596.8,-168.32 1605.73,-174.02 1607.33,-167.21"/>
</g>
<!-- mirl_gui -->
<g id="node24" class="node">
<title>mirl_gui</title>
<polygon fill="none" stroke="black" points="1203.75,-493.6 1139.53,-493.6 1139.53,-457.6 1203.75,-457.6 1203.75,-493.6"/>
<text xml:space="preserve" text-anchor="middle" x="1171.64" y="-471.4" font-family="Times,serif" font-size="14.00">mirl_gui</text>
</g>
<!-- mirl_gui&#45;&gt;mirl_windowing_core -->
<g id="edge29" class="edge">
<title>mirl_gui-&gt;mirl_windowing_core</title>
<path fill="none" stroke="black" d="M1139.28,-469.62C1068.83,-458.78 899.75,-432.77 798.09,-417.13"/>
<polygon fill="black" stroke="black" points="798.86,-413.71 788.44,-415.65 797.79,-420.63 798.86,-413.71"/>
</g>
<!-- mirl_gui&#45;&gt;mirl_buffer -->
<g id="edge26" class="edge">
<title>mirl_gui-&gt;mirl_buffer</title>
<path fill="none" stroke="black" d="M1139.3,-473.29C1104.21,-469.93 1049.72,-458.64 1023.64,-421.6 990.28,-374.21 1010.21,-302.26 1025.36,-262.99"/>
<polygon fill="black" stroke="black" points="1028.58,-264.35 1029.08,-253.77 1022.09,-261.73 1028.58,-264.35"/>
</g>
<!-- mirl_gui&#45;&gt;mirl_extensions -->
<g id="edge27" class="edge">
<title>mirl_gui-&gt;mirl_extensions</title>
<path fill="none" stroke="black" d="M1201.51,-457.21C1216.9,-447.62 1235.55,-434.95 1250.64,-421.6 1276.7,-398.54 1302.23,-367.85 1319.02,-346.21"/>
<polygon fill="black" stroke="black" points="1321.65,-348.53 1324.95,-338.46 1316.09,-344.28 1321.65,-348.53"/>
</g>
<!-- mirl_rendering -->
<g id="node25" class="node">
<title>mirl_rendering</title>
<polygon fill="none" stroke="black" points="1241.63,-421.6 1141.65,-421.6 1141.65,-385.6 1241.63,-385.6 1241.63,-421.6"/>
<text xml:space="preserve" text-anchor="middle" x="1191.64" y="-399.4" font-family="Times,serif" font-size="14.00">mirl_rendering</text>
</g>
<!-- mirl_gui&#45;&gt;mirl_rendering -->
<g id="edge28" class="edge">
<title>mirl_gui-&gt;mirl_rendering</title>
<path fill="none" stroke="black" d="M1176.58,-457.3C1178.71,-449.84 1181.26,-440.92 1183.65,-432.57"/>
<polygon fill="black" stroke="black" points="1186.95,-433.74 1186.34,-423.16 1180.22,-431.81 1186.95,-433.74"/>
</g>
<!-- mirl_rendering&#45;&gt;mirl_buffer -->
<g id="edge31" class="edge">
<title>mirl_rendering-&gt;mirl_buffer</title>
<path fill="none" stroke="black" d="M1157.61,-385.13C1150.56,-380.63 1143.5,-375.4 1137.64,-369.6 1109.03,-341.28 1113.86,-324.95 1089.64,-292.8 1081.29,-281.71 1071.25,-270.2 1062.23,-260.4"/>
<polygon fill="black" stroke="black" points="1065.06,-258.3 1055.67,-253.38 1059.94,-263.08 1065.06,-258.3"/>
</g>
<!-- mirl_rendering&#45;&gt;mirl_buffer_interpolation -->
<g id="edge32" class="edge">
<title>mirl_rendering-&gt;mirl_buffer_interpolation</title>
<path fill="none" stroke="black" d="M1141.39,-390.89C1123.27,-385.66 1103.01,-378.61 1085.64,-369.6 1035.89,-343.8 1031.14,-325.51 985.64,-292.8 969.43,-281.15 951.12,-268.74 935.56,-258.41"/>
<polygon fill="black" stroke="black" points="937.82,-255.71 927.55,-253.12 933.96,-261.55 937.82,-255.71"/>
</g>
<!-- mirl_rendering&#45;&gt;mirl_extensions -->
<g id="edge33" class="edge">
<title>mirl_rendering-&gt;mirl_extensions</title>
<path fill="none" stroke="black" d="M1222.46,-385.24C1244.33,-372.92 1273.94,-356.25 1297.78,-342.81"/>
<polygon fill="black" stroke="black" points="1299.3,-345.98 1306.29,-338.02 1295.86,-339.88 1299.3,-345.98"/>
</g>
<!-- mirl_collections&#45;&gt;mirl_extensions_core -->
<g id="edge6" class="edge">
<title>mirl_collections-&gt;mirl_extensions_core</title>
<path fill="none" stroke="black" d="M1487.75,-143.7C1457.86,-134.1 1420.47,-122.09 1388.93,-111.97"/>
<polygon fill="black" stroke="black" points="1390.07,-108.66 1379.48,-108.93 1387.93,-115.32 1390.07,-108.66"/>
</g>
<!-- mirl_collections&#45;&gt;mirl_std_exposed -->
<g id="edge7" class="edge">
<title>mirl_collections-&gt;mirl_std_exposed</title>
<path fill="none" stroke="black" d="M1541.64,-143.59C1541.64,-119.61 1541.64,-76.14 1541.64,-47.42"/>
<polygon fill="black" stroke="black" points="1545.14,-47.62 1541.64,-37.62 1538.14,-47.62 1545.14,-47.62"/>
</g>
</g>
</svg>