<svg width="2497pt" height="657pt" viewBox="0.00 0.00 2497.00 657.00" xmlns="http://www.w3.org/2000/svg" xmlns:xlink="http://www.w3.org/1999/xlink">
<g id="graph0" class="graph" transform="scale(1 1) rotate(0) translate(4 652.8)">
<polygon fill="white" stroke="none" points="-4,4 -4,-652.8 2493.38,-652.8 2493.38,4 -4,4"/>
<g id="clust1" class="cluster">
<title>cluster_platform</title>
<polygon fill="none" stroke="lightgray" points="680.44,-220.8 680.44,-640.8 1324.44,-640.8 1324.44,-220.8 680.44,-220.8"/>
<text xml:space="preserve" text-anchor="middle" x="1002.44" y="-624.2" font-family="Times,serif" font-size="14.00">platform</text>
</g>
<g id="clust2" class="cluster">
<title>cluster_windowing</title>
<polygon fill="none" stroke="lightgray" points="688.44,-382.4 688.44,-608 1216.44,-608 1216.44,-382.4 688.44,-382.4"/>
<text xml:space="preserve" text-anchor="middle" x="952.44" y="-591.4" font-family="Times,serif" font-size="14.00">windowing</text>
</g>
<g id="clust3" class="cluster">
<title>cluster_buffer</title>
<polygon fill="none" stroke="lightgray" points="1778.44,-220.8 1778.44,-297.6 2052.44,-297.6 2052.44,-220.8 1778.44,-220.8"/>
<text xml:space="preserve" text-anchor="middle" x="1915.44" y="-281" font-family="Times,serif" font-size="14.00">buffer</text>
</g>
<g id="clust4" class="cluster">
<title>cluster_helper</title>
<polygon fill="none" stroke="lightgray" points="1272.44,-64 1272.44,-212.8 1398.44,-212.8 1398.44,-64 1272.44,-64"/>
<text xml:space="preserve" text-anchor="middle" x="1335.44" y="-196.2" font-family="Times,serif" font-size="14.00">helper</text>
</g>
<g id="clust5" class="cluster">
<title>cluster_codec</title>
<polygon fill="none" stroke="lightgray" points="360.44,-220.8 360.44,-459.2 490.44,-459.2 490.44,-220.8 360.44,-220.8"/>
<text xml:space="preserve" text-anchor="middle" x="425.44" y="-442.6" font-family="Times,serif" font-size="14.00">codec</text>
</g>
<g id="clust6" class="cluster">
<title>cluster_extensions</title>
<polygon fill="none" stroke="lightgray" points="10.44,-64 10.44,-374.4 240.44,-374.4 240.44,-64 10.44,-64"/>
<text xml:space="preserve" text-anchor="middle" x="125.44" y="-357.8" font-family="Times,serif" font-size="14.00">extensions</text>
</g>
<g id="clust7" class="cluster">
<title>cluster_math</title>
<polygon fill="none" stroke="lightgray" points="2168.44,-220.8 2168.44,-374.4 2314.44,-374.4 2314.44,-220.8 2168.44,-220.8"/>
<text xml:space="preserve" text-anchor="middle" x="2241.44" y="-357.8" font-family="Times,serif" font-size="14.00">math</text>
</g>
<g id="clust8" class="cluster">
<title>cluster_graphics</title>
<polygon fill="none" stroke="lightgray" points="1552.44,-220.8 1552.44,-459.2 1688.44,-459.2 1688.44,-220.8 1552.44,-220.8"/>
<text xml:space="preserve" text-anchor="middle" x="1620.44" y="-442.6" font-family="Times,serif" font-size="14.00">graphics</text>
</g>
<!-- mirl_audio -->
<g id="node1" class="node">
<title>mirl_audio</title>
<polygon fill="none" stroke="black" points="1309.15,-575.2 1231.72,-575.2 1231.72,-539.2 1309.15,-539.2 1309.15,-575.2"/>
<text xml:space="preserve" text-anchor="middle" x="1270.44" y="-553" font-family="Times,serif" font-size="14.00">mirl_audio</text>
</g>
<!-- mirl_build_tools -->
<g id="node12" class="node">
<title>mirl_build_tools</title>
<polygon fill="none" stroke="black" points="1390.11,-180 1280.77,-180 1280.77,-144 1390.11,-144 1390.11,-180"/>
<text xml:space="preserve" text-anchor="middle" x="1335.44" y="-157.8" font-family="Times,serif" font-size="14.00">mirl_build_tools</text>
</g>
<!-- mirl_audio&#45;&gt;mirl_build_tools -->
<g id="edge2" class="edge">
<title>mirl_audio-&gt;mirl_build_tools</title>
<path fill="none" stroke="#00cd00" d="M1231.4,-541.85C1227.73,-540.83 1224.03,-539.92 1220.44,-539.2 1125.9,-520.29 419.92,-531.76 356.44,-459.2 321.56,-419.33 319.58,-258.86 356.44,-220.8 366.11,-210.82 592.56,-213.5 606.44,-212.8 851.18,-200.53 1141.65,-178.42 1269.48,-168.31"/>
<polygon fill="#00cd00" stroke="#00cd00" points="1269.41,-171.83 1279.1,-167.55 1268.85,-164.85 1269.41,-171.83"/>
</g>
<!-- mirl_derive -->
<g id="node13" class="node">
<title>mirl_derive</title>
<polygon fill="none" stroke="#0000ee" points="1390.09,-108 1308.78,-108 1308.78,-72 1390.09,-72 1390.09,-108"/>
<text xml:space="preserve" text-anchor="middle" x="1349.44" y="-85.8" font-family="Times,serif" font-size="14.00">mirl_derive</text>
</g>
<!-- mirl_audio&#45;&gt;mirl_derive -->
<g id="edge1" class="edge">
<title>mirl_audio-&gt;mirl_derive</title>
<path fill="none" stroke="black" stroke-dasharray="1,5" d="M1309.44,-555.76C1509.9,-553.34 2416.7,-540.37 2462.44,-503.2 2495.83,-476.06 2486.44,-452.43 2486.44,-409.4 2486.44,-409.4 2486.44,-409.4 2486.44,-245.8 2486.44,-199.32 2498.19,-173.71 2462.44,-144 2421.19,-109.72 1615.97,-95.06 1401.53,-91.75"/>
<polygon fill="black" stroke="black" points="1401.87,-88.25 1391.82,-91.6 1401.76,-95.25 1401.87,-88.25"/>
</g>
<!-- mirl_input -->
<g id="node2" class="node">
<title>mirl_input</title>
<polygon fill="none" stroke="black" points="1126.99,-264.8 1051.88,-264.8 1051.88,-228.8 1126.99,-228.8 1126.99,-264.8"/>
<text xml:space="preserve" text-anchor="middle" x="1089.44" y="-242.6" font-family="Times,serif" font-size="14.00">mirl_input</text>
</g>
<!-- mirl_buffer -->
<g id="node10" class="node">
<title>mirl_buffer</title>
<polygon fill="none" stroke="black" points="1866.7,-264.8 1786.17,-264.8 1786.17,-228.8 1866.7,-228.8 1866.7,-264.8"/>
<text xml:space="preserve" text-anchor="middle" x="1826.44" y="-242.6" font-family="Times,serif" font-size="14.00">mirl_buffer</text>
</g>
<!-- mirl_input&#45;&gt;mirl_buffer -->
<g id="edge60" class="edge">
<title>mirl_input-&gt;mirl_buffer</title>
<path fill="none" stroke="black" d="M1127.22,-252.74C1206.62,-264.89 1396.76,-292.22 1557.44,-301.6 1580.29,-302.93 1741.05,-306.35 1763.44,-301.6 1780.44,-297.99 1795.34,-285.74 1806.37,-273.74"/>
<polygon fill="black" stroke="black" points="1808.87,-276.19 1812.71,-266.32 1803.55,-271.65 1808.87,-276.19"/>
</g>
<!-- mirl_input&#45;&gt;mirl_build_tools -->
<g id="edge63" class="edge">
<title>mirl_input-&gt;mirl_build_tools</title>
<path fill="none" stroke="#00cd00" d="M1127.34,-233.04C1166.14,-219.98 1227.11,-199.46 1273.04,-184"/>
<polygon fill="#00cd00" stroke="#00cd00" points="1273.99,-187.38 1282.35,-180.87 1271.75,-180.74 1273.99,-187.38"/>
</g>
<!-- mirl_input&#45;&gt;mirl_derive -->
<g id="edge61" class="edge">
<title>mirl_input-&gt;mirl_derive</title>
<path fill="none" stroke="black" stroke-dasharray="1,5" d="M1099.32,-228.34C1113.05,-205.62 1140.04,-166.2 1173.44,-144 1210.89,-119.1 1260.44,-105.56 1297.42,-98.41"/>
<polygon fill="black" stroke="black" points="1297.77,-101.9 1306.98,-96.66 1296.51,-95.02 1297.77,-101.9"/>
</g>
<!-- mirl_graphics -->
<g id="node23" class="node">
<title>mirl_graphics</title>
<polygon fill="none" stroke="black" points="1654.32,-264.8 1560.56,-264.8 1560.56,-228.8 1654.32,-228.8 1654.32,-264.8"/>
<text xml:space="preserve" text-anchor="middle" x="1607.44" y="-242.6" font-family="Times,serif" font-size="14.00">mirl_graphics</text>
</g>
<!-- mirl_input&#45;&gt;mirl_graphics -->
<g id="edge62" class="edge">
<title>mirl_input-&gt;mirl_graphics</title>
<path fill="none" stroke="black" d="M1127.38,-246.8C1267.81,-246.8 1408.24,-246.8 1548.68,-246.8"/>
<polygon fill="black" stroke="black" points="1548.57,-250.3 1558.57,-246.8 1548.57,-243.3 1548.57,-250.3"/>
</g>
<!-- mirl_system -->
<g id="node3" class="node">
<title>mirl_system</title>
<polygon fill="none" stroke="black" points="1178.05,-341.6 1092.83,-341.6 1092.83,-305.6 1178.05,-305.6 1178.05,-341.6"/>
<text xml:space="preserve" text-anchor="middle" x="1135.44" y="-319.4" font-family="Times,serif" font-size="14.00">mirl_system</text>
</g>
<!-- mirl_system&#45;&gt;mirl_input -->
<g id="edge75" class="edge">
<title>mirl_system-&gt;mirl_input</title>
<path fill="none" stroke="black" d="M1124.77,-305.25C1119.2,-296.19 1112.25,-284.89 1106,-274.73"/>
<polygon fill="black" stroke="black" points="1109.06,-273.03 1100.84,-266.34 1103.1,-276.7 1109.06,-273.03"/>
</g>
<!-- mirl_system&#45;&gt;mirl_buffer -->
<g id="edge70" class="edge">
<title>mirl_system-&gt;mirl_buffer</title>
<path fill="none" stroke="black" d="M1178.48,-320.85C1307.01,-315.59 1679.88,-300.15 1692.44,-297.6 1722.02,-291.59 1753.74,-280.05 1778.89,-269.59"/>
<polygon fill="black" stroke="black" points="1780.01,-272.92 1787.85,-265.79 1777.27,-266.48 1780.01,-272.92"/>
</g>
<!-- mirl_system&#45;&gt;mirl_build_tools -->
<g id="edge76" class="edge">
<title>mirl_system-&gt;mirl_build_tools</title>
<path fill="none" stroke="#00cd00" d="M1178.28,-309.43C1186.28,-306.13 1194.34,-302.2 1201.44,-297.6 1247.88,-267.51 1291.03,-219.02 1315.23,-189.19"/>
<polygon fill="#00cd00" stroke="#00cd00" points="1317.96,-191.39 1321.46,-181.39 1312.49,-187.02 1317.96,-191.39"/>
</g>
<!-- mirl_system&#45;&gt;mirl_derive -->
<g id="edge72" class="edge">
<title>mirl_system-&gt;mirl_derive</title>
<path fill="none" stroke="black" stroke-dasharray="1,5" d="M1145.37,-305.45C1157.64,-284.74 1179.56,-249.15 1201.44,-220.8 1229.65,-184.23 1236.54,-174.25 1271.44,-144 1283.56,-133.49 1297.84,-123.26 1310.84,-114.63"/>
<polygon fill="black" stroke="black" points="1312.73,-117.58 1319.21,-109.2 1308.91,-111.71 1312.73,-117.58"/>
</g>
<!-- mirl_extensions -->
<g id="node17" class="node">
<title>mirl_extensions</title>
<polygon fill="none" stroke="black" points="232.15,-341.6 126.72,-341.6 126.72,-305.6 232.15,-305.6 232.15,-341.6"/>
<text xml:space="preserve" text-anchor="middle" x="179.44" y="-319.4" font-family="Times,serif" font-size="14.00">mirl_extensions</text>
</g>
<!-- mirl_system&#45;&gt;mirl_extensions -->
<g id="edge73" class="edge">
<title>mirl_system-&gt;mirl_extensions</title>
<path fill="none" stroke="black" d="M1092.58,-329.82C1005.54,-342.11 801.71,-369.1 629.44,-378.4 600.15,-379.98 394.47,-382.59 365.44,-378.4 322.11,-372.15 274.8,-358.11 238.74,-345.8"/>
<polygon fill="black" stroke="black" points="239.95,-342.52 229.36,-342.55 237.66,-349.13 239.95,-342.52"/>
</g>
<!-- mirl_system&#45;&gt;mirl_graphics -->
<g id="edge74" class="edge">
<title>mirl_system-&gt;mirl_graphics</title>
<path fill="none" stroke="black" d="M1178.45,-317.63C1217.62,-312.95 1277.01,-305.52 1328.44,-297.6 1404.87,-285.84 1492.62,-269.74 1548.97,-259.08"/>
<polygon fill="black" stroke="black" points="1549.5,-262.54 1558.67,-257.23 1548.2,-255.66 1549.5,-262.54"/>
</g>
<!-- mirl_collections -->
<g id="node26" class="node">
<title>mirl_collections</title>
<polygon fill="none" stroke="black" points="597.93,-180 490.95,-180 490.95,-144 597.93,-144 597.93,-180"/>
<text xml:space="preserve" text-anchor="middle" x="544.44" y="-157.8" font-family="Times,serif" font-size="14.00">mirl_collections</text>
</g>
<!-- mirl_system&#45;&gt;mirl_collections -->
<g id="edge71" class="edge">
<title>mirl_system-&gt;mirl_collections</title>
<path fill="none" stroke="black" d="M1092.37,-311.04C1076.66,-306.81 1058.74,-301.99 1042.44,-297.6 886.89,-255.67 704.06,-206.21 609.09,-180.5"/>
<polygon fill="black" stroke="black" points="610.26,-177.19 599.69,-177.96 608.43,-183.95 610.26,-177.19"/>
</g>
<!-- mirl_terminal -->
<g id="node4" class="node">
<title>mirl_terminal</title>
<polygon fill="none" stroke="black" points="1316.93,-426.4 1223.95,-426.4 1223.95,-390.4 1316.93,-390.4 1316.93,-426.4"/>
<text xml:space="preserve" text-anchor="middle" x="1270.44" y="-404.2" font-family="Times,serif" font-size="14.00">mirl_terminal</text>
</g>
<!-- mirl_terminal&#45;&gt;mirl_build_tools -->
<g id="edge78" class="edge">
<title>mirl_terminal-&gt;mirl_build_tools</title>
<path fill="none" stroke="#00cd00" d="M1303.44,-389.92C1333.98,-371.6 1377.16,-339.62 1394.44,-297.6 1407.42,-266.03 1407.66,-252.27 1394.44,-220.8 1389.15,-208.22 1379.65,-197.01 1369.79,-187.89"/>
<polygon fill="#00cd00" stroke="#00cd00" points="1372.14,-185.29 1362.28,-181.41 1367.57,-190.59 1372.14,-185.29"/>
</g>
<!-- mirl_terminal&#45;&gt;mirl_graphics -->
<g id="edge77" class="edge">
<title>mirl_terminal-&gt;mirl_graphics</title>
<path fill="none" stroke="black" d="M1317.14,-403.89C1368.04,-399.34 1445.58,-390.07 1470.44,-374.4 1501.98,-354.51 1491.64,-331.52 1518.44,-305.6 1532.15,-292.34 1549.32,-280.35 1564.92,-270.78"/>
<polygon fill="black" stroke="black" points="1566.28,-274.04 1573.08,-265.91 1562.69,-268.03 1566.28,-274.04"/>
</g>
<!-- mirl_windowing -->
<g id="node5" class="node">
<title>mirl_windowing</title>
<polygon fill="none" stroke="black" points="1039.1,-575.2 929.77,-575.2 929.77,-539.2 1039.1,-539.2 1039.1,-575.2"/>
<text xml:space="preserve" text-anchor="middle" x="984.44" y="-553" font-family="Times,serif" font-size="14.00">mirl_windowing</text>
</g>
<!-- mirl_windowing_console -->
<g id="node6" class="node">
<title>mirl_windowing_console</title>
<polygon fill="none" stroke="black" points="1207.99,-503.2 1048.89,-503.2 1048.89,-467.2 1207.99,-467.2 1207.99,-503.2"/>
<text xml:space="preserve" text-anchor="middle" x="1128.44" y="-481" font-family="Times,serif" font-size="14.00">mirl_windowing_console</text>
</g>
<!-- mirl_windowing&#45;&gt;mirl_windowing_console -->
<g id="edge92" class="edge">
<title>mirl_windowing-&gt;mirl_windowing_console</title>
<path fill="none" stroke="black" stroke-dasharray="1,5" d="M1020.4,-538.72C1039.27,-529.54 1062.59,-518.21 1082.73,-508.42"/>
<polygon fill="black" stroke="black" points="1084.11,-511.64 1091.57,-504.12 1081.05,-505.35 1084.11,-511.64"/>
</g>
<!-- mirl_windowing_core -->
<g id="node7" class="node">
<title>mirl_windowing_core</title>
<polygon fill="none" stroke="black" points="1205.65,-426.4 1065.23,-426.4 1065.23,-390.4 1205.65,-390.4 1205.65,-426.4"/>
<text xml:space="preserve" text-anchor="middle" x="1135.44" y="-404.2" font-family="Times,serif" font-size="14.00">mirl_windowing_core</text>
</g>
<!-- mirl_windowing&#45;&gt;mirl_windowing_core -->
<g id="edge90" class="edge">
<title>mirl_windowing-&gt;mirl_windowing_core</title>
<path fill="none" stroke="black" d="M996.45,-538.75C1003.37,-528.52 1012.12,-515.27 1019.44,-503.2 1028.93,-487.55 1025.51,-479.08 1039.44,-467.2 1047.35,-460.45 1052.16,-463.92 1061.44,-459.2 1075.85,-451.87 1090.81,-442.24 1103.48,-433.4"/>
<polygon fill="black" stroke="black" points="1105.33,-436.38 1111.44,-427.72 1101.26,-430.68 1105.33,-436.38"/>
</g>
<!-- mirl_windowing_glfw -->
<g id="node8" class="node">
<title>mirl_windowing_glfw</title>
<polygon fill="none" stroke="black" points="1010.43,-503.2 868.44,-503.2 868.44,-467.2 1010.43,-467.2 1010.43,-503.2"/>
<text xml:space="preserve" text-anchor="middle" x="939.44" y="-481" font-family="Times,serif" font-size="14.00">mirl_windowing_glfw</text>
</g>
<!-- mirl_windowing&#45;&gt;mirl_windowing_glfw -->
<g id="edge93" class="edge">
<title>mirl_windowing-&gt;mirl_windowing_glfw</title>
<path fill="none" stroke="black" stroke-dasharray="1,5" d="M973.31,-538.9C968.25,-531.01 962.13,-521.5 956.5,-512.75"/>
<polygon fill="black" stroke="black" points="959.6,-511.1 951.25,-504.58 953.72,-514.88 959.6,-511.1"/>
</g>
<!-- mirl_windowing_minifb -->
<g id="node9" class="node">
<title>mirl_windowing_minifb</title>
<polygon fill="none" stroke="black" points="850.27,-503.2 696.61,-503.2 696.61,-467.2 850.27,-467.2 850.27,-503.2"/>
<text xml:space="preserve" text-anchor="middle" x="773.44" y="-481" font-family="Times,serif" font-size="14.00">mirl_windowing_minifb</text>
</g>
<!-- mirl_windowing&#45;&gt;mirl_windowing_minifb -->
<g id="edge94" class="edge">
<title>mirl_windowing-&gt;mirl_windowing_minifb</title>
<path fill="none" stroke="black" stroke-dasharray="1,5" d="M931.74,-538.72C902.93,-529.16 867.04,-517.25 836.73,-507.2"/>
<polygon fill="black" stroke="black" points="837.86,-503.89 827.27,-504.06 835.66,-510.53 837.86,-503.89"/>
</g>
<!-- mirl_windowing&#45;&gt;mirl_buffer -->
<g id="edge87" class="edge">
<title>mirl_windowing-&gt;mirl_buffer</title>
<path fill="none" stroke="black" d="M1039.32,-540.02C1040.7,-539.73 1042.08,-539.46 1043.44,-539.2 1229.19,-503.99 1756.76,-592.89 1890.44,-459.2 1938.77,-410.86 1938.05,-361.31 1898.44,-305.6 1892.17,-296.78 1884.58,-303.39 1875.44,-297.6 1865.14,-291.08 1855.37,-282.01 1847.31,-273.39"/>
<polygon fill="black" stroke="black" points="1850.13,-271.29 1840.87,-266.16 1844.91,-275.95 1850.13,-271.29"/>
</g>
<!-- mirl_windowing&#45;&gt;mirl_build_tools -->
<g id="edge91" class="edge">
<title>mirl_windowing-&gt;mirl_build_tools</title>
<path fill="none" stroke="#00cd00" d="M929.31,-556.8C796.54,-557.42 462.86,-553.73 365.44,-503.2 342.76,-491.44 337.61,-483.05 328.44,-459.2 290.39,-360.31 252.71,-295.91 327.44,-220.8 332.91,-215.3 598.69,-213.18 606.44,-212.8 851.2,-200.94 1141.66,-178.62 1269.49,-168.38"/>
<polygon fill="#00cd00" stroke="#00cd00" points="1269.41,-171.9 1279.1,-167.61 1268.85,-164.92 1269.41,-171.9"/>
</g>
<!-- mirl_windowing&#45;&gt;mirl_derive -->
<g id="edge88" class="edge">
<title>mirl_windowing-&gt;mirl_derive</title>
<path fill="none" stroke="black" stroke-dasharray="1,5" d="M1039.3,-539.93C1040.69,-539.67 1042.07,-539.42 1043.44,-539.2 1403.44,-480.29 1500.52,-540.14 1863.44,-503.2 1994.42,-489.87 2448.44,-541.06 2448.44,-409.4 2448.44,-409.4 2448.44,-409.4 2448.44,-245.8 2448.44,-155.05 2358.41,-169.92 2271.44,-144 2106.86,-94.95 1572.12,-90.88 1401.95,-90.85"/>
<polygon fill="black" stroke="black" points="1402.08,-87.35 1392.08,-90.86 1402.09,-94.35 1402.08,-87.35"/>
</g>
<!-- mirl_windowing&#45;&gt;mirl_extensions -->
<g id="edge89" class="edge">
<title>mirl_windowing-&gt;mirl_extensions</title>
<path fill="none" stroke="black" d="M929.46,-555.37C781.75,-552.63 378.97,-541.75 252.44,-503.2 214.73,-491.71 195.22,-493.29 175.44,-459.2 156.46,-426.5 163.06,-381.4 170.49,-352.62"/>
<polygon fill="black" stroke="black" points="173.8,-353.75 173.13,-343.18 167.06,-351.86 173.8,-353.75"/>
</g>
<!-- mirl_windowing_console&#45;&gt;mirl_input -->
<g id="edge98" class="edge">
<title>mirl_windowing_console-&gt;mirl_input</title>
<path fill="none" stroke="black" d="M1048.48,-468.27C1045.11,-465.66 1042.05,-462.65 1039.44,-459.2 997.26,-403.55 1042.25,-317.81 1070.38,-274.62"/>
<polygon fill="black" stroke="black" points="1073.26,-276.6 1075.92,-266.35 1067.45,-272.71 1073.26,-276.6"/>
</g>
<!-- mirl_windowing_console&#45;&gt;mirl_system -->
<g id="edge99" class="edge">
<title>mirl_windowing_console-&gt;mirl_system</title>
<path fill="none" stroke="black" d="M1063.34,-466.71C1060.76,-464.5 1058.43,-462 1056.44,-459.2 1036.65,-431.39 1040.99,-412.84 1056.44,-382.4 1063.55,-368.38 1075.85,-356.94 1088.65,-348.05"/>
<polygon fill="black" stroke="black" points="1090.21,-351.21 1096.72,-342.85 1086.42,-345.32 1090.21,-351.21"/>
</g>
<!-- mirl_windowing_console&#45;&gt;mirl_terminal -->
<g id="edge100" class="edge">
<title>mirl_windowing_console-&gt;mirl_terminal</title>
<path fill="none" stroke="black" d="M1205.01,-466.76C1210.37,-464.53 1215.57,-462.02 1220.44,-459.2 1231.26,-452.94 1241.39,-443.77 1249.67,-434.99"/>
<polygon fill="black" stroke="black" points="1252.22,-437.39 1256.28,-427.6 1247,-432.72 1252.22,-437.39"/>
</g>
<!-- mirl_windowing_console&#45;&gt;mirl_windowing_core -->
<g id="edge101" class="edge">
<title>mirl_windowing_console-&gt;mirl_windowing_core</title>
<path fill="none" stroke="black" d="M1130.06,-466.85C1130.87,-458.26 1131.86,-447.67 1132.77,-437.92"/>
<polygon fill="black" stroke="black" points="1136.23,-438.44 1133.68,-428.16 1129.27,-437.79 1136.23,-438.44"/>
</g>
<!-- mirl_windowing_console&#45;&gt;mirl_buffer -->
<g id="edge95" class="edge">
<title>mirl_windowing_console-&gt;mirl_buffer</title>
<path fill="none" stroke="black" d="M1208.25,-484.12C1392.58,-483.57 1834.11,-480.08 1858.44,-459.2 1910.52,-414.5 1897.75,-370.16 1874.44,-305.6 1870.17,-293.79 1862.33,-282.69 1854.21,-273.44"/>
<polygon fill="black" stroke="black" points="1856.87,-271.16 1847.47,-266.27 1851.77,-275.96 1856.87,-271.16"/>
</g>
<!-- mirl_buffer_interpolation -->
<g id="node11" class="node">
<title>mirl_buffer_interpolation</title>
<polygon fill="none" stroke="black" points="2043.97,-264.8 1884.9,-264.8 1884.9,-228.8 2043.97,-228.8 2043.97,-264.8"/>
<text xml:space="preserve" text-anchor="middle" x="1964.44" y="-242.6" font-family="Times,serif" font-size="14.00">mirl_buffer_interpolation</text>
</g>
<!-- mirl_windowing_console&#45;&gt;mirl_buffer_interpolation -->
<g id="edge96" class="edge">
<title>mirl_windowing_console-&gt;mirl_buffer_interpolation</title>
<path fill="none" stroke="black" d="M1208.36,-483.99C1398.37,-483.17 1863.32,-479.12 1890.44,-459.2 1948.84,-416.31 1961.43,-323.85 1963.95,-276.71"/>
<polygon fill="black" stroke="black" points="1967.45,-276.87 1964.36,-266.74 1960.46,-276.59 1967.45,-276.87"/>
</g>
<!-- mirl_windowing_console&#45;&gt;mirl_build_tools -->
<g id="edge102" class="edge">
<title>mirl_windowing_console-&gt;mirl_build_tools</title>
<path fill="none" stroke="#00cd00" d="M1208.44,-483.33C1404.96,-480.97 1897.86,-473.63 1930.44,-459.2 2021.71,-418.76 2049.05,-390.16 2086.44,-297.6 2099.22,-265.95 2109.63,-245.84 2086.44,-220.8 2040.41,-171.09 1576.83,-163.99 1401.84,-163.08"/>
<polygon fill="#00cd00" stroke="#00cd00" points="1402.02,-159.58 1392,-163.04 1401.98,-166.58 1402.02,-159.58"/>
</g>
<!-- mirl_windowing_console&#45;&gt;mirl_extensions -->
<g id="edge97" class="edge">
<title>mirl_windowing_console-&gt;mirl_extensions</title>
<path fill="none" stroke="black" d="M1048.53,-470.4C1038.75,-469.11 1028.89,-467.99 1019.44,-467.2 1001.08,-465.67 373.1,-467.05 356.44,-459.2 315.98,-440.14 326.42,-410.25 291.44,-382.4 273.81,-368.36 252.24,-356.27 232.75,-346.82"/>
<polygon fill="black" stroke="black" points="234.38,-343.72 223.85,-342.63 231.4,-350.06 234.38,-343.72"/>
</g>
<!-- mirl_windowing_core&#45;&gt;mirl_input -->
<g id="edge106" class="edge">
<title>mirl_windowing_core-&gt;mirl_input</title>
<path fill="none" stroke="black" d="M1097.64,-390.07C1091.94,-385.77 1086.84,-380.58 1083.44,-374.4 1066.72,-344 1072.87,-303.02 1080.06,-276.03"/>
<polygon fill="black" stroke="black" points="1083.4,-277.08 1082.83,-266.5 1076.68,-275.13 1083.4,-277.08"/>
</g>
<!-- mirl_windowing_core&#45;&gt;mirl_system -->
<g id="edge107" class="edge">
<title>mirl_windowing_core-&gt;mirl_system</title>
<path fill="none" stroke="black" d="M1135.44,-390.24C1135.44,-379.55 1135.44,-365.52 1135.44,-353.17"/>
<polygon fill="black" stroke="black" points="1138.94,-353.53 1135.44,-343.53 1131.94,-353.53 1138.94,-353.53"/>
</g>
<!-- mirl_windowing_core&#45;&gt;mirl_buffer -->
<g id="edge103" class="edge">
<title>mirl_windowing_core-&gt;mirl_buffer</title>
<path fill="none" stroke="black" d="M1179.86,-389.92C1189.47,-386.84 1199.68,-384.09 1209.44,-382.4 1235.88,-377.83 1667.92,-385.32 1692.44,-374.4 1730.59,-357.41 1723,-330.63 1756.44,-305.6 1762.8,-300.84 1765.9,-302.12 1772.44,-297.6 1782.78,-290.46 1793.15,-281.44 1802.01,-273.05"/>
<polygon fill="black" stroke="black" points="1804.19,-275.81 1808.9,-266.33 1799.3,-270.8 1804.19,-275.81"/>
</g>
<!-- mirl_windowing_core&#45;&gt;mirl_build_tools -->
<g id="edge108" class="edge">
<title>mirl_windowing_core-&gt;mirl_build_tools</title>
<path fill="none" stroke="#00cd00" d="M1181.57,-390.02C1190.7,-387.09 1200.29,-384.37 1209.44,-382.4 1227.12,-378.59 1275.56,-384.69 1290.44,-374.4 1348.36,-334.36 1345.54,-239.42 1339.91,-191.59"/>
<polygon fill="#00cd00" stroke="#00cd00" points="1343.39,-191.19 1338.61,-181.74 1336.45,-192.11 1343.39,-191.19"/>
</g>
<!-- mirl_windowing_core&#45;&gt;mirl_derive -->
<g id="edge104" class="edge">
<title>mirl_windowing_core-&gt;mirl_derive</title>
<path fill="none" stroke="black" stroke-dasharray="1,5" d="M1181.12,-389.93C1190.38,-386.97 1200.13,-384.26 1209.44,-382.4 1234.99,-377.3 1305.04,-389.27 1326.44,-374.4 1414.64,-313.09 1439.1,-243.83 1399.44,-144 1395.31,-133.62 1388.08,-124.09 1380.38,-116.06"/>
<polygon fill="black" stroke="black" points="1383.01,-113.74 1373.38,-109.32 1378.16,-118.78 1383.01,-113.74"/>
</g>
<!-- mirl_windowing_core&#45;&gt;mirl_extensions -->
<g id="edge105" class="edge">
<title>mirl_windowing_core-&gt;mirl_extensions</title>
<path fill="none" stroke="black" d="M1064.88,-404.85C879.6,-398.11 391.05,-379.92 356.44,-374.4 317.04,-368.11 273.93,-356.09 240.11,-345.44"/>
<polygon fill="black" stroke="black" points="241.51,-342.21 230.92,-342.5 239.38,-348.88 241.51,-342.21"/>
</g>
<!-- mirl_windowing_glfw&#45;&gt;mirl_input -->
<g id="edge112" class="edge">
<title>mirl_windowing_glfw-&gt;mirl_input</title>
<path fill="none" stroke="black" d="M944.73,-466.9C955.54,-433.41 982.56,-358.39 1022.44,-305.6 1031.72,-293.32 1044,-281.79 1055.51,-272.32"/>
<polygon fill="black" stroke="black" points="1057.66,-275.08 1063.32,-266.12 1053.31,-269.59 1057.66,-275.08"/>
</g>
<!-- mirl_windowing_glfw&#45;&gt;mirl_system -->
<g id="edge113" class="edge">
<title>mirl_windowing_glfw-&gt;mirl_system</title>
<path fill="none" stroke="black" d="M968.76,-466.93C972.15,-464.49 975.45,-461.9 978.44,-459.2 1010.78,-429.98 1006.69,-411.17 1039.44,-382.4 1054.71,-368.98 1073.51,-356.89 1090.41,-347.27"/>
<polygon fill="black" stroke="black" points="1091.73,-350.55 1098.78,-342.64 1088.34,-344.42 1091.73,-350.55"/>
</g>
<!-- mirl_windowing_glfw&#45;&gt;mirl_windowing_core -->
<g id="edge114" class="edge">
<title>mirl_windowing_glfw-&gt;mirl_windowing_core</title>
<path fill="none" stroke="black" d="M1010.84,-469.85C1036.73,-464.6 1060.05,-459.78 1061.44,-459.2 1076.95,-452.69 1092.62,-442.74 1105.53,-433.44"/>
<polygon fill="black" stroke="black" points="1107.24,-436.52 1113.18,-427.74 1103.06,-430.91 1107.24,-436.52"/>
</g>
<!-- mirl_windowing_glfw&#45;&gt;mirl_buffer -->
<g id="edge109" class="edge">
<title>mirl_windowing_glfw-&gt;mirl_buffer</title>
<path fill="none" stroke="black" d="M1010.82,-470.65C1020.41,-469.25 1030.14,-468.03 1039.44,-467.2 1050.24,-466.23 1812.12,-466.17 1820.44,-459.2 1873.11,-415.08 1851.98,-322.49 1836.8,-275.88"/>
<polygon fill="black" stroke="black" points="1840.15,-274.85 1833.61,-266.51 1833.52,-277.1 1840.15,-274.85"/>
</g>
<!-- mirl_windowing_glfw&#45;&gt;mirl_build_tools -->
<g id="edge115" class="edge">
<title>mirl_windowing_glfw-&gt;mirl_build_tools</title>
<path fill="none" stroke="#00cd00" d="M1010.82,-470.65C1020.41,-469.25 1030.14,-468.03 1039.44,-467.2 1061.9,-465.19 1830.69,-468.06 1851.44,-459.2 1895.31,-440.47 1889.57,-412.68 1926.44,-382.4 1926.85,-382.06 2056.18,-298.07 2056.44,-297.6 2072.69,-267.59 2079.91,-245.58 2056.44,-220.8 2050.81,-214.86 1917.6,-213.38 1909.44,-212.8 1725.32,-199.81 1508.4,-179.67 1401.63,-169.44"/>
<polygon fill="#00cd00" stroke="#00cd00" points="1402.2,-165.98 1391.91,-168.51 1401.53,-172.95 1402.2,-165.98"/>
</g>
<!-- mirl_windowing_glfw&#45;&gt;mirl_extensions -->
<g id="edge110" class="edge">
<title>mirl_windowing_glfw-&gt;mirl_extensions</title>
<path fill="none" stroke="black" d="M868.02,-468.31C865.13,-467.89 862.26,-467.52 859.44,-467.2 830.12,-463.9 355.89,-470 328.44,-459.2 272.34,-437.13 224.04,-383.46 198.6,-350.95"/>
<polygon fill="black" stroke="black" points="201.53,-349.01 192.67,-343.19 195.97,-353.26 201.53,-349.01"/>
</g>
<!-- mirl_windowing_glfw&#45;&gt;mirl_graphics -->
<g id="edge111" class="edge">
<title>mirl_windowing_glfw-&gt;mirl_graphics</title>
<path fill="none" stroke="black" stroke-dasharray="1,5" d="M1010.83,-470.81C1020.42,-469.38 1030.15,-468.11 1039.44,-467.2 1103.38,-460.91 1265.94,-474.1 1328.44,-459.2 1414.46,-438.7 1440.04,-430.46 1508.44,-374.4 1537.88,-350.27 1535.94,-335.54 1559.44,-305.6 1567.76,-294.99 1577.19,-283.53 1585.47,-273.63"/>
<polygon fill="black" stroke="black" points="1587.96,-276.11 1591.72,-266.21 1582.6,-271.61 1587.96,-276.11"/>
</g>
<!-- mirl_windowing_minifb&#45;&gt;mirl_input -->
<g id="edge118" class="edge">
<title>mirl_windowing_minifb-&gt;mirl_input</title>
<path fill="none" stroke="black" d="M790.37,-466.92C824.06,-433.15 902.78,-357.18 978.44,-305.6 998.08,-292.21 1021.21,-279.7 1041.26,-269.78"/>
<polygon fill="black" stroke="black" points="1042.61,-273.01 1050.07,-265.49 1039.54,-266.72 1042.61,-273.01"/>
</g>
<!-- mirl_windowing_minifb&#45;&gt;mirl_system -->
<g id="edge119" class="edge">
<title>mirl_windowing_minifb-&gt;mirl_system</title>
<path fill="none" stroke="black" d="M839.55,-466.78C846.02,-464.47 852.42,-461.94 858.44,-459.2 916.06,-432.94 921.73,-410.57 978.44,-382.4 1011.71,-365.87 1050.93,-351.43 1081.85,-341.12"/>
<polygon fill="black" stroke="black" points="1082.57,-344.56 1090.98,-338.12 1080.39,-337.91 1082.57,-344.56"/>
</g>
<!-- mirl_windowing_minifb&#45;&gt;mirl_windowing_core -->
<g id="edge120" class="edge">
<title>mirl_windowing_minifb-&gt;mirl_windowing_core</title>
<path fill="none" stroke="black" d="M850.7,-468.34C853.65,-467.92 856.57,-467.54 859.44,-467.2 904.05,-461.94 1018.74,-473.16 1061.44,-459.2 1078.02,-453.78 1094.34,-443.49 1107.41,-433.66"/>
<polygon fill="black" stroke="black" points="1109.43,-436.52 1115.13,-427.59 1105.1,-431.02 1109.43,-436.52"/>
</g>
<!-- mirl_windowing_minifb&#45;&gt;mirl_buffer -->
<g id="edge116" class="edge">
<title>mirl_windowing_minifb-&gt;mirl_buffer</title>
<path fill="none" stroke="black" d="M850.69,-468.23C853.64,-467.84 856.56,-467.5 859.44,-467.2 882.46,-464.84 1670.71,-467.17 1692.44,-459.2 1747.79,-438.9 1763,-424.27 1794.44,-374.4 1813.41,-344.3 1821.15,-303.52 1824.29,-276.47"/>
<polygon fill="black" stroke="black" points="1827.77,-276.9 1825.29,-266.6 1820.8,-276.2 1827.77,-276.9"/>
</g>
<!-- mirl_windowing_minifb&#45;&gt;mirl_build_tools -->
<g id="edge121" class="edge">
<title>mirl_windowing_minifb-&gt;mirl_build_tools</title>
<path fill="none" stroke="#00cd00" d="M850.69,-468.22C853.64,-467.84 856.56,-467.49 859.44,-467.2 1057.3,-446.94 1556.16,-474.91 1754.44,-459.2 1880.78,-449.19 2224.74,-459.74 2318.44,-374.4 2369.29,-328.08 2384.66,-270.82 2337.44,-220.8 2305.29,-186.74 1620.22,-169.12 1401.75,-164.35"/>
<polygon fill="#00cd00" stroke="#00cd00" points="1402.07,-160.86 1391.99,-164.14 1401.91,-167.86 1402.07,-160.86"/>
</g>
<!-- mirl_windowing_minifb&#45;&gt;mirl_extensions -->
<g id="edge117" class="edge">
<title>mirl_windowing_minifb-&gt;mirl_extensions</title>
<path fill="none" stroke="black" d="M696.19,-483.15C547.15,-480.8 232.83,-474.09 214.44,-459.2 183.29,-433.99 177.82,-384.89 177.82,-353.48"/>
<polygon fill="black" stroke="black" points="181.32,-353.59 178.03,-343.51 174.32,-353.44 181.32,-353.59"/>
</g>
<!-- mirl_buffer&#45;&gt;mirl_build_tools -->
<g id="edge4" class="edge">
<title>mirl_buffer-&gt;mirl_build_tools</title>
<path fill="none" stroke="#00cd00" d="M1785.93,-233.65C1769.99,-229.17 1751.45,-224.33 1734.44,-220.8 1618.33,-196.71 1481.15,-179.19 1401.64,-170.09"/>
<polygon fill="#00cd00" stroke="#00cd00" points="1402.17,-166.63 1391.84,-168.98 1401.39,-173.59 1402.17,-166.63"/>
</g>
<!-- mirl_buffer&#45;&gt;mirl_derive -->
<g id="edge3" class="edge">
<title>mirl_buffer-&gt;mirl_derive</title>
<path fill="none" stroke="black" stroke-dasharray="1,5" d="M1822.51,-228.44C1816.24,-205.07 1801.59,-164.11 1772.44,-144 1713.4,-103.27 1501.27,-93.83 1401.72,-91.65"/>
<polygon fill="black" stroke="black" points="1402.02,-88.16 1391.96,-91.46 1401.88,-95.16 1402.02,-88.16"/>
</g>
<!-- mirl_buffer_interpolation&#45;&gt;mirl_build_tools -->
<g id="edge8" class="edge">
<title>mirl_buffer_interpolation-&gt;mirl_build_tools</title>
<path fill="none" stroke="#00cd00" d="M1907.8,-228.37C1897.13,-225.51 1886,-222.83 1875.44,-220.8 1706.5,-188.27 1504.05,-172.75 1401.69,-166.51"/>
<polygon fill="#00cd00" stroke="#00cd00" points="1402.01,-163.03 1391.82,-165.93 1401.59,-170.02 1402.01,-163.03"/>
</g>
<!-- mirl_buffer_interpolation&#45;&gt;mirl_derive -->
<g id="edge5" class="edge">
<title>mirl_buffer_interpolation-&gt;mirl_derive</title>
<path fill="none" stroke="black" stroke-dasharray="1,5" d="M1944.89,-228.65C1916.85,-205.13 1862.58,-163.55 1808.44,-144 1734.7,-117.37 1505.97,-100.51 1401.92,-94.02"/>
<polygon fill="black" stroke="black" points="1402.17,-90.53 1391.98,-93.41 1401.74,-97.52 1402.17,-90.53"/>
</g>
<!-- mirl_extensions_math -->
<g id="node20" class="node">
<title>mirl_extensions_math</title>
<polygon fill="none" stroke="black" points="198.65,-264.8 58.22,-264.8 58.22,-228.8 198.65,-228.8 198.65,-264.8"/>
<text xml:space="preserve" text-anchor="middle" x="128.44" y="-242.6" font-family="Times,serif" font-size="14.00">mirl_extensions_math</text>
</g>
<!-- mirl_buffer_interpolation&#45;&gt;mirl_extensions_math -->
<g id="edge6" class="edge">
<title>mirl_buffer_interpolation-&gt;mirl_extensions_math</title>
<path fill="none" stroke="black" d="M1941.13,-265.19C1922.24,-278.7 1894.28,-295.69 1866.44,-301.6 1846.04,-305.93 386.15,-303.96 365.44,-301.6 309.7,-295.24 247.98,-280.72 201.51,-268.23"/>
<polygon fill="black" stroke="black" points="202.66,-264.92 192.09,-265.66 200.82,-271.67 202.66,-264.92"/>
</g>
<!-- mirl_buffer_interpolation&#45;&gt;mirl_graphics -->
<g id="edge7" class="edge">
<title>mirl_buffer_interpolation-&gt;mirl_graphics</title>
<path fill="none" stroke="black" d="M1941.13,-265.19C1922.24,-278.7 1894.28,-295.69 1866.44,-301.6 1848.39,-305.43 1801.67,-304.37 1783.44,-301.6 1742.47,-295.37 1697.92,-281.42 1663.89,-269.16"/>
<polygon fill="black" stroke="black" points="1665.24,-265.93 1654.65,-265.77 1662.83,-272.5 1665.24,-265.93"/>
</g>
<!-- mirl_build_tools&#45;&gt;mirl_derive -->
<g id="edge9" class="edge">
<title>mirl_build_tools-&gt;mirl_derive</title>
<path fill="none" stroke="black" stroke-dasharray="1,5" d="M1338.9,-143.7C1340.37,-136.32 1342.13,-127.52 1343.79,-119.25"/>
<polygon fill="black" stroke="black" points="1347.19,-120.08 1345.72,-109.59 1340.33,-118.71 1347.19,-120.08"/>
</g>
<!-- mirl_codec_info -->
<g id="node14" class="node">
<title>mirl_codec_info</title>
<polygon fill="none" stroke="black" points="482.7,-426.4 374.18,-426.4 374.18,-390.4 482.7,-390.4 482.7,-426.4"/>
<text xml:space="preserve" text-anchor="middle" x="428.44" y="-404.2" font-family="Times,serif" font-size="14.00">mirl_codec_info</text>
</g>
<!-- mirl_codec_info&#45;&gt;mirl_build_tools -->
<g id="edge16" class="edge">
<title>mirl_codec_info-&gt;mirl_build_tools</title>
<path fill="none" stroke="#00cd00" d="M483.17,-405.52C537.68,-402.5 616.34,-394.66 638.44,-374.4 690.27,-326.87 623.01,-266.53 676.44,-220.8 720.81,-182.82 1110.72,-168.71 1269.05,-164.51"/>
<polygon fill="#00cd00" stroke="#00cd00" points="1269.07,-168.01 1278.98,-164.25 1268.89,-161.01 1269.07,-168.01"/>
</g>
<!-- mirl_codec_info&#45;&gt;mirl_derive -->
<g id="edge10" class="edge">
<title>mirl_codec_info-&gt;mirl_derive</title>
<path fill="none" stroke="black" stroke-dasharray="1,5" d="M482.82,-402.96C526.47,-398.34 583.22,-389.59 600.44,-374.4 654.28,-326.91 596.46,-268.13 650.44,-220.8 747.46,-135.73 1152.28,-103.03 1297.4,-93.91"/>
<polygon fill="black" stroke="black" points="1297.33,-97.42 1307.09,-93.31 1296.9,-90.43 1297.33,-97.42"/>
</g>
<!-- mirl_values -->
<g id="node15" class="node">
<title>mirl_values</title>
<polygon fill="none" stroke="black" points="469.49,-341.6 387.39,-341.6 387.39,-305.6 469.49,-305.6 469.49,-341.6"/>
<text xml:space="preserve" text-anchor="middle" x="428.44" y="-319.4" font-family="Times,serif" font-size="14.00">mirl_values</text>
</g>
<!-- mirl_codec_info&#45;&gt;mirl_values -->
<g id="edge15" class="edge">
<title>mirl_codec_info-&gt;mirl_values</title>
<path fill="none" stroke="black" d="M428.44,-390.24C428.44,-379.55 428.44,-365.52 428.44,-353.17"/>
<polygon fill="black" stroke="black" points="431.94,-353.53 428.44,-343.53 424.94,-353.53 431.94,-353.53"/>
</g>
<!-- mirl_codec_info&#45;&gt;mirl_extensions -->
<g id="edge11" class="edge">
<title>mirl_codec_info-&gt;mirl_extensions</title>
<path fill="none" stroke="black" d="M378.51,-389.93C371.12,-387.38 363.59,-384.81 356.44,-382.4 318.98,-369.78 276.93,-356.03 243.21,-345.11"/>
<polygon fill="black" stroke="black" points="244.61,-341.88 234.02,-342.13 242.45,-348.54 244.61,-341.88"/>
</g>
<!-- mirl_geometry_core -->
<g id="node22" class="node">
<title>mirl_geometry_core</title>
<polygon fill="none" stroke="black" points="2306.58,-264.8 2176.29,-264.8 2176.29,-228.8 2306.58,-228.8 2306.58,-264.8"/>
<text xml:space="preserve" text-anchor="middle" x="2241.44" y="-242.6" font-family="Times,serif" font-size="14.00">mirl_geometry_core</text>
</g>
<!-- mirl_codec_info&#45;&gt;mirl_geometry_core -->
<g id="edge12" class="edge">
<title>mirl_codec_info-&gt;mirl_geometry_core</title>
<path fill="none" stroke="black" d="M482.77,-400.67C534.51,-394.6 614.65,-386.08 684.44,-382.4 796.29,-376.51 1581.09,-386.47 1692.44,-374.4 1869.77,-355.18 2073.03,-299.11 2175.3,-268.43"/>
<polygon fill="black" stroke="black" points="2176.06,-271.86 2184.63,-265.62 2174.04,-265.16 2176.06,-271.86"/>
</g>
<!-- mirl_codec_info&#45;&gt;mirl_graphics -->
<g id="edge13" class="edge">
<title>mirl_codec_info-&gt;mirl_graphics</title>
<path fill="none" stroke="black" d="M482.77,-400.74C534.52,-394.72 614.66,-386.23 684.44,-382.4 720.16,-380.44 1293.66,-382.82 1328.44,-374.4 1395.05,-358.28 1404.02,-333.91 1466.44,-305.6 1494.39,-292.92 1525.97,-279.87 1552.14,-269.38"/>
<polygon fill="black" stroke="black" points="1553.23,-272.71 1561.22,-265.75 1550.64,-266.21 1553.23,-272.71"/>
</g>
<!-- mirl_std_exposed -->
<g id="node27" class="node">
<title>mirl_std_exposed</title>
<polygon fill="none" stroke="black" points="521.21,-36 405.67,-36 405.67,0 521.21,0 521.21,-36"/>
<text xml:space="preserve" text-anchor="middle" x="463.44" y="-13.8" font-family="Times,serif" font-size="14.00">mirl_std_exposed</text>
</g>
<!-- mirl_codec_info&#45;&gt;mirl_std_exposed -->
<g id="edge14" class="edge">
<title>mirl_codec_info-&gt;mirl_std_exposed</title>
<path fill="none" stroke="black" d="M463.23,-389.92C469.08,-385.58 474.52,-380.41 478.44,-374.4 497.34,-345.4 488.54,-332.1 491.44,-297.6 494.3,-263.59 505.42,-251.94 491.44,-220.8 489.25,-215.92 484.87,-217.57 482.44,-212.8 455.32,-159.54 456.59,-87.42 459.98,-47.88"/>
<polygon fill="black" stroke="black" points="463.46,-48.29 460.95,-37.99 456.49,-47.61 463.46,-48.29"/>
</g>
<!-- mirl_values&#45;&gt;mirl_build_tools -->
<g id="edge82" class="edge">
<title>mirl_values-&gt;mirl_build_tools</title>
<path fill="none" stroke="#00cd00" d="M469.98,-314.65C487.22,-310.62 507.18,-304.99 524.44,-297.6 584.03,-272.08 586.89,-241.14 648.44,-220.8 762.52,-183.09 1120.21,-168.98 1269.24,-164.64"/>
<polygon fill="#00cd00" stroke="#00cd00" points="1269.04,-168.15 1278.94,-164.37 1268.84,-161.15 1269.04,-168.15"/>
</g>
<!-- mirl_values&#45;&gt;mirl_derive -->
<g id="edge79" class="edge">
<title>mirl_values-&gt;mirl_derive</title>
<path fill="none" stroke="black" stroke-dasharray="1,5" d="M469.88,-311.57C477.72,-308.07 485.36,-303.51 491.44,-297.6 518.07,-271.7 494.44,-242.72 524.44,-220.8 554,-199.19 575.31,-232.09 606.44,-212.8 637.09,-193.81 618.58,-162.66 649.44,-144 704.45,-110.73 1144.33,-96.3 1297.26,-92.25"/>
<polygon fill="black" stroke="black" points="1297.2,-95.76 1307.1,-92 1297.02,-88.76 1297.2,-95.76"/>
</g>
<!-- mirl_values_core -->
<g id="node16" class="node">
<title>mirl_values_core</title>
<polygon fill="none" stroke="black" points="482.03,-264.8 368.84,-264.8 368.84,-228.8 482.03,-228.8 482.03,-264.8"/>
<text xml:space="preserve" text-anchor="middle" x="425.44" y="-242.6" font-family="Times,serif" font-size="14.00">mirl_values_core</text>
</g>
<!-- mirl_values&#45;&gt;mirl_values_core -->
<g id="edge81" class="edge">
<title>mirl_values-&gt;mirl_values_core</title>
<path fill="none" stroke="black" d="M427.74,-305.25C427.4,-296.66 426.97,-286.07 426.58,-276.32"/>
<polygon fill="black" stroke="black" points="430.09,-276.42 426.19,-266.57 423.09,-276.7 430.09,-276.42"/>
</g>
<!-- mirl_values&#45;&gt;mirl_extensions -->
<g id="edge80" class="edge">
<title>mirl_values-&gt;mirl_extensions</title>
<path fill="none" stroke="black" d="M387.1,-323.6C339.37,-323.6 291.65,-323.6 243.93,-323.6"/>
<polygon fill="black" stroke="black" points="243.96,-320.1 233.96,-323.6 243.96,-327.1 243.96,-320.1"/>
</g>
<!-- mirl_values_core&#45;&gt;mirl_build_tools -->
<g id="edge86" class="edge">
<title>mirl_values_core-&gt;mirl_build_tools</title>
<path fill="none" stroke="#00cd00" d="M482.26,-231.03C498.97,-227.16 517.35,-223.36 534.44,-220.8 606.16,-210.05 1090.38,-178.6 1269.23,-167.19"/>
<polygon fill="#00cd00" stroke="#00cd00" points="1269.29,-170.69 1279.05,-166.57 1268.84,-163.71 1269.29,-170.69"/>
</g>
<!-- mirl_values_core&#45;&gt;mirl_derive -->
<g id="edge84" class="edge">
<title>mirl_values_core-&gt;mirl_derive</title>
<path fill="none" stroke="black" stroke-dasharray="1,5" d="M429.58,-228.55C436.27,-204.9 451.9,-163.17 482.44,-144 551.33,-100.74 1120.04,-92.75 1297.06,-91.31"/>
<polygon fill="black" stroke="black" points="1296.9,-94.81 1306.87,-91.23 1296.84,-87.81 1296.9,-94.81"/>
</g>
<!-- mirl_extensions_core -->
<g id="node19" class="node">
<title>mirl_extensions_core</title>
<polygon fill="none" stroke="black" points="232.7,-108 96.18,-108 96.18,-72 232.7,-72 232.7,-108"/>
<text xml:space="preserve" text-anchor="middle" x="164.44" y="-85.8" font-family="Times,serif" font-size="14.00">mirl_extensions_core</text>
</g>
<!-- mirl_values_core&#45;&gt;mirl_extensions_core -->
<g id="edge85" class="edge">
<title>mirl_values_core-&gt;mirl_extensions_core</title>
<path fill="none" stroke="black" d="M396,-228.34C348.79,-200.34 256.09,-145.36 203.42,-114.12"/>
<polygon fill="black" stroke="black" points="205.45,-111.26 195.06,-109.16 201.88,-117.28 205.45,-111.26"/>
</g>
<!-- mirl_values_core&#45;&gt;mirl_collections -->
<g id="edge83" class="edge">
<title>mirl_values_core-&gt;mirl_collections</title>
<path fill="none" stroke="black" d="M450.38,-228.44C467.76,-216.35 491.15,-200.08 510.26,-186.78"/>
<polygon fill="black" stroke="black" points="512.07,-189.78 518.28,-181.2 508.07,-184.04 512.07,-189.78"/>
</g>
<!-- mirl_extensions&#45;&gt;mirl_input -->
<g id="edge28" class="edge">
<title>mirl_extensions-&gt;mirl_input</title>
<path fill="none" stroke="black" stroke-dasharray="1,5" d="M232.45,-316.98C267.59,-313.39 314.73,-308.81 356.44,-305.6 417.69,-300.88 433.15,-301.94 494.44,-297.6 697.09,-283.25 938.19,-261.68 1040.09,-252.36"/>
<polygon fill="black" stroke="black" points="1040.38,-255.85 1050.02,-251.45 1039.74,-248.88 1040.38,-255.85"/>
</g>
<!-- mirl_extensions&#45;&gt;mirl_buffer -->
<g id="edge21" class="edge">
<title>mirl_extensions-&gt;mirl_buffer</title>
<path fill="none" stroke="black" d="M232.4,-316.26C267.52,-312.36 314.66,-307.73 356.44,-305.6 430.57,-301.83 1619.43,-310.95 1692.44,-297.6 1722.45,-292.11 1754.54,-280.41 1779.79,-269.73"/>
<polygon fill="black" stroke="black" points="1780.99,-273.02 1788.78,-265.83 1778.21,-266.6 1780.99,-273.02"/>
</g>
<!-- mirl_extensions&#45;&gt;mirl_build_tools -->
<g id="edge30" class="edge">
<title>mirl_extensions-&gt;mirl_build_tools</title>
<path fill="none" stroke="#00cd00" d="M232.44,-305.31C236.36,-303.02 240.08,-300.47 243.44,-297.6 273.53,-271.92 254.36,-240.9 288.44,-220.8 303.66,-211.82 588.78,-213.62 606.44,-212.8 851.22,-201.37 1141.67,-178.83 1269.49,-168.46"/>
<polygon fill="#00cd00" stroke="#00cd00" points="1269.42,-171.98 1279.11,-167.68 1268.85,-165 1269.42,-171.98"/>
</g>
<!-- mirl_extensions&#45;&gt;mirl_values_core -->
<g id="edge29" class="edge">
<title>mirl_extensions-&gt;mirl_values_core</title>
<path fill="none" stroke="black" stroke-dasharray="1,5" d="M232.57,-310.01C247.47,-306.25 263.65,-301.97 278.44,-297.6 307.63,-288.99 339.67,-278.28 366.37,-269"/>
<polygon fill="black" stroke="black" points="367.37,-272.36 375.65,-265.76 365.06,-265.76 367.37,-272.36"/>
</g>
<!-- mirl_extensions_conversion -->
<g id="node18" class="node">
<title>mirl_extensions_conversion</title>
<polygon fill="none" stroke="black" points="232.37,-180 58.51,-180 58.51,-144 232.37,-144 232.37,-180"/>
<text xml:space="preserve" text-anchor="middle" x="145.44" y="-157.8" font-family="Times,serif" font-size="14.00">mirl_extensions_conversion</text>
</g>
<!-- mirl_extensions&#45;&gt;mirl_extensions_conversion -->
<g id="edge23" class="edge">
<title>mirl_extensions-&gt;mirl_extensions_conversion</title>
<path fill="none" stroke="black" d="M126.39,-319.14C94.93,-315.86 59.32,-309.56 49.44,-297.6 27.7,-271.28 32.64,-250.52 49.44,-220.8 57.88,-205.86 71.9,-194.36 86.65,-185.7"/>
<polygon fill="black" stroke="black" points="87.94,-188.97 95.06,-181.13 84.6,-182.82 87.94,-188.97"/>
</g>
<!-- mirl_extensions&#45;&gt;mirl_extensions_core -->
<g id="edge24" class="edge">
<title>mirl_extensions-&gt;mirl_extensions_core</title>
<path fill="none" stroke="black" d="M126.23,-320.74C88.57,-318.17 42.68,-312.07 30.44,-297.6 -13.66,-245.48 -6.53,-200.06 32.44,-144 44.98,-125.96 64.76,-114.05 85.22,-106.2"/>
<polygon fill="black" stroke="black" points="86.23,-109.55 94.51,-102.95 83.92,-102.95 86.23,-109.55"/>
</g>
<!-- mirl_extensions&#45;&gt;mirl_extensions_math -->
<g id="edge25" class="edge">
<title>mirl_extensions-&gt;mirl_extensions_math</title>
<path fill="none" stroke="black" d="M167.61,-305.25C161.37,-296.09 153.57,-284.66 146.58,-274.41"/>
<polygon fill="black" stroke="black" points="149.58,-272.6 141.05,-266.31 143.8,-276.54 149.58,-272.6"/>
</g>
<!-- mirl_extensions&#45;&gt;mirl_geometry_core -->
<g id="edge26" class="edge">
<title>mirl_extensions-&gt;mirl_geometry_core</title>
<path fill="none" stroke="black" stroke-dasharray="1,5" d="M232.4,-316.24C267.52,-312.34 314.66,-307.7 356.44,-305.6 450.76,-300.86 1962.84,-310.2 2056.44,-297.6 2098.41,-291.95 2144.4,-279.6 2180.02,-268.61"/>
<polygon fill="black" stroke="black" points="2180.79,-272.04 2189.28,-265.71 2178.69,-265.36 2180.79,-272.04"/>
</g>
<!-- mirl_extensions&#45;&gt;mirl_graphics -->
<g id="edge27" class="edge">
<title>mirl_extensions-&gt;mirl_graphics</title>
<path fill="none" stroke="black" stroke-dasharray="1,5" d="M232.4,-316.29C267.52,-312.41 314.66,-307.77 356.44,-305.6 464.3,-299.99 1220.9,-307.57 1328.44,-297.6 1405.44,-290.46 1493.06,-273.32 1549.23,-261.14"/>
<polygon fill="black" stroke="black" points="1549.88,-264.58 1558.9,-259.03 1548.38,-257.75 1549.88,-264.58"/>
</g>
<!-- mirl_extensions&#45;&gt;mirl_collections -->
<g id="edge22" class="edge">
<title>mirl_extensions-&gt;mirl_collections</title>
<path fill="none" stroke="black" stroke-dasharray="1,5" d="M200.4,-305.31C202.9,-302.84 205.32,-300.24 207.44,-297.6 231.92,-267.09 218.77,-243.76 250.44,-220.8 286.24,-194.85 404.17,-177.87 479.34,-169.4"/>
<polygon fill="black" stroke="black" points="479.5,-172.9 489.06,-168.32 478.74,-165.94 479.5,-172.9"/>
</g>
<!-- mirl_extensions_conversion&#45;&gt;mirl_buffer -->
<g id="edge31" class="edge">
<title>mirl_extensions_conversion-&gt;mirl_buffer</title>
<path fill="none" stroke="black" stroke-dasharray="1,5" d="M232.69,-179.33C300.51,-191.18 397.08,-206.24 482.44,-212.8 616.49,-223.1 1558.6,-207.98 1692.44,-220.8 1719.91,-223.43 1750.17,-228.86 1774.97,-233.98"/>
<polygon fill="black" stroke="black" points="1773.96,-237.34 1784.47,-235.99 1775.41,-230.5 1773.96,-237.34"/>
</g>
<!-- mirl_extensions_conversion&#45;&gt;mirl_build_tools -->
<g id="edge35" class="edge">
<title>mirl_extensions_conversion-&gt;mirl_build_tools</title>
<path fill="none" stroke="#00cd00" d="M232.8,-179.73C302.48,-192.93 402.77,-209.82 491.44,-216.8 530.26,-219.86 1154.14,-223.89 1192.44,-216.8 1225.56,-210.67 1260.92,-197.19 1288.19,-185.13"/>
<polygon fill="#00cd00" stroke="#00cd00" points="1289.55,-188.36 1297.22,-181.05 1286.66,-181.98 1289.55,-188.36"/>
</g>
<!-- mirl_extensions_conversion&#45;&gt;mirl_values_core -->
<g id="edge34" class="edge">
<title>mirl_extensions_conversion-&gt;mirl_values_core</title>
<path fill="none" stroke="black" stroke-dasharray="1,5" d="M202.65,-180.48C234.38,-190.12 274.56,-202.24 310.44,-212.8 325.59,-217.26 341.89,-221.98 357.31,-226.42"/>
<polygon fill="black" stroke="black" points="356.33,-229.78 366.91,-229.17 358.26,-223.05 356.33,-229.78"/>
</g>
<!-- mirl_extensions_conversion&#45;&gt;mirl_extensions_core -->
<g id="edge32" class="edge">
<title>mirl_extensions_conversion-&gt;mirl_extensions_core</title>
<path fill="none" stroke="black" d="M150.13,-143.7C152.16,-136.24 154.58,-127.32 156.85,-118.97"/>
<polygon fill="black" stroke="black" points="160.16,-120.13 159.4,-109.57 153.4,-118.3 160.16,-120.13"/>
</g>
<!-- mirl_extensions_conversion&#45;&gt;mirl_graphics -->
<g id="edge33" class="edge">
<title>mirl_extensions_conversion-&gt;mirl_graphics</title>
<path fill="none" stroke="black" stroke-dasharray="1,5" d="M232.7,-179.26C300.52,-191.07 397.09,-206.12 482.44,-212.8 669.87,-227.47 1140.66,-211.51 1328.44,-220.8 1404.78,-224.58 1492.55,-233.14 1548.93,-239.19"/>
<polygon fill="black" stroke="black" points="1548.3,-242.64 1558.62,-240.24 1549.06,-235.68 1548.3,-242.64"/>
</g>
<!-- mirl_extensions_core&#45;&gt;mirl_build_tools -->
<g id="edge37" class="edge">
<title>mirl_extensions_core-&gt;mirl_build_tools</title>
<path fill="none" stroke="#00cd00" d="M233.14,-95.11C441.4,-107.56 1063.92,-144.77 1269.06,-157.03"/>
<polygon fill="#00cd00" stroke="#00cd00" points="1268.83,-160.52 1279.02,-157.63 1269.24,-153.54 1268.83,-160.52"/>
</g>
<!-- mirl_extensions_core&#45;&gt;mirl_std_exposed -->
<g id="edge36" class="edge">
<title>mirl_extensions_core-&gt;mirl_std_exposed</title>
<path fill="none" stroke="black" d="M233.03,-72.94C281.34,-61.63 345.77,-46.55 394.22,-35.21"/>
<polygon fill="black" stroke="black" points="394.82,-38.66 403.76,-32.97 393.22,-31.84 394.82,-38.66"/>
</g>
<!-- mirl_extensions_math&#45;&gt;mirl_build_tools -->
<g id="edge41" class="edge">
<title>mirl_extensions_math-&gt;mirl_build_tools</title>
<path fill="none" stroke="#00cd00" d="M199.06,-229.09C215.81,-225.75 233.68,-222.69 250.44,-220.8 329.07,-211.93 527.39,-216.39 606.44,-212.8 851.24,-201.69 1141.67,-178.99 1269.49,-168.52"/>
<polygon fill="#00cd00" stroke="#00cd00" points="1269.43,-172.04 1279.11,-167.73 1268.85,-165.06 1269.43,-172.04"/>
</g>
<!-- mirl_extensions_math&#45;&gt;mirl_extensions_conversion -->
<g id="edge38" class="edge">
<title>mirl_extensions_math-&gt;mirl_extensions_conversion</title>
<path fill="none" stroke="black" d="M131.96,-228.64C134.16,-217.95 137.04,-203.92 139.57,-191.57"/>
<polygon fill="black" stroke="black" points="142.97,-192.4 141.56,-181.9 136.12,-190.99 142.97,-192.4"/>
</g>
<!-- mirl_extensions_math&#45;&gt;mirl_extensions_core -->
<g id="edge39" class="edge">
<title>mirl_extensions_math-&gt;mirl_extensions_core</title>
<path fill="none" stroke="black" d="M65.68,-228.34C59.3,-224.21 53.64,-219.11 49.44,-212.8 32.49,-187.35 32.95,-169.75 49.44,-144 58.15,-130.39 71.35,-120.22 85.73,-112.65"/>
<polygon fill="black" stroke="black" points="86.97,-115.93 94.48,-108.46 83.95,-109.62 86.97,-115.93"/>
</g>
<!-- mirl_extensions_math&#45;&gt;mirl_graphics -->
<g id="edge40" class="edge">
<title>mirl_extensions_math-&gt;mirl_graphics</title>
<path fill="none" stroke="black" d="M190.63,-265.27C238.05,-278.34 305.23,-294.73 365.44,-301.6 395.69,-305.05 1431.48,-307.04 1461.44,-301.6 1495.33,-295.45 1531.6,-281.87 1559.51,-269.77"/>
<polygon fill="black" stroke="black" points="1560.67,-273.09 1568.4,-265.84 1557.83,-266.69 1560.67,-273.09"/>
</g>
<!-- mirl_geometry -->
<g id="node21" class="node">
<title>mirl_geometry</title>
<polygon fill="none" stroke="black" points="2298.04,-341.6 2198.84,-341.6 2198.84,-305.6 2298.04,-305.6 2298.04,-341.6"/>
<text xml:space="preserve" text-anchor="middle" x="2248.44" y="-319.4" font-family="Times,serif" font-size="14.00">mirl_geometry</text>
</g>
<!-- mirl_geometry&#45;&gt;mirl_build_tools -->
<g id="edge45" class="edge">
<title>mirl_geometry-&gt;mirl_build_tools</title>
<path fill="none" stroke="#00cd00" d="M2298.32,-312.01C2305.05,-308.5 2311.12,-303.82 2315.44,-297.6 2334.9,-269.56 2338.85,-245.64 2315.44,-220.8 2284.08,-187.54 1616.93,-169.43 1401.72,-164.44"/>
<polygon fill="#00cd00" stroke="#00cd00" points="1401.9,-160.94 1391.82,-164.21 1401.74,-167.94 1401.9,-160.94"/>
</g>
<!-- mirl_geometry&#45;&gt;mirl_derive -->
<g id="edge42" class="edge">
<title>mirl_geometry-&gt;mirl_derive</title>
<path fill="none" stroke="black" stroke-dasharray="1,5" d="M2298.37,-319.9C2313.29,-316.47 2328.13,-309.88 2337.44,-297.6 2358.05,-270.4 2355.4,-249.83 2337.44,-220.8 2297.19,-155.76 2257.29,-163.89 2183.44,-144 2034.98,-104.02 1560.68,-93.91 1401.84,-91.62"/>
<polygon fill="black" stroke="black" points="1402.08,-88.12 1392.03,-91.48 1401.98,-95.12 1402.08,-88.12"/>
</g>
<!-- mirl_geometry&#45;&gt;mirl_extensions -->
<g id="edge43" class="edge">
<title>mirl_geometry-&gt;mirl_extensions</title>
<path fill="none" stroke="black" d="M2225.95,-342.06C2207.71,-355.62 2180.63,-372.63 2153.44,-378.4 2129.15,-383.56 390.02,-381.95 365.44,-378.4 322.11,-372.15 274.8,-358.11 238.74,-345.8"/>
<polygon fill="black" stroke="black" points="239.95,-342.52 229.36,-342.55 237.66,-349.13 239.95,-342.52"/>
</g>
<!-- mirl_geometry&#45;&gt;mirl_geometry_core -->
<g id="edge44" class="edge">
<title>mirl_geometry-&gt;mirl_geometry_core</title>
<path fill="none" stroke="black" d="M2246.81,-305.25C2246.01,-296.66 2245.02,-286.07 2244.11,-276.32"/>
<polygon fill="black" stroke="black" points="2247.61,-276.19 2243.19,-266.56 2240.64,-276.84 2247.61,-276.19"/>
</g>
<!-- mirl_geometry_core&#45;&gt;mirl_build_tools -->
<g id="edge47" class="edge">
<title>mirl_geometry_core-&gt;mirl_build_tools</title>
<path fill="none" stroke="#00cd00" d="M2192.59,-228.37C2182.72,-225.41 2172.33,-222.68 2162.44,-220.8 1883.27,-167.65 1542.77,-162.1 1401.62,-162.35"/>
<polygon fill="#00cd00" stroke="#00cd00" points="1401.7,-158.85 1391.71,-162.38 1401.72,-165.85 1401.7,-158.85"/>
</g>
<!-- mirl_geometry_core&#45;&gt;mirl_derive -->
<g id="edge46" class="edge">
<title>mirl_geometry_core-&gt;mirl_derive</title>
<path fill="none" stroke="black" stroke-dasharray="1,5" d="M2227.81,-228.31C2207.99,-204.38 2168.73,-162.32 2124.44,-144 2058.03,-116.54 1565.01,-98.07 1401.76,-92.65"/>
<polygon fill="black" stroke="black" points="1402.21,-89.16 1392.1,-92.33 1401.98,-96.16 1402.21,-89.16"/>
</g>
<!-- mirl_graphics&#45;&gt;mirl_buffer -->
<g id="edge48" class="edge">
<title>mirl_graphics-&gt;mirl_buffer</title>
<path fill="none" stroke="black" d="M1654.49,-246.8C1694.5,-246.8 1734.51,-246.8 1774.52,-246.8"/>
<polygon fill="black" stroke="black" points="1774.29,-250.3 1784.29,-246.8 1774.29,-243.3 1774.29,-250.3"/>
</g>
<!-- mirl_graphics&#45;&gt;mirl_build_tools -->
<g id="edge51" class="edge">
<title>mirl_graphics-&gt;mirl_build_tools</title>
<path fill="none" stroke="#00cd00" d="M1560.06,-231.38C1516.05,-217.98 1450.11,-197.91 1401.05,-182.97"/>
<polygon fill="#00cd00" stroke="#00cd00" points="1402.26,-179.68 1391.67,-180.12 1400.22,-186.38 1402.26,-179.68"/>
</g>
<!-- mirl_graphics&#45;&gt;mirl_derive -->
<g id="edge50" class="edge">
<title>mirl_graphics-&gt;mirl_derive</title>
<path fill="none" stroke="black" stroke-dasharray="1,5" d="M1578.34,-228.34C1531.67,-200.34 1440.03,-145.36 1387.98,-114.12"/>
<polygon fill="black" stroke="black" points="1390.1,-111.32 1379.72,-109.17 1386.5,-117.32 1390.1,-111.32"/>
</g>
<!-- mirl_graphics&#45;&gt;mirl_collections -->
<g id="edge49" class="edge">
<title>mirl_graphics-&gt;mirl_collections</title>
<path fill="none" stroke="black" stroke-dasharray="1,5" d="M1560.29,-240.7C1509.87,-235.35 1427.56,-226.87 1356.44,-220.8 1078.74,-197.09 747.03,-175.61 609.31,-166.99"/>
<polygon fill="black" stroke="black" points="609.87,-163.52 599.67,-166.39 609.43,-170.51 609.87,-163.52"/>
</g>
<!-- mirl_gui -->
<g id="node24" class="node">
<title>mirl_gui</title>
<polygon fill="none" stroke="black" points="1643.55,-426.4 1579.33,-426.4 1579.33,-390.4 1643.55,-390.4 1643.55,-426.4"/>
<text xml:space="preserve" text-anchor="middle" x="1611.44" y="-404.2" font-family="Times,serif" font-size="14.00">mirl_gui</text>
</g>
<!-- mirl_gui&#45;&gt;mirl_windowing_core -->
<g id="edge58" class="edge">
<title>mirl_gui-&gt;mirl_windowing_core</title>
<path fill="none" stroke="black" d="M1578.87,-416.56C1525.23,-429.55 1414.71,-454.34 1319.44,-463.2 1297.09,-465.28 1240.39,-467.86 1218.44,-463.2 1197.88,-458.84 1178.1,-446.23 1163.01,-434.21"/>
<polygon fill="black" stroke="black" points="1165.34,-431.59 1155.42,-427.85 1160.84,-436.95 1165.34,-431.59"/>
</g>
<!-- mirl_gui&#45;&gt;mirl_buffer -->
<g id="edge52" class="edge">
<title>mirl_gui-&gt;mirl_buffer</title>
<path fill="none" stroke="black" d="M1643.78,-407.86C1676.38,-406.72 1726.59,-400.35 1760.44,-374.4 1777.4,-361.39 1801.47,-308.43 1815.37,-275.27"/>
<polygon fill="black" stroke="black" points="1818.5,-276.84 1819.09,-266.27 1812.03,-274.17 1818.5,-276.84"/>
</g>
<!-- mirl_gui&#45;&gt;mirl_build_tools -->
<g id="edge59" class="edge">
<title>mirl_gui-&gt;mirl_build_tools</title>
<path fill="none" stroke="#00cd00" d="M1643.83,-402.36C1660.45,-397.95 1679.28,-389.72 1689.44,-374.4 1697.38,-362.42 1685.78,-222.29 1684.44,-220.8 1647.75,-180.03 1492.37,-168.01 1401.78,-164.48"/>
<polygon fill="#00cd00" stroke="#00cd00" points="1402.16,-160.99 1392.04,-164.12 1401.9,-167.98 1402.16,-160.99"/>
</g>
<!-- mirl_gui&#45;&gt;mirl_derive -->
<g id="edge54" class="edge">
<title>mirl_gui-&gt;mirl_derive</title>
<path fill="none" stroke="black" stroke-dasharray="1,5" d="M1643.75,-406.41C1761.68,-401.57 2156.86,-373.84 2056.44,-220.8 1984.37,-110.98 1552.74,-94 1401.64,-91.44"/>
<polygon fill="black" stroke="black" points="1401.98,-87.94 1391.92,-91.29 1401.87,-94.94 1401.98,-87.94"/>
</g>
<!-- mirl_gui&#45;&gt;mirl_extensions -->
<g id="edge55" class="edge">
<title>mirl_gui-&gt;mirl_extensions</title>
<path fill="none" stroke="black" d="M1579.24,-403.71C1526.78,-397.89 1419.58,-386.79 1328.44,-382.4 1220.56,-377.2 463.37,-389.6 356.44,-374.4 316.37,-368.7 272.58,-356.43 238.58,-345.5"/>
<polygon fill="black" stroke="black" points="239.93,-342.26 229.34,-342.48 237.75,-348.91 239.93,-342.26"/>
</g>
<!-- mirl_gui&#45;&gt;mirl_graphics -->
<g id="edge56" class="edge">
<title>mirl_gui-&gt;mirl_graphics</title>
<path fill="none" stroke="black" d="M1583.84,-390.22C1578.82,-385.73 1574.28,-380.43 1571.44,-374.4 1558.4,-346.74 1563.03,-335 1571.44,-305.6 1574.54,-294.75 1580.34,-283.95 1586.38,-274.68"/>
<polygon fill="black" stroke="black" points="1589.22,-276.73 1592.06,-266.53 1583.48,-272.73 1589.22,-276.73"/>
</g>
<!-- mirl_rendering -->
<g id="node25" class="node">
<title>mirl_rendering</title>
<polygon fill="none" stroke="black" points="1680.42,-341.6 1580.45,-341.6 1580.45,-305.6 1680.42,-305.6 1680.42,-341.6"/>
<text xml:space="preserve" text-anchor="middle" x="1630.44" y="-319.4" font-family="Times,serif" font-size="14.00">mirl_rendering</text>
</g>
<!-- mirl_gui&#45;&gt;mirl_rendering -->
<g id="edge57" class="edge">
<title>mirl_gui-&gt;mirl_rendering</title>
<path fill="none" stroke="black" d="M1615.37,-390.24C1617.83,-379.55 1621.05,-365.52 1623.88,-353.17"/>
<polygon fill="black" stroke="black" points="1627.28,-354.02 1626.1,-343.49 1620.45,-352.46 1627.28,-354.02"/>
</g>
<!-- mirl_gui&#45;&gt;mirl_collections -->
<g id="edge53" class="edge">
<title>mirl_gui-&gt;mirl_collections</title>
<path fill="none" stroke="black" d="M1583.84,-390.04C1575.94,-385.03 1567.33,-379.53 1559.44,-374.4 1456.05,-307.23 1445.07,-260.77 1328.44,-220.8 1311.49,-214.99 794.8,-179.82 609.65,-167.37"/>
<polygon fill="black" stroke="black" points="609.92,-163.88 599.71,-166.7 609.46,-170.86 609.92,-163.88"/>
</g>
<!-- mirl_rendering&#45;&gt;mirl_buffer -->
<g id="edge64" class="edge">
<title>mirl_rendering-&gt;mirl_buffer</title>
<path fill="none" stroke="black" d="M1680.58,-308.48C1685.24,-307.41 1689.91,-306.43 1694.44,-305.6 1728.72,-299.33 1740.67,-311.92 1772.44,-297.6 1784.72,-292.06 1796.06,-282.61 1805.15,-273.42"/>
<polygon fill="black" stroke="black" points="1807.54,-275.99 1811.79,-266.29 1802.42,-271.22 1807.54,-275.99"/>
</g>
<!-- mirl_rendering&#45;&gt;mirl_buffer_interpolation -->
<g id="edge65" class="edge">
<title>mirl_rendering-&gt;mirl_buffer_interpolation</title>
<path fill="none" stroke="black" d="M1680.91,-323.38C1731.31,-322.79 1810.41,-318.14 1875.44,-297.6 1894.73,-291.51 1914.54,-280.93 1930.55,-271.09"/>
<polygon fill="black" stroke="black" points="1932.14,-274.22 1938.71,-265.91 1928.39,-268.31 1932.14,-274.22"/>
</g>
<!-- mirl_rendering&#45;&gt;mirl_build_tools -->
<g id="edge69" class="edge">
<title>mirl_rendering-&gt;mirl_build_tools</title>
<path fill="none" stroke="#00cd00" d="M1657.95,-305.39C1660.13,-303.03 1662.03,-300.43 1663.44,-297.6 1678.63,-267.03 1685.38,-246.95 1663.44,-220.8 1630.74,-181.84 1488.1,-169.13 1402.06,-164.99"/>
<polygon fill="#00cd00" stroke="#00cd00" points="1402.22,-161.5 1392.08,-164.54 1401.91,-168.49 1402.22,-161.5"/>
</g>
<!-- mirl_rendering&#45;&gt;mirl_derive -->
<g id="edge66" class="edge">
<title>mirl_rendering-&gt;mirl_derive</title>
<path fill="none" stroke="black" stroke-dasharray="1,5" d="M1677.57,-305.48C1680.2,-303.17 1682.55,-300.56 1684.44,-297.6 1702.82,-268.84 1703.07,-249.4 1684.44,-220.8 1622.49,-125.74 1479.42,-100.24 1401.81,-93.44"/>
<polygon fill="black" stroke="black" points="1402.14,-89.95 1391.9,-92.65 1401.59,-96.93 1402.14,-89.95"/>
</g>
<!-- mirl_rendering&#45;&gt;mirl_extensions -->
<g id="edge67" class="edge">
<title>mirl_rendering-&gt;mirl_extensions</title>
<path fill="none" stroke="black" d="M1586.54,-342.04C1552.96,-355.11 1505.16,-371.49 1461.44,-378.4 1431.37,-383.15 395.57,-382.75 365.44,-378.4 322.11,-372.15 274.8,-358.11 238.74,-345.8"/>
<polygon fill="black" stroke="black" points="239.95,-342.52 229.36,-342.55 237.66,-349.13 239.95,-342.52"/>
</g>
<!-- mirl_rendering&#45;&gt;mirl_graphics -->
<g id="edge68" class="edge">
<title>mirl_rendering-&gt;mirl_graphics</title>
<path fill="none" stroke="black" d="M1625.1,-305.25C1622.43,-296.57 1619.13,-285.83 1616.11,-276"/>
<polygon fill="black" stroke="black" points="1619.47,-275.03 1613.19,-266.5 1612.78,-277.09 1619.47,-275.03"/>
</g>
<!-- mirl_collections&#45;&gt;mirl_build_tools -->
<g id="edge20" class="edge">
<title>mirl_collections-&gt;mirl_build_tools</title>
<path fill="none" stroke="#00cd00" d="M598.12,-162C821.76,-162 1045.39,-162 1269.03,-162"/>
<polygon fill="#00cd00" stroke="#00cd00" points="1268.84,-165.5 1278.84,-162 1268.84,-158.5 1268.84,-165.5"/>
</g>
<!-- mirl_collections&#45;&gt;mirl_derive -->
<g id="edge17" class="edge">
<title>mirl_collections-&gt;mirl_derive</title>
<path fill="none" stroke="black" stroke-dasharray="1,5" d="M598.39,-146.44C602.78,-145.52 607.17,-144.69 611.44,-144 866.09,-102.88 1175.34,-93.66 1296.84,-91.59"/>
<polygon fill="black" stroke="black" points="1296.89,-95.09 1306.83,-91.44 1296.77,-88.1 1296.89,-95.09"/>
</g>
<!-- mirl_collections&#45;&gt;mirl_extensions_core -->
<g id="edge18" class="edge">
<title>mirl_collections-&gt;mirl_extensions_core</title>
<path fill="none" stroke="black" d="M490.8,-151.12C426.49,-139.27 318.11,-119.31 244.03,-105.66"/>
<polygon fill="black" stroke="black" points="244.86,-102.26 234.39,-103.89 243.6,-109.14 244.86,-102.26"/>
</g>
<!-- mirl_collections&#45;&gt;mirl_std_exposed -->
<g id="edge19" class="edge">
<title>mirl_collections-&gt;mirl_std_exposed</title>
<path fill="none" stroke="black" d="M534.51,-143.59C520.58,-119.18 495.14,-74.58 478.78,-45.89"/>
<polygon fill="black" stroke="black" points="481.94,-44.38 473.95,-37.43 475.86,-47.85 481.94,-44.38"/>
</g>
</g>
</svg>